<svg width="70" height="70" viewBox="0 0 70 70" fill="none" xmlns="http://www.w3.org/2000/svg">
<path d="M3.84016 46.8669L0.251289 58.5818H3.07535L3.72313 56.399H7.22395L7.85422 58.5818H10.9252L7.3366 46.8669H3.84016ZM4.43242 54.0425L5.49855 50.3989L6.55266 54.0425H4.43242Z" fill="#303F9F"/>
<path d="M17.6728 53.2372C17.6304 53.1918 17.5872 53.1489 17.5432 53.1087C17.6315 53.0753 17.7177 53.0398 17.8019 53.001C18.1437 52.844 18.4431 52.6337 18.6919 52.3775C18.9435 52.1189 19.1412 51.8071 19.2793 51.4508C19.416 51.0989 19.4854 50.6945 19.4854 50.2496C19.4854 49.6363 19.3747 49.1058 19.157 48.6725C18.9369 48.2341 18.6184 47.8732 18.2107 47.5995C17.815 47.3342 17.3337 47.1426 16.78 47.0302C16.2479 46.9222 15.6486 46.8669 14.9991 46.8669H11.3356V58.5818H14.1452V54.0045H14.2286C14.5359 54.0045 14.7921 54.072 15.0117 54.2115C15.2296 54.3496 15.3967 54.5533 15.5233 54.8355L17.2214 58.5818H20.4903L18.4272 54.4029C18.1773 53.8954 17.9304 53.5145 17.6728 53.2372ZM16.4508 50.9898C16.3696 51.1446 16.257 51.2715 16.1063 51.3776C15.9474 51.4891 15.7503 51.5747 15.5195 51.6321C15.2759 51.6931 14.9978 51.7237 14.6926 51.7237H14.1452V49.2576H14.7626C15.4057 49.2576 15.8837 49.3585 16.1831 49.5578C16.444 49.7315 16.5709 50.0241 16.5709 50.4528C16.5709 50.6601 16.5315 50.8359 16.4508 50.9898Z" fill="#303F9F"/>
<path d="M28.7219 48.2582C28.2488 47.7827 27.6522 47.4267 26.9486 47.2005C26.2629 46.9793 25.4557 46.8669 24.5498 46.8669H20.834V58.5818H24.0685C25.1122 58.5818 26.0252 58.4396 26.7818 58.1594C27.5502 57.8753 28.192 57.4629 28.6888 56.9341C29.1848 56.4064 29.5545 55.7616 29.7869 55.0181C30.015 54.2902 30.1304 53.4716 30.1304 52.5848C30.1304 51.6182 30.0147 50.7703 29.7861 50.0645C29.5526 49.3416 29.1946 48.734 28.7219 48.2582ZM26.4247 55.3777C25.9369 55.9196 25.2293 56.183 24.2613 56.183H23.6433V49.2658H24.4098C24.9514 49.2658 25.4062 49.3424 25.7608 49.4936C26.1048 49.6399 26.3709 49.8466 26.5743 50.1249C26.7821 50.4104 26.9328 50.7686 27.0219 51.1889C27.1157 51.6335 27.1636 52.1487 27.1636 52.7201C27.1636 53.9391 26.915 54.8333 26.4247 55.3777Z" fill="#303F9F"/>
<path d="M36.8982 54.3195C36.8982 54.7234 36.861 55.0676 36.7869 55.3427C36.718 55.5994 36.6166 55.8092 36.4848 55.9658C36.3584 56.1165 36.2039 56.2229 36.0128 56.291C35.8047 56.3653 35.5387 56.4028 35.2215 56.4028C34.886 56.4028 34.6093 56.3599 34.399 56.2748C34.1969 56.1928 34.0345 56.0755 33.9022 55.9166C33.7693 55.7567 33.6741 55.556 33.6191 55.3192C33.5579 55.0578 33.527 54.7501 33.527 54.404V46.8669H30.7177V54.5308C30.7177 55.1641 30.7962 55.7455 30.9504 56.2584C31.1109 56.7914 31.3756 57.2521 31.7373 57.627C32.0991 58.0016 32.5727 58.2914 33.145 58.4875C33.7012 58.6792 34.3733 58.7762 35.1425 58.7762C35.8302 58.7762 36.4613 58.6792 37.0174 58.4875C37.5862 58.2925 38.0764 57.9969 38.4748 57.6087C38.8735 57.2198 39.1828 56.7304 39.3941 56.154C39.602 55.588 39.7075 54.9251 39.7075 54.1839V46.8669H36.8982V54.3195Z" fill="#303F9F"/>
<path d="M41.1441 49.2237H43.6652V56.2084H41.1441V58.5818H49.0309V56.2084H46.5098V49.2237H49.0309V46.8669H41.1441V49.2237Z" fill="#303F9F"/>
<path d="M56.849 53.5421L53.7083 46.8669H50.5285V58.5818H53.145V51.7798L56.3024 58.5818H59.4661V46.8669H56.849V53.5421Z" fill="#303F9F"/>
<path d="M68.5612 48.253C67.7409 47.2099 66.5112 46.681 64.907 46.681C64.2206 46.681 63.566 46.8027 62.9612 47.0425C62.3479 47.2856 61.8059 47.664 61.3501 48.1683C60.8984 48.6681 60.5396 49.311 60.2845 50.0785C60.0321 50.8362 59.9041 51.7448 59.9041 52.7795C59.9041 54.6908 60.3107 56.1778 61.1125 57.1999C61.9328 58.2461 63.1624 58.7763 64.7667 58.7763C65.4533 58.7763 66.1084 58.6546 66.7133 58.4148C67.3269 58.1714 67.8686 57.7927 68.3238 57.2893C68.775 56.7897 69.1338 56.1472 69.3897 55.3791C69.6415 54.6217 69.7695 53.713 69.7695 52.6778C69.7695 50.761 69.3629 49.2721 68.5612 48.253ZM66.7122 54.34C66.6318 54.7723 66.5063 55.1368 66.3392 55.4236C66.1806 55.6968 65.9843 55.897 65.7396 56.0351C65.4957 56.1726 65.1919 56.2423 64.837 56.2423C64.1348 56.2423 63.6453 55.9809 63.3407 55.4436C63.006 54.8533 62.8362 53.923 62.8362 52.6778C62.8362 52.0932 62.8783 51.5679 62.962 51.1176C63.0424 50.6861 63.1687 50.3221 63.3382 50.0353C63.4996 49.761 63.6964 49.5603 63.9401 49.4217C64.1804 49.2847 64.482 49.2153 64.837 49.2153C65.5446 49.2153 66.0354 49.4761 66.337 50.0126C66.6693 50.6032 66.8377 51.5343 66.8377 52.7795C66.8377 53.3658 66.7956 53.8908 66.7122 54.34Z" fill="#303F9F"/>
<path d="M65.7111 12.7805H66.2096V14.0911H66.5632V12.7805H67.0657V12.4551H65.7111V12.7805Z" fill="#303F9F"/>
<path d="M68.2959 12.4551L67.955 13.5702L67.6022 12.4551H67.1409V14.0911H67.4734V13.046L67.8032 14.0911H68.1067L68.4195 13.073V14.0911H68.7504V12.4551H68.2959Z" fill="#303F9F"/>
<path d="M52.0283 44.1129C47.5746 44.1129 43.7667 42.6111 40.4154 39.5396C38.3452 37.6428 36.6384 35.3188 35.0681 32.9025C33.498 35.3188 31.7909 37.6428 29.721 39.5396C26.1201 42.8397 21.9918 44.3278 17.1021 44.088C7.77766 44.0475 0.204258 36.6887 0.204258 27.6495C0.204258 18.5853 7.81922 11.2109 17.1793 11.2109C22.3013 11.2109 26.6137 12.906 30.3617 16.3926C32.162 18.0674 33.6818 20.0102 35.0681 22.0429C36.4544 20.0102 37.9745 18.0674 39.7745 16.3926C43.5225 12.906 47.8349 11.2109 52.9569 11.2109C62.3172 11.2109 69.9319 18.5853 69.9319 27.6495C69.9319 36.6887 62.3588 44.0475 53.034 44.088C52.6952 44.1046 52.3597 44.1129 52.0283 44.1129ZM38.4781 27.4302C40.3359 30.4443 42.1389 33.2497 44.3352 35.2622C46.8141 37.5342 49.4271 38.4688 52.8049 38.2903L52.9569 38.2862C59.1177 38.2862 64.1301 33.5147 64.1301 27.6495C64.1301 21.7845 59.1177 17.0127 52.9569 17.0127C49.3199 17.0127 46.3868 18.1655 43.7262 20.6404C41.7391 22.4891 40.0985 24.8577 38.4781 27.4302ZM17.1793 17.0127C11.0184 17.0127 6.00605 21.7845 6.00605 27.6495C6.00605 33.5147 11.0184 38.2862 17.1793 38.2862L17.3316 38.2903C20.7096 38.4688 23.322 37.5342 25.801 35.2622C27.9973 33.2497 29.8006 30.4443 31.658 27.4302C30.0377 24.8577 28.397 22.4891 26.4102 20.6404C23.7494 18.1655 20.8162 17.0127 17.1793 17.0127Z" fill="#303F9F"/>
<path d="M53.7242 25.5409V22.3948H50.4495V25.5409H47.3036V28.7998H50.4495V31.9692H53.7242V28.7998H56.8703V25.5409H53.7242Z" fill="#303F9F"/>
<path d="M12.4685 25.5016H22.8091V28.8627H12.4685V25.5016Z" fill="#303F9F"/>
</svg>
