<svg width="151" height="44" viewBox="0 0 151 44" fill="none" xmlns="http://www.w3.org/2000/svg">
<path d="M150.652 25.7057C150.652 27.4814 150.089 28.9774 148.964 30.1935C147.839 31.4096 146.41 32.0175 144.677 32.0175L130.985 31.9886V28.3406H142.27C143.027 28.3406 143.663 28.157 144.179 27.7904C144.769 27.3658 145.064 26.7867 145.064 26.0532C145.064 24.3354 143.902 23.4765 141.579 23.4765H135.881C134.24 23.4765 132.801 22.9457 131.566 21.8841C130.33 20.8225 129.712 19.4713 129.712 17.8306C129.712 16.0163 130.312 14.5495 131.51 13.43C132.727 12.2912 134.323 11.7216 136.296 11.7216H149.379V15.196H137.845C137.328 15.196 136.803 15.4276 136.268 15.891C135.752 16.3347 135.493 16.8655 135.493 17.4831C135.493 18.1781 135.742 18.7669 136.24 19.2495C136.757 19.7126 137.374 19.9442 138.094 19.9442H144.373C146.327 19.9442 147.858 20.475 148.964 21.5366C150.089 22.5788 150.652 23.9688 150.652 25.7057ZM123.587 21.7105C123.587 19.7223 123.135 18.1396 122.231 16.962C121.217 15.6497 119.714 14.9933 117.723 14.9933C115.768 14.9933 114.293 15.698 113.297 17.1068C112.467 18.2843 112.052 19.8188 112.052 21.7105C112.052 23.8914 112.384 25.5033 113.048 26.5455C113.97 27.9931 115.676 28.717 118.165 28.717C120.268 28.717 121.743 28.0122 122.591 26.6034C123.255 25.5033 123.587 23.8723 123.587 21.7105ZM128.51 21.8261C128.51 25.7637 127.469 28.5819 125.385 30.2803C123.688 31.6508 121.217 32.3361 117.972 32.3361C114.376 32.3361 111.72 31.5446 110.005 29.9619C108.125 28.2247 107.184 25.4356 107.184 21.5946C107.184 18.4485 108.023 15.9972 109.701 14.2406C111.527 12.3298 114.256 11.3744 117.889 11.3744C121.89 11.3744 124.712 12.2912 126.353 14.1247C127.791 15.7462 128.51 18.3132 128.51 21.8261ZM105.938 20.1181H102.204V26.9218C102.204 27.5394 102.407 28.0511 102.812 28.4563C103.273 28.8617 103.882 29.0642 104.638 29.0642H105.772V31.9886H102.204C101.134 31.9886 100.221 31.5832 99.4653 30.7725C99.0228 30.29 98.7368 29.7592 98.6079 29.1801C98.4788 28.601 98.4143 27.9157 98.4143 27.1245V20.1181H95.9801V16.9912H98.4143V11.7216H102.204V16.9912H105.938V20.1181ZM94.8952 31.9886H91.0503V22.1157C91.0503 21.8647 90.995 21.6428 90.8844 21.4498C90.7738 21.2373 90.6169 21.0349 90.4142 20.8419C90.0455 20.5138 89.6212 20.3496 89.1419 20.3496H85.38V31.9886H81.5352V16.9912H88.893C90.202 16.9912 91.1519 17.0682 91.7418 17.2227C92.664 17.4543 93.4016 17.966 93.9548 18.7572C94.5818 19.6838 94.8952 20.6971 94.8952 21.7973V31.9886ZM79.1218 32.0754H72.3725C70.7312 32.0754 69.3021 31.3419 68.0851 29.8751C66.8864 28.3889 66.287 26.6805 66.287 24.7503C66.287 22.6465 66.9417 20.8322 68.2511 19.3074C69.5787 17.7632 71.054 16.9912 72.6768 16.9912H79.0942V20.0889H74.3916C73.8016 20.0889 73.2944 20.1469 72.8704 20.2628C72.4646 20.3593 72.0868 20.5621 71.7364 20.8707C71.0908 21.4498 70.7683 22.2316 70.7683 23.2158H79.0665V26.3427H70.796C70.796 26.8062 70.8419 27.2016 70.9343 27.5297C71.0449 27.8386 71.2568 28.157 71.5704 28.4854C71.8838 28.794 72.2528 29.0065 72.6768 29.1221C73.1193 29.2186 73.6542 29.2669 74.281 29.2669H79.1218V32.0754ZM64.8867 31.9886H56.3396C55.4728 31.9886 54.6154 31.863 53.7671 31.6123C52.1261 31.0912 50.8258 29.8942 49.8669 28.022C49.0004 26.3236 48.5669 24.3451 48.5669 22.0868C48.5669 19.9056 48.9542 17.9754 49.7286 16.2962C50.5769 14.4433 51.7848 13.179 53.3522 12.5034C54.5695 11.9823 55.8141 11.7219 57.0864 11.7219H64.8314V15.6015H56.7822C55.4728 15.6015 54.5233 16.3444 53.933 17.8306C53.4722 18.9888 53.2415 20.5041 53.2415 22.3764C53.2415 23.9591 53.5367 25.3005 54.1266 26.4007C54.809 27.6939 55.7679 28.3406 57.0034 28.3406L64.8867 28.3115V31.9886Z" fill="#303F9F"/>
<path d="M17.8224 20.4551L19.3528 21.9769L17.8224 23.4984H7.04996V28.5682L0.480438 21.9769L7.04996 15.4962V20.4551H17.8224Z" fill="white"/>
<path d="M22.7005 18.6672L21.1789 20.1975L19.6574 18.6672V7.89471H14.5874L21.1789 1.3252L27.6593 7.89471H22.7005V18.6672Z" fill="white"/>
<path d="M24.4886 23.5452L22.958 22.0237L24.4886 20.5022H35.2608V15.4321L41.8306 22.0237L35.2608 28.5041V23.5452H24.4886Z" fill="white"/>
<path d="M19.6104 25.3334L21.1319 23.8027L22.6537 25.3334V36.1058H27.7235L21.1319 42.6754L14.6519 36.1058H19.6104V25.3334Z" fill="white"/>
<path d="M6.66389 7.50867H19.7529V20.598H6.66389V7.50867Z" fill="white"/>
<path d="M6.19641 7.04114H20.2205V21.0652H6.19641V7.04114ZM7.13121 20.1304H19.2854V7.97624H7.13121V20.1304Z" fill="#303F9F"/>
<path d="M22.5576 7.50867H35.6466V20.598H22.5576V7.50867Z" fill="white"/>
<path d="M22.0904 7.04114H36.1145V21.0652H22.0904V7.04114ZM23.0252 20.1304H35.1794V7.97624H23.0252V20.1304Z" fill="#303F9F"/>
<path d="M22.5576 23.4023H35.6466V36.4917H22.5576V23.4023Z" fill="white"/>
<path d="M22.0904 22.9351H36.1145V36.9595H22.0904V22.9351ZM23.0252 36.0241H35.1794V23.8699H23.0252V36.0241Z" fill="#303F9F"/>
<path d="M6.66389 23.4023H19.7529V36.4917H6.66389V23.4023Z" fill="white"/>
<path d="M6.19641 22.9351H20.2205V36.9595H6.19641V22.9351ZM7.13121 36.0241H19.2854V23.8699H7.13121V36.0241Z" fill="#303F9F"/>
<path d="M9.9168 31.9168L0 22L9.91651 12.0835L19.8333 22L9.9168 31.9168ZM1.32232 22L9.9168 30.5945L18.511 22L9.91651 13.4058L1.32232 22Z" fill="#303F9F"/>
<path d="M21.1553 20.678L11.2388 10.7615L21.1553 0.844727L31.0718 10.7615L21.1553 20.678ZM12.5611 10.7615L21.1553 19.3557L29.7498 10.7615L21.1553 2.16705L12.5611 10.7615Z" fill="#303F9F"/>
<path d="M32.3941 31.9168L22.4776 22L32.3941 12.0835L42.3106 22L32.3941 31.9168ZM23.7997 22L32.3941 30.5945L40.9883 22L32.3941 13.4058L23.7997 22Z" fill="#303F9F"/>
<path d="M21.1553 43.1554L11.2388 33.2389L21.1553 23.3224L31.0718 33.2389L21.1553 43.1554ZM12.5611 33.2389L21.1553 41.8331L29.7498 33.2389L21.1553 24.6447L12.5611 33.2389Z" fill="#303F9F"/>
</svg>
