<?xml version="1.0" encoding="utf-8"?>
<!-- Generator: Adobe Illustrator 24.3.0, SVG Export Plug-In . SVG Version: 6.00 Build 0)  -->
<svg version="1.1" id="Layer_1" xmlns="http://www.w3.org/2000/svg" xmlns:xlink="http://www.w3.org/1999/xlink" x="0px" y="0px"
	 viewBox="0 0 591.1 284.2" style="enable-background:new 0 0 591.1 284.2;" xml:space="preserve">
<style type="text/css">
	.st0{fill:none;}
	.st1{fill:#F89422;}
</style>
<g>
	<circle class="st0" cx="391.2" cy="104.1" r="38.4"/>
	<path class="st0" d="M207.2,219.7c-7.4,0-13.6,5.3-15,12.3h30C220.8,225,214.6,219.7,207.2,219.7z"/>
	<circle class="st0" cx="390.1" cy="234.9" r="15.5"/>
	<circle class="st0" cx="454.1" cy="234.9" r="15.5"/>
	<circle class="st0" cx="503.1" cy="234.9" r="15.5"/>
	<path class="st0" d="M58.1,65.7c-10.6,0-19.6,3.7-27.2,11.2c-7.5,7.5-11.3,16.6-11.3,27.2c0,10.5,3.8,19.6,11.3,27.1
		c7.5,7.5,16.6,11.3,27.2,11.3c10.6,0,19.6-3.8,27.2-11.3c7.5-7.5,11.2-16.5,11.2-27.1c0-10.6-3.7-19.7-11.2-27.2
		C77.7,69.5,68.6,65.7,58.1,65.7z"/>
	<circle class="st0" cx="173.5" cy="104.1" r="38.4"/>
	<path class="st1" d="M58.1,54.8c-13.6,0-25.3,4.8-34.9,14.5c-9.6,9.6-14.5,21.2-14.5,34.9c0,13.6,4.8,25.2,14.5,34.9
		c9.6,9.6,21.3,14.4,34.9,14.4c14.8,0,27.6-5.9,38.4-17.8v18.5c0,6.2-2.6,12.4-7.8,18.6c-8.2,8.2-18.2,12.4-29.8,12.4
		c-5.8,0-11.1-1-16.1-3c-5-2-9.5-5.1-13.6-9.2c-2.5-2.5-4.7-5.3-6.6-8.3c-0.3-0.4-0.5-0.9-0.8-1.3l-9.7,5.4c0.2,0.4,0.4,0.7,0.6,1.1
		c2.3,3.9,5.2,7.5,8.7,10.8C31.6,190.8,44.1,196,58.9,196c14.7,0,27.2-5.2,37.6-15.5c7.4-7.5,11-16.3,11-26.4v-49.9
		c0-13.6-4.8-25.3-14.5-34.9C83.4,59.6,71.7,54.8,58.1,54.8z M85.2,131.2c-7.5,7.5-16.6,11.3-27.2,11.3c-10.6,0-19.6-3.8-27.2-11.3
		c-7.5-7.5-11.3-16.6-11.3-27.1c0-10.6,3.8-19.6,11.3-27.2c7.5-7.5,16.6-11.2,27.2-11.2c10.6,0,19.6,3.7,27.2,11.2
		c7.5,7.5,11.2,16.5,11.2,27.2C96.4,114.7,92.7,123.8,85.2,131.2z"/>
	<rect x="307.7" y="12.3" class="st1" width="11" height="141.4"/>
	<path class="st1" d="M223,104.1c0-27.3-22.1-49.5-49.5-49.5s-49.5,22.1-49.5,49.5c0,27.3,22.1,49.5,49.5,49.5S223,131.4,223,104.1z
		 M135.1,104.1c0-21.2,17.2-38.4,38.4-38.4S212,82.9,212,104.1c0,21.2-17.2,38.4-38.4,38.4S135.1,125.3,135.1,104.1z"/>
	<path class="st1" d="M391.2,54.7c-27.3,0-49.5,22.1-49.5,49.5c0,27.3,22.1,49.5,49.5,49.5s49.5-22.1,49.5-49.5
		C440.7,76.8,418.5,54.7,391.2,54.7z M391.2,142.6c-21.2,0-38.4-17.2-38.4-38.4c0-21.2,17.2-38.4,38.4-38.4s38.4,17.2,38.4,38.4
		C429.7,125.3,412.4,142.6,391.2,142.6z"/>
	<polygon class="st1" points="492.2,153.6 517.5,77.7 542.9,153.6 550.8,153.6 583.1,56.9 572.6,53.3 546.8,130.8 521.5,54.8 
		513.6,54.8 488.3,130.8 462.4,53.3 452,56.8 484.3,153.6 	"/>
	<path class="st1" d="M248,153.6h11V70.1h30.6v-11H259v-6.3c0-16.3,13.3-29.6,29.6-29.6h9.3v-11h-9.3c-22.4,0-40.6,18.2-40.6,40.6
		v6.3h-17v11h17V153.6z"/>
	<rect x="419.3" y="198.4" class="st1" width="6" height="57.2"/>
	<path class="st1" d="M390.1,213.4c-11.8,0-21.5,9.6-21.5,21.5s9.6,21.5,21.5,21.5s21.5-9.6,21.5-21.5S402,213.4,390.1,213.4z
		 M390.1,250.3c-8.5,0-15.5-6.9-15.5-15.5s6.9-15.5,15.5-15.5s15.5,6.9,15.5,15.5S398.7,250.3,390.1,250.3z"/>
	<path class="st1" d="M454.1,213.4c-11.8,0-21.5,9.6-21.5,21.5s9.6,21.5,21.5,21.5s21.5-9.6,21.5-21.5S466,213.4,454.1,213.4z
		 M454.1,250.3c-8.5,0-15.5-6.9-15.5-15.5s6.9-15.5,15.5-15.5s15.5,6.9,15.5,15.5S462.7,250.3,454.1,250.3z"/>
	<path class="st1" d="M503.1,213.4c-11.8,0-21.5,9.6-21.5,21.5s9.6,21.5,21.5,21.5c6.1,0,11.6-2.6,15.5-6.6v4.5
		c0,7.7-6.9,13.9-15.5,13.9c-6.3,0-11.9-3.4-14.3-8.6l-5.4,2.5c3.4,7.3,11.1,12.1,19.8,12.1c11.8,0,21.5-8.9,21.5-19.9v-19.8h0
		C524.3,222.8,514.8,213.4,503.1,213.4z M503.1,250.3c-8.5,0-15.5-6.9-15.5-15.5s6.9-15.5,15.5-15.5s15.5,6.9,15.5,15.5
		S511.6,250.3,503.1,250.3z"/>
	<path class="st1" d="M207.2,213.7c-11.8,0-21.3,9.6-21.3,21.3s9.6,21.3,21.3,21.3c7,0,13.6-3.5,17.6-9.3l-5-3.4
		c-2.9,4.2-7.6,6.7-12.7,6.7c-7.4,0-13.6-5.3-15-12.3h36.3v-3C228.5,223.3,218.9,213.7,207.2,213.7z M192.1,232
		c1.4-7,7.6-12.3,15-12.3s13.6,5.3,15,12.3H192.1z"/>
	<path class="st1" d="M255.9,250.3c-8.5,0-15.4-6.9-15.4-15.4s6.9-15.4,15.4-15.4c5.1,0,9.9,2.5,12.7,6.7l5-3.4
		c-4-5.9-10.6-9.4-17.7-9.4c-11.8,0-21.4,9.6-21.4,21.4s9.6,21.4,21.4,21.4c7.4,0,14.1-3.7,18.1-10l-5.1-3.2
		C266.1,247.7,261.2,250.3,255.9,250.3z"/>
	<path class="st1" d="M173.4,250c-3.2,0-5.9-2.6-5.9-5.9v-23.7h9.7v-6h-9.7v-13.9h-6v13.9h-5.9v6h5.9v23.7c0,6.6,5.3,11.9,11.9,11.9
		c3.3,0,6.5-1.4,8.8-3.9l-4.4-4.1C176.6,249.3,175,250,173.4,250z"/>
	<path class="st1" d="M548.5,248.2l-14.4-35.4l-5.6,2.3l16.8,41.3l-2.6,6.7c-0.8,2.2-2.9,3.7-5.3,3.7c-0.7,0-1.4-0.1-2.1-0.4
		l-2.3,5.6c1.4,0.6,2.8,0.8,4.3,0.8c4.9,0,9.3-3.1,10.9-7.6l19.5-50.1l-5.6-2.2L548.5,248.2z"/>
	<path class="st1" d="M343.5,212.9c-4.5,0-8.5,2.1-11.5,5.2v-4.2h-6v41.7h6v-23.2c0-6.2,5-13.5,11.5-13.5c6.3,0,11.5,5.2,11.5,11.5
		v25.2h6v-25.2C361,220.8,353.1,212.9,343.5,212.9z"/>
	<path class="st1" d="M298.5,212.9c-4.5,0-8.5,2.1-11.5,5.2v-19.7h-6v57.2h6v-23.2c0-6.2,5-13.5,11.5-13.5c6.3,0,11.5,5.2,11.5,11.5
		v25.2h6v-25.2C316,220.8,308.2,212.9,298.5,212.9z"/>
</g>
</svg>
