<svg width="1440" height="468" viewBox="0 0 1440 468" fill="none" xmlns="http://www.w3.org/2000/svg">
<g clip-path="url(#clip0_931_83)">
<rect width="1440" height="468" fill="#303F9F"/>
<path d="M1128.29 310.906C1113.17 310.902 1098.21 306.402 1085.29 297.977C1072.36 289.552 1062.07 277.58 1055.7 263.574C1049.32 249.568 1047.17 234.158 1049.49 219.293C1051.82 204.427 1058.53 190.774 1068.77 180.059C1079.01 169.345 1092.33 162.05 1107.03 159.098C1121.74 156.145 1137.17 157.668 1151.38 163.473C1165.59 169.278 1177.94 179.105 1186.86 191.71C1195.79 204.316 1200.89 219.135 1201.52 234.293C1202.37 254.618 1195.14 274.109 1181.4 288.477C1167.67 302.845 1148.56 310.913 1128.29 310.906ZM1123.48 195.949C1115.93 195.947 1108.63 198.192 1102.52 202.4C1096.41 206.609 1091.76 212.592 1089.16 219.593C1086.56 226.594 1086.13 234.298 1087.92 241.732C1089.7 249.166 1093.63 255.995 1099.2 261.355C1104.76 266.716 1111.73 270.368 1119.2 271.849C1126.68 273.33 1134.33 272.573 1141.19 269.675C1148.06 266.777 1153.82 261.867 1157.75 255.567C1161.69 249.267 1163.62 241.859 1163.31 234.28C1162.88 224.117 1158.45 214.37 1150.98 207.181C1143.51 199.992 1133.62 195.952 1123.48 195.949ZM1350.47 451.224C1405.36 393.758 1434.29 315.825 1430.89 234.557C1427.49 153.289 1392.05 75.3362 1332.35 17.8338C1330.5 16.0375 1328.32 14.6114 1325.95 13.638C1323.59 12.6645 1321.07 12.1629 1318.54 12.1621C1316.02 12.1613 1313.54 12.6613 1311.26 13.6333C1308.97 14.6053 1306.91 16.03 1305.21 17.8252C1303.46 19.5448 1302.09 21.6219 1301.19 23.9283C1300.29 26.2347 1299.88 28.7214 1299.98 31.235C1300.09 33.7487 1300.71 36.2357 1301.8 38.5428C1302.89 40.8498 1304.44 42.9279 1306.34 44.6486C1332.22 69.5647 1353.17 99.1421 1367.97 131.692C1382.78 164.242 1391.16 199.126 1392.63 234.353C1394.11 269.581 1388.65 304.461 1376.56 337.002C1364.48 369.543 1346 399.108 1322.2 424.008C1320.48 425.789 1319.15 427.908 1318.28 430.242C1317.41 432.576 1317.01 435.081 1317.12 437.61C1317.22 440.139 1317.83 442.644 1318.89 444.979C1319.96 447.314 1321.47 449.433 1323.34 451.215C1325.15 453.02 1327.28 454.459 1329.62 455.447C1331.96 456.435 1334.45 456.952 1336.95 456.967C1342.12 456.956 1346.98 454.89 1350.47 451.224ZM1266.05 369.961C1300.37 334.043 1318.46 285.325 1316.34 234.521C1314.21 183.716 1292.05 134.986 1254.72 99.0446C1252.87 97.2483 1250.7 95.8222 1248.33 94.8488C1245.96 93.8753 1243.44 93.3737 1240.92 93.3729C1238.4 93.3721 1235.92 93.8721 1233.63 94.8441C1231.34 95.8161 1229.29 97.2408 1227.59 99.036C1225.83 100.756 1224.46 102.833 1223.56 105.139C1222.66 107.445 1222.25 109.932 1222.36 112.446C1222.46 114.959 1223.08 117.447 1224.17 119.754C1225.27 122.061 1226.81 124.139 1228.71 125.859C1243.52 140.099 1255.5 157.007 1263.97 175.617C1272.44 194.227 1277.24 214.174 1278.08 234.317C1278.92 254.46 1275.8 274.404 1268.88 293.009C1261.97 311.614 1251.4 328.515 1237.78 342.746C1236.06 344.526 1234.73 346.645 1233.86 348.98C1232.99 351.314 1232.59 353.818 1232.7 356.347C1232.8 358.877 1233.41 361.381 1234.47 363.716C1235.54 366.051 1237.05 368.171 1238.92 369.952C1240.73 371.758 1242.86 373.197 1245.2 374.184C1247.54 375.172 1250.03 375.689 1252.53 375.705C1257.7 375.694 1262.56 373.628 1266.05 369.961ZM1022.6 369.884C1024.32 368.103 1025.65 365.984 1026.52 363.65C1027.4 361.315 1027.79 358.811 1027.69 356.282C1027.58 353.753 1026.98 351.248 1025.91 348.913C1024.84 346.578 1023.33 344.459 1021.46 342.677C991.907 313.966 974.378 275.194 972.688 234.794C970.999 194.394 985.286 155.633 1012.44 126.94C1014.2 125.22 1015.57 123.143 1016.47 120.837C1017.37 118.531 1017.78 116.044 1017.67 113.53C1017.57 111.017 1016.95 108.529 1015.86 106.222C1014.76 103.915 1013.22 101.837 1011.32 100.117C1009.47 98.3202 1007.3 96.8942 1004.93 95.9207C1002.56 94.9473 1000.04 94.4457 997.516 94.4449C994.993 94.4441 992.517 94.9441 990.229 95.9161C987.941 96.888 985.887 98.3127 984.185 100.108C949.864 136.026 931.777 184.744 933.901 235.548C936.026 286.353 958.189 335.083 995.515 371.024C999.314 374.694 1004.35 376.762 1009.51 376.777C1012.09 376.617 1014.59 375.923 1016.84 374.736C1019.09 373.55 1021.05 371.897 1022.6 369.884ZM944.977 451.094C946.693 449.314 948.026 447.195 948.899 444.861C949.771 442.526 950.166 440.022 950.06 437.493C949.954 434.963 949.35 432.459 948.282 430.124C947.215 427.789 945.704 425.669 943.839 423.888C917.952 398.972 897.007 369.394 882.2 336.844C867.392 304.295 859.013 269.41 857.54 234.183C856.066 198.956 861.528 164.075 873.614 131.534C885.699 98.9931 904.17 69.4282 927.974 44.528C929.73 42.8084 931.1 40.7313 932 38.4249C932.899 36.1185 933.309 33.6317 933.204 31.1181C933.099 28.6045 932.481 26.1174 931.388 23.8104C930.296 21.5033 928.752 19.4253 926.852 17.7046C925.001 15.9082 922.828 14.4822 920.458 13.5087C918.089 12.5353 915.57 12.0337 913.048 12.0329C910.525 12.0321 908.048 12.5321 905.76 13.504C903.472 14.476 901.419 15.9007 899.717 17.6959C844.826 75.1617 815.901 153.094 819.299 234.362C822.698 315.63 858.142 393.583 917.842 451.086C921.641 454.755 926.676 456.824 931.841 456.838C934.339 456.824 936.789 456.309 939.045 455.322C941.301 454.336 943.318 452.898 944.977 451.094Z" fill="#7986CB" fill-opacity="0.15"/>
</g>
<defs>
<clipPath id="clip0_931_83">
<rect width="1440" height="468" fill="white"/>
</clipPath>
</defs>
</svg>
