<svg width="25" height="25" viewBox="0 0 25 25" fill="none" xmlns="http://www.w3.org/2000/svg">
<path d="M11.25 17.5C11.25 18.1904 11.8096 18.75 12.5 18.75C13.1904 18.75 13.75 18.1904 13.75 17.5H11.25ZM7.76959 15.4903C8.4437 15.3414 8.86948 14.6742 8.72059 14.0001C8.57169 13.326 7.90452 12.9002 7.23041 13.0491L7.76959 15.4903ZM17.7696 13.0491C17.0955 12.9002 16.4283 13.326 16.2794 14.0001C16.1305 14.6742 16.5562 15.3414 17.2304 15.4903L17.7696 13.0491ZM16.25 6.25C16.25 8.32106 14.5711 10 12.5 10V12.5C15.9517 12.5 18.75 9.70177 18.75 6.25H16.25ZM12.5 10C10.4289 10 8.75 8.32106 8.75 6.25H6.25C6.25 9.70177 9.04823 12.5 12.5 12.5V10ZM8.75 6.25C8.75 4.17894 10.4289 2.5 12.5 2.5V0C9.04823 0 6.25 2.79822 6.25 6.25H8.75ZM12.5 2.5C14.5711 2.5 16.25 4.17894 16.25 6.25H18.75C18.75 2.79822 15.9517 0 12.5 0V2.5ZM11.25 11.25V17.5H13.75V11.25H11.25ZM22.5 18.75C22.5 19.0336 22.3759 19.3979 21.9604 19.8345C21.5389 20.2775 20.8697 20.7332 19.9473 21.1432C18.1055 21.9618 15.4736 22.5 12.5 22.5V25C15.7396 25 18.7326 24.4189 20.9626 23.4278C22.076 22.9329 23.0544 22.3114 23.7714 21.5579C24.4945 20.7981 25 19.8471 25 18.75H22.5ZM12.5 22.5C9.52643 22.5 6.89447 21.9618 5.05272 21.1432C4.13028 20.7332 3.46115 20.2775 3.03958 19.8345C2.62413 19.3979 2.5 19.0336 2.5 18.75H0C0 19.8471 0.505475 20.7981 1.22859 21.5579C1.94556 22.3114 2.92397 22.9329 4.03737 23.4278C6.26732 24.4189 9.26036 25 12.5 25V22.5ZM2.5 18.75C2.5 18.353 2.76006 17.7668 3.70445 17.1033C4.62661 16.4555 6.0193 15.8769 7.76959 15.4903L7.23041 13.0491C5.27641 13.4807 3.5441 14.1606 2.26732 15.0576C1.01279 15.939 0 17.1838 0 18.75H2.5ZM17.2304 15.4903C18.9807 15.8769 20.3734 16.4555 21.2955 17.1033C22.24 17.7668 22.5 18.353 22.5 18.75H25C25 17.1838 23.9872 15.939 22.7326 15.0576C21.4559 14.1606 19.7236 13.4807 17.7696 13.0491L17.2304 15.4903Z" fill="#303F9F"/>
</svg>
