<svg width="25" height="20" viewBox="0 0 25 20" fill="none" xmlns="http://www.w3.org/2000/svg">
<path fill-rule="evenodd" clip-rule="evenodd" d="M7.7381 7.5C7.7381 4.73857 9.87007 2.5 12.5 2.5C15.1299 2.5 17.2619 4.73857 17.2619 7.5V8.75H18.4524C20.7536 8.75 22.619 10.7087 22.619 13.125C22.619 15.5413 20.7536 17.5 18.4524 17.5H17.2619C16.6044 17.5 16.0714 18.0596 16.0714 18.75C16.0714 19.4404 16.6044 20 17.2619 20H18.4524C22.0686 20 25 16.922 25 13.125C25 9.72412 22.6482 6.89996 19.559 6.3478C19.0312 2.75266 16.0718 0 12.5 0C8.92826 0 5.96882 2.75266 5.44091 6.3478C2.3518 6.89996 0 9.72412 0 13.125C0 16.922 2.93146 20 6.54762 20H7.7381C8.39557 20 8.92857 19.4404 8.92857 18.75C8.92857 18.0596 8.39557 17.5 7.7381 17.5H6.54762C4.24643 17.5 2.38095 15.5413 2.38095 13.125C2.38095 10.7087 4.24643 8.75 6.54762 8.75H7.7381V7.5ZM16.9132 11.6161L13.3418 7.86613C12.8769 7.37796 12.1231 7.37796 11.6582 7.86613L8.08677 11.6161C7.62187 12.1042 7.62187 12.8958 8.08677 13.3839C8.55169 13.872 9.30545 13.872 9.77037 13.3839L11.3095 11.7677V18.75C11.3095 19.4404 11.8425 20 12.5 20C13.1575 20 13.6905 19.4404 13.6905 18.75V11.7677L15.2296 13.3839C15.6945 13.872 16.4483 13.872 16.9132 13.3839C17.3781 12.8958 17.3781 12.1042 16.9132 11.6161Z" fill="#303F9F"/>
</svg>
