<svg width="25" height="28" viewBox="0 0 25 28" fill="none" xmlns="http://www.w3.org/2000/svg">
<path d="M10 0.73584C8.6125 0.73584 7.5 1.91131 7.5 3.37735V7.33961C7.5 8.80565 8.6125 9.98112 10 9.98112H11.25V12.6226H0V15.2641H5V17.9057H3.75C2.3625 17.9057 1.25 19.0811 1.25 20.5472V24.5094C1.25 25.9755 2.3625 27.1509 3.75 27.1509H8.75C10.1375 27.1509 11.25 25.9755 11.25 24.5094V20.5472C11.25 19.0811 10.1375 17.9057 8.75 17.9057H7.5V15.2641H17.5V17.9057H16.25C14.8625 17.9057 13.75 19.0811 13.75 20.5472V24.5094C13.75 25.9755 14.8625 27.1509 16.25 27.1509H21.25C22.6375 27.1509 23.75 25.9755 23.75 24.5094V20.5472C23.75 19.0811 22.6375 17.9057 21.25 17.9057H20V15.2641H25V12.6226H13.75V9.98112H15C16.3875 9.98112 17.5 8.80565 17.5 7.33961V3.37735C17.5 1.91131 16.3875 0.73584 15 0.73584H10ZM10 3.37735H15V7.33961H10V3.37735ZM3.75 20.5472H8.75V24.5094H3.75V20.5472ZM16.25 20.5472H21.25V24.5094H16.25V20.5472Z" fill="#303F9F"/>
</svg>
