<svg width="31" height="31" viewBox="0 0 31 31" fill="none" xmlns="http://www.w3.org/2000/svg">
<path d="M25.875 25.8125H21.43V18.85C21.43 17.19 21.4 15.0525 19.1175 15.0525C16.8025 15.0525 16.4475 16.8625 16.4475 18.7275V25.8125H12.0025V11.495H16.27V13.4525H16.33C17.2 11.9675 18.82 11.0775 20.54 11.14C25.045 11.14 25.8775 14.1025 25.8775 17.96L25.875 25.81V25.8125ZM6.9875 9.53754C6.30469 9.53426 5.65073 9.26172 5.16767 8.77913C4.68461 8.29654 4.41144 7.64285 4.4075 6.96004C4.4075 5.54504 5.5725 4.38004 6.9875 4.38004C8.4025 4.38004 9.565 5.54504 9.5675 6.96004C9.5675 8.37504 8.4025 9.53754 6.9875 9.53754ZM9.21 25.8125H4.76V11.495H9.21V25.8125ZM28.0875 0.250037H2.525C1.94538 0.246671 1.38784 0.472186 0.973558 0.877578C0.559272 1.28297 0.321712 1.83548 0.3125 2.41504V28.085C0.321712 28.6646 0.559272 29.2171 0.973558 29.6225C1.38784 30.0279 1.94538 30.2534 2.525 30.25H28.09C28.671 30.2547 29.2303 30.03 29.6465 29.6246C30.0626 29.2192 30.302 28.6659 30.3125 28.085V2.41254C30.302 1.8321 30.0625 1.27936 29.6462 0.874759C29.2298 0.470159 28.6705 0.246504 28.09 0.252537L28.0875 0.250037Z" fill="#0073af"/>
</svg>
