<svg width="23" height="25" viewBox="0 0 23 25" fill="none" xmlns="http://www.w3.org/2000/svg">
<path d="M10.4962 5.89765C10.4729 5.95766 10.3649 5.94849 10.3034 5.96599C10.2485 5.99183 10.2038 6.03684 10.1405 6.03684C10.0828 6.03684 9.98964 6.016 9.98219 5.96599C9.97101 5.89765 10.0846 5.82764 10.1563 5.82764C10.2029 5.80763 10.2569 5.7968 10.3137 5.7968C10.3658 5.7968 10.4152 5.80597 10.4599 5.82347L10.4571 5.82264C10.4776 5.83014 10.4925 5.84764 10.4925 5.86848C10.4925 5.87098 10.4925 5.87265 10.4915 5.87515V5.89598H10.4953L10.4962 5.89765ZM11.1368 5.89765V5.87515C11.1294 5.85431 11.1517 5.83181 11.1704 5.82347C11.2132 5.8068 11.2635 5.7968 11.3166 5.7968C11.3734 5.7968 11.4274 5.80847 11.4749 5.82847L11.473 5.82764C11.5466 5.82764 11.6592 5.89765 11.6471 5.96849C11.6406 6.01934 11.5484 6.03684 11.4898 6.03684C11.4255 6.03684 11.3827 5.99183 11.3259 5.96599C11.2653 5.94682 11.1564 5.95766 11.1359 5.89848L11.1368 5.89765ZM12.3958 7.54626C11.9004 7.82714 11.3147 8.02467 10.6871 8.10135L10.6647 8.10385C10.1004 8.07468 9.58737 7.89715 9.16834 7.61377L9.17486 7.61794C8.99607 7.47875 8.84895 7.33872 8.74093 7.26871C8.55004 7.12952 8.57332 6.92199 8.65526 6.92199C8.7819 6.93866 8.80518 7.06118 8.88713 7.13035C8.99887 7.1987 9.13761 7.33872 9.30615 7.47708C9.67583 7.75046 10.1433 7.92799 10.6564 7.96299L10.6647 7.96383C11.2737 7.91632 11.8278 7.74129 12.3064 7.47041L12.2915 7.47875C12.5187 7.33789 12.8092 7.13119 13.0457 6.992C13.2273 6.85031 13.2189 6.71362 13.3707 6.71362C13.5197 6.73029 13.4108 6.85281 13.1994 7.05951C12.9703 7.2162 12.7087 7.37706 12.4377 7.52625L12.3967 7.54709L12.3958 7.54626ZM4.06551 16.997H4.07668C4.14093 16.997 4.20425 17.0028 4.26571 17.0128L4.25919 17.012C4.76575 17.1287 5.18291 17.4104 5.44457 17.788L5.44923 17.7955L6.50798 19.5283L6.5117 19.5316C6.93725 20.1759 7.39445 20.7335 7.90567 21.2477L7.89542 21.2369C8.3517 21.6703 8.65899 22.2337 8.74186 22.8588L8.74372 22.8721V22.8788C8.73255 23.5598 8.17291 24.1215 7.44381 24.2257L7.43542 24.2265C7.24919 24.2524 7.03316 24.2665 6.81433 24.2665C6.01632 24.2665 5.26951 24.0723 4.62887 23.7331L4.64842 23.7431C3.66789 23.3756 2.53 23.148 1.3381 23.1164H1.32413C0.977733 23.0955 0.676032 22.9372 0.485142 22.7029L0.483279 22.7004C0.432996 22.5554 0.40413 22.3887 0.40413 22.2154C0.40413 21.9237 0.486073 21.6494 0.631336 21.4102L0.62668 21.4194V21.4152L0.629474 21.4119C0.667652 21.2552 0.69 21.0743 0.69 20.8893C0.69 20.6609 0.656478 20.4401 0.593158 20.23L0.597814 20.2475C0.559636 20.1225 0.537288 19.9783 0.537288 19.8291C0.537288 19.6274 0.577328 19.4349 0.651822 19.2565L0.648097 19.2682C0.834332 18.9207 1.10903 18.8515 1.45077 18.7131C1.85862 18.6023 2.2134 18.4347 2.52255 18.2189L2.5151 18.2239H2.51696V18.2214C2.81494 17.9422 3.0347 17.5954 3.29449 17.3487C3.47607 17.1412 3.75263 17.007 4.06457 16.9987H4.06644L4.06551 16.997ZM16.6494 16.9462C16.6485 16.9603 16.6485 16.9778 16.6485 16.9953C16.6485 17.6146 17.0666 18.1464 17.6644 18.3772L17.6755 18.3814C17.7202 18.3839 17.7724 18.3856 17.8245 18.3856C18.5983 18.3856 19.2911 18.0763 19.7567 17.5879L19.7595 17.5846L20.0053 17.5746C20.0547 17.5679 20.1115 17.5646 20.1692 17.5646C20.4868 17.5646 20.7764 17.6746 20.9915 17.8546L20.9905 17.8538L20.9943 17.8571C21.2261 18.108 21.3872 18.4181 21.4477 18.759L21.4496 18.7698C21.5008 19.1907 21.6712 19.5699 21.931 19.8866L21.9264 19.88C22.3137 20.1767 22.5828 20.5884 22.6648 21.056L22.6666 21.0668L22.6704 21.0593V21.0777L22.6666 21.0652C22.6489 21.3377 22.4515 21.4777 22.0875 21.6853C20.9849 22.0995 20.0379 22.6504 19.2222 23.3256L19.2287 23.3206C18.6626 23.9807 17.8311 24.4366 16.8794 24.5591L16.8598 24.5608C16.7909 24.5691 16.7108 24.5741 16.6298 24.5741C15.9147 24.5741 15.3001 24.1874 15.0319 23.6356L15.0273 23.6256L15.0217 23.6223C14.9351 23.3839 14.8857 23.1097 14.8857 22.8255C14.8857 22.4787 14.9593 22.1479 15.0943 21.8436L15.0869 21.862C15.3048 21.3052 15.4919 20.6401 15.6158 19.955L15.626 19.8858C15.6409 19.209 15.7229 18.5581 15.8663 17.9272L15.8532 17.9963C15.9324 17.5646 16.208 17.2012 16.5926 16.9753L16.5991 16.972L16.6513 16.9495L16.6494 16.9462ZM14.1064 7.61627C14.6651 9.40573 15.3532 10.9518 16.1987 12.4146L16.1251 12.2754C16.696 13.1839 17.1401 14.2382 17.3943 15.3551L17.4074 15.4251C17.4157 15.4251 17.426 15.4251 17.4362 15.4251C17.6383 15.4251 17.8338 15.4492 18.0201 15.4951L18.0042 15.4917C18.1067 15.1625 18.1653 14.785 18.1653 14.3949C18.1653 13.2064 17.6187 12.1312 16.7379 11.3619L16.7369 11.3611C16.4808 11.1527 16.4669 11.0118 16.5935 11.0118C17.4977 11.7703 18.1663 12.7438 18.4978 13.8406L18.5089 13.8831C18.5918 14.1574 18.6393 14.4724 18.6393 14.7975C18.6393 15.09 18.6011 15.3751 18.5285 15.6476L18.5341 15.6226C18.603 15.6543 18.6831 15.6784 18.7678 15.6918L18.7734 15.6926C19.9746 16.2485 20.4179 16.6694 20.2046 17.2937V17.2487C20.1348 17.2454 20.0649 17.2487 19.9951 17.2487H19.9765C20.1525 16.762 19.7651 16.3894 18.7371 15.9735C17.6728 15.5568 16.8217 15.6234 16.6773 16.4577C16.6671 16.4986 16.6596 16.5461 16.6568 16.5953V16.5978C16.5889 16.6228 16.5079 16.6461 16.424 16.6628L16.4138 16.6644C15.9408 16.9445 15.6037 17.3804 15.4929 17.8888L15.491 17.9005C15.3532 18.4797 15.2666 19.1507 15.2526 19.8366V19.8466V19.85C15.1679 20.3809 15.0385 20.856 14.8634 21.3111L14.882 21.256C13.9667 21.9262 12.786 22.3312 11.4981 22.3312C10.4459 22.3312 9.46445 22.0603 8.63664 21.5919L8.65899 21.6036C8.52304 21.3927 8.36753 21.2102 8.19061 21.0477L8.19154 21.0485C8.10121 20.9152 7.99506 20.801 7.87308 20.7026L7.87121 20.7018C8.06397 20.7018 8.2502 20.6759 8.42619 20.6284L8.41223 20.6318C8.57984 20.5609 8.70834 20.4384 8.77632 20.2884L8.77818 20.2842C8.79494 20.2067 8.80518 20.1184 8.80518 20.0275C8.80518 19.6566 8.64223 19.3207 8.37591 19.0723L8.37684 19.0732C7.80045 18.4389 7.11138 17.9105 6.33198 17.5063L6.2966 17.4896C5.67178 17.1662 5.19874 16.6603 4.96502 16.0543L4.9585 16.036C4.8719 15.771 4.82162 15.4659 4.82162 15.1509C4.82162 14.8566 4.86538 14.5716 4.9464 14.2999L4.94081 14.3224C5.29186 13.2272 5.79842 12.2712 6.44931 11.4086L6.42324 11.4444C6.54802 11.3769 6.46607 11.5853 5.94834 12.4587C5.50696 13.053 5.24344 13.784 5.24344 14.5699C5.24344 15.27 5.45202 15.926 5.81704 16.4919L5.80587 16.4736C5.85429 15.3826 6.12713 14.3591 6.58247 13.4239L6.55919 13.4781C7.54158 11.8928 8.28559 10.0517 8.67761 8.10052L8.69623 7.99133C8.7521 8.02884 8.94858 8.13219 9.03239 8.20137C9.28567 8.33972 9.4747 8.54809 9.71866 8.68561C9.96729 8.90232 10.3081 9.03567 10.6824 9.03567C10.702 9.03567 10.7215 9.03567 10.7411 9.03484H10.7383C10.7839 9.03817 10.8258 9.04151 10.8659 9.04151C11.2933 9.03401 11.6918 8.93149 12.0382 8.75646L12.0261 8.76229C12.3632 8.6231 12.6314 8.41474 12.8874 8.34556H12.893C13.3912 8.2247 13.8084 7.96716 14.1036 7.62127L14.1073 7.61627H14.1064ZM10.8482 5.38506C10.851 5.38506 10.8538 5.38506 10.8566 5.38506C11.3864 5.38506 11.8753 5.54092 12.2691 5.8043L12.2626 5.80013C12.6146 5.99517 13.0206 6.16103 13.4499 6.27855L13.4871 6.28688H13.4908C13.7199 6.37856 13.9089 6.52109 14.044 6.69862L14.0468 6.70278V6.56609C14.0896 6.64277 14.1157 6.73362 14.1157 6.82947C14.1157 6.91115 14.097 6.98866 14.0645 7.05951L14.0663 7.05534C13.7981 7.47791 13.3633 7.79213 12.8437 7.92882L12.8288 7.93216V7.93382C12.5168 8.07468 12.2459 8.28055 11.9274 8.41807C11.6015 8.5931 11.2095 8.69645 10.7895 8.69645C10.7755 8.69645 10.7616 8.69645 10.7476 8.69645H10.7495C10.729 8.69728 10.7048 8.69812 10.6806 8.69812C10.5185 8.69812 10.3621 8.67228 10.2187 8.62394L10.228 8.62644C10.08 8.55393 9.95798 8.48558 9.83972 8.41224L9.85275 8.42057C9.64138 8.25471 9.40858 8.09552 9.16461 7.94966L9.1404 7.93632V7.93132H9.13482C8.78563 7.76546 8.51093 7.51125 8.34146 7.2012L8.3368 7.1912C8.31166 7.13536 8.29769 7.07034 8.29769 7.00283C8.29769 6.82114 8.40198 6.66111 8.55935 6.56776L8.56121 6.56693C8.82194 6.42607 9.00352 6.28438 9.12364 6.21687C9.2447 6.14019 9.29032 6.11102 9.3285 6.08018H9.33036V6.07685C9.57992 5.7943 9.91049 5.5776 10.2913 5.45508L10.3062 5.45091C10.4683 5.40923 10.6545 5.38506 10.8472 5.3834L10.8482 5.38506ZM9.25401 3.6081H9.29591C9.47097 3.61144 9.63206 3.66394 9.76243 3.74979L9.76057 3.74812C9.92725 3.88065 10.0632 4.04151 10.1563 4.2232L10.16 4.23237C10.2653 4.43657 10.3304 4.67411 10.3379 4.92415V4.92665V4.93082C10.3416 4.96916 10.3435 5.01334 10.3435 5.05751C10.3435 5.11002 10.3407 5.16253 10.3351 5.2142L10.336 5.20753V5.29088C10.3016 5.29838 10.2709 5.30922 10.2392 5.31589C10.0613 5.38173 9.91142 5.45174 9.76895 5.53092L9.78198 5.52425C9.78943 5.47841 9.79316 5.4259 9.79316 5.37256C9.79316 5.32839 9.79036 5.28421 9.78478 5.24087L9.78571 5.24587V5.23004C9.76895 5.10168 9.73542 4.98416 9.68607 4.87331L9.6898 4.88248C9.65162 4.77246 9.58457 4.67911 9.49704 4.60493C9.44583 4.56326 9.37785 4.53742 9.30243 4.53742C9.29591 4.53742 9.28939 4.53742 9.28287 4.53826H9.28381H9.25959C9.16368 4.54742 9.0836 4.60077 9.04356 4.67411L9.04263 4.67578C8.97093 4.75329 8.92158 4.84914 8.90296 4.95416V4.95749C8.88154 5.02917 8.87036 5.11168 8.87036 5.1967C8.87036 5.23337 8.87223 5.27004 8.87688 5.30588V5.30172V5.31755C8.89178 5.44591 8.9253 5.56426 8.97372 5.67428L8.97 5.66511C9.00911 5.77513 9.07522 5.86931 9.16275 5.94432C9.17393 5.95433 9.18696 5.96266 9.20186 5.96933H9.20279C9.12551 6.0135 9.05846 6.06018 8.997 6.11185L8.99794 6.11102C8.95603 6.14436 8.90482 6.16936 8.84802 6.18103L8.84522 6.18186C8.73069 6.05934 8.62453 5.92182 8.53328 5.7768L8.52583 5.76346C8.42061 5.55926 8.35542 5.32255 8.34518 5.07168V5.06834C8.34146 5.02834 8.33959 4.98166 8.33959 4.93416C8.33959 4.73329 8.37591 4.53992 8.44202 4.35906L8.4383 4.3724C8.50721 4.15736 8.61988 3.97149 8.7698 3.81314L8.76793 3.81564C8.88619 3.69061 9.05939 3.61144 9.25401 3.60727H9.25494L9.25401 3.6081ZM12.7012 3.54642H12.7161C12.717 3.54642 12.718 3.54642 12.7198 3.54642C12.9759 3.54642 13.2106 3.62394 13.3987 3.75396L13.3959 3.75229C13.6091 3.89982 13.7804 4.08568 13.9006 4.29822L13.9052 4.30738C14.0179 4.52909 14.0877 4.78663 14.098 5.05834V5.06168C14.098 5.04084 14.1045 5.02 14.1045 4.99917V5.10835L14.0998 5.08668L14.0952 5.06168C14.0924 5.32839 14.0291 5.5801 13.9155 5.8093L13.9211 5.79763C13.8633 5.93349 13.7795 6.05017 13.6734 6.14686C13.6454 6.13186 13.611 6.11769 13.5765 6.10518L13.5709 6.10352C13.4452 6.06851 13.3353 6.021 13.2357 5.96266L13.2404 5.96516C13.1687 5.93849 13.083 5.91515 12.9945 5.89765L12.9843 5.89598C13.0597 5.83264 13.1296 5.76513 13.1938 5.69345L13.1975 5.68928C13.2562 5.56593 13.2925 5.4234 13.3 5.27338V5.27088V5.25004C13.3 5.24337 13.3 5.23671 13.3 5.2292C13.3 5.08751 13.2739 4.95166 13.2255 4.82497L13.2283 4.83414C13.1696 4.70162 13.0979 4.58743 13.0122 4.48325L13.016 4.48741C12.9349 4.41407 12.8279 4.36406 12.7077 4.34989H12.7049H12.6863C12.6854 4.34989 12.6835 4.34989 12.6826 4.34989C12.5597 4.34989 12.4498 4.40407 12.3828 4.48658L12.3818 4.48741C12.2738 4.5816 12.1919 4.69828 12.1453 4.82914L12.1434 4.83497C12.0848 4.95749 12.0466 5.10002 12.0391 5.24837V5.25087V5.27088C12.041 5.37089 12.0494 5.46758 12.0643 5.56176L12.0624 5.54926C11.838 5.47925 11.5531 5.4084 11.3557 5.33922C11.3445 5.27838 11.337 5.2067 11.3352 5.13336V5.13086V5.11002C11.3343 5.09335 11.3343 5.07418 11.3343 5.05501C11.3343 4.78496 11.3985 4.52909 11.5149 4.29822L11.5093 4.30989C11.608 4.07735 11.7821 3.88648 12.0047 3.75729L12.0094 3.75479C12.1993 3.62477 12.4405 3.54642 12.7012 3.54642ZM12.0857 0C11.9051 0 11.7188 0.00833474 11.527 0.0216703C6.60947 0.368395 7.91405 5.02834 7.83862 6.5811C7.79206 7.76963 7.34138 8.85564 6.60482 9.74162L6.61692 9.72662C5.30676 11.0618 4.23777 12.6221 3.49656 14.3299L3.45652 14.4357C3.21627 15.0067 3.0766 15.6659 3.0766 16.3544C3.0766 16.5919 3.09336 16.8261 3.12502 17.0553L3.12223 17.0278C3.07008 17.0662 3.02632 17.1129 2.99559 17.1662L2.99466 17.1687C2.69202 17.4479 2.47134 17.7938 2.22271 18.0422C1.95919 18.223 1.65004 18.3656 1.31482 18.4539L1.29526 18.4581C0.863198 18.5739 0.511215 18.8265 0.294251 19.159L0.289595 19.1665C0.192753 19.3432 0.135951 19.5508 0.135951 19.7708C0.135951 19.7791 0.135951 19.7866 0.135951 19.795C0.137814 19.9933 0.160162 20.185 0.203927 20.3717L0.200202 20.3526C0.252348 20.5351 0.282146 20.7451 0.282146 20.961C0.282146 21.1027 0.269109 21.2419 0.243968 21.3777L0.24583 21.3627C0.0903238 21.6236 0 21.9337 0 22.2629C0 22.4946 0.0446964 22.7163 0.127571 22.9222L0.122915 22.9088C0.377125 23.2322 0.7617 23.4606 1.2068 23.5331L1.21704 23.5348C2.40336 23.6239 3.49935 23.8456 4.53296 24.1849L4.44543 24.1599C5.09538 24.5057 5.8785 24.7099 6.71376 24.7099C6.98753 24.7099 7.25571 24.6883 7.51644 24.6458L7.48943 24.6491C8.11053 24.5233 8.61708 24.1607 8.88992 23.6748L8.89551 23.6639C9.57899 23.6606 10.3267 23.3839 11.5251 23.3164C12.3381 23.2564 13.3568 23.5948 14.5235 23.5248C14.558 23.6573 14.6036 23.7731 14.6613 23.8823L14.6557 23.8715L14.6595 23.8748C15.017 24.5449 15.7676 25 16.6373 25C16.7127 25 16.7872 24.9967 16.8608 24.99L16.8515 24.9908C17.9232 24.8491 18.8432 24.3507 19.4708 23.6381L19.4774 23.6306C20.2623 22.9905 21.1786 22.4629 22.1824 22.0862L22.2448 22.0653C22.6471 21.9062 22.9357 21.5778 22.9991 21.1827L23 21.1769C22.9451 20.5984 22.635 20.0942 22.1731 19.7466L22.1694 19.7441V19.6433L22.1657 19.6399C21.9664 19.3649 21.8267 19.0382 21.7736 18.6881L21.7718 18.6756C21.7224 18.248 21.5129 17.8705 21.1991 17.5863H21.1954C21.1265 17.5304 21.052 17.5163 20.9766 17.4454C20.9151 17.4062 20.8387 17.3821 20.7559 17.3787C20.9374 16.877 21.0417 16.3002 21.0417 15.7009C21.0417 14.9175 20.862 14.1715 20.538 13.4947L20.5538 13.5314C19.8983 12.1379 19.0462 10.9385 18.0098 9.88998L18.0229 9.90415C16.9939 9.00233 16.3207 7.77796 16.2089 6.4144L16.208 6.3969C16.2387 4.15569 16.4827 0.00916825 12.0838 0.00333395L12.0857 0Z" fill="#303F9F" stroke="#303F9F" stroke-width="0.008"/>
</svg>
