<svg width="70" height="70" viewBox="0 0 70 70" fill="none" xmlns="http://www.w3.org/2000/svg">
<g clip-path="url(#clip0_764_230)">
<path d="M37.1875 17.0844C38.1086 17.2753 39.0469 17.3706 39.9875 17.3688C41.6103 17.3756 43.2184 17.0623 44.7199 16.4467C46.2214 15.8311 47.5866 14.9253 48.7375 13.7813C50.2124 12.2775 51.2905 10.4307 51.8747 8.40696C52.4589 6.38323 52.5309 4.24603 52.0844 2.18754C52.0061 1.74626 51.7942 1.33966 51.4773 1.02276C51.1604 0.705853 50.7538 0.493934 50.3125 0.415668C48.2576 -0.036456 46.1226 0.0286602 44.0991 0.605174C42.0756 1.18169 40.2268 2.25156 38.7188 3.71879C37.2515 5.22686 36.1817 7.0756 35.6051 9.09912C35.0286 11.1226 34.9635 13.2576 35.4156 15.3125C35.4939 15.7538 35.7058 16.1604 36.0227 16.4773C36.3396 16.7942 36.7462 17.0062 37.1875 17.0844ZM41.8688 6.82504C42.673 6.02972 43.6366 5.41383 44.6961 5.01793C45.7556 4.62203 46.8869 4.45511 48.0156 4.52817C48.0887 5.65686 47.9218 6.78823 47.5259 7.84773C47.13 8.90724 46.5141 9.87083 45.7188 10.675C44.9092 11.4566 43.9419 12.056 42.8818 12.4333C41.8217 12.8106 40.6932 12.9569 39.5719 12.8625C39.5113 11.7553 39.6802 10.6474 40.0679 9.6085C40.4557 8.56956 41.0539 7.62194 41.825 6.82504H41.8688Z" fill="#303F9F"/>
<path d="M61.6 50.925C59.6365 49.8661 57.9754 48.3242 56.7734 46.4449C55.5714 44.5656 54.8682 42.411 54.7303 40.1844C54.5924 37.9579 55.0242 35.7329 55.9851 33.7197C56.946 31.7064 58.4041 29.9713 60.2219 28.6781C60.465 28.5045 60.67 28.283 60.8243 28.0272C60.9785 27.7714 61.0787 27.4867 61.1187 27.1906C61.1619 26.8934 61.1434 26.5904 61.0644 26.3006C60.9853 26.0108 60.8475 25.7404 60.6594 25.5062C58.0666 22.357 54.728 19.9057 50.9469 18.375C48.0265 17.2043 44.7672 17.2043 41.8469 18.375L37.9312 19.95C36.0555 20.6942 33.9664 20.6942 32.0906 19.95L28.1531 18.375C25.2327 17.2043 21.9735 17.2043 19.0531 18.375C13.3598 20.6807 8.75423 25.0621 6.16755 30.6334C3.58087 36.2047 3.206 42.5504 5.11874 48.3875L5.88436 50.225C7.93862 55.3257 10.7 60.1122 14.0875 64.4437C15.8824 67.1276 18.5952 69.0641 21.7166 69.8897C24.838 70.7154 28.1534 70.3735 31.0406 68.9281C32.2676 68.3055 33.6241 67.981 35 67.981C36.3759 67.981 37.7324 68.3055 38.9594 68.9281C41.8248 70.3595 45.1115 70.705 48.2119 69.9007C51.3123 69.0965 54.0167 67.1969 55.825 64.5531C58.4233 61.2074 60.6666 57.6005 62.5187 53.7906C62.7614 53.2861 62.8013 52.7078 62.6304 52.1747C62.4595 51.6416 62.0907 51.1944 61.6 50.925ZM52.2812 62.0156C51.0809 63.8149 49.2638 65.113 47.1725 65.665C45.0811 66.217 42.8601 65.985 40.9281 65.0125C39.0836 64.1052 37.0555 63.6334 35 63.6334C32.9445 63.6334 30.9163 64.1052 29.0719 65.0125C27.1127 65.9828 24.8656 66.2003 22.7568 65.6237C20.6479 65.0471 18.8241 63.7165 17.6312 61.8844C14.4662 57.8255 11.8752 53.3501 9.93124 48.5844L9.23123 46.8781C7.70216 42.1106 8.03416 36.941 10.1605 32.4083C12.2869 27.8755 16.0501 24.3155 20.6937 22.4437C22.5577 21.678 24.6485 21.678 26.5125 22.4437L30.45 24.0187C33.3725 25.1783 36.6275 25.1783 39.55 24.0187L43.4875 22.4437C45.3593 21.6791 47.4563 21.6791 49.3281 22.4437C51.7706 23.4084 54.0002 24.8428 55.8906 26.6656C54.0098 28.4438 52.5469 30.6171 51.6072 33.0289C50.6676 35.4406 50.2746 38.0308 50.4566 40.6127C50.6387 43.1946 51.3912 45.704 52.6599 47.9601C53.9286 50.2161 55.682 52.1626 57.7937 53.6594C56.1901 56.5922 54.3463 59.3872 52.2812 62.0156Z" fill="#303F9F"/>
</g>
<defs>
<clipPath id="clip0_764_230">
<rect width="70" height="70" fill="white"/>
</clipPath>
</defs>
</svg>
