<svg width="70" height="70" viewBox="0 0 70 70" fill="none" xmlns="http://www.w3.org/2000/svg">
<g clip-path="url(#clip0_764_235)">
<path d="M47.1217 50.5692C44.6221 53.4538 43.2308 58.7067 45.0537 60.4013C46.8037 61.7108 51.4704 61.5417 54.9267 56.8138C55.93 55.3933 56.5337 53.6258 56.5337 51.7183C56.5337 49.9596 56.0233 48.3233 55.1425 46.9438L55.1629 46.9788C53.0337 45.36 49.9771 47.4571 47.1217 50.6042V50.5692ZM23.6221 51.4442C20.9737 48.4108 17.5321 46.6083 15.3067 47.9442C13.8192 49.0583 13.5421 52.8588 15.6654 56.5979C18.8096 61.0429 23.2487 61.495 25.06 60.41C26.9821 58.9867 25.935 54.1771 23.6221 51.4413V51.4442ZM35.595 60.6171C32.3867 60.5413 27.4283 61.8975 27.4983 63.6271C27.4458 64.7938 31.3804 68.2121 35.3733 68.04C39.2408 68.1275 43.2483 64.7179 43.1958 63.2304C43.1433 61.7429 38.8208 60.5267 35.5921 60.6521L35.595 60.6171ZM35.3762 19.9471C31.6575 19.8538 28.0846 22.6683 28.0846 24.3017C28.0846 26.285 31.0246 28.315 35.4054 28.3675C39.9058 28.3967 42.7496 26.7371 42.7904 24.6925C42.8371 22.3767 38.7246 19.9121 35.4462 19.9471H35.3762ZM26.4192 21.4988C20.1921 20.4925 15.0062 24.1238 15.2133 30.8088C15.4175 33.3871 28.7175 21.9392 26.4221 21.5425L26.4192 21.4988ZM54.8537 30.9808C55.0608 24.3396 49.8692 20.7113 43.6421 21.7175C41.3467 22.1113 54.6437 33.5621 54.8537 30.9808ZM55.9154 33.3842C52.3017 32.4246 54.6904 48.1104 57.6304 46.8446C59.2375 45.3133 60.2379 43.155 60.2379 40.7663C60.2379 37.625 58.5112 34.8892 55.9562 33.4513L55.9154 33.4308V33.3842ZM12.4571 47.0196C15.3942 48.3321 17.7858 32.6433 14.175 33.6029C11.5762 35.0729 9.84958 37.8175 9.84958 40.9675C9.84958 43.3621 10.85 45.5263 12.4542 47.0604L12.4571 47.0633V47.0196ZM39.9175 29.6713C38.08 31.1004 36.9075 33.3142 36.9075 35.7992C36.9075 37.6192 37.5346 39.2904 38.5846 40.6117L38.5729 40.5971C40.0079 43.0413 42.6212 44.6571 45.6137 44.6571C46.9758 44.6571 48.2621 44.3217 49.3908 43.7296L49.3471 43.75C51.1875 42.3208 52.3629 40.11 52.3629 37.6221C52.3629 35.8021 51.7358 34.1308 50.6829 32.8096L50.6946 32.8242C49.2829 30.3888 46.6871 28.7758 43.715 28.7758C42.3267 28.7758 41.0229 29.1288 39.8825 29.7471L39.9262 29.7267L39.9175 29.6713ZM30.8758 30.065C29.7879 29.4846 28.4958 29.1463 27.125 29.1463C24.15 29.1463 21.5512 30.7446 20.1396 33.1304L20.1192 33.1683C19.0779 34.4808 18.4508 36.1608 18.4508 37.9867C18.4508 40.4804 19.6233 42.7 21.4462 44.1263L21.4637 44.1379C22.5604 44.7358 23.8642 45.0858 25.2496 45.0858C28.2217 45.0858 30.8175 43.4729 32.2087 41.0725L32.2292 41.0346C33.2558 39.7279 33.8742 38.0625 33.8742 36.2513C33.8742 33.7633 32.7075 31.5496 30.8875 30.1263L30.87 30.1146L30.8758 30.065ZM43.6187 50.9542C43.3942 46.8738 40.0312 43.6508 35.9158 43.6508C35.7729 43.6508 35.63 43.6538 35.4871 43.6625H35.5075C35.4258 43.6596 35.3267 43.6567 35.2304 43.6567C31.08 43.6567 27.6908 46.9204 27.4925 51.0242V51.0417V51.1263C27.72 55.2067 31.0858 58.4296 35.2012 58.4296C35.3442 58.4296 35.4871 58.4267 35.63 58.4179H35.6096C35.7117 58.4238 35.8312 58.4267 35.9508 58.4267C40.0721 58.4267 43.435 55.1717 43.6071 51.0942V51.0796V50.995L43.6362 50.9513L43.6187 50.9542ZM52.9958 6.81626C48.0667 9.06501 43.8375 11.9379 40.1742 15.4058L40.1946 15.3854C41.2942 19.7604 47.0312 19.9296 49.1283 19.7954C48.7229 19.6671 48.3962 19.3842 48.2125 19.0196L48.2096 19.0108C48.7346 18.6608 50.6042 18.9642 51.9079 18.2671C51.4092 18.1796 51.1729 18.0892 50.9483 17.6838C52.2083 17.4067 53.3196 16.94 54.32 16.3071L54.2762 16.3333C54.18 16.3479 54.0721 16.3596 53.9583 16.3596C53.5733 16.3596 53.2117 16.2517 52.9054 16.0679L52.9142 16.0738C54.1362 15.5517 55.1862 14.9071 56.1312 14.1371L56.1079 14.1546C55.5246 14.1546 54.9237 14.1546 54.7487 13.9358C55.7287 13.3613 56.5717 12.6846 57.3008 11.9L57.3067 11.8942C56.5133 12.0254 56.1692 11.9408 55.9825 11.8067C56.8429 11.1475 57.5692 10.3658 58.1467 9.47918L58.1671 9.44418C57.9454 9.56085 57.6829 9.62793 57.4058 9.62793C57.1287 9.62793 56.8662 9.56085 56.6358 9.44126L56.6446 9.4471C56.91 8.88126 58.0154 8.53126 58.6571 7.17501C58.4442 7.23043 58.1992 7.26543 57.9483 7.26543C57.6975 7.26543 57.4525 7.23335 57.2192 7.1721L57.2396 7.17793C57.5108 6.22126 57.9454 5.39001 58.52 4.67251L58.5083 4.6871C58.2312 4.69876 57.9075 4.7046 57.5808 4.7046C56.7612 4.7046 55.9533 4.66668 55.1542 4.59376L55.2562 4.60251L56.0817 3.77126C55.72 3.70126 55.3058 3.66043 54.88 3.66043C54.0137 3.66043 53.1883 3.8296 52.4329 4.13876L52.4767 4.12418C52.0421 3.81793 52.4767 3.38043 53.0162 2.95751C51.8933 3.10335 50.8754 3.36001 49.91 3.72168L50.0062 3.6896C49.5279 3.2521 50.2979 2.85835 50.7062 2.41793C49.5017 2.62501 48.4283 3.05376 47.4804 3.66335L47.5154 3.64293C46.9904 3.16168 47.4717 2.7271 47.8071 2.33335C46.7746 2.73293 45.8908 3.29585 45.1354 3.99585L45.1412 3.99001C44.8787 3.69835 44.5317 3.46793 44.9662 2.68043C44.1175 3.15293 43.4058 3.76835 42.8371 4.50043L42.8254 4.51501C42.2596 4.12418 42.4783 3.64001 42.4783 3.20543C41.6471 3.94335 40.8887 4.71626 40.1887 5.53876L40.1625 5.57085C39.9846 5.48043 39.8708 5.13335 39.7687 4.56168C37.4967 6.74918 34.2592 12.2121 38.9375 14.35C42.9042 11.2408 47.5387 8.75293 52.5642 7.14585L52.8762 7.05835L52.9958 6.8396V6.81626ZM17.2404 6.81626C22.5808 8.51668 27.2154 11.0192 31.2637 14.2304L31.1733 14.1604C35.84 11.9729 32.6112 6.51001 30.3508 4.3721C30.2312 4.93793 30.1029 5.33168 29.9571 5.41918C29.2308 4.56751 28.4783 3.7946 27.6821 3.0771L27.6587 3.05668C27.6587 3.49418 27.8833 4.01918 27.3175 4.36918C26.7546 3.61668 26.0517 3.00126 25.2467 2.54918L25.2146 2.53168C25.6492 3.27835 25.2875 3.49418 25.0512 3.84126C24.3308 3.08876 23.4558 2.49376 22.4758 2.10876L22.4262 2.09126C22.7762 2.52585 23.3012 2.96626 22.7762 3.44751C21.875 2.85543 20.8133 2.42668 19.6729 2.23126L19.6233 2.22543C20.0171 2.66001 20.79 3.10043 20.3175 3.53793C19.4396 3.18793 18.4217 2.92251 17.36 2.79126L17.2987 2.78543C17.8267 3.22293 18.2962 3.62835 17.8587 3.9521C17.1267 3.63126 16.275 3.44751 15.3825 3.44751C14.9654 3.44751 14.5542 3.48835 14.1604 3.56418L14.2012 3.55835L15.0296 4.38668C14.3237 4.46251 13.5042 4.50626 12.6758 4.50626C12.355 4.50626 12.0342 4.50043 11.7133 4.48585L11.76 4.48876C12.3404 5.18293 12.7808 6.02001 13.02 6.93585L13.0287 6.9796C12.8975 7.11085 12.2412 7.02626 11.62 6.9796C12.2762 8.28918 13.37 8.6421 13.6267 9.21085C13.405 9.33043 13.1425 9.40043 12.8654 9.40043C12.5883 9.40043 12.3229 9.33043 12.0954 9.20793L12.1042 9.21085C12.7429 10.1063 13.4604 10.8821 14.2654 11.5588L14.2858 11.5733C14.0437 11.6871 13.7579 11.7513 13.4604 11.7513C13.2737 11.7513 13.09 11.725 12.9179 11.6783L12.9325 11.6813C13.6646 12.4658 14.4987 13.1396 15.4146 13.6938L15.4671 13.7229C15.2921 13.9271 14.6767 13.9242 14.07 13.9417C14.9887 14.7 16.0417 15.3504 17.1762 15.8433L17.2608 15.8754C16.9633 16.0825 16.5958 16.205 16.1962 16.205C16.0942 16.205 15.9921 16.1963 15.8929 16.1817H15.9046C16.8583 16.7942 17.9696 17.2638 19.1596 17.5233L19.2267 17.535C19.0196 17.8792 18.6492 18.1096 18.2233 18.1183C19.5329 18.8592 21.3675 18.5121 21.8925 18.9058C21.7058 19.2792 21.3821 19.5621 20.9883 19.6904L20.9767 19.6933C23.0737 19.8246 28.8517 19.6496 29.9367 15.2775C26.2967 11.8446 22.0646 8.98626 17.4183 6.88626L17.1296 6.7696L17.2462 6.81626H17.2404ZM22.2979 0.29168C23.0067 0.38793 23.6483 0.592096 24.2346 0.889596L24.1996 0.875013C25.7425 0.37918 26.0954 1.05876 26.8537 1.33876C28.5367 0.988763 29.0471 1.75001 29.855 2.56085L30.7942 2.5346C32.8562 3.96085 34.3671 6.0521 35.0262 8.49626L35.0437 8.56918C35.7175 6.05501 37.2283 3.96376 39.2583 2.5696L39.2933 2.54626L40.2296 2.56668C41.0375 1.75001 41.5479 0.994596 43.2308 1.34751C43.9921 1.05585 44.3392 0.385013 45.8879 0.863346C46.8504 0.57168 47.6962 -0.230404 48.9708 0.732096C49.3529 0.51043 49.8137 0.37918 50.3037 0.37918C50.9571 0.37918 51.555 0.612513 52.0217 1.00043L52.0187 0.997513C53.4771 0.822513 53.9233 1.17543 54.2762 1.61001C54.5912 1.61001 56.6358 1.31835 57.5779 2.66001C59.9404 2.39751 60.6812 4.01335 59.8354 5.54168C60.1679 5.8946 60.375 6.37001 60.375 6.89501C60.375 7.49001 60.1096 8.02376 59.6925 8.38543L59.6896 8.38835C60.1271 9.17293 59.8704 10.0013 58.9021 11.0513C58.9429 11.2117 58.9692 11.3925 58.9692 11.5821C58.9692 12.4104 58.5054 13.1279 57.8229 13.4925L57.8112 13.4983C57.9862 14.9858 56.4112 15.8608 55.9767 16.1642C55.7987 17.0392 55.4487 17.8675 53.6433 18.305C53.3837 19.6146 52.29 19.8304 51.24 20.0958C55.0579 21.9013 57.6537 25.7221 57.6537 30.1467C57.6537 30.4383 57.6421 30.73 57.6187 31.0158L57.6217 30.9779L58.1496 31.8529C61.04 33.7896 62.9154 37.0417 62.9154 40.7342C62.9154 43.5138 61.8508 46.0454 60.1067 47.9442L60.1125 47.9354C59.7071 49.7875 59.1937 51.3946 58.5521 52.9317L58.6221 52.7421C58.0067 57.0588 55.1308 60.5792 51.2487 62.1017L51.17 62.1308C49.1371 63.7758 46.7775 65.1204 44.2167 66.0508L44.0475 66.1063C41.8746 68.4833 38.7712 69.9796 35.3179 70.0058H35.0437C31.57 69.9854 28.4462 68.4921 26.2675 66.1208L26.2587 66.1121C23.5229 65.1233 21.1604 63.7758 19.075 62.0929L19.1217 62.1308C15.1608 60.5763 12.2792 57.0588 11.6579 52.8063L11.6492 52.7421C11.0717 51.3858 10.5525 49.7642 10.1762 48.09L10.1383 47.8946C8.39125 46.0017 7.32083 43.4642 7.32083 40.6758C7.32083 36.9863 9.19916 33.7342 12.0487 31.8208L12.0867 31.7975L12.5883 30.9225C12.5679 30.6746 12.5562 30.3858 12.5562 30.0942C12.5562 25.6696 15.1492 21.8488 18.9029 20.0725L18.97 20.0433C17.9229 19.7808 16.87 19.5621 16.5696 18.2496C14.7758 17.8121 14.4258 16.9838 14.2362 16.1088C13.7987 15.8025 12.2267 14.9421 12.4017 13.4021C11.7046 13.0229 11.2379 12.2938 11.2379 11.4567C11.2379 11.2613 11.2642 11.0746 11.3108 10.8938L11.3079 10.9083C10.3921 9.89918 10.1412 9.0271 10.5204 8.2396C10.1004 7.88085 9.83791 7.35001 9.83791 6.75793C9.83791 6.23001 10.0479 5.74876 10.3892 5.39876C9.55791 3.86751 10.3017 2.20793 12.6612 2.4821C13.5858 1.12585 15.645 1.43501 15.9454 1.43501C16.2983 0.997513 16.7767 0.603763 18.2175 0.778763C18.69 0.390846 19.2996 0.154596 19.9646 0.154596C20.4458 0.154596 20.8979 0.277096 21.2917 0.49293L21.2771 0.487096C21.5921 0.20418 22.0033 0.0233464 22.4583 0.00292969H22.4612L22.2979 0.29168Z" fill="#303F9F"/>
</g>
<defs>
<clipPath id="clip0_764_235">
<rect width="70" height="70" fill="white"/>
</clipPath>
</defs>
</svg>
