<svg width="28" height="27" viewBox="0 0 28 27" fill="none" xmlns="http://www.w3.org/2000/svg">
<path d="M21.8549 1.00003L24.1287 1.00003C24.4277 0.998461 24.7241 1.05591 25.0007 1.16904C25.2773 1.28217 25.5286 1.44875 25.74 1.65914C25.9515 1.86953 26.1189 2.11954 26.2326 2.39473C26.3463 2.66991 26.4041 2.9648 26.4025 3.26232L26.4025 19.0865C26.4041 19.384 26.3463 19.6789 26.2326 19.9541C26.1189 20.2293 25.9515 20.4793 25.74 20.6897C25.5286 20.9001 25.2773 21.0667 25.0007 21.1798C24.7241 21.2929 24.4277 21.3504 24.1287 21.3488L3.67636 21.3488C3.37732 21.3504 3.08093 21.2929 2.80435 21.1798C2.52777 21.0667 2.27648 20.9001 2.06502 20.6897C1.85356 20.4793 1.68614 20.2293 1.57243 19.9541C1.45872 19.6789 1.40098 19.384 1.40256 19.0865L1.40256 3.26232C1.40098 2.9648 1.45872 2.66991 1.57243 2.39473C1.68614 2.11954 1.85356 1.86953 2.06502 1.65914C2.27648 1.44875 2.52777 1.28217 2.80435 1.16904C3.08093 1.05591 3.37732 0.998461 3.67636 1.00003L21.8549 1.00003Z" stroke="white" stroke-width="2" stroke-miterlimit="10"/>
<path d="M17.1003 8.55811L10.7049 8.55811L10.7049 13.7907L17.1003 13.7907L17.1003 8.55811Z" stroke="white" stroke-width="2" stroke-miterlimit="10"/>
<path d="M13.9026 4.4884C14.4423 4.4884 14.9599 4.70279 15.3415 5.08441C15.7231 5.46602 15.9375 5.9836 15.9375 6.52329L15.9375 8.55817L11.8677 8.55817L11.8677 6.52329C11.8677 5.9836 12.0821 5.46602 12.4637 5.08441C12.8453 4.70279 13.3629 4.4884 13.9026 4.4884Z" stroke="white" stroke-width="2" stroke-miterlimit="10"/>
<path d="M13.6118 26L13.6118 21.3488" stroke="white" stroke-width="2" stroke-miterlimit="10"/>
<path d="M19.4258 26L8.37924 26" stroke="white" stroke-width="2" stroke-miterlimit="10"/>
<path d="M1.40253 16.6976L26.4025 16.6976" stroke="white" stroke-width="2" stroke-miterlimit="10"/>
</svg>
