<svg width="27" height="27" viewBox="0 0 27 27" fill="none" xmlns="http://www.w3.org/2000/svg">
<path d="M3.1875 21C3.1875 20.4823 2.76777 20.0625 2.25 20.0625C1.73224 20.0625 1.3125 20.4823 1.3125 21H3.1875ZM1.3125 16C1.3125 16.5178 1.73224 16.9375 2.25 16.9375C2.76777 16.9375 3.1875 16.5178 3.1875 16H1.3125ZM7.25 9.4375C8.45502 9.4375 9.26447 9.43949 9.86827 9.52068C10.4451 9.59823 10.692 9.73225 10.8549 9.89515L12.1806 8.56933C11.6114 7.99999 10.9028 7.7679 10.1181 7.66239C9.36033 7.56052 8.40202 7.5625 7.25 7.5625V9.4375ZM13.1875 13.5C13.1875 12.348 13.1895 11.3896 13.0876 10.6319C12.9821 9.84717 12.75 9.13867 12.1806 8.56933L10.8549 9.89515C11.0178 10.058 11.1518 10.3049 11.2294 10.8817C11.3105 11.4855 11.3125 12.295 11.3125 13.5H13.1875ZM7.25 7.5625C6.09799 7.5625 5.13968 7.56052 4.3819 7.66239C3.59717 7.7679 2.88867 7.99999 2.31933 8.56933L3.64515 9.89515C3.80804 9.73225 4.05491 9.59823 4.63174 9.52068C5.23554 9.43949 6.04499 9.4375 7.25 9.4375V7.5625ZM3.1875 13.5C3.1875 12.295 3.18949 11.4855 3.27068 10.8817C3.34823 10.3049 3.48225 10.058 3.64515 9.89515L2.31933 8.56933C1.74999 9.13867 1.5179 9.84717 1.41239 10.6319C1.31052 11.3896 1.3125 12.348 1.3125 13.5H3.1875ZM3.1875 26V21H1.3125V26H3.1875ZM3.1875 16V13.5H1.3125V16H3.1875Z" fill="#303F9F"/>
<path d="M7.25 26V18.5C7.25 16.143 7.25 14.9645 7.98224 14.2323C8.71446 13.5 9.89298 13.5 12.25 13.5H14.75C17.107 13.5 18.2855 13.5 19.0177 14.2323C19.6072 14.8216 19.7221 15.7003 19.7446 17.25M19.75 26V22.5625" stroke="#303F9F" stroke-width="2" stroke-linecap="round"/>
<path d="M24.75 8.21491C24.75 6.53885 24.75 5.70082 24.3049 5.05842C23.8596 4.41601 23.075 4.12176 21.5056 3.53326C18.4365 2.38236 16.902 1.80691 15.826 2.5526C14.75 3.29827 14.75 4.93715 14.75 8.21491V13.4998M24.75 25.9998V13.4998" stroke="#303F9F" stroke-width="2" stroke-linecap="round"/>
<path d="M3.5 8.5V6.625C3.5 5.44649 3.5 4.85724 3.86611 4.49111C4.23224 4.125 4.82149 4.125 6 4.125H8.5C9.67851 4.125 10.2678 4.125 10.6339 4.49111C11 4.85724 11 5.44649 11 6.625V8.5" stroke="#303F9F" stroke-width="2" stroke-linecap="round"/>
<path d="M7.25 3.5V1" stroke="#303F9F" stroke-width="2" stroke-linecap="round"/>
<path d="M26 26H1" stroke="#303F9F" stroke-width="2" stroke-linecap="round"/>
<path d="M11 17.25H11.625M16 17.25H14.125" stroke="#303F9F" stroke-width="2" stroke-linecap="round"/>
<path d="M11 21H16" stroke="#303F9F" stroke-width="2" stroke-linecap="round"/>
</svg>
