<svg width="31" height="31" viewBox="0 0 31 31" fill="none" xmlns="http://www.w3.org/2000/svg">
<g clip-path="url(#clip0_764_175)">
<path d="M17.6213 4.84054C16.3031 2.20115 13.2259 0.744731 10.1681 1.50712C6.64519 2.38549 4.48214 5.87642 5.3368 9.30433C5.58173 10.2867 6.04791 11.1572 6.67131 11.8787L2.46779 18.6628C2.13673 19.1971 2.03576 19.8425 2.18781 20.4524L2.74531 22.6883C2.79715 22.8963 3.00776 23.0228 3.21571 22.971L5.58673 22.3799C6.17521 22.2331 6.6832 21.8626 7.00265 21.3471L11.4799 14.1212" stroke="white" stroke-width="2" stroke-linecap="round"/>
<path d="M12.673 8.39407C13.5538 8.17448 14.0945 7.30175 13.8809 6.44477C13.6672 5.5878 12.78 5.0711 11.8993 5.29069C11.0186 5.51028 10.4778 6.38301 10.6915 7.23998C10.9051 8.09696 11.7923 8.61366 12.673 8.39407Z" stroke="white" stroke-width="2"/>
<path d="M23.1377 19.7943C26.6606 18.9158 28.8238 15.4249 27.9692 11.997C27.1144 8.5691 23.5657 6.50229 20.0428 7.38066C16.5198 8.25901 14.3568 11.75 15.2115 15.1778C15.4564 16.1602 15.9225 17.0308 16.5459 17.7523L12.3423 24.5363C12.0114 25.0706 11.9104 25.716 12.0625 26.3258L12.6199 28.5618C12.6717 28.7698 12.8824 28.8963 13.0904 28.8445L15.4614 28.2534C16.0498 28.1067 16.5579 27.736 16.8773 27.2205L21.3545 19.9946C21.9408 20.0075 22.5397 19.9433 23.1377 19.7943Z" stroke="white" stroke-width="2"/>
<path d="M22.581 14.1646C23.4617 13.945 24.0025 13.0723 23.7888 12.2153C23.5752 11.3583 22.688 10.8416 21.8073 11.0612C20.9265 11.2808 20.3858 12.1535 20.5994 13.0105C20.8131 13.8675 21.7003 14.3842 22.581 14.1646Z" stroke="white" stroke-width="2"/>
</g>
<defs>
<clipPath id="clip0_764_175">
<rect width="30" height="30" fill="white" transform="translate(0.281914 0.0805664)"/>
</clipPath>
</defs>
</svg>
