<svg width="70" height="70" viewBox="0 0 70 70" fill="none" xmlns="http://www.w3.org/2000/svg">
<path d="M44.5646 18.4312C45.2344 18.8234 46.0396 19.0567 46.8985 19.0567C49.4799 19.0567 51.5711 16.9655 51.5711 14.3842C51.5711 11.8028 49.4799 9.71159 46.8985 9.71159C45.176 9.71159 43.6706 10.6452 42.8608 12.0315L42.8491 12.0549C42.4593 12.7224 42.2283 13.5253 42.2283 14.3818C42.2283 16.102 43.1572 17.605 44.5412 18.4172L44.5622 18.4289L44.5646 18.4312ZM35 21.351C42.1116 21.351 47.9511 26.7915 48.5883 33.7373L48.593 33.791L55.2564 33.6907C54.9133 28.5069 52.6704 23.9044 49.2231 20.5225L49.2208 20.5201C48.5299 20.7909 47.7294 20.9473 46.8938 20.9473C43.6426 20.9473 40.9422 18.576 40.4334 15.4671L40.4288 15.4298C38.802 14.97 36.9349 14.7039 35.0047 14.7016H35.0023C34.9953 14.7016 34.9837 14.7016 34.9743 14.7016C31.7068 14.7016 28.6213 15.4765 25.8906 16.8535L26.0073 16.7998L29.2538 22.6184C30.9342 21.8178 32.9088 21.3487 34.9907 21.3487C34.9953 21.3487 35 21.3487 35.0047 21.3487L35 21.351ZM11.2007 30.3274C8.6193 30.3274 6.52574 32.4186 6.52574 35C6.52574 37.5814 8.61697 39.6726 11.1983 39.6726C13.7797 39.6726 15.8709 37.5814 15.8709 35C15.8709 32.421 13.7797 30.3298 11.2007 30.3274ZM21.351 35V34.9977C21.351 30.3974 23.6266 26.3294 27.1136 23.8577L27.1556 23.8297L23.7433 18.1092C19.6589 20.8539 16.6621 24.9453 15.3738 29.7346L15.3411 29.877C16.8232 31.0743 17.7614 32.8901 17.7614 34.9253C17.7614 34.9347 17.7614 34.944 17.7614 34.951V34.9487C17.7567 36.9909 16.8185 38.8137 15.3528 40.011L15.3411 40.0203C16.6644 44.952 19.6612 49.0411 23.671 51.7391L23.7433 51.7858L27.1556 46.0536C23.6313 43.61 21.351 39.5862 21.351 35.028C21.351 35.0163 21.351 35.0023 21.351 34.9907V35ZM35 48.649C34.9977 48.649 34.993 48.649 34.9883 48.649C32.9064 48.649 30.9319 48.1822 29.1698 47.3443L29.2515 47.3793L26.0049 53.1979C28.6213 54.5235 31.7115 55.3007 34.9813 55.3007C36.9185 55.3007 38.7927 55.0277 40.5665 54.5189L40.4241 54.5539C40.9493 51.4124 43.6473 49.0457 46.8985 49.0457C47.7317 49.0457 48.5299 49.2021 49.2628 49.4845L49.2185 49.4682C52.6727 46.0863 54.9156 41.4837 55.2517 36.3607L55.2541 36.3L48.5906 36.2043C47.9511 43.2039 42.1116 48.649 35 48.649ZM44.5646 51.5664C43.1595 52.3903 42.2306 53.891 42.2306 55.6088C42.2306 58.1879 44.3218 60.2791 46.9008 60.2791C49.4799 60.2791 51.5711 58.1879 51.5711 55.6088C51.5711 54.7476 51.3377 53.9401 50.9316 53.2469L50.9432 53.2679C50.1194 51.8652 48.6186 50.9386 46.9008 50.9386C46.0396 50.9386 45.2344 51.172 44.5412 51.5758L44.5622 51.5641L44.5646 51.5664ZM35 0C54.3298 0 70 15.6702 70 35C70 54.3298 54.3298 70 35 70C15.6702 70 0 54.3298 0 35C0.00933582 15.6748 15.6725 0.00933582 34.9977 0H35Z" fill="#303F9F"/>
</svg>
