<svg xmlns="http://www.w3.org/2000/svg" xml:space="preserve" viewBox="0 0 500 500"><path d="M0 382.398h500v.25H0zM416.779 398.494h33.122v.25h-33.122zM322.527 401.208h8.693v.25h-8.693zM396.586 389.208h19.192v.25h-19.192zM52.459 390.888h43.193v.25H52.459zM104.556 390.888h6.333v.25h-6.333zM131.471 395.111h93.676v.25h-93.676zM237.014 337.8H43.915a5.715 5.715 0 0 1-5.708-5.708V60.66a5.715 5.715 0 0 1 5.708-5.708h193.099a5.715 5.715 0 0 1 5.707 5.708v271.432a5.715 5.715 0 0 1-5.707 5.708M43.915 55.203a5.464 5.464 0 0 0-5.458 5.458v271.432a5.464 5.464 0 0 0 5.458 5.458h193.099a5.463 5.463 0 0 0 5.457-5.458V60.66a5.464 5.464 0 0 0-5.457-5.458H43.915zM453.31 337.8H260.212a5.714 5.714 0 0 1-5.707-5.708V60.66a5.715 5.715 0 0 1 5.707-5.708H453.31a5.714 5.714 0 0 1 5.708 5.708v271.432a5.714 5.714 0 0 1-5.708 5.708M260.212 55.203a5.463 5.463 0 0 0-5.457 5.458v271.432a5.463 5.463 0 0 0 5.457 5.458H453.31a5.464 5.464 0 0 0 5.458-5.458V60.66a5.464 5.464 0 0 0-5.458-5.458H260.212z" style="fill:#ebebeb"/><path d="M146.408 115.65c0-6.259-5.074-11.333-11.333-11.333-1.132 0-2.223.171-3.254.48a24 24 0 0 0 .254-3.48c0-13.255-10.745-24-24-24-1.511 0-2.987.146-4.421.413-3.689-6.037-10.32-10.08-17.912-10.08-11.492 0-20.814 9.233-20.984 20.684-.118-.002-.232-.018-.349-.018-10.677 0-19.333 8.656-19.333 19.333 0 10.678 8.656 19.333 19.333 19.333h71l-.014-.016c6.109-.169 11.013-5.164 11.013-11.316" style="fill:#f0f0f0"/><path d="M104.752 132.611v-22.094H86.73v22.094H72.056l23.685 20.013 23.685-20.013z" style="fill:#e0e0e0"/><path d="M418.285 109.678a5.867 5.867 0 0 0-7.552-5.619q.13-.882.132-1.801c0-6.861-5.562-12.424-12.424-12.424-.782 0-1.546.076-2.289.214-1.909-3.125-5.342-5.218-9.272-5.218-5.949 0-10.774 4.78-10.862 10.707-.061-.001-.12-.009-.181-.009-5.527 0-10.008 4.481-10.008 10.008s4.481 10.008 10.008 10.008h36.753l-.008-.008a5.863 5.863 0 0 0 5.703-5.858" style="fill:#f0f0f0"/><path d="M387.393 110.133v11.437h9.329v-11.437h7.596l-12.261-10.36-12.26 10.36z" style="fill:#e0e0e0"/><path d="M51.099 186.034h89.107v66.714H51.099z" style="fill:#fafafa" transform="rotate(-12.463 95.655 219.397)"/><path d="M55.619 190.327h80.243v57.85H55.619z" style="fill:#e0e0e0" transform="rotate(-12.463 95.743 219.257)"/><path d="m139.461 231.152 1.699 7.685-78.353 17.317-6.069-27.459 13.037-17.724 29.176 18.106 10.65-12.071zM118.918 200.103a6.46 6.46 0 1 1-12.616 2.788 6.46 6.46 0 1 1 12.616-2.788" style="fill:#ebebeb"/><path d="M118.918 200.103a6.46 6.46 0 1 1-12.616 2.788 6.46 6.46 0 1 1 12.616-2.788" style="opacity:.3;fill:#ebebeb"/><path d="M90.223 304.914h55.462v72.428H90.223z" style="fill:#ebebeb" transform="rotate(15.646 117.946 341.1)"/><path d="M104.969 316.079h38.905v3.915h-38.905z" style="fill:#e0e0e0" transform="rotate(15.647 124.417 318.012)"/><path d="M103.121 322.677h38.905v3.915h-38.905z" style="fill:#e0e0e0" transform="rotate(15.647 122.57 324.608)"/><path d="M101.273 329.274h38.905v3.915h-38.905z" style="fill:#e0e0e0" transform="rotate(15.647 120.722 331.205)"/><path d="M99.426 335.871h38.905v3.915H99.426z" style="fill:#e0e0e0" transform="rotate(15.647 118.875 337.803)"/><path d="M97.578 342.469h38.905v3.915H97.578z" style="fill:#e0e0e0" transform="rotate(15.647 117.028 344.4)"/><path d="M95.73 349.066h38.905v3.915H95.73z" style="fill:#e0e0e0" transform="rotate(15.647 115.18 350.996)"/><path d="M93.883 355.664h38.905v3.915H93.883z" style="fill:#e0e0e0" transform="rotate(15.647 113.333 357.593)"/><path d="M92.289 360.412h25.194v3.915H92.289z" style="fill:#e0e0e0" transform="rotate(15.647 104.885 362.348)"/><path d="M77.154 276.704h55.462v72.428H77.154z" style="fill:#fafafa" transform="rotate(15.646 104.878 312.893)"/><path d="M91.899 287.87h38.905v3.915H91.899z" style="fill:#e0e0e0" transform="rotate(15.647 111.348 289.805)"/><path d="M90.051 294.467h38.905v3.915H90.051z" style="fill:#e0e0e0" transform="rotate(15.647 109.5 296.402)"/><path d="M88.204 301.064h38.905v3.915H88.204z" style="fill:#e0e0e0" transform="rotate(15.647 107.653 302.998)"/><path d="M86.356 307.662h38.905v3.915H86.356z" style="fill:#e0e0e0" transform="rotate(15.647 105.806 309.596)"/><path d="M84.508 314.259h38.905v3.915H84.508z" style="fill:#e0e0e0" transform="rotate(15.647 103.959 316.193)"/><path d="M82.661 320.857h38.905v3.915H82.661z" style="fill:#e0e0e0" transform="rotate(15.647 102.111 322.789)"/><path d="M80.813 327.454h38.905v3.915H80.813z" style="fill:#e0e0e0" transform="rotate(15.647 100.263 329.386)"/><path d="M79.219 332.203h25.194v3.915H79.219z" style="fill:#e0e0e0" transform="rotate(15.647 91.815 334.135)"/><path d="M443.232 180.467c-5.723-4.448-13.354-19.072-13.344-19.138l-7.481 51.52c.169-1.166-4.397-2.544-7.448-2.987-7.387-1.073-13.772 2.144-14.499 7.15s4.769 9.948 12.157 11.02c7.387 1.073 13.702-2.154 14.429-7.16.109-.753-.454-1.577-.353-2.276l5.764-39.695s3.891 5.325 10.631 8.787c5.483 2.816 7.265 10.648 7.265 10.648s1.72-10.998-7.121-17.869M387.053 205.405c-3.947-3.067-9.209-13.153-9.203-13.198l-5.159 35.53c.117-.804-3.032-1.754-5.137-2.06-5.094-.74-9.497 1.478-9.999 4.93-.501 3.452 3.289 6.86 8.384 7.6 5.094.74 9.449-1.486 9.951-4.938.075-.519-.313-1.087-.243-1.57l3.975-27.374s2.683 3.672 7.332 6.059c3.781 1.942 5.01 7.343 5.01 7.343s1.187-7.584-4.911-12.322M385.167 307.539l-2.744-2.16c-1.004-.791-2.321-1.06-3.51-.717l-13.798 3.974a3.45 3.45 0 0 0-2.406 2.421l-.859 3.198c-.314 1.171-1.217 2.079-2.406 2.422l-8.234 2.372c-1.963.565-2.999 2.602-2.315 4.548l15.939 45.312c.685 1.947 2.831 3.066 4.794 2.5l65.258-18.797c1.963-.565 3-2.602 2.315-4.548l-15.939-45.312c-.685-1.946-2.831-3.066-4.794-2.501l-27.793 8.006c-1.187.342-2.504.072-3.508-.718" style="fill:#e0e0e0"/><path d="m424.256 302.763-59.786 17.221c-2.492.718-4.116 3.356-3.627 5.893l7.9 40.939c.49 2.537 2.907 4.011 5.4 3.293l59.786-17.221c2.493-.718 4.116-3.356 3.627-5.893l-7.9-40.939c-.489-2.537-2.907-4.011-5.4-3.293" style="fill:#e6e6e6"/><ellipse cx="250" cy="416.238" rx="193.889" ry="11.323" style="fill:#f5f5f5"/><path d="M450.057 239.002c0 56.851-42.962 103.102-95.769 103.102s-95.77-46.251-95.77-103.102c0-56.85 42.962-103.101 95.77-103.101 32.571 0 62.487 17.498 80.265 46.858l-7.044 4.709 18.374 5.657 3.133-20.035-6.57 4.393c-19.486-32.315-52.36-51.581-88.158-51.581-57.93 0-105.059 50.737-105.059 113.101s47.129 113.102 105.059 113.102 105.058-50.737 105.058-113.102h-9.289z" style="fill:#407bff"/><path d="M450.057 239.002c0 56.851-42.962 103.102-95.769 103.102s-95.77-46.251-95.77-103.102c0-56.85 42.962-103.101 95.77-103.101 32.571 0 62.487 17.498 80.265 46.858l-7.044 4.709 18.374 5.657 3.133-20.035-6.57 4.393c-19.486-32.315-52.36-51.581-88.158-51.581-57.93 0-105.059 50.737-105.059 113.101s47.129 113.102 105.059 113.102 105.058-50.737 105.058-113.102h-9.289z" style="opacity:.7;fill:#fff"/><path d="M368.436 217.644V204.05l-6.502-.659a37.9 37.9 0 0 0-4.849-12.556l4.176-5.43-8.929-9.613-5.045 4.496c-3.495-2.469-7.43-4.275-11.662-5.22l-.612-7h-12.627l-.612 7c-4.233.945-8.168 2.751-11.663 5.22l-5.045-4.496-8.928 9.613 4.176 5.43a37.9 37.9 0 0 0-4.849 12.556l-6.501.659v13.594l6.501.659a37.9 37.9 0 0 0 4.849 12.556l-4.176 5.431 8.928 9.611 5.044-4.496c3.496 2.469 7.431 4.275 11.664 5.22l.612 6.999h12.627l.612-6.999c4.233-.945 8.168-2.751 11.663-5.22l5.044 4.496 8.929-9.611-4.176-5.431a37.9 37.9 0 0 0 4.849-12.556zm-39.737 11.605c-9.441 0-17.094-8.239-17.094-18.402s7.653-18.402 17.094-18.402c9.44 0 17.093 8.239 17.093 18.402s-7.652 18.402-17.093 18.402" style="fill:#407bff"/><path d="M419.612 256.014v-10.652l-5.094-.516a29.7 29.7 0 0 0-3.8-9.839l3.272-4.255-6.996-7.533-3.953 3.523c-2.738-1.935-5.822-3.35-9.139-4.091l-.48-5.484h-9.894l-.48 5.484c-3.317.741-6.401 2.156-9.139 4.091l-3.953-3.523-6.997 7.533 3.273 4.255a29.7 29.7 0 0 0-3.8 9.839l-5.095.516v10.652l5.095.517a29.7 29.7 0 0 0 3.8 9.839l-3.273 4.255 6.997 7.533 3.953-3.523c2.739 1.934 5.822 3.35 9.139 4.09l.48 5.484h9.894l.48-5.484c3.317-.741 6.401-2.156 9.14-4.09l3.953 3.523 6.996-7.533-3.272-4.255a29.7 29.7 0 0 0 3.8-9.839zm-31.138 9.094c-7.398 0-13.395-6.456-13.395-14.42 0-7.965 5.997-14.421 13.395-14.421s13.395 6.456 13.395 14.421-5.997 14.42-13.395 14.42" style="fill:#407bff"/><path d="M368.436 286.255v-8.947l-4.28-.434a24.9 24.9 0 0 0-3.191-8.264l2.749-3.574-5.877-6.327-3.32 2.959c-2.301-1.625-4.891-2.814-7.677-3.435l-.403-4.607h-8.31l-.403 4.607c-2.786.622-5.376 1.811-7.677 3.436l-3.32-2.959-5.877 6.327 2.749 3.574a25 25 0 0 0-3.191 8.264l-4.28.434v8.947l4.279.433a25 25 0 0 0 3.192 8.264l-2.749 3.574 5.877 6.327 3.32-2.959c2.3 1.625 4.891 2.814 7.677 3.436l.403 4.606h8.31l.403-4.606c2.786-.623 5.376-1.811 7.677-3.436l3.32 2.959 5.877-6.327-2.749-3.574a24.9 24.9 0 0 0 3.192-8.264zm-26.154 7.638c-6.214 0-11.251-5.422-11.251-12.112 0-6.689 5.037-12.112 11.251-12.112s11.251 5.423 11.251 12.112c0 6.69-5.038 12.112-11.251 12.112" style="fill:#407bff"/><path d="M368.436 217.644V204.05l-6.502-.659a37.9 37.9 0 0 0-4.849-12.556l4.176-5.43-8.929-9.613-5.045 4.496c-3.495-2.469-7.43-4.275-11.662-5.22l-.612-7h-12.627l-.612 7c-4.233.945-8.168 2.751-11.663 5.22l-5.045-4.496-8.928 9.613 4.176 5.43a37.9 37.9 0 0 0-4.849 12.556l-6.501.659v13.594l6.501.659a37.9 37.9 0 0 0 4.849 12.556l-4.176 5.431 8.928 9.611 5.044-4.496c3.496 2.469 7.431 4.275 11.664 5.22l.612 6.999h12.627l.612-6.999c4.233-.945 8.168-2.751 11.663-5.22l5.044 4.496 8.929-9.611-4.176-5.431a37.9 37.9 0 0 0 4.849-12.556zm-39.737 11.605c-9.441 0-17.094-8.239-17.094-18.402s7.653-18.402 17.094-18.402c9.44 0 17.093 8.239 17.093 18.402s-7.652 18.402-17.093 18.402" style="opacity:.7;fill:#fff"/><path d="M419.612 256.014v-10.652l-5.094-.516a29.7 29.7 0 0 0-3.8-9.839l3.272-4.255-6.996-7.533-3.953 3.523c-2.738-1.935-5.822-3.35-9.139-4.091l-.48-5.484h-9.894l-.48 5.484c-3.317.741-6.401 2.156-9.139 4.091l-3.953-3.523-6.997 7.533 3.273 4.255a29.7 29.7 0 0 0-3.8 9.839l-5.095.516v10.652l5.095.517a29.7 29.7 0 0 0 3.8 9.839l-3.273 4.255 6.997 7.533 3.953-3.523c2.739 1.934 5.822 3.35 9.139 4.09l.48 5.484h9.894l.48-5.484c3.317-.741 6.401-2.156 9.14-4.09l3.953 3.523 6.996-7.533-3.272-4.255a29.7 29.7 0 0 0 3.8-9.839zm-31.138 9.094c-7.398 0-13.395-6.456-13.395-14.42 0-7.965 5.997-14.421 13.395-14.421s13.395 6.456 13.395 14.421-5.997 14.42-13.395 14.42" style="opacity:.5;fill:#fff"/><path d="M368.436 286.255v-8.947l-4.28-.434a24.9 24.9 0 0 0-3.191-8.264l2.749-3.574-5.877-6.327-3.32 2.959c-2.301-1.625-4.891-2.814-7.677-3.435l-.403-4.607h-8.31l-.403 4.607c-2.786.622-5.376 1.811-7.677 3.436l-3.32-2.959-5.877 6.327 2.749 3.574a25 25 0 0 0-3.191 8.264l-4.28.434v8.947l4.279.433a25 25 0 0 0 3.192 8.264l-2.749 3.574 5.877 6.327 3.32-2.959c2.3 1.625 4.891 2.814 7.677 3.436l.403 4.606h8.31l.403-4.606c2.786-.623 5.376-1.811 7.677-3.436l3.32 2.959 5.877-6.327-2.749-3.574a24.9 24.9 0 0 0 3.192-8.264zm-26.154 7.638c-6.214 0-11.251-5.422-11.251-12.112 0-6.689 5.037-12.112 11.251-12.112s11.251 5.423 11.251 12.112c0 6.69-5.038 12.112-11.251 12.112" style="opacity:.3;fill:#fff"/><path d="M351.81 87.275v303.111c0 2.493-2.004 4.43-4.497 4.43H206.247c-1.122 0-2.109-.422-2.819-1.131-.748-.729-1.199-1.764-1.199-2.934V86.91c0-1.985 1.457-3.72 3.442-3.72h40.061c1.131 0 2.157.738 2.579 1.803l1.659 4.085c.422 1.055 1.448 1.783 2.579 1.783h49.026c1.132 0 2.158-.7 2.579-1.755l1.659-4.104c.422-1.064 1.448-1.812 2.579-1.812h39.485c2.188 0 3.933 1.898 3.933 4.085" style="opacity:.1"/><path d="M327.909 94.863v287.952c0 2.368-1.904 4.208-4.272 4.208h-134.01c-1.066 0-2.004-.401-2.678-1.075-.71-.692-1.139-1.676-1.139-2.787V94.517c0-1.885 1.384-3.534 3.27-3.534h38.057c1.075 0 2.049.701 2.45 1.712l1.576 3.88c.401 1.002 1.375 1.694 2.45 1.694h46.574a2.65 2.65 0 0 0 2.45-1.667l1.576-3.898c.401-1.011 1.375-1.722 2.45-1.722h37.511c2.077.001 3.735 1.804 3.735 3.881" style="fill:#407bff"/><path d="M203.477 99.943h1.98v2.64h-1.98z" style="opacity:.6;fill:#fff" transform="rotate(-180 204.467 101.263)"/><path d="M200.249 99.062h1.98v3.521h-1.98z" style="opacity:.6;fill:#fff" transform="rotate(-180 201.24 100.823)"/><path d="M197.022 98.182h1.98v4.401h-1.98z" style="opacity:.6;fill:#fff" transform="rotate(-180 198.012 100.382)"/><path d="M193.795 97.301h1.98v5.282h-1.98z" style="opacity:.6;fill:#fff" transform="rotate(-180 194.785 99.942)"/><path d="M308.591 98.98h1.174v2.64h-1.174z" style="opacity:.6;fill:#fff"/><path d="M310.572 98.016h9.351v4.567h-9.351z" style="opacity:.6;fill:#fff" transform="rotate(-180 315.247 100.3)"/><path d="M211.796 250.54h90.125a5.086 5.086 0 1 1 0 10.173h-90.125a5.088 5.088 0 0 1 0-10.173" style="opacity:.3"/><path d="M260.932 251.451a4.18 4.18 0 0 1 4.175 4.176 4.18 4.18 0 0 1-4.175 4.176h-49.135a4.18 4.18 0 0 1-4.176-4.176 4.18 4.18 0 0 1 4.176-4.176z" style="fill:#407bff"/><path d="M260.932 251.451a4.18 4.18 0 0 1 4.175 4.176 4.18 4.18 0 0 1-4.175 4.176h-49.135a4.18 4.18 0 0 1-4.176-4.176 4.18 4.18 0 0 1 4.176-4.176z" style="opacity:.3;fill:#fff"/><path d="m244.674 247.232-1.159-6.485h1.025l.814 5.056.82-5.056h1.026l-1.18 6.485zM248.017 247.232v-6.49h2.784v.983h-1.806v1.77h1.32v.983h-1.32v1.769h1.806v.983h-2.784zM253.017 240.747q.817 0 1.201.45.336.394.336 1.098v.942q0 .689-.523 1.164l.725 2.831h-1.058l-.593-2.442h-.6519999999999999v2.442h-.978v-6.485zm.585 1.564q0-.564-.559-.564h-.59v2.075h.59a.54.54 0 0 0 .396-.165.55.55 0 0 0 .163-.398zM255.429 246.26h.978v.978h-.978zM257.768 242.574q0-.92.496-1.408.43-.429 1.129-.429.641 0 1.095.481.453.48.453 1.123 0 .661-.295 1.278-.16.341-.751 1.175-.16.227-.476.709l-.176.264q-.17.26-.259.409a.3.3 0 0 0-.042.093h1.92v.958h-3.11v-.897q0-.03.213-.357.1-.151.224-.331l.254-.367q.223-.305.7-.977.451-.631.674-1.144a2 2 0 0 0 .181-.781.78.78 0 0 0-.165-.502.58.58 0 0 0-.466-.217q-.409 0-.58.471a1.1 1.1 0 0 0-.057.373v.248h-.962zM261.613 246.26h.978v.978h-.978zM266.364 245.752q0 .647-.456 1.098-.455.45-1.092.45-.648 0-1.1-.453a1.5 1.5 0 0 1-.453-1.095v-3.54q0-.647.456-1.1a1.5 1.5 0 0 1 1.097-.453q.647 0 1.097.456t.45 1.097v3.54zm-1.014-3.561a.54.54 0 0 0-.166-.398.54.54 0 0 0-.398-.166.54.54 0 0 0-.396.166.55.55 0 0 0-.163.398v3.545q0 .233.163.398a.53.53 0 0 0 .396.166.54.54 0 0 0 .398-.166.54.54 0 0 0 .166-.398zM268.253 241.721v1.392a.94.94 0 0 1 .41-.32.9.9 0 0 1 .327-.057q.644 0 .95.45.264.388.265 1.097v1.398q0 .719-.456 1.18-.435.445-1.097.445a1.38 1.38 0 0 1-1.066-.466 1.55 1.55 0 0 1-.409-1.087v-.155l.937-.072.021.223q.036.389.315.518a.4.4 0 0 0 .176.041q.6 0 .6-.626v-1.589a.6.6 0 0 0-.208-.471.4.4 0 0 0-.276-.088q-.26 0-.385.201a.73.73 0 0 0-.104.373v.176h-.978v-3.545h2.862v.983h-1.884zM238.072 181.115q-1.311 0-2.223-.913a3.02 3.02 0 0 1-.913-2.213v-10.162h1.94v10.141q0 .472.336.802t.808.331q.471 0 .802-.331.33-.33.33-.802v-10.141h2.066v10.162q0 1.321-.923 2.224a3.07 3.07 0 0 1-2.223.902M246.105 167.827q1.447 0 2.308.913.797.87.797 2.223v1.909q0 1.3-.907 2.223a2.96 2.96 0 0 1-2.197.923h-1.143v4.95h-1.982v-13.141zm1.185 3.168q0-.514-.309-.829-.31-.315-.823-.314h-1.196v4.205h1.196q.471 0 .802-.335.33-.336.33-.808zM257.022 177.822q0 1.3-.913 2.223a2.98 2.98 0 0 1-2.202.923h-3.115v-13.151h3.115q1.3 0 2.208.923.906.923.907 2.213zm-4.248 1.185h1.196q.471 0 .797-.341.325-.341.325-.802v-6.88q0-.47-.331-.808a1.07 1.07 0 0 0-.792-.335h-1.196v9.166zM260.93 177.947l-.481 3.021h-2.064l2.234-13.141h2.727l2.202 13.141h-2.084l-.464-3.021zm1.041-7.11-.734 5.181h1.468zM267.466 169.82h-2.108v-1.993h6.188v1.993h-2.098v11.148h-1.982zM273.14 180.968v-13.151h5.642v1.993h-3.66v3.586h2.674v1.993h-2.674v3.586h3.66v1.993z" style="fill:#fff"/><path d="M272.491 284.56h-31.265a4.134 4.134 0 0 1-4.134-4.134v-6.72a4.134 4.134 0 0 1 4.134-4.134h31.265a4.134 4.134 0 0 1 4.134 4.134v6.72a4.133 4.133 0 0 1-4.134 4.134" style="opacity:.2"/><path d="M247.274 279.934q-.647 0-1.1-.453a1.5 1.5 0 0 1-.453-1.095v-3.54q0-.647.456-1.1a1.5 1.5 0 0 1 1.097-.453q.647 0 1.097.456.45.455.45 1.097v.74h-1.014v-.761a.54.54 0 0 0-.166-.398.54.54 0 0 0-.398-.166.54.54 0 0 0-.396.166.55.55 0 0 0-.163.398v3.551q0 .232.163.396a.54.54 0 0 0 .396.163.55.55 0 0 0 .398-.163.54.54 0 0 0 .166-.396v-.896h1.014v.905q0 .647-.456 1.098-.453.45-1.091.451M250.637 278.36l-.238 1.49h-1.018l1.102-6.485h1.346l1.086 6.485h-1.028l-.229-1.49zm.514-3.509-.362 2.558h.725zM254.836 273.36l1.298 4.362v-4.362h.978v6.49h-1.051l-1.346-4.156v4.156h-.978v-6.49zM259.524 279.934q-.648 0-1.1-.453a1.5 1.5 0 0 1-.453-1.095v-3.54q0-.647.455-1.1a1.5 1.5 0 0 1 1.097-.453q.647 0 1.097.456.45.455.45 1.097v.74h-1.014v-.761a.54.54 0 0 0-.166-.398.54.54 0 0 0-.398-.166.54.54 0 0 0-.396.166.55.55 0 0 0-.163.398v3.551q0 .232.163.396a.54.54 0 0 0 .396.163.55.55 0 0 0 .398-.163.54.54 0 0 0 .166-.396v-.896h1.014v.905q0 .647-.456 1.098a1.5 1.5 0 0 1-1.09.451M261.874 279.851v-6.49h2.784v.983h-1.806v1.77h1.32v.983h-1.32v1.77h1.806v.983h-2.784zM267.997 279.851h-2.666v-6.485h.978v5.513h1.688z" style="fill:#fff"/><g style="opacity:.3"><path d="M292.61 340.88h-71.501a1.266 1.266 0 0 1 0-2.532h71.501a1.266 1.266 0 0 1 0 2.532M301.719 348.476H212a1.266 1.266 0 0 1 0-2.532h89.719a1.266 1.266 0 0 1 0 2.532M283.501 356.072h-53.284a1.266 1.266 0 0 1 0-2.532h53.284a1.266 1.266 0 1 1 0 2.532M301.719 371.265H212a1.266 1.266 0 0 1 0-2.532h89.719a1.267 1.267 0 0 1 0 2.532" style="fill:#fff"/></g><g style="opacity:.1"><path d="M249.736 98.27 208.828 251.5v.009l-.456 1.722v.009l-.738 2.76v.009l-.464 1.722-21.36 80.013v-96.837l40.025-149.924h1.303c1.075 0 2.049.701 2.45 1.712l1.576 3.88c.401 1.002 1.375 1.694 2.45 1.694h16.122zM327.909 176.525v96.837l-25.514 95.571-.619 2.322-4.208 15.768h-25.852l4.209-15.758.674-2.533 3.379-12.661.674-2.532 1.357-5.065.675-2.532 1.348-5.065.674-2.532 21.269-79.658v-.009l.984-3.68v-.009zM263.746 98.27l-40.653 152.274-.246.911-2.222 8.344-.246.911-33.43 125.239c-.71-.692-1.139-1.676-1.139-2.787v-14.729l28.757-107.722.246-.911 2.223-8.344.246-.911L257.935 98.27z" style="fill:#fff"/></g><path d="M403.01 356.813c-1.601-2.636-4.237-.344-4.237-.344.376-5.051-4.271-8.506-4.271-8.506s5.4 0 6.153-5.152-1.883-2.756-4.356-2.791-5.058 7.19-1.797 11.254 2.387 11-5.144 17.671c-1.837 1.627-3.086 3.794-3.931 6.138.568-6.129.889-14.764-.914-20.529-3.063-9.791 2.774-12.427 4.469-17.323s-4.469-9.038-4.469-9.038 5.787-2.636 2.962-5.649-8.662-2.603-8.662 1.335c0 3.937 3.954 5.444 3.954 5.444s4.519 4.707 4.519 7.155-4.519 7.72-4.519 7.72 2.071-4.512-2.071-4.704-5.461 5.269-3.766 7.716 4.519.376 4.519.376.329 5.272 1.294 8.473c.424 1.408.225 6.931-.131 12.677-.835-2.075-2.014-3.976-3.668-5.441-7.532-6.671-8.405-13.607-5.144-17.671s.676-11.289-1.797-11.254-5.109-2.361-4.356 2.791 6.153 5.152 6.153 5.152-4.647 3.455-4.27 8.506c0 0-2.636-2.292-4.237.344-2.857 4.707 3.766 7.626 4.879 5.309 0 0 14.045 9.942 10.655 24.252l.787 1.162c-.101 1.155-.165 1.851-.165 1.851l1.098-.473 1.25 1.845c-.065 3.577.32 6.221.32 6.221l3.358-4.957c-3.389-14.31 10.655-24.252 10.655-24.252 1.114 2.318 7.738-.602 4.88-5.308" style="fill:#407bff"/><path d="M403.01 356.813c-1.601-2.636-4.237-.344-4.237-.344.376-5.051-4.271-8.506-4.271-8.506s5.4 0 6.153-5.152-1.883-2.756-4.356-2.791-5.058 7.19-1.797 11.254 2.387 11-5.144 17.671c-1.837 1.627-3.086 3.794-3.931 6.138.568-6.129.889-14.764-.914-20.529-3.063-9.791 2.774-12.427 4.469-17.323s-4.469-9.038-4.469-9.038 5.787-2.636 2.962-5.649-8.662-2.603-8.662 1.335c0 3.937 3.954 5.444 3.954 5.444s4.519 4.707 4.519 7.155-4.519 7.72-4.519 7.72 2.071-4.512-2.071-4.704-5.461 5.269-3.766 7.716 4.519.376 4.519.376.329 5.272 1.294 8.473c.424 1.408.225 6.931-.131 12.677-.835-2.075-2.014-3.976-3.668-5.441-7.532-6.671-8.405-13.607-5.144-17.671s.676-11.289-1.797-11.254-5.109-2.361-4.356 2.791 6.153 5.152 6.153 5.152-4.647 3.455-4.27 8.506c0 0-2.636-2.292-4.237.344-2.857 4.707 3.766 7.626 4.879 5.309 0 0 14.045 9.942 10.655 24.252l.787 1.162c-.101 1.155-.165 1.851-.165 1.851l1.098-.473 1.25 1.845c-.065 3.577.32 6.221.32 6.221l3.358-4.957c-3.389-14.31 10.655-24.252 10.655-24.252 1.114 2.318 7.738-.602 4.88-5.308" style="opacity:.2;fill:#407bff"/><g style="opacity:.3"><path d="M403.01 356.813c-1.601-2.636-4.237-.344-4.237-.344.376-5.051-4.271-8.506-4.271-8.506s5.4 0 6.153-5.152-1.883-2.756-4.356-2.791-5.058 7.19-1.797 11.254 2.387 11-5.144 17.671c-1.837 1.627-3.086 3.794-3.931 6.138.568-6.129.889-14.764-.914-20.529-3.063-9.791 2.774-12.427 4.469-17.323s-4.469-9.038-4.469-9.038 5.787-2.636 2.962-5.649-8.662-2.603-8.662 1.335c0 3.937 3.954 5.444 3.954 5.444s4.519 4.707 4.519 7.155-4.519 7.72-4.519 7.72 2.071-4.512-2.071-4.704-5.461 5.269-3.766 7.716 4.519.376 4.519.376.329 5.272 1.294 8.473c.424 1.408.225 6.931-.131 12.677-.835-2.075-2.014-3.976-3.668-5.441-7.532-6.671-8.405-13.607-5.144-17.671s.676-11.289-1.797-11.254-5.109-2.361-4.356 2.791 6.153 5.152 6.153 5.152-4.647 3.455-4.27 8.506c0 0-2.636-2.292-4.237.344-2.857 4.707 3.766 7.626 4.879 5.309 0 0 14.045 9.942 10.655 24.252l.787 1.162c-.101 1.155-.165 1.851-.165 1.851l1.098-.473 1.25 1.845c-.065 3.577.32 6.221.32 6.221l3.358-4.957c-3.389-14.31 10.655-24.252 10.655-24.252 1.114 2.318 7.738-.602 4.88-5.308"/><path d="M403.01 356.813c-1.601-2.636-4.237-.344-4.237-.344.376-5.051-4.271-8.506-4.271-8.506s5.4 0 6.153-5.152-1.883-2.756-4.356-2.791-5.058 7.19-1.797 11.254 2.387 11-5.144 17.671c-1.837 1.627-3.086 3.794-3.931 6.138.568-6.129.889-14.764-.914-20.529-3.063-9.791 2.774-12.427 4.469-17.323s-4.469-9.038-4.469-9.038 5.787-2.636 2.962-5.649-8.662-2.603-8.662 1.335c0 3.937 3.954 5.444 3.954 5.444s4.519 4.707 4.519 7.155-4.519 7.72-4.519 7.72 2.071-4.512-2.071-4.704-5.461 5.269-3.766 7.716 4.519.376 4.519.376.329 5.272 1.294 8.473c.424 1.408.225 6.931-.131 12.677-.835-2.075-2.014-3.976-3.668-5.441-7.532-6.671-8.405-13.607-5.144-17.671s.676-11.289-1.797-11.254-5.109-2.361-4.356 2.791 6.153 5.152 6.153 5.152-4.647 3.455-4.27 8.506c0 0-2.636-2.292-4.237.344-2.857 4.707 3.766 7.626 4.879 5.309 0 0 14.045 9.942 10.655 24.252l.787 1.162c-.101 1.155-.165 1.851-.165 1.851l1.098-.473 1.25 1.845c-.065 3.577.32 6.221.32 6.221l3.358-4.957c-3.389-14.31 10.655-24.252 10.655-24.252 1.114 2.318 7.738-.602 4.88-5.308" style="opacity:.2"/></g><path d="M400.263 417.856h-32.171l-3.47-35.222h39.112z" style="fill:#407bff"/><path d="M400.263 417.856h-32.171l-3.47-35.222h39.112z" style="opacity:.3;fill:#fff"/><path d="M362.904 378.747h42.547v7.772h-42.547z" style="fill:#407bff"/><path d="M362.904 378.747h42.547v7.772h-42.547z" style="opacity:.5;fill:#fff"/><path d="M157.888 179.843c3.791.173 19.683 21.513 19.683 21.513l5.901-7.672s9.099 17.677 4.599 26.091-28.22-14.586-28.22-14.586z" style="fill:#407bff"/><path d="m157.885 179.846 1.565 17.02.4 8.32s3.9 3.78 8.83 7.71c7.24 5.78 16.71 11.88 19.39 6.88 4.5-8.41-4.6-26.09-4.6-26.09l-5.9 7.67-.04-.06c-.899-1.29-15.975-21.29-19.645-21.45" style="opacity:.6;fill:#fff"/><path d="m159.451 196.866.4 8.32s3.9 3.78 8.83 7.71c.47-9.99-8.83-24.54-8.83-24.54zM177.571 201.356l-.849 1.625 2.474 9.625s-6.822-6.208-2.474-12.292z" style="opacity:.2"/><path d="m158.571 233.201-32 2.472s-.435-19.118-2.985-29.068c-.83-3.22-1.87-6.84-3.19-11.04-.56-1.78-1.17-3.66-1.84-5.67-.61-1.87-1.28-3.86-2.01-5.95 4.38-1.4 8.84-2.47 13.38-3.23 4.78-.85 9.62-1.36 14.48-1.53 6.27-.05 13.48.66 13.48.66s1.02.25 1.67 6.89c.589 6.251.315 23.756-.985 46.466" style="fill:#407bff"/><path d="m158.57 233.2-32 2.47-.03-1.1c-.14-4.19-.77-19.44-2.95-27.96-.59-2.3-1.29-4.81-2.13-7.58-.33-1.11-.68-2.26-1.06-3.46-.56-1.78-1.17-3.66-1.84-5.67-.61-1.87-1.28-3.86-2.01-5.95 4.38-1.4 8.84-2.47 13.38-3.23 4.78-.85 9.62-1.36 14.48-1.53 6.27-.05 13.48.66 13.48.66s1.02.25 1.67 6.89c.59 6.25.31 23.75-.99 46.46" style="opacity:.6;fill:#fff"/><path d="m118.401 395.096 4.83 2.84s2.34-3.33 7.34-8.7v-.01c1.4-1.48 2.87-3.12 4.4-4.88 3.06-3.51 6.37-7.52 9.84-11.83 1.02-1.27 2.06-2.57 3.11-3.89 12.09-15.21 25.16-33.09 30.05-45.18 1.52-3.76 2.26-6.95 1.93-9.34-.99-7.22-3.8-18.09-7.01-28.59-4.88-16.05-10.37-31.26-10.37-31.26l-13.49 22.85s4.14 9.87 7.91 20.38c3.71 10.32 7.06 21.27 5.82 24.12-.12.28-.27.61-.44.96-2.24 4.64-8.44 15.15-15.48 26.76-.71 1.17-1.43 2.35-2.15 3.53-3.78 6.2-7.71 12.57-11.35 18.42-1.42 2.3-2.8 4.52-4.11 6.62-6.2 9.97-10.83 17.2-10.83 17.2" style="fill:#eec1bb"/><path d="M148.196 368.626c-6.38 8.02-12.51 15.3-17.07 20.6a156 156 0 0 1-1.83-11.33c5.27-8.46 11.72-18.9 17.58-28.57-.051 5.12.139 12.69 1.32 19.3" style="opacity:.2"/><path d="M124.121 302.506c1.67 11.39 4.05 21.71 5.6 27.86.93 3.69 1.56 5.87 1.56 5.87-.09 11.49.83 23.8 2.06 35.04.51 4.58 1.06 8.98 1.63 13.07 2.1 15.14 4.31 26.01 4.31 26.01l5.75-.75-.22-37.09-.12-19.66-.16-26.75-.06-4.66-.28-20.34-.41-30-20-9c-2.68 11.4-1.68 26.68.34 40.4" style="fill:#eec1bb"/><path d="m173.01 285.93-17.4 7.91c-3.35-9.04-6.58-16.73-6.58-16.73l13.49-22.85s5.49 15.21 10.37 31.26zM144.13 296.64l-20.62 1.33c-1.58-12.47-2.12-25.7.27-35.86l20 9z" style="opacity:.2"/><path d="M118.844 391.942c.589-.428 5.568 7.031 5.568 7.031s-1.109 7.776 1.138 12.791-2.118 4.587-5.747-.164l-8.976-11.753c-2.579-3.376 1.909-3.462 8.017-7.905" style="fill:#263238"/><path d="M126.101 404.602c-1.131-.265-1.865-3.489-2.001-4.133a.2.2 0 0 1-.001-.094l.001-.001a.2.2 0 0 1 .026-.071h.001a.2.2 0 0 1 .049-.06c.001.002.001-.001.001-.001h.001l.001-.001a.2.2 0 0 1 .082-.046c.104-.033 2.208-.697 3.344-.04.362.209.59.525.678.939.094.442.013.753-.241.924-.391.263-1.152.043-1.902-.299.517.556.972 1.185 1.043 1.728a.95.95 0 0 1-.191.747c-.265.335-.524.426-.729.426a.6.6 0 0 1-.162-.018m.108-.459c.046.01.186.045.412-.241a.5.5 0 0 0 .093-.393c-.097-.738-1.211-1.819-1.997-2.48.357 1.386.96 2.989 1.492 3.114m-1.301-3.631c1.204.748 2.533 1.343 2.868 1.115.104-.07.072-.302.043-.434a.91.91 0 0 0-.452-.63c-.292-.169-.68-.228-1.079-.228a6.5 6.5 0 0 0-1.38.177" style="fill:#407bff"/><path d="M137.246 406.686c.017-.728 8.968-.157 8.968-.157s5.506 5.601 10.855 6.859 2.36 4.468-3.618 4.468h-14.789c-4.248 0-1.593-3.619-1.416-11.17" style="fill:#263238"/><path d="M147.213 407.685a.2.2 0 0 1-.074-.055l-.001-.001a.2.2 0 0 1-.041-.065v-.001a.2.2 0 0 1-.017-.073v-.002a.2.2 0 0 1 .014-.095c.038-.107.789-2.179 1.997-2.682a1.38 1.38 0 0 1 1.158.032q.613.292.589.753c-.027.47-.665.943-1.392 1.331.755-.073 1.532-.052 2.007.219a.96.96 0 0 1 .478.606c.135.53-.043.812-.216.954-.186.153-.463.215-.79.215-1.253-.002-3.241-.912-3.712-1.136m.819-.15c1.32.559 2.958 1.052 3.381.705.037-.03.148-.122.059-.473a.5.5 0 0 0-.256-.313c-.248-.142-.626-.196-1.055-.196-.69 0-1.511.139-2.129.277m1.239-2.389c-.702.291-1.255 1.309-1.535 1.923 1.325-.504 2.605-1.199 2.628-1.602.007-.125-.197-.241-.32-.298a.95.95 0 0 0-.412-.099.9.9 0 0 0-.361.076" style="fill:#407bff"/><path d="M141.745 186.316c-7.95-1.02-10.34-4.42-10.34-4.42 3.25-3.06 2.66-7.58 1.83-10.4-.45-1.56-.98-2.6-.98-2.6l9.57 1.79c-.25 1.58-.36 2.91-.37 4.03-.02 1.23.09 2.2.27 2.96.65 2.86 2.28 2.9 2.28 2.9 1.68 3.14-2.26 5.74-2.26 5.74" style="fill:#eec1bb"/><path d="M141.455 174.716c-.02 1.23.09 2.2.27 2.96-3.8-.5-6.68-3.54-8.49-6.18-.45-1.56-.98-2.6-.98-2.6l9.57 1.79c-.25 1.58-.36 2.91-.37 4.03" style="opacity:.2"/><path d="M133.218 138.604c-13.537 1.088-21.512 36.294-2.361 32.934 5.637-.989 29.037-18.91 20.065-25.718s-17.704-7.216-17.704-7.216" style="fill:#263238"/><path d="M143.125 145.262c8.242 1.19 10.258 5.986 9.635 14.567-.779 10.723-4.221 17.925-14.199 14.169-13.552-5.1-9.124-30.713 4.564-28.736" style="fill:#eec1bb"/><path d="M147.498 158.599s.831 2.318 1.905 3.765c0 0-.867 1.019-2.307.618z" style="fill:#d4827d"/><path d="M142.551 157.196c-.082.679-.515 1.186-.968 1.131s-.754-.65-.672-1.329.516-1.186.968-1.131c.453.055.754.65.672 1.329" style="fill:#263238"/><path d="m141.686 155.877 1.548-.401s-.886 1.155-1.548.401M151.013 158.074c-.082.679-.516 1.186-.968 1.131-.453-.055-.754-.65-.672-1.329.082-.68.516-1.186.968-1.131.453.054.754.65.672 1.329" style="fill:#263238"/><path d="m150.149 156.755 1.547-.401s-.885 1.154-1.547.401" style="fill:#263238"/><path d="M143.29 151.493s-2.272-.636-3.755.73M149.331 152.01s1.534-.329 3.187 1.152" style="fill:none;stroke:#263238;stroke-width:.708;stroke-linecap:round;stroke-linejoin:round;stroke-miterlimit:10"/><path d="M132.111 157.852s4.832-6.215 5.003-11.527c0 0 17.297-4.313 15.708 12.381 0 0 3.722-14.49-10.399-16.865-14.099-2.371-17.055 18.362-10.63 25.595.001.001-2.678-5.693.318-9.584" style="fill:#263238"/><path d="M133.206 159.787c.137-1.335-.908-3.779-3.415-3.866-2.594-.09-4.569 4.977 1.602 7.156.885.312 1.528-.505 1.813-3.29" style="fill:#eec1bb"/><path d="M145.346 167.289s-3.567.29-4.557-3.001" style="fill:none;stroke:#263238;stroke-width:.708;stroke-linecap:round;stroke-linejoin:round;stroke-miterlimit:10"/><path d="M133.218 138.604s12.083-1.582 19.647 5.736c7.564 7.319-14.667 6.132-14.667 6.132l5.628-2.571s-7.047 2.003-10.101.989zM124.231 160.079s-3.659 6.415 0 11.954c0 0-2.855 6.033 3.072 10.286 0 0-1.086 3.363 4.102 7.418 0 0 1.628 5.298.342 9.078l3.758-1.858s-.026-4.747-2.288-7.516c0 0 1.208-7.525-1.812-9.993 0 0 1.358-4.743.85-6.82 0 0-1.505-8.942-1.748-9.911 0-.001-5.089-.647-6.276-2.638" style="fill:#263238"/><path d="M151.696 143.846s3.788 2.077 3.194 4.846-9.544 3.286-9.544 3.286" style="fill:none;stroke:#263238;stroke-width:.4885;stroke-linecap:round;stroke-linejoin:round;stroke-miterlimit:10"/><path d="M163.676 193.937a.808.808 0 0 0 .826.918h9.14c.514 0 .977-.411 1.035-.918l2.041-18.038c.058-.507-.312-1.043-.826-1.043h-9.14c-.514 0-.977.536-1.035 1.043z" style="fill:#263238"/><path d="m166.73 175.781-2.068 18.213c-.059.514.209.862.719.862h7.75c.52 0 1.473-.286 1.531-.8l2.068-18.275c.059-.514-.829-.925-1.349-.925h-7.75c-.51 0-.843.411-.901.925" style="opacity:.5;fill:#fff"/><path d="M145.946 237.293a1.62 1.62 0 1 0 3.24 0 1.62 1.62 0 0 0-3.24 0" style="opacity:.6;fill:#fff"/><path d="m182.821 195.439-4.764-8.083s.014-4.25-.403-5.25-5.083-3.257-6-2.92-1.25 8.674-.417 9.797 3.75 2.373 3.75 2.373l-.199 1.583 2.783 8.417z" style="fill:#eec1bb"/><path d="m184.738 194.522-1.584-1.583-7.5 8.417 1.068 3.333z" style="fill:#407bff"/><path d="m175.43 283.11-24.57 8.73-.82-2.25-1.01-2.77-.42 4-.32 3.07h-29.83s-.09-.86-.18-2.4c-.29-4.8-.66-16.24 1.2-29.38 1.12-7.94 3.06-16.51 6.32-24.6.25-.62.51-1.23.77-1.84l32-2.47.27 1.54 2.01 11.49 3.82 9.66 9.43 23.85z" style="fill:#263238"/><path d="M146.74 207.97s-8.82 20.09-20.2 26.6c-.14-4.19-.77-19.44-2.95-27.96-.59-2.3-1.29-4.81-2.13-7.58l3.47-4.17s2.4 7.44 1.34 13.9l13.27-8.13z" style="opacity:.2"/><path d="m138.202 203.352 10.829-8.496s1.639-4.559 2.299-5.35 10.154-4.295 10.945-4.389.048 7.779-1.187 9.118-8.835 3.978-8.835 3.978l-11.339 10.678z" style="fill:#eec1bb"/><path d="M116.545 183.946c-6.359 3.186-9.187 39.102 1.856 45.304s27.545-21.821 27.545-21.821l-6.41-6.803s-13.444 11.255-15.067 10.221.223-12.033.223-12.033 1.89-3.329-2.088-8.56c-3.978-5.232-6.059-6.308-6.059-6.308" style="fill:#407bff"/><path d="M116.545 183.946c-6.359 3.186-9.187 39.102 1.856 45.304s27.545-21.821 27.545-21.821l-6.41-6.803s-13.444 11.255-15.067 10.221.223-12.033.223-12.033 1.89-3.329-2.088-8.56c-3.978-5.232-6.059-6.308-6.059-6.308" style="opacity:.6;fill:#fff"/><path d="m146.071 209.922 1.919-1.153-7.202-10.557-2.644 1.474z" style="fill:#407bff"/><path d="M133.59 238.58s-3.63 20.04-14.11 23.53c1.12-7.94 3.06-16.51 6.32-24.6zM164.67 255.89c-8.39-4.09-8.25-20.22-8.25-20.22l2.42-.93 2.01 11.49zM148.61 290.82l-.32 3.07h-29.83s-.09-.86-.18-2.4zM175.43 283.11l-24.57 8.73-.82-2.25 24.06-9.85zM149.031 286.824l.639-8.176 6.753-13.253s2.127 7.646-1.235 14.455c-3.364 6.809-6.157 6.974-6.157 6.974" style="opacity:.2"/><path d="m126.571 235.673-1.349 3.33 34.065-1.71-.716-4.092z" style="opacity:.5"/><path d="m144.554 234.434.398 3.741c.044.41.406.711.817.678l4.987-.397a.76.76 0 0 0 .697-.831l-.351-3.687a.76.76 0 0 0-.809-.687l-5.034.343a.763.763 0 0 0-.705.84" style="fill:#407bff"/><path d="m136.198 234.885-.396 4.401h-1.236l.198-4.401zM154.148 233.543l.495 4.605h1.137l-.395-4.796z" style="fill:#263238"/></svg>