<svg width="33" height="34" viewBox="0 0 33 34" fill="none" xmlns="http://www.w3.org/2000/svg">
<g clip-path="url(#clip0_764_1771)">
<path d="M25.474 0.75H7.65103C3.59807 0.75 0.3125 4.05078 0.3125 8.12251V25.8775C0.3125 29.9492 3.59807 33.25 7.65103 33.25H25.474C29.5269 33.25 32.8125 29.9492 32.8125 25.8775V8.12251C32.8125 4.05078 29.5269 0.75 25.474 0.75Z" fill="#000000"/>
<path d="M20.8624 10.21H23.1552L18.1463 15.9621L24.0388 23.7886H19.4247L15.8109 19.0422L11.6755 23.7886H9.38141L14.7388 17.6367L9.08624 10.21H13.8172L17.0837 14.5489L20.8624 10.21ZM20.0575 22.4099H21.3283L13.1272 11.5166H11.7637L20.0575 22.4099Z" fill="white"/>
</g>
<defs>
<clipPath id="clip0_764_1771">
<rect width="32.5" height="32.5" fill="white" transform="translate(0.3125 0.75)"/>
</clipPath>
</defs>
</svg>
