<svg width="20" height="21" viewBox="0 0 20 21" fill="none" xmlns="http://www.w3.org/2000/svg">
<path d="M9.75211 8.71772V12.051M9.75211 15.3844H9.76045M8.5982 4.46082L1.74411 16.2997C1.36393 16.9564 1.17385 17.2847 1.20194 17.5541C1.22645 17.7892 1.34959 18.0028 1.54072 18.1417C1.75985 18.301 2.13924 18.301 2.89801 18.301H16.6061C17.3649 18.301 17.7443 18.301 17.9634 18.1417C18.1545 18.0028 18.2777 17.7892 18.3022 17.5541C18.3303 17.2847 18.1402 16.9564 17.76 16.2997L10.9059 4.46082C10.5272 3.80652 10.3378 3.47937 10.0907 3.36949C9.87511 3.27365 9.62903 3.27365 9.41353 3.36949C9.16636 3.47937 8.97695 3.80652 8.5982 4.46082Z" stroke="#303F9F" stroke-width="1.5" stroke-linecap="round" stroke-linejoin="round"/>
</svg>
