<svg width="35" height="35" viewBox="0 0 35 35" fill="none" xmlns="http://www.w3.org/2000/svg">
<path d="M4.83322 27.0261H10.3452C10.732 27.0261 11.0457 26.7354 11.0457 26.3768V16.5522C11.0457 16.1936 10.732 15.9028 10.3452 15.9028H4.83322C4.44645 15.9028 4.13281 16.1936 4.13281 16.5522V26.3768C4.13281 26.7354 4.44645 27.0261 4.83322 27.0261Z" fill="black"/>
<path d="M14.7445 27.0261H20.2564C20.6432 27.0261 20.9569 26.7354 20.9569 26.3768V9.64671C20.9569 9.2881 20.6432 8.99744 20.2564 8.99744H14.7445C14.3576 8.99744 14.0439 9.2881 14.0439 9.64671V26.3767C14.0439 26.7354 14.3576 27.0261 14.7445 27.0261Z" fill="black"/>
<path d="M24.6546 27.0261H30.1665C30.5534 27.0261 30.8671 26.7354 30.8671 26.3768V1.77493C30.8671 1.41631 30.5534 1.12558 30.1665 1.12558H24.6546C24.2677 1.12558 23.9541 1.41631 23.9541 1.77493V26.3768C23.9541 26.7354 24.2677 27.0261 24.6546 27.0261Z" fill="black"/>
<path d="M33.867 29.9847H1.13299H0V33.8745H1.13299H33.867H35V29.9847H33.867Z" fill="black"/>
</svg>
