<svg width="23" height="24" viewBox="0 0 23 24" fill="none" xmlns="http://www.w3.org/2000/svg">
<path d="M0.958984 2.41665C0.958984 1.88738 1.38805 1.45831 1.91732 1.45831C2.44659 1.45831 2.87565 1.88738 2.87565 2.41665V19.6666C2.87565 20.1959 3.30471 20.625 3.83398 20.625H21.084C21.6133 20.625 22.0423 21.054 22.0423 21.5833C22.0423 22.1126 21.6133 22.5416 21.084 22.5416H2.87565C1.8171 22.5416 0.958984 21.6836 0.958984 20.625V2.41665Z" fill="white"/>
<path d="M19.0977 5.64757C19.2942 5.15616 19.0552 4.59844 18.5638 4.40186C18.0723 4.2053 17.5146 4.44433 17.318 4.93574L14.2043 12.72C14.0849 13.0185 13.7112 13.117 13.4602 12.9163L10.6189 10.6433C9.92967 10.0919 8.9108 10.2861 8.47284 11.0526L4.91745 17.2746C4.65486 17.7341 4.8145 18.3194 5.27404 18.582C5.73358 18.8447 6.31898 18.685 6.58157 18.2254L9.58112 12.9762C9.72707 12.7208 10.0667 12.6561 10.2965 12.8399L13.2715 15.2198C14.0247 15.8224 15.146 15.5268 15.5042 14.6312L19.0977 5.64757Z" fill="white"/>
</svg>
