<svg width="28" height="28" viewBox="0 0 28 28" fill="none" xmlns="http://www.w3.org/2000/svg">
<path d="M27.1003 11.93L24.4105 6.77884C24.25 6.47494 23.9773 6.24568 23.6504 6.13987C23.3234 6.03407 22.9681 6.06008 22.66 6.21237L20.0214 7.53165H18.0316L14.3365 5.85973C14.0511 5.73078 13.729 5.70799 13.4282 5.79548L7.94003 7.39546L5.33927 6.09514C5.03122 5.94291 4.67591 5.91692 4.34898 6.02271C4.02205 6.1285 3.74932 6.35772 3.58885 6.66156L0.899012 11.8128C0.818354 11.9673 0.769274 12.1363 0.754637 12.31C0.74 12.4837 0.760098 12.6586 0.813759 12.8244C0.867421 12.9902 0.95357 13.1437 1.06718 13.2759C1.18079 13.408 1.31959 13.5163 1.47547 13.5942L4.13983 14.9264L10.0837 19.5742C10.2284 19.6877 10.3954 19.7693 10.5739 19.8137L16.9129 21.3985C17.0161 21.4242 17.122 21.4371 17.2282 21.4371C17.5771 21.4373 17.9119 21.2992 18.1593 21.0532L22.184 17.0285C22.1921 17.0205 22.1998 17.0121 22.2073 17.0034L23.8997 15.0235L26.5238 13.7114C26.6797 13.6335 26.8185 13.5253 26.9321 13.3931C27.0457 13.2609 27.1319 13.1074 27.1856 12.9416C27.2392 12.7757 27.2593 12.6009 27.2447 12.4272C27.23 12.2535 27.181 12.0845 27.1003 11.93ZM21.8049 16.1275L17.3195 12.8653C17.2438 12.8103 17.1525 12.781 17.0589 12.7817C16.9654 12.7824 16.8745 12.813 16.7996 12.8691L15.3996 13.9191C14.8685 14.3143 14.2242 14.5277 13.5622 14.5277C12.9002 14.5277 12.2558 14.3143 11.7247 13.9191L11.1318 13.4745C11.0816 13.4369 11.0402 13.3889 11.0102 13.3339C10.9802 13.2789 10.9623 13.2181 10.9579 13.1555C10.9534 13.093 10.9625 13.0303 10.9844 12.9716C11.0063 12.9128 11.0406 12.8595 11.0849 12.8152L15.3652 8.53483C15.4475 8.45306 15.5586 8.40701 15.6746 8.40665H17.9359L17.9369 8.40676L17.9384 8.40665H19.8596L23.1 14.6123L21.8049 16.1275ZM1.64627 12.555C1.62819 12.4998 1.62138 12.4414 1.62626 12.3835C1.63115 12.3256 1.64761 12.2692 1.67468 12.2178L4.36451 7.06654C4.40189 6.99565 4.45794 6.93633 4.5266 6.89499C4.59526 6.85366 4.67391 6.83189 4.75405 6.83204C4.82135 6.83198 4.88774 6.84763 4.94792 6.87776L7.28079 8.04414L4.18582 13.9711L1.86683 12.8116C1.81476 12.7858 1.7684 12.7498 1.73052 12.7057C1.69263 12.6616 1.66398 12.6104 1.64627 12.555ZM17.5407 20.4345C17.4871 20.4878 17.4208 20.5264 17.348 20.5465C17.2752 20.5667 17.1984 20.5677 17.1251 20.5495L10.786 18.9648C10.7266 18.95 10.6709 18.9228 10.6227 18.885L4.93104 14.4344L8.16486 8.24135L13.673 6.63556C13.7733 6.60632 13.8807 6.61389 13.9758 6.65692L15.909 7.53165H15.6746C15.5022 7.53118 15.3314 7.56492 15.1721 7.6309C15.0128 7.69689 14.8682 7.79381 14.7466 7.91607L10.4662 12.1964C10.3332 12.3294 10.2304 12.4894 10.1646 12.6655C10.0988 12.8417 10.0717 13.03 10.085 13.2175C10.0983 13.4051 10.1518 13.5876 10.2418 13.7527C10.3318 13.9179 10.4562 14.0617 10.6067 14.1745L11.1996 14.6192C11.8825 15.1272 12.711 15.4016 13.5622 15.4016C14.4133 15.4016 15.2418 15.1272 15.9247 14.6192L17.0661 13.763L21.2033 16.7718L17.5407 20.4345ZM26.3531 12.6722C26.3353 12.7276 26.3067 12.7788 26.2688 12.8229C26.2309 12.867 26.1846 12.903 26.1325 12.9288L23.8135 14.0883L20.7185 8.16136L23.0514 6.99498C23.1541 6.94418 23.2725 6.9355 23.3815 6.97077C23.4905 7.00605 23.5814 7.0825 23.6348 7.18382L26.3246 12.335C26.3517 12.3864 26.3682 12.4428 26.3731 12.5007C26.3779 12.5586 26.3711 12.617 26.3531 12.6722ZM12.6741 23.3877C12.6602 23.4435 12.6355 23.496 12.6013 23.5422C12.5671 23.5884 12.5242 23.6274 12.4749 23.6569C12.4256 23.6865 12.371 23.7061 12.3141 23.7145C12.2573 23.723 12.1993 23.7201 12.1436 23.7061L8.84707 22.8821C8.64646 22.8316 8.46052 22.7347 8.30425 22.5992L5.83766 20.4551C5.79414 20.4175 5.75847 20.3716 5.7327 20.3202C5.70693 20.2687 5.69156 20.2127 5.68748 20.1553C5.68339 20.0979 5.69067 20.0403 5.70889 19.9857C5.72712 19.9311 5.75593 19.8806 5.79368 19.8372C5.83143 19.7938 5.87737 19.7582 5.92888 19.7326C5.98039 19.707 6.03646 19.6917 6.09386 19.6878C6.15127 19.6838 6.20889 19.6913 6.26342 19.7096C6.31795 19.728 6.36833 19.7569 6.41166 19.7948L8.87837 21.9389C8.93055 21.9841 8.99259 22.0164 9.05952 22.0332L12.3557 22.8572C12.4683 22.8853 12.5651 22.957 12.6248 23.0565C12.6845 23.156 12.7022 23.2751 12.6741 23.3877Z" stroke="#303f97" fill="#303f97"/>
</svg>
