<svg width="31" height="31" viewBox="0 0 31 31" fill="none" xmlns="http://www.w3.org/2000/svg">
<path d="M22.5354 16.6467L17.7131 19.3245V24.6829L22.5354 27.3606L27.3577 24.6829V19.3245L22.5354 16.6467ZM25.2131 23.4231L22.5354 24.9114L19.8577 23.4231V20.5872L22.5354 19.0989L25.2131 20.5872V23.4231Z" fill="#303F9F"/>
<path d="M21.4777 22.1768C21.5002 22.3158 21.5499 22.449 21.624 22.5688C21.698 22.6886 21.7949 22.7926 21.9091 22.8749C22.0233 22.9573 22.1527 23.0163 22.2897 23.0487C22.4267 23.0811 22.5688 23.0861 22.7078 23.0636C22.8468 23.041 22.98 22.9913 23.0998 22.9173C23.2196 22.8433 23.3236 22.7464 23.406 22.6322C23.4883 22.5179 23.5473 22.3886 23.5797 22.2516C23.6121 22.1145 23.6171 21.9724 23.5946 21.8335C23.572 21.6945 23.5223 21.5613 23.4483 21.4415C23.3743 21.3217 23.2774 21.2177 23.1632 21.1353C23.0489 21.053 22.9196 20.9939 22.7826 20.9616C22.6455 20.9292 22.5035 20.9241 22.3645 20.9467C22.2255 20.9692 22.0923 21.0189 21.9725 21.093C21.8527 21.167 21.7487 21.2639 21.6663 21.3781C21.584 21.4923 21.5249 21.6216 21.4926 21.7587C21.4602 21.8957 21.4552 22.0378 21.4777 22.1768Z" fill="#303F9F"/>
<path d="M20.7483 14.6282C20.3762 14.4465 19.9954 14.2825 19.6086 14.1418C21.0676 12.9612 21.9993 11.1594 21.9993 9.1438C21.9993 5.59888 19.1165 2.71606 15.5715 2.71606C12.0266 2.71606 9.1438 5.59888 9.1438 9.1438C9.1438 11.1624 10.0784 12.967 11.5374 14.1448C7.01977 15.7971 3.7854 20.136 3.7854 25.219H5.927C5.927 19.9016 10.2542 15.5774 15.5686 15.5774C17.054 15.5774 18.4778 15.9055 19.802 16.553L20.7483 14.6282ZM15.5715 4.85767C17.9358 4.85767 19.8577 6.77954 19.8577 9.1438C19.8577 11.5081 17.9358 13.4299 15.5715 13.4299C13.2073 13.4299 11.2854 11.5081 11.2854 9.1438C11.2854 6.77954 13.2102 4.85767 15.5715 4.85767Z" fill="#303F9F"/>
</svg>
