<svg width="35" height="35" viewBox="0 0 35 35" fill="none" xmlns="http://www.w3.org/2000/svg">
<g clip-path="url(#clip0_409_100)">
<path d="M4.37496 4.375H30.625C31.0117 4.375 31.3827 4.52865 31.6562 4.80214C31.9296 5.07563 32.0833 5.44656 32.0833 5.83333V29.1667C32.0833 29.5534 31.9296 29.9244 31.6562 30.1979C31.3827 30.4714 31.0117 30.625 30.625 30.625H4.37496C3.98819 30.625 3.61725 30.4714 3.34376 30.1979C3.07027 29.9244 2.91663 29.5534 2.91663 29.1667V5.83333C2.91663 5.44656 3.07027 5.07563 3.34376 4.80214C3.61725 4.52865 3.98819 4.375 4.37496 4.375ZM24.01 22.6567L29.1666 17.5L24.01 12.3433L21.9479 14.4083L25.0425 17.5L21.9479 20.5931L24.01 22.6567ZM9.95746 17.5L13.052 14.4069L10.99 12.3433L5.83329 17.5L10.99 22.6567L13.052 20.5917L9.95746 17.5ZM16.3975 24.7917L21.7058 10.2083H18.6025L13.2941 24.7917H16.3975Z" fill="#303F9F"/>
</g>
<defs>
<clipPath id="clip0_409_100">
<rect width="35" height="35" fill="white"/>
</clipPath>
</defs>
</svg>
