<svg width="25" height="26" viewBox="0 0 25 26" fill="none" xmlns="http://www.w3.org/2000/svg">
<path d="M11.0166 10.0156C11.6763 8.83209 12.0062 8.24036 12.4994 8.24036C12.9925 8.24036 13.3224 8.83209 13.9821 10.0156L14.1528 10.3217C14.3402 10.658 14.4339 10.8262 14.5801 10.9371C14.7262 11.0481 14.9083 11.0893 15.2724 11.1716L15.6037 11.2466C16.8849 11.5365 17.5254 11.6814 17.6778 12.1715C17.8302 12.6615 17.3935 13.1721 16.5202 14.1935L16.2941 14.4576C16.046 14.7479 15.922 14.893 15.8661 15.0725C15.8103 15.252 15.829 15.4457 15.8665 15.8329L15.9007 16.1854C16.0328 17.548 16.0987 18.2293 15.6998 18.5321C15.3008 18.835 14.7011 18.5589 13.5016 18.0066L13.1913 17.8637C12.8504 17.7068 12.68 17.6283 12.4994 17.6283C12.3187 17.6283 12.1483 17.7068 11.8074 17.8637L11.4971 18.0066C10.2976 18.5589 9.69788 18.835 9.2989 18.5321C8.89993 18.2293 8.96595 17.548 9.098 16.1854L9.13215 15.8329C9.16967 15.4457 9.18843 15.252 9.13261 15.0725C9.07679 14.893 8.95269 14.7479 8.70452 14.4576L8.47857 14.1935C7.6052 13.1721 7.16853 12.6615 7.32092 12.1715C7.47332 11.6814 8.11386 11.5365 9.39494 11.2466L9.72637 11.1716C10.0904 11.0893 10.2724 11.0481 10.4186 10.9371C10.5648 10.8262 10.6585 10.658 10.8459 10.3217L11.0166 10.0156Z" stroke="white" stroke-width="1.5"/>
<path opacity="0.5" d="M12.5 3.0321V5.11544" stroke="white" stroke-width="1.5" stroke-linecap="round"/>
<path opacity="0.5" d="M12.5 21.7821V23.8654" stroke="white" stroke-width="1.5" stroke-linecap="round"/>
<path opacity="0.5" d="M2.08398 13.4487H4.16732" stroke="white" stroke-width="1.5" stroke-linecap="round"/>
<path opacity="0.5" d="M20.834 13.4487H22.9173" stroke="white" stroke-width="1.5" stroke-linecap="round"/>
<path d="M6.25 19.6987L6.60734 19.3414" stroke="white" stroke-width="1.5" stroke-linecap="round"/>
<path d="M18.3926 7.55629L18.7502 7.19873" stroke="white" stroke-width="1.5" stroke-linecap="round"/>
<path d="M18.7499 19.6987L18.3926 19.3414" stroke="white" stroke-width="1.5" stroke-linecap="round"/>
<path d="M6.60756 7.55629L6.25 7.19873" stroke="white" stroke-width="1.5" stroke-linecap="round"/>
</svg>
