<svg width="24" height="24" viewBox="0 0 24 24" fill="none" xmlns="http://www.w3.org/2000/svg">
<g clip-path="url(#clip0_644_853)">
<path d="M17.2497 -3.79305e-05C16.9927 0.00725269 16.7922 0.224149 16.7977 0.481143C16.8032 0.736315 17.0109 0.933162 17.2643 0.933162H17.2789C17.339 0.925871 18.9776 0.925871 20.6617 2.65375C22.3568 4.39074 22.3969 6.05118 22.3969 6.06576C22.3969 6.32276 22.6047 6.53236 22.8635 6.53236C23.1223 6.53236 23.3301 6.32276 23.3301 6.06576C23.3301 5.98374 23.3082 4.03897 21.3325 2.01217C19.3439 -0.0255552 17.3408 -0.00550592 17.2497 -3.79305e-05ZM17.2643 2.79956C17.0091 2.79956 16.8013 3.01099 16.7977 3.26616C16.794 3.52133 17.0091 3.72729 17.2643 3.73276C17.2953 3.73276 18.0243 3.76375 18.7953 4.53473C19.5663 5.30571 19.5973 6.04025 19.5973 6.06576C19.5973 6.32276 19.8051 6.53236 20.0639 6.53236C20.3227 6.53236 20.5305 6.32276 20.5305 6.06576C20.5305 6.0202 20.5232 4.92113 19.4661 3.86399C18.4089 2.80685 17.3098 2.79956 17.2643 2.79956ZM13.4003 2.81414C12.899 2.81232 12.3832 2.9873 11.9859 3.35365L0.55417 14.8291C-0.189474 15.5727 -0.194942 16.7903 0.55417 17.5995L5.78884 22.8196C6.1479 23.1787 6.62544 23.3737 7.1449 23.3737C7.65706 23.3737 8.151 23.1823 8.54469 22.8196L19.991 11.3588C20.7036 10.5258 20.7036 9.31556 19.9764 8.58832L14.7417 3.35365C14.3845 2.99641 13.9015 2.81597 13.4003 2.81414ZM13.0649 6.99896C14.8693 6.99896 16.3311 8.46073 16.3311 10.2652C16.3311 12.0696 14.8693 13.5314 13.0649 13.5314C11.2605 13.5314 9.79868 12.0696 9.79868 10.2652C9.79868 8.46073 11.2605 6.99896 13.0649 6.99896ZM13.0649 9.33196C12.5491 9.33196 12.1317 9.74935 12.1317 10.2652C12.1317 10.781 12.5491 11.1984 13.0649 11.1984C13.5807 11.1984 13.9981 10.781 13.9981 10.2652C13.9981 9.74935 13.5807 9.33196 13.0649 9.33196ZM6.99908 12.5982C7.51489 12.5982 7.93228 13.0155 7.93228 13.5314C7.93228 14.0472 7.51489 14.4646 6.99908 14.4646C6.48327 14.4646 6.06588 14.0472 6.06588 13.5314C6.06588 13.0155 6.48327 12.5982 6.99908 12.5982ZM4.66608 14.9312C5.18189 14.9312 5.59928 15.3485 5.59928 15.8644C5.59928 16.3802 5.18189 16.7976 4.66608 16.7976C4.15027 16.7976 3.73288 16.3802 3.73288 15.8644C3.73288 15.3485 4.15027 14.9312 4.66608 14.9312ZM9.79868 15.3978C10.3145 15.3978 10.7319 15.8152 10.7319 16.331C10.7319 16.8468 10.3145 17.2642 9.79868 17.2642C9.28287 17.2642 8.86548 16.8468 8.86548 16.331C8.86548 15.8152 9.28287 15.3978 9.79868 15.3978ZM7.46568 17.7308C7.98149 17.7308 8.39888 18.1481 8.39888 18.664C8.39888 19.1798 7.98149 19.5972 7.46568 19.5972C6.94987 19.5972 6.53248 19.1798 6.53248 18.664C6.53248 18.1481 6.94987 17.7308 7.46568 17.7308Z" fill="#303f97"/>
</g>
<defs>
<clipPath id="clip0_644_853">
<rect width="23.33" height="23.33" fill="#303f97"/>
</clipPath>
</defs>
</svg>
