<svg width="17" height="18" viewBox="0 0 17 18" fill="none" xmlns="http://www.w3.org/2000/svg">
<circle cx="8.335" cy="9.00001" r="8.335" fill="#7986CB"/>
<path fill-rule="evenodd" clip-rule="evenodd" d="M8.14286 6.35251C8.61623 6.35251 9 5.97475 9 5.50876C9 5.04277 8.61623 4.66501 8.14286 4.66501C7.66949 4.66501 7.28571 5.04277 7.28571 5.50876C7.28571 5.97475 7.66949 6.35251 8.14286 6.35251ZM7.57143 7.47751C7.25583 7.47751 7 7.72935 7 8.04001C7 8.35068 7.25583 8.60251 7.57143 8.60251V13.1025C7.57143 13.4132 7.82726 13.665 8.14286 13.665C8.45846 13.665 8.71429 13.4132 8.71429 13.1025V8.04001C8.71429 7.72935 8.45846 7.47751 8.14286 7.47751H7.57143Z" fill="white"/>
</svg>
