<svg width="17" height="17" viewBox="0 0 17 17" fill="none" xmlns="http://www.w3.org/2000/svg">
<path d="M7.9277 4.2925C7.91442 4.33075 7.8528 4.32491 7.81773 4.33606C7.78639 4.35253 7.76089 4.38122 7.72477 4.38122C7.69183 4.38122 7.6387 4.36794 7.63445 4.33606C7.62808 4.2925 7.69289 4.24787 7.7338 4.24787C7.76036 4.23513 7.79117 4.22822 7.82358 4.22822C7.85333 4.22822 7.88148 4.23406 7.90698 4.24522L7.90539 4.24469C7.91708 4.24947 7.92558 4.26063 7.92558 4.27391C7.92558 4.2755 7.92558 4.27656 7.92505 4.27816V4.29144H7.92717L7.9277 4.2925ZM8.2932 4.2925V4.27816C8.28895 4.26488 8.3017 4.25053 8.31233 4.24522C8.33677 4.23459 8.36545 4.22822 8.39573 4.22822C8.42814 4.22822 8.45895 4.23566 8.48605 4.24841L8.48498 4.24787C8.52695 4.24787 8.59123 4.2925 8.58433 4.33766C8.58061 4.37006 8.52801 4.38122 8.49455 4.38122C8.45789 4.38122 8.43345 4.35253 8.40105 4.33606C8.36652 4.32384 8.30436 4.33075 8.29267 4.29303L8.2932 4.2925ZM9.01145 5.34331C8.72883 5.52234 8.39467 5.64825 8.03661 5.69713L8.02386 5.69872C7.70192 5.68013 7.4092 5.56697 7.17014 5.38634L7.17386 5.389C7.07186 5.30028 6.98792 5.21103 6.9263 5.16641C6.81739 5.07769 6.83067 4.94541 6.87742 4.94541C6.94967 4.95603 6.96295 5.03413 7.0097 5.07822C7.07345 5.12178 7.15261 5.21103 7.24877 5.29922C7.45967 5.47347 7.72636 5.58663 8.01908 5.60894L8.02386 5.60947C8.3713 5.57919 8.68739 5.46763 8.96045 5.29497L8.95195 5.30028C9.08158 5.2105 9.24733 5.07875 9.38226 4.99003C9.48586 4.89972 9.48108 4.81259 9.56767 4.81259C9.65267 4.82322 9.59051 4.90131 9.46992 5.03306C9.33923 5.13294 9.18995 5.23547 9.03536 5.33056L9.01198 5.34384L9.01145 5.34331ZM4.25889 11.3672H4.26527C4.30192 11.3672 4.33805 11.3709 4.37311 11.3773L4.36939 11.3767C4.65839 11.4511 4.89639 11.6307 5.04567 11.8713L5.04833 11.8761L5.65236 12.9806L5.65448 12.9827C5.89727 13.3933 6.15811 13.7488 6.44977 14.0765L6.44392 14.0696C6.70423 14.3459 6.87955 14.705 6.92683 15.1034L6.92789 15.1119V15.1162C6.92152 15.5502 6.60223 15.9083 6.18627 15.9747L6.18148 15.9752C6.07523 15.9917 5.95198 16.0007 5.82714 16.0007C5.37186 16.0007 4.9458 15.8769 4.5803 15.6607L4.59145 15.6671C4.03205 15.4328 3.38286 15.2878 2.70286 15.2676H2.69489C2.49727 15.2543 2.32514 15.1534 2.21623 15.0041L2.21517 15.0025C2.18648 14.9101 2.17002 14.8038 2.17002 14.6933C2.17002 14.5074 2.21677 14.3326 2.29964 14.1801L2.29698 14.186V14.1833L2.29858 14.1812C2.32036 14.0813 2.33311 13.966 2.33311 13.8481C2.33311 13.7025 2.31398 13.5618 2.27786 13.4279L2.28052 13.439C2.25873 13.3593 2.24598 13.2674 2.24598 13.1723C2.24598 13.0438 2.26883 12.9211 2.31133 12.8074L2.3092 12.8148C2.41545 12.5933 2.57217 12.5492 2.76714 12.461C2.99983 12.3903 3.20223 12.2836 3.37861 12.146L3.37436 12.1492H3.37542V12.1476C3.54542 11.9696 3.6708 11.7486 3.81902 11.5913C3.92261 11.4591 4.08039 11.3735 4.25836 11.3682H4.25942L4.25889 11.3672ZM11.4382 11.3348C11.4377 11.3438 11.4377 11.3549 11.4377 11.3661C11.4377 11.7608 11.6762 12.0998 12.0173 12.2469L12.0236 12.2496C12.0491 12.2512 12.0789 12.2522 12.1086 12.2522C12.5501 12.2522 12.9454 12.0551 13.211 11.7438L13.2126 11.7417L13.3528 11.7353C13.381 11.7311 13.4134 11.7289 13.4463 11.7289C13.6275 11.7289 13.7927 11.7991 13.9154 11.9138L13.9149 11.9133L13.917 11.9154C14.0493 12.0753 14.1412 12.2729 14.1757 12.4902L14.1768 12.4971C14.206 12.7654 14.3032 13.0071 14.4515 13.209L14.4488 13.2048C14.6698 13.3939 14.8233 13.6563 14.8701 13.9543L14.8711 13.9613L14.8733 13.9565V13.9682L14.8711 13.9602C14.861 14.1339 14.7484 14.2232 14.5407 14.3554C13.9117 14.6195 13.3714 14.9706 12.906 15.4009L12.9098 15.3978C12.5868 15.8185 12.1124 16.1091 11.5694 16.1872L11.5583 16.1883C11.519 16.1936 11.4733 16.1968 11.427 16.1968C11.019 16.1968 10.6684 15.9503 10.5154 15.5986L10.5128 15.5922L10.5096 15.5901C10.4602 15.4381 10.432 15.2633 10.432 15.0822C10.432 14.8612 10.474 14.6503 10.551 14.4564L10.5468 14.4681C10.6711 14.1132 10.7779 13.6893 10.8485 13.2526L10.8544 13.2085C10.8629 12.7771 10.9096 12.3622 10.9914 11.96L10.984 12.0041C11.0291 11.7289 11.1864 11.4973 11.4058 11.3533L11.4095 11.3512L11.4393 11.3369L11.4382 11.3348ZM9.98736 5.38794C10.3061 6.52853 10.6987 7.514 11.1811 8.44634L11.1391 8.35763C11.4648 8.93669 11.7182 9.60872 11.8632 10.3206L11.8706 10.3652C11.8754 10.3652 11.8813 10.3652 11.8871 10.3652C12.0024 10.3652 12.114 10.3806 12.2202 10.4098L12.2112 10.4077C12.2696 10.1979 12.3031 9.95722 12.3031 9.70859C12.3031 8.95103 11.9912 8.26572 11.4887 7.77538L11.4881 7.77484C11.342 7.64203 11.3341 7.55225 11.4063 7.55225C11.9222 8.03569 12.3036 8.65619 12.4927 9.35531L12.4991 9.38241C12.5464 9.55719 12.5735 9.758 12.5735 9.96519C12.5735 10.1517 12.5517 10.3333 12.5103 10.5071L12.5135 10.4911C12.5528 10.5113 12.5985 10.5267 12.6468 10.5352L12.65 10.5358C13.3353 10.8901 13.5882 11.1584 13.4665 11.5563V11.5276C13.4267 11.5255 13.3868 11.5276 13.347 11.5276H13.3364C13.4368 11.2173 13.2158 10.9799 12.6293 10.7148C12.022 10.4492 11.5365 10.4917 11.4541 11.0234C11.4483 11.0495 11.444 11.0798 11.4425 11.1111V11.1127C11.4037 11.1286 11.3575 11.1435 11.3096 11.1541L11.3038 11.1552C11.0339 11.3337 10.8416 11.6115 10.7784 11.9356L10.7773 11.943C10.6987 12.3123 10.6493 12.7399 10.6413 13.1771V13.1835V13.1856C10.593 13.524 10.5191 13.8268 10.4193 14.1169L10.4299 14.0818C9.90767 14.509 9.23405 14.7672 8.49933 14.7672C7.89901 14.7672 7.33908 14.5945 6.8668 14.2959L6.87955 14.3034C6.80198 14.169 6.71326 14.0526 6.61233 13.949L6.61286 13.9496C6.56133 13.8646 6.50076 13.7918 6.43117 13.7291L6.43011 13.7286C6.54008 13.7286 6.64633 13.7121 6.74673 13.6818L6.73877 13.6839C6.83439 13.6388 6.9077 13.5607 6.94648 13.4651L6.94755 13.4624C6.95711 13.413 6.96295 13.3567 6.96295 13.2988C6.96295 13.0624 6.86998 12.8483 6.71805 12.69L6.71858 12.6905C6.38973 12.2862 5.99661 11.9494 5.55195 11.6918L5.53177 11.6811C5.1753 11.475 4.90542 11.1525 4.77208 10.7663L4.76836 10.7546C4.71895 10.5857 4.69027 10.3913 4.69027 10.1904C4.69027 10.0029 4.71523 9.82122 4.76145 9.64803L4.75827 9.66238C4.95855 8.96431 5.24755 8.35497 5.61889 7.80513L5.60402 7.82797C5.6752 7.78494 5.62845 7.91775 5.33308 8.4745C5.08126 8.85328 4.93092 9.31919 4.93092 9.82016C4.93092 10.2664 5.04992 10.6845 5.25817 11.0452L5.2518 11.0335C5.27942 10.3381 5.43508 9.68575 5.69486 9.08969L5.68158 9.12422C6.24205 8.11378 6.66652 6.94025 6.89017 5.69659L6.9008 5.627C6.93267 5.65091 7.04476 5.71678 7.09258 5.76088C7.23708 5.84906 7.34492 5.98188 7.48411 6.06953C7.62595 6.20766 7.82039 6.29266 8.03395 6.29266C8.04511 6.29266 8.05626 6.29266 8.06742 6.29213H8.06583C8.09186 6.29425 8.11576 6.29638 8.13861 6.29638C8.38245 6.29159 8.60983 6.22625 8.80745 6.11469L8.80055 6.11841C8.99286 6.02969 9.14586 5.89688 9.29195 5.85278H9.29514C9.57936 5.77575 9.81736 5.61159 9.98577 5.39113L9.98789 5.38794H9.98736ZM8.12851 3.96578C8.13011 3.96578 8.1317 3.96578 8.1333 3.96578C8.43558 3.96578 8.71448 4.06512 8.9392 4.233L8.93548 4.23034C9.1363 4.35466 9.36792 4.46038 9.61283 4.53528L9.63408 4.54059H9.6362C9.76689 4.59903 9.87473 4.68988 9.95177 4.80303L9.95336 4.80569V4.71856C9.9778 4.76744 9.99267 4.82534 9.99267 4.88644C9.99267 4.9385 9.98205 4.98791 9.96345 5.03306L9.96451 5.03041C9.81151 5.29975 9.56342 5.50003 9.26698 5.58716L9.25848 5.58928V5.59034C9.08051 5.68013 8.92592 5.81134 8.74423 5.899C8.5583 6.01056 8.33464 6.07644 8.09505 6.07644C8.08708 6.07644 8.07911 6.07644 8.07114 6.07644H8.0722C8.06051 6.07697 8.0467 6.0775 8.03289 6.0775C7.94045 6.0775 7.8512 6.06103 7.76939 6.03022L7.7747 6.03181C7.69023 5.98559 7.62064 5.94203 7.55317 5.89528L7.56061 5.90059C7.44002 5.79488 7.3072 5.69341 7.16802 5.60044L7.1542 5.59194V5.58875H7.15102C6.9518 5.48303 6.79508 5.321 6.69839 5.12338L6.69573 5.117C6.68139 5.08141 6.67342 5.03997 6.67342 4.99694C6.67342 4.88113 6.73292 4.77913 6.8227 4.71963L6.82377 4.71909C6.97252 4.62931 7.07611 4.539 7.14464 4.49597C7.2137 4.44709 7.23973 4.4285 7.26151 4.40884H7.26258V4.40672C7.40495 4.22663 7.59355 4.0885 7.81083 4.01041L7.81933 4.00775C7.91177 3.98119 8.01801 3.96578 8.12798 3.96472L8.12851 3.96578ZM7.21902 2.83316H7.24292C7.3428 2.83528 7.4347 2.86875 7.50908 2.92347L7.50802 2.92241C7.60311 3.00688 7.68067 3.10941 7.7338 3.22522L7.73592 3.23106C7.79595 3.36122 7.83314 3.51263 7.83739 3.672V3.67359V3.67625C7.83952 3.70069 7.84058 3.72884 7.84058 3.757C7.84058 3.79047 7.83898 3.82394 7.8358 3.85688L7.83633 3.85263V3.90575C7.81667 3.91053 7.79914 3.91744 7.78108 3.92169C7.67961 3.96366 7.59408 4.00828 7.5128 4.05875L7.52023 4.0545C7.52448 4.02528 7.52661 3.99181 7.52661 3.95781C7.52661 3.92966 7.52502 3.9015 7.52183 3.87388L7.52236 3.87706V3.86697C7.5128 3.78516 7.49367 3.71025 7.46552 3.63959L7.46764 3.64544C7.44586 3.57531 7.40761 3.51581 7.35767 3.46853C7.32845 3.44197 7.28967 3.4255 7.24664 3.4255C7.24292 3.4255 7.2392 3.4255 7.23548 3.42603H7.23602H7.2222C7.16748 3.43187 7.1218 3.46587 7.09895 3.51262L7.09842 3.51369C7.05752 3.56309 7.02936 3.62419 7.01873 3.69113V3.69325C7.00652 3.73894 7.00014 3.79153 7.00014 3.84572C7.00014 3.86909 7.0012 3.89247 7.00386 3.91531V3.91266V3.92275C7.01236 4.00456 7.03148 4.08 7.05911 4.15013L7.05698 4.14428C7.0793 4.21441 7.11702 4.27444 7.16695 4.32225C7.17333 4.32863 7.18077 4.33394 7.18927 4.33819H7.1898C7.1457 4.36634 7.10745 4.39609 7.07239 4.42903L7.07292 4.4285C7.04902 4.44975 7.0198 4.46569 6.98739 4.47313L6.9858 4.47366C6.92045 4.39556 6.85989 4.30791 6.80783 4.21547L6.80358 4.20697C6.74355 4.07681 6.70636 3.92594 6.70052 3.76603V3.76391C6.69839 3.73841 6.69733 3.70866 6.69733 3.67838C6.69733 3.55034 6.71805 3.42709 6.75576 3.31181L6.75364 3.32031C6.79295 3.18325 6.85723 3.06478 6.94277 2.96384L6.9417 2.96544C7.00917 2.88575 7.10798 2.83528 7.21902 2.83263H7.21955L7.21902 2.83316ZM9.1857 2.79384H9.1942C9.19473 2.79384 9.19527 2.79384 9.19633 2.79384C9.34242 2.79384 9.4763 2.84325 9.58361 2.92612L9.58202 2.92506C9.70367 3.01909 9.80142 3.13756 9.86995 3.27303L9.87261 3.27888C9.93689 3.42019 9.97673 3.58434 9.98258 3.75753V3.75966C9.98258 3.74638 9.9863 3.73309 9.9863 3.71981V3.78941L9.98364 3.77559L9.98098 3.75966C9.97939 3.92966 9.94326 4.09009 9.87845 4.23619L9.88164 4.22875C9.8487 4.31534 9.80089 4.38972 9.74033 4.45134C9.72439 4.44178 9.70473 4.43275 9.68508 4.42478L9.68189 4.42372C9.61017 4.40141 9.54748 4.37113 9.49064 4.33394L9.4933 4.33553C9.45239 4.31853 9.40352 4.30366 9.35305 4.2925L9.3472 4.29144C9.39023 4.25106 9.43008 4.20803 9.46673 4.16234L9.46886 4.15969C9.50233 4.08106 9.52305 3.99022 9.5273 3.89459V3.893V3.87972C9.5273 3.87547 9.5273 3.87122 9.5273 3.86644C9.5273 3.77613 9.51242 3.68953 9.4848 3.60878L9.48639 3.61463C9.45292 3.53016 9.41201 3.45738 9.36314 3.39097L9.36526 3.39363C9.31905 3.34687 9.25795 3.315 9.18942 3.30597H9.18783H9.1772C9.17667 3.30597 9.17561 3.30597 9.17508 3.30597C9.10495 3.30597 9.04226 3.3405 9.00401 3.39309L9.00348 3.39363C8.94186 3.45366 8.89511 3.52803 8.86855 3.61144L8.86748 3.61516C8.83401 3.69325 8.81223 3.78409 8.80798 3.87866V3.88025V3.893C8.80905 3.95675 8.81383 4.01838 8.82233 4.07841L8.82126 4.07044C8.69323 4.02581 8.53067 3.98066 8.41805 3.93656C8.41167 3.89778 8.40742 3.85209 8.40636 3.80534V3.80375V3.79047C8.40583 3.77984 8.40583 3.76762 8.40583 3.75541C8.40583 3.58328 8.44248 3.42019 8.50889 3.27303L8.5057 3.28047C8.56201 3.13225 8.66136 3.01059 8.78833 2.92825L8.79098 2.92666C8.89936 2.84378 9.03695 2.79384 9.1857 2.79384ZM8.83455 0.533375C8.73148 0.533375 8.62523 0.538687 8.5158 0.547187C5.71027 0.768187 6.45455 3.73841 6.41152 4.72813C6.38495 5.48569 6.12783 6.17791 5.70761 6.74263L5.71452 6.73306C4.96705 7.58413 4.35717 8.57863 3.9343 9.66716L3.91145 9.73463C3.77439 10.0985 3.6947 10.5188 3.6947 10.9576C3.6947 11.109 3.70427 11.2583 3.72233 11.4043L3.72073 11.3868C3.69098 11.4113 3.66602 11.441 3.64848 11.475L3.64795 11.4766C3.4753 11.6546 3.34939 11.875 3.20755 12.0333C3.0572 12.1486 2.88083 12.2395 2.68958 12.2958L2.67842 12.2984C2.43192 12.3723 2.23111 12.5333 2.10733 12.7452L2.10467 12.75C2.04942 12.8626 2.01702 12.9949 2.01702 13.1352C2.01702 13.1405 2.01702 13.1453 2.01702 13.1506C2.01808 13.277 2.03083 13.3992 2.0558 13.5182L2.05367 13.506C2.08342 13.6223 2.10042 13.7562 2.10042 13.8938C2.10042 13.9841 2.09298 14.0728 2.07864 14.1594L2.0797 14.1498C1.99098 14.3161 1.93945 14.5138 1.93945 14.7236C1.93945 14.8713 1.96495 15.0126 2.01223 15.1438L2.00958 15.1353C2.15461 15.3414 2.37402 15.487 2.62795 15.5332L2.6338 15.5343C3.31061 15.5911 3.93589 15.7324 4.52558 15.9487L4.47564 15.9327C4.84645 16.1532 5.29323 16.2833 5.76977 16.2833C5.92595 16.2833 6.07895 16.2695 6.2277 16.2424L6.2123 16.2446C6.56664 16.1643 6.85564 15.9333 7.0113 15.6235L7.01448 15.6166C7.40442 15.6145 7.83102 15.4381 8.51473 15.3951C8.97851 15.3568 9.5597 15.5725 10.2254 15.5279C10.245 15.6124 10.271 15.6862 10.304 15.7558L10.3008 15.7489L10.3029 15.751C10.5069 16.1782 10.9351 16.4682 11.4313 16.4682C11.4743 16.4682 11.5168 16.4661 11.5588 16.4618L11.5535 16.4624C12.165 16.3721 12.6898 16.0544 13.0479 15.6002L13.0516 15.5954C13.4995 15.1874 14.0222 14.8511 14.5949 14.611L14.6305 14.5977C14.86 14.4962 15.0247 14.2869 15.0608 14.0351L15.0613 14.0314C15.03 13.6627 14.8531 13.3413 14.5896 13.1198L14.5875 13.1182V13.0539L14.5853 13.0518C14.4716 12.8764 14.392 12.6682 14.3617 12.4451L14.3606 12.4371C14.3325 12.1646 14.2129 11.9239 14.0339 11.7428H14.0318C13.9925 11.7072 13.95 11.6981 13.9069 11.653C13.8719 11.628 13.8283 11.6126 13.781 11.6105C13.8846 11.2907 13.9441 10.923 13.9441 10.5411C13.9441 10.0417 13.8416 9.56622 13.6567 9.13484L13.6657 9.15822C13.2917 8.26997 12.8056 7.5055 12.2144 6.83719L12.2218 6.84622C11.6348 6.27141 11.2507 5.491 11.1869 4.62188L11.1864 4.61072C11.2039 3.18219 11.3431 0.539219 8.83348 0.5355L8.83455 0.533375Z" fill="black"/>
</svg>
