<svg width="27" height="28" viewBox="0 0 27 28" fill="none" xmlns="http://www.w3.org/2000/svg">
<g clip-path="url(#clip0_486_667)">
<path d="M25.2677 2.75989H1.66545C0.966486 2.75989 0.399902 3.32647 0.399902 4.02543V18.8323C0.399902 19.5312 0.966486 20.0978 1.66545 20.0978H10.4925V22.9655H7.05767C6.41218 22.9655 5.88704 23.4907 5.88704 24.1362C5.88704 24.7817 6.41218 25.3068 7.05767 25.3068H19.8755C20.521 25.3068 21.0461 24.7817 21.0461 24.1362C21.0461 23.4907 20.521 22.9655 19.8755 22.9655H16.4406V20.0978H25.2677C25.9667 20.0978 26.5332 19.5312 26.5332 18.8323V4.02543C26.5332 3.32647 25.9667 2.75989 25.2677 2.75989ZM24.6349 18.1995H2.29822V4.6582H24.6349V18.1995Z" fill="black"/>
<path d="M8.91639 15.8561C9.39495 15.8561 9.78335 15.4678 9.78335 14.9892V10.8663C9.78335 10.3877 9.39489 9.99963 8.91639 9.99963C8.43776 9.99963 8.0498 10.3877 8.0498 10.8663V14.9892C8.0498 15.4678 8.43769 15.8561 8.91639 15.8561Z" fill="black"/>
<path d="M11.9498 15.8561C12.4285 15.8561 12.8164 15.4678 12.8164 14.9892V7.83264C12.8164 7.35402 12.4285 6.96606 11.9498 6.96606C11.4711 6.96606 11.083 7.35402 11.083 7.83264V14.9892C11.083 15.4678 11.4711 15.8561 11.9498 15.8561Z" fill="black"/>
<path d="M14.9832 15.856C15.4619 15.856 15.85 15.4678 15.85 14.9892V9.65284C15.85 9.17421 15.4619 8.78625 14.9832 8.78625C14.5047 8.78625 14.1167 9.17421 14.1167 9.65284V14.9892C14.1164 15.4678 14.5044 15.856 14.9832 15.856Z" fill="black"/>
<path d="M18.0169 15.856C18.4954 15.856 18.8833 15.4678 18.8833 14.9892V8.74287C18.8833 8.26424 18.4952 7.87616 18.0169 7.87616C17.5382 7.87616 17.1499 8.26424 17.1499 8.74287V14.9892C17.1499 15.4678 17.5382 15.856 18.0169 15.856Z" fill="black"/>
</g>
<defs>
<clipPath id="clip0_486_667">
<rect width="26.1333" height="26.1333" fill="black" transform="translate(0.399902 0.966675)"/>
</clipPath>
</defs>
</svg>
