<svg width="24" height="24" viewBox="0 0 24 24" fill="none" xmlns="http://www.w3.org/2000/svg">
<g clip-path="url(#clip0_644_848)">
<path d="M15.0188 11.9565L13.7065 13.2689L15.0188 14.5812L13.269 16.3309L19.539 22.6009C20.4139 23.4757 21.7262 23.4757 22.601 22.6009C23.4759 21.726 23.4759 20.4137 22.601 19.5388L15.0188 11.9565ZM20.7055 21.8718C20.1222 21.8718 19.539 21.4344 19.539 20.7053C19.539 20.122 19.9764 19.5388 20.7055 19.5388C21.4345 19.5388 21.872 19.9762 21.872 20.7053C21.872 21.4344 21.4345 21.8718 20.7055 21.8718Z" fill="#303f97"/>
<path d="M5.24925 11.665L6.56156 10.7901L8.74875 8.31131L10.0611 9.62362L11.3734 8.31131L11.2276 8.1655C11.5192 7.43644 11.665 6.70738 11.665 5.8325C11.665 2.62462 9.04037 0 5.8325 0C4.95762 0 4.22856 0.145813 3.4995 0.437438L7.72806 4.666L4.666 7.72806L0.437438 3.4995C0.145813 4.22856 0 4.95762 0 5.8325C0 8.89456 2.333 11.2276 5.24925 11.665Z" fill="#303f97"/>
<path d="M11.6651 15.7477L12.9774 14.5812L11.6651 13.2689L19.9764 4.95756L21.7262 4.37431L23.3301 1.16644L22.3094 0.145752L18.9557 1.60388L18.2267 3.35363L10.0612 11.6649L8.74884 10.3526L7.58234 11.6649C7.58234 11.6649 8.74884 12.5398 7.43653 13.8521C6.70747 14.5812 5.54097 13.7063 3.35378 15.8935C2.62472 16.6226 0.291717 18.9556 0.291717 18.9556C0.291717 18.9556 -0.583158 20.4137 1.16659 22.1634C2.91634 23.9132 4.37447 23.0383 4.37447 23.0383C4.37447 23.0383 6.70747 20.7053 7.43653 19.9762C9.4779 17.9349 8.74884 16.6226 9.33209 16.0393C10.6444 14.727 11.6651 15.7477 11.6651 15.7477ZM7.1449 15.1644L8.16559 16.1851L2.62472 21.726L1.60403 20.7053L7.1449 15.1644Z" fill="#303f97"/>
</g>
<defs>
<clipPath id="clip0_644_848">
<rect width="23.33" height="23.33" fill="#303f97"/>
</clipPath>
</defs>
</svg>
