<svg width="27" height="25" viewBox="0 0 27 25" fill="none" xmlns="http://www.w3.org/2000/svg">
<path d="M12.1875 0.930458C11.0112 1.18324 10.0292 1.53324 8.99865 2.07768C8.10421 2.54435 7.9681 2.71935 8.09449 3.21518C8.20143 3.65268 8.55143 3.62351 9.64032 3.08879C11.4875 2.1749 13.0625 1.83463 15.0556 1.93185C19.9264 2.16518 24.0098 5.74296 24.9237 10.5846C25.1084 11.5763 25.1084 13.4235 24.9237 14.4152C24 19.3055 19.8973 22.8638 14.9584 23.068C10.9528 23.2332 7.32643 21.2499 5.31393 17.7888C4.60421 16.5638 4.05004 14.843 3.95282 13.5693C3.92365 13.1416 3.92365 13.1318 4.26393 13.0832C5.01254 12.9568 5.62504 12.4221 5.81949 11.7416C5.9556 11.236 5.94588 8.59157 5.80004 8.27073C5.73199 8.11518 5.57643 7.99851 5.41115 7.95962L5.13893 7.90129V6.93879C5.13893 6.04435 5.11949 5.95685 4.89588 5.73323C4.71115 5.55824 4.59449 5.50962 4.42921 5.54851C3.99171 5.68462 3.92365 5.84018 3.89449 6.90962L3.8556 7.93046H3.29171H2.72782L2.68893 6.90962C2.65976 5.79157 2.55282 5.56796 2.06671 5.56796C1.5806 5.56796 1.44449 5.87907 1.44449 6.95823V7.90129L1.15282 7.96935C0.705598 8.05685 0.647264 8.33879 0.686153 10.1666C0.725042 11.8777 0.783376 12.111 1.26949 12.568C1.54171 12.8305 2.13476 13.0832 2.44588 13.0832C2.65976 13.0832 2.68893 13.1318 2.74726 13.686C3.34032 19.0138 7.1806 23.1263 12.4889 24.1277C13.782 24.3707 16.1348 24.2735 17.4084 23.9332C19.4695 23.3888 21.1612 22.4263 22.6875 20.9485C25.0598 18.6541 26.2653 15.7957 26.2653 12.4999C26.2653 9.20407 25.0598 6.34574 22.6875 4.05129C21.1612 2.57351 19.4695 1.62074 17.4084 1.06657C16.6014 0.842958 16.2223 0.80407 14.7639 0.774902C13.3445 0.745735 12.9167 0.765181 12.1875 0.930458ZM4.65282 10.3124C4.65282 11.936 4.6431 11.9457 3.22365 11.8971C1.91115 11.8582 1.9306 11.8874 1.9306 10.293V9.09712H3.29171H4.65282V10.3124Z" fill="#303f97"/>
<path d="M11.6528 7.01648C11.2153 7.21092 10.807 7.59009 10.5736 8.04703C10.3986 8.38731 10.3889 8.65953 10.3889 12.4706C10.3889 17.0206 10.3889 17.0012 11.0986 17.6234C11.5556 18.022 12.0514 18.1776 12.6736 18.1095C13.1111 18.0609 13.6361 17.7984 16.4264 16.1943C18.2153 15.1637 19.8195 14.1915 20.0042 14.0165C20.9084 13.1706 20.9084 11.8193 20.0042 10.9831C19.6736 10.6818 13.7236 7.2012 13.1695 6.98731C12.7514 6.83176 12.0514 6.84148 11.6528 7.01648ZM13.0625 8.2512C13.2764 8.37759 14.725 9.2137 16.2709 10.1081C17.8264 11.0026 19.1778 11.8193 19.2847 11.9262C19.4111 12.0526 19.4792 12.2373 19.4792 12.4998C19.4792 12.7526 19.4111 12.9568 19.2847 13.0831C19.0125 13.3456 12.7125 16.972 12.5084 16.972C12.4209 16.972 12.2264 16.9234 12.0903 16.8554C11.5653 16.622 11.5556 16.5248 11.5556 12.4512C11.5556 10.0693 11.5945 8.63037 11.6528 8.5137C11.7695 8.29009 12.207 8.03731 12.4792 8.03731C12.5861 8.02759 12.8486 8.13453 13.0625 8.2512Z" fill="#303f97"/>
</svg>
