<svg width="43" height="43" viewBox="0 0 43 43" fill="none" xmlns="http://www.w3.org/2000/svg">
<path d="M5.3125 16.4375C5.3125 11.4288 5.3125 8.92449 6.8685 7.3685C8.42449 5.8125 10.9288 5.8125 15.9375 5.8125H26.5625C31.5711 5.8125 34.0754 5.8125 35.6315 7.3685C37.1875 8.92449 37.1875 11.4288 37.1875 16.4375V25.2917C37.1875 28.6307 37.1875 30.3003 36.1501 31.3376C35.1128 32.375 33.4433 32.375 30.1042 32.375H12.3958C9.05671 32.375 7.38716 32.375 6.34984 31.3376C5.3125 30.3003 5.3125 28.6307 5.3125 25.2917V16.4375Z" stroke="#303F9F" stroke-width="4"/>
<path d="M38.9583 37.6875H3.54163" stroke="#303F9F" stroke-width="4" stroke-linecap="round"/>
<path d="M26.5625 27.0625H15.9375" stroke="#303F9F" stroke-width="4" stroke-linecap="round"/>
</svg>
