<svg width="25" height="25" viewBox="0 0 25 25" fill="none" xmlns="http://www.w3.org/2000/svg">
<path d="M23.2209 0.838867H1.77944C1.25703 0.838867 0.833496 1.29158 0.833496 1.84998V18.4982C0.833496 19.0567 1.25703 19.5093 1.77944 19.5093H9.32582L8.51868 22.443H7.54069C7.29235 22.443 7.09099 22.6581 7.09099 22.9236V23.714C7.09099 23.9795 7.29235 24.1947 7.54069 24.1947H17.4597C17.708 24.1947 17.9094 23.9795 17.9094 23.714V22.9236C17.9094 22.6581 17.7082 22.443 17.4597 22.443H16.4816L15.6744 19.5093H23.2209C23.7433 19.5093 24.1668 19.0567 24.1668 18.4982V1.84998C24.1668 1.29158 23.7433 0.838867 23.2209 0.838867ZM22.2749 15.8019H2.72539V2.86109H22.2749V15.8019Z" fill="#303f97"/>
<path d="M11.3704 11.2451C11.4232 11.3936 11.5593 11.4889 11.7076 11.4813C11.856 11.4737 11.9828 11.3648 12.0219 11.2116L12.2192 10.4383L13.9071 12.2423C14.041 12.3855 14.258 12.3855 14.3919 12.2423L14.8163 11.7888C14.9502 11.6456 14.9502 11.4136 14.8163 11.2704L13.1285 9.46639L13.852 9.25547C13.9952 9.21375 14.0973 9.07812 14.1042 8.91952C14.1114 8.76084 14.0221 8.61544 13.8834 8.55909L10.5475 7.20669C10.4214 7.15553 10.2789 7.18829 10.1835 7.29021C10.0881 7.39213 10.0575 7.54447 10.1053 7.67935L11.3704 11.2451Z" fill="#303f97"/>
</svg>
