<svg width="31" height="31" viewBox="0 0 31 31" fill="none" xmlns="http://www.w3.org/2000/svg">
<path fill-rule="evenodd" clip-rule="evenodd" d="M15.5715 10.8839C12.9827 10.8839 10.884 12.9826 10.884 15.5714C10.884 18.1603 12.9827 20.2589 15.5715 20.2589C18.1604 20.2589 20.259 18.1603 20.259 15.5714C20.259 12.9826 18.1604 10.8839 15.5715 10.8839ZM12.759 15.5714C12.759 14.0182 14.0183 12.7589 15.5715 12.7589C17.1248 12.7589 18.384 14.0182 18.384 15.5714C18.384 17.1247 17.1248 18.3839 15.5715 18.3839C14.0183 18.3839 12.759 17.1247 12.759 15.5714Z" fill="#303F9F"/>
<path fill-rule="evenodd" clip-rule="evenodd" d="M15.5398 2.13391C14.9843 2.1339 14.5204 2.1339 14.1397 2.15987C13.7433 2.18692 13.3689 2.24522 13.0059 2.39557C12.1636 2.74446 11.4944 3.41365 11.1456 4.25594C10.9639 4.69444 10.9147 5.15656 10.896 5.65886C10.8809 6.06265 10.6771 6.39955 10.3763 6.57317C10.0756 6.7468 9.68197 6.75482 9.32474 6.56601C8.88034 6.33112 8.45552 6.14265 7.98495 6.0807C7.08108 5.9617 6.16694 6.20665 5.44365 6.76165C5.13195 7.00082 4.89425 7.29591 4.67265 7.62566C4.45976 7.94242 4.22788 8.3441 3.95009 8.82525L3.91853 8.87992C3.64073 9.36106 3.40883 9.76271 3.24094 10.1054C3.06618 10.4622 2.92946 10.8156 2.87818 11.2052C2.75918 12.1091 3.00413 13.0232 3.55911 13.7465C3.84801 14.1229 4.22358 14.3967 4.64913 14.664C4.99135 14.879 5.18126 15.224 5.18124 15.5714C5.18123 15.9187 4.99131 16.2637 4.64913 16.4787C4.22353 16.746 3.84793 17.0198 3.559 17.3963C3.004 18.1195 2.75906 19.0337 2.87805 19.9375C2.92934 20.327 3.06605 20.6805 3.24081 21.0373C3.4087 21.38 3.6406 21.7817 3.91839 22.2628L3.94996 22.3175C4.22775 22.7987 4.45964 23.2003 4.67253 23.517C4.89412 23.8468 5.13183 24.1419 5.44353 24.381C6.16681 24.936 7.08095 25.181 7.98482 25.062C8.45537 25 8.88016 24.8117 9.32454 24.5768C9.68182 24.3879 10.0755 24.3959 10.3763 24.5697C10.6771 24.7433 10.8809 25.0802 10.896 25.484C10.9147 25.9863 10.964 26.4484 11.1456 26.8869C11.4944 27.7292 12.1636 28.3984 13.0059 28.7473C13.3689 28.8977 13.7433 28.9559 14.1397 28.9829C14.5204 29.0089 14.9843 29.0089 15.5398 29.0089H15.6029C16.1585 29.0089 16.6223 29.0089 17.0032 28.9829C17.3995 28.9559 17.7739 28.8977 18.1369 28.7473C18.9792 28.3984 19.6484 27.7292 19.9973 26.8869C20.1789 26.4484 20.228 25.9863 20.2468 25.4839C20.2619 25.0802 20.4657 24.7433 20.7664 24.5695C21.0672 24.3959 21.4609 24.3879 21.8182 24.5767C22.2625 24.8115 22.6873 25 23.1579 25.0619C24.0618 25.1809 24.9759 24.936 25.6992 24.381C26.0109 24.1418 26.2485 23.8468 26.4702 23.517C26.683 23.2003 26.9149 22.7987 27.1927 22.3175L27.2243 22.2628C27.502 21.7817 27.734 21.3799 27.9019 21.0372C28.0767 20.6804 28.2133 20.327 28.2647 19.9375C28.3837 19.0335 28.1387 18.1194 27.5837 17.3962C27.2948 17.0197 26.9192 16.746 26.4937 16.4787C26.1514 16.2637 25.9615 15.9187 25.9615 15.5713C25.9615 15.224 26.1514 14.8792 26.4935 14.6642C26.9193 14.3968 27.2949 14.1232 27.5838 13.7465C28.1388 13.0233 28.3838 12.1091 28.2648 11.2053C28.2134 10.8157 28.0768 10.4623 27.902 10.1055C27.7342 9.76282 27.5023 9.3612 27.2244 8.8801L27.1929 8.82539C26.915 8.34422 26.6832 7.94251 26.4703 7.62575C26.2487 7.296 26.011 7.00091 25.6993 6.76172C24.976 6.20674 24.0619 5.96179 23.1579 6.08079C22.6874 6.14274 22.2627 6.33119 21.8183 6.56606C21.461 6.7549 21.0673 6.74686 20.7665 6.57321C20.4658 6.39957 20.2619 6.06262 20.2468 5.6588C20.228 5.15651 20.1789 4.69441 19.9973 4.25594C19.6484 3.41365 18.9792 2.74446 18.1369 2.39557C17.7739 2.24522 17.3995 2.18692 17.0032 2.15987C16.6223 2.1339 16.1585 2.1339 15.6029 2.13391H15.5398ZM13.7234 4.12785C13.8199 4.0879 13.9664 4.05106 14.2673 4.03052C14.5767 4.00942 14.9762 4.00891 15.5714 4.00891C16.1667 4.00891 16.5662 4.00942 16.8754 4.03052C17.1764 4.05106 17.3229 4.0879 17.4193 4.12785C17.8022 4.28644 18.1064 4.59061 18.2649 4.97347C18.315 5.09424 18.3564 5.2825 18.3732 5.72887C18.4102 6.71935 18.9214 7.67302 19.829 8.19701C20.7365 8.72101 21.8182 8.68691 22.6944 8.22376C23.0893 8.01504 23.2732 7.95681 23.4027 7.93975C23.8135 7.88566 24.229 7.997 24.5578 8.24926C24.6407 8.31281 24.7458 8.42127 24.914 8.67161C25.087 8.92895 25.2872 9.27466 25.5848 9.79016C25.8824 10.3057 26.0818 10.6519 26.2182 10.9303C26.3508 11.2012 26.3922 11.3465 26.4058 11.45C26.4599 11.8608 26.3485 12.2764 26.0963 12.6051C26.0167 12.7088 25.8744 12.8389 25.496 13.0765C24.6569 13.6039 24.0867 14.5234 24.0865 15.5713C24.0865 16.6193 24.6568 17.5389 25.496 18.0663C25.8743 18.3039 26.0165 18.4339 26.0962 18.5377C26.3484 18.8664 26.4598 19.2819 26.4057 19.6928C26.392 19.7963 26.3507 19.9415 26.218 20.2124C26.0817 20.4908 25.8823 20.837 25.5847 21.3525C25.287 21.868 25.0869 22.2138 24.9139 22.4712C24.7457 22.7214 24.6405 22.8299 24.5577 22.8934C24.2289 23.1458 23.8134 23.257 23.4025 23.203C23.273 23.1859 23.0892 23.1277 22.6943 22.919C21.818 22.4558 20.7364 22.4218 19.8288 22.9458C18.9214 23.4698 18.4102 24.4234 18.3732 25.4139C18.3564 25.8603 18.315 26.0485 18.2649 26.1694C18.1064 26.5522 17.8022 26.8564 17.4193 27.015C17.3229 27.0549 17.1764 27.0918 16.8754 27.1123C16.5662 27.1334 16.1667 27.1339 15.5714 27.1339C14.9762 27.1339 14.5767 27.1334 14.2673 27.1123C13.9664 27.0918 13.8199 27.0549 13.7234 27.015C13.3407 26.8564 13.0364 26.5522 12.8778 26.1694C12.8278 26.0485 12.7863 25.8603 12.7696 25.4139C12.7326 24.4235 12.2214 23.4698 11.3138 22.9458C10.4062 22.4218 9.32469 22.4559 8.44839 22.919C8.05347 23.1278 7.8697 23.186 7.7401 23.203C7.32924 23.2572 6.91373 23.1458 6.58496 22.8935C6.50214 22.83 6.39697 22.7215 6.22874 22.4712C6.0558 22.2139 5.85561 21.8682 5.55799 21.3527C5.26035 20.8372 5.06105 20.4909 4.92466 20.2125C4.79199 19.9417 4.75064 19.7963 4.73701 19.6928C4.68292 19.2819 4.79426 18.8664 5.04654 18.5377C5.12611 18.434 5.26843 18.3039 5.64666 18.0663C6.48589 17.539 7.05619 16.6194 7.05624 15.5715C7.0563 14.5234 6.48598 13.6038 5.64668 13.0764C5.26853 12.8388 5.12622 12.7087 5.04665 12.605C4.79439 12.2763 4.68305 11.8608 4.73714 11.4499C4.75076 11.3464 4.79211 11.2011 4.92479 10.9302C5.06118 10.6518 5.26048 10.3056 5.5581 9.79007C5.85574 9.27457 6.05591 8.92886 6.22886 8.67152C6.3971 8.4212 6.50226 8.31272 6.58507 8.24919C6.91385 7.99691 7.32936 7.88557 7.74021 7.93966C7.86983 7.95672 8.05361 8.01495 8.44858 8.22371C9.32482 8.68685 10.4063 8.72094 11.3138 8.19697C12.2214 7.67301 12.7326 6.71937 12.7696 5.72894C12.7863 5.28252 12.8278 5.09425 12.8778 4.97347C13.0364 4.59061 13.3407 4.28644 13.7234 4.12785Z" fill="#303F9F"/>
</svg>
