<svg width="29" height="29" viewBox="0 0 29 29" fill="none" xmlns="http://www.w3.org/2000/svg">
<path d="M14.9 2C12.56 2 10.39 2.59 8.39 3.77C6.45 4.91 4.91 6.45 3.77 8.39C2.59 10.39 2 12.56 2 14.9C2 17.24 2.59 19.41 3.77 21.41C4.91 23.35 6.45 24.89 8.39 26.03C10.39 27.21 12.56 27.8 14.9 27.8C17.24 27.8 19.41 27.21 21.41 26.03C23.35 24.89 24.89 23.35 26.03 21.41C27.21 19.41 27.8 17.24 27.8 14.9C27.8 12.56 27.21 10.39 26.03 8.39C24.89 6.45 23.35 4.91 21.41 3.77C19.41 2.59 17.24 2 14.9 2ZM14.9 5.24C16.48 5.24 17.96 5.6 19.34 6.32C20.72 7.04 21.865 8.035 22.775 9.305C23.685 10.575 24.25 11.99 24.47 13.55H22.4C22.16 13.55 21.905 13.485 21.635 13.355C21.365 13.225 21.16 13.06 21.02 12.86L18.44 9.44C18.3 9.24 18.125 9.14 17.915 9.14C17.705 9.14 17.53 9.24 17.39 9.44L12.41 16.1C12.27 16.28 12.095 16.37 11.885 16.37C11.675 16.37 11.5 16.28 11.36 16.1L9.98 14.27C9.84 14.07 9.635 13.9 9.365 13.76C9.095 13.62 8.85 13.55 8.63 13.55H5.33C5.55 11.99 6.115 10.575 7.025 9.305C7.935 8.035 9.08 7.04 10.46 6.32C11.84 5.6 13.32 5.24 14.9 5.24ZM14.9 24.56C13.32 24.56 11.84 24.2 10.46 23.48C9.08 22.76 7.935 21.765 7.025 20.495C6.115 19.225 5.55 17.81 5.33 16.25H7.4C7.64 16.25 7.895 16.32 8.165 16.46C8.435 16.6 8.64 16.76 8.78 16.94L11.36 20.39C11.5 20.57 11.675 20.66 11.885 20.66C12.095 20.66 12.27 20.57 12.41 20.39L17.39 13.73C17.53 13.53 17.705 13.43 17.915 13.43C18.125 13.43 18.3 13.53 18.44 13.73L19.82 15.56C19.96 15.74 20.165 15.9 20.435 16.04C20.705 16.18 20.95 16.25 21.17 16.25H24.47C24.25 17.81 23.685 19.225 22.775 20.495C21.865 21.765 20.72 22.76 19.34 23.48C17.96 24.2 16.48 24.56 14.9 24.56Z" fill="white"/>
</svg>
