<svg width="18" height="17" viewBox="0 0 18 17" fill="none" xmlns="http://www.w3.org/2000/svg">
<path d="M9.00033 0.166656C4.40866 0.166656 0.666992 3.90832 0.666992 8.49999C0.666992 13.0917 4.40866 16.8333 9.00033 16.8333C13.592 16.8333 17.3337 13.0917 17.3337 8.49999C17.3337 3.90832 13.592 0.166656 9.00033 0.166656ZM12.9837 6.58332L8.25866 11.3083C8.14199 11.425 7.98366 11.4917 7.81699 11.4917C7.65032 11.4917 7.49199 11.425 7.37533 11.3083L5.01699 8.94999C4.77533 8.70832 4.77533 8.30832 5.01699 8.06666C5.25866 7.82499 5.65866 7.82499 5.90032 8.06666L7.81699 9.98332L12.1003 5.69999C12.342 5.45832 12.742 5.45832 12.9837 5.69999C13.2253 5.94166 13.2253 6.33332 12.9837 6.58332Z" fill="#7986CB"/>
</svg>
