<svg width="35" height="35" viewBox="0 0 35 35" fill="none" xmlns="http://www.w3.org/2000/svg">
<path fill-rule="evenodd" clip-rule="evenodd" d="M5.83329 17.4998C5.83329 11.0565 11.0566 5.83317 17.5 5.83317C18.3054 5.83317 18.9583 5.18025 18.9583 4.37484C18.9583 3.56943 18.3054 2.9165 17.5 2.9165C9.4458 2.9165 2.91663 9.44568 2.91663 17.4998C2.91663 25.5539 9.4458 32.0832 17.5 32.0832C21.5266 32.0832 25.1744 30.4493 27.812 27.8119C28.3815 27.2422 28.3815 26.319 27.812 25.7495C27.2424 25.1799 26.3191 25.1799 25.7496 25.7495C23.6366 27.8623 20.722 29.1665 17.5 29.1665C11.0566 29.1665 5.83329 23.9432 5.83329 17.4998ZM18.9583 8.74984C18.9583 7.94443 18.3054 7.2915 17.5 7.2915C16.6945 7.2915 16.0416 7.94443 16.0416 8.74984V17.4998C16.0416 17.8866 16.1953 18.2576 16.4688 18.531L20.8438 22.906C21.4132 23.4755 22.3367 23.4755 22.9061 22.906C23.4756 22.3365 23.4756 21.4131 22.9061 20.8436L18.9583 16.8958V8.74984ZM31.7162 22.119C31.4052 23.0765 30.3768 23.6005 29.4192 23.2894C28.4618 22.9782 27.9378 21.9498 28.2489 20.9924C28.56 20.0349 29.5884 19.5109 30.5459 19.8219C31.5033 20.1332 32.0274 21.1614 31.7162 22.119ZM30.7485 17.2471C31.7429 17.0896 32.4213 16.1558 32.2638 15.1615C32.1063 14.1671 31.1726 13.4887 30.1783 13.6462C29.1838 13.8037 28.5054 14.7375 28.6629 15.7319C28.8204 16.7262 29.7542 17.4046 30.7485 17.2471ZM29.593 8.7137C30.1848 9.52819 30.0043 10.6682 29.1898 11.2599C28.3753 11.8517 27.2354 11.6712 26.6436 10.8567C26.0518 10.0422 26.2323 8.90217 27.0468 8.31041C27.8613 7.71865 29.0014 7.89921 29.593 8.7137ZM25.0829 6.63298C25.5399 5.73594 25.1832 4.63823 24.2862 4.18116C23.3891 3.7241 22.2915 4.08076 21.8344 4.9778C21.3774 5.87485 21.7339 6.97255 22.6311 7.42962C23.5281 7.88668 24.6258 7.53001 25.0829 6.63298Z" fill="#303F9F"/>
</svg>
