<svg width="24" height="24" viewBox="0 0 24 24" fill="none" xmlns="http://www.w3.org/2000/svg">
<g clip-path="url(#clip0_708_740)">
<path d="M24 17H20V15H22V3H4V5H2V1H24V17Z" fill="white"/>
<path d="M16 0H10V4H16V0Z" fill="white"/>
<path d="M13 24H0V19C0 16.7 1.3 14.6 3.3 13.6C2.5 12.8 2 11.7 2 10.5C2 8 4 6 6.5 6C9 6 11 8 11 10.5C11 11.2 10.9 11.8 10.6 12.3C12 11.7 14 10.5 16.3 8.2L18.3 6.2L19.7 7.6L18.4 9L20.2 10.8L19.9 11.4C19.8 11.6 17.5 16.9 13.3 18.6C13.1 18.7 13 18.8 13 19V24ZM2 22H11V19C11 18 11.6 17.1 12.5 16.7C15.2 15.6 17.1 12.5 17.8 11.2L17 10.4C12.1 15 8.4 15 8 15H6C3.8 15 2 16.8 2 19V22ZM6.5 13C7.9 13 9 11.9 9 10.5C9 9.1 7.9 8 6.5 8C5.1 8 4 9.1 4 10.5C4 11.9 5.1 13 6.5 13Z" fill="white"/>
</g>
<defs>
<clipPath id="clip0_708_740">
<rect width="24" height="24" fill="white"/>
</clipPath>
</defs>
</svg>
