<svg width="31" height="30" viewBox="0 0 31 30" fill="none" xmlns="http://www.w3.org/2000/svg">
<g clip-path="url(#clip0_486_700)">
<path d="M9.05 13.5C9.65 10.5 12.35 8.25 15.5 8.25C17.75 8.25 19.55 9.3 20.75 10.95L23.3 7.95C21.5 5.85 18.65 4.5 15.5 4.5C10.25 4.5 5.9 8.4 5.15 13.5H2L7.25 19.5L12.5 13.5H9.05ZM23.75 10.5L18.5 16.5H21.95C21.2 19.5 18.65 21.75 15.5 21.75C13.25 21.75 11.45 20.7 10.25 19.05L7.7 21.9C9.5 24.15 12.35 25.5 15.5 25.5C20.75 25.5 25.1 21.6 25.85 16.5H29L23.75 10.5Z" fill="white"/>
</g>
<defs>
<clipPath id="clip0_486_700">
<rect width="30" height="30" fill="white" transform="translate(0.5)"/>
</clipPath>
</defs>
</svg>
