<svg width="20" height="20" viewBox="0 0 20 20" fill="none" xmlns="http://www.w3.org/2000/svg">
<g clip-path="url(#clip0_451_116)">
<path fill-rule="evenodd" clip-rule="evenodd" d="M3.29407 13.3333V13.3415C1.47409 13.3415 0 15.0049 0 16.6715C0 18.3382 1.64703 20 3.29407 20C5.11405 20 6.58816 18.3382 6.58816 16.6715V16.6667C6.58816 14.825 5.11405 13.3333 3.29407 13.3333ZM3.29407 6.66667V10C6.58815 10 10.1178 13.3333 10.1178 16.6667H13.4118C13.4118 11.6667 8.23519 6.66667 3.29407 6.66667ZM20 16.6667H16.7059C16.7059 10 9.88223 3.33333 3.29407 3.33333V0C11.5293 0 20 6.66667 20 16.6667Z" fill="#303f97"/>
</g>
<defs>
<clipPath id="clip0_451_116">
<rect width="20" height="20" fill="#303f97"/>
</clipPath>
</defs>
</svg>
