<svg width="26" height="26" viewBox="0 0 26 26" fill="none" xmlns="http://www.w3.org/2000/svg">
<path d="M15.7985 4.94952C16.1132 4.57317 16.8545 4.1001 17.9085 3.59307C18.9318 3.10089 20.1564 2.61898 21.3423 2.19339C22.5263 1.76864 23.661 1.40389 24.5005 1.14512C24.6726 1.09213 24.832 1.04364 24.9769 1C24.9484 1.1729 24.9163 1.36525 24.8808 1.57387C24.7219 2.51066 24.4966 3.77449 24.2309 5.08546C23.9648 6.39868 23.6604 7.74879 23.3439 8.86191C23.1855 9.41901 23.027 9.90634 22.8723 10.2955C22.7119 10.699 22.5757 10.9444 22.479 11.06C22.3136 11.2578 21.9524 11.4192 21.3297 11.4627C20.7325 11.5045 20.0206 11.4292 19.3167 11.2997C18.6182 11.1713 17.9551 10.9949 17.4645 10.8496C17.22 10.7773 17.0199 10.7131 16.8817 10.6673L16.8784 10.6662C16.8097 10.5406 16.7132 10.3589 16.6022 10.1351C16.3764 9.68003 16.0945 9.05868 15.863 8.38408C15.6297 7.70423 15.4585 7.00093 15.4328 6.3744C15.4071 5.74528 15.53 5.27063 15.7985 4.94952Z" stroke="#303F9F"/>
<path d="M21.8023 4.46509C21.8023 4.46509 16.3547 9.3756 14.5792 14.8634" stroke="#303F9F" stroke-linecap="round" stroke-linejoin="round"/>
<path d="M11.788 7.58963C11.5784 7.33628 11.057 6.99381 10.2737 6.61311C9.52126 6.24736 8.61805 5.88795 7.74013 5.56968C6.86429 5.25207 6.02443 4.97928 5.40279 4.78568C5.36314 4.77333 5.32444 4.76132 5.28662 4.74963C5.29636 4.80838 5.30649 4.8693 5.3171 4.93222C5.43487 5.63377 5.60179 6.5799 5.79855 7.56092C5.9957 8.54427 6.22071 9.55233 6.45401 10.3815C6.57082 10.7965 6.68684 11.1565 6.79894 11.4415C6.91679 11.741 7.01046 11.9054 7.06551 11.9719C7.14674 12.07 7.36073 12.1863 7.8105 12.2181C8.2353 12.2481 8.74922 12.194 9.26609 12.098C9.77746 12.003 10.2641 11.8723 10.625 11.7643C10.7744 11.7196 10.9012 11.6792 10.9978 11.6473C11.0448 11.5592 11.1044 11.4443 11.1712 11.3082C11.3369 10.9707 11.5431 10.5111 11.7121 10.0136C11.8828 9.51077 12.0049 8.9994 12.0231 8.5507C12.0414 8.09891 11.9524 7.78832 11.788 7.58963Z" stroke="#303F9F"/>
<path d="M7.901 7.66553C7.901 7.66553 11.4823 10.8147 12.5003 14.5172" stroke="#303F9F" stroke-linecap="round" stroke-linejoin="round"/>
<path d="M4.69869 17.189H3.9008V18.3666L4.96311 17.9764L4.69869 17.189ZM9.68773 16.1196L9.85928 15.3046L9.84539 15.3014L9.83135 15.2987L9.68773 16.1196ZM14.2492 17.1698L14.4886 16.3737L14.455 16.3626L14.4207 16.3548L14.2492 17.1698ZM14.9382 20.0659L14.9798 19.2325L14.9638 19.2317L14.9477 19.2315L14.9382 20.0659ZM11.2557 20.0202L11.2652 19.1858L11.1152 20.8417L11.2557 20.0202ZM4.69869 23.5747L4.67124 22.7407L3.9008 22.7685V23.5747H4.69869ZM4.69869 25.1655V26H5.49658V25.1655H4.69869ZM0.797889 25.1655H0V26H0.797889V25.1655ZM0.797889 15.9862V15.1517H0V15.9862H0.797889ZM4.69869 15.9862H5.49658V15.1517H4.69869V15.9862ZM7.15252 15.3578C6.78429 15.5301 5.42525 16.0376 4.43427 16.4017L4.96311 17.9764C5.91332 17.6273 7.35837 17.0898 7.80407 16.8814L7.15252 15.3578ZM9.68773 16.1196C9.83135 15.2987 9.83143 15.2987 9.83135 15.2987C9.83127 15.2987 9.83151 15.2988 9.83135 15.2987C9.83119 15.2987 9.83055 15.2985 9.83031 15.2985C9.82983 15.2984 9.82928 15.2984 9.82864 15.2982C9.82736 15.2979 9.82577 15.2977 9.82369 15.2973C9.81962 15.2965 9.81412 15.2955 9.80718 15.2942C9.79321 15.2917 9.77366 15.2882 9.74909 15.2839C9.69994 15.2754 9.63044 15.264 9.54547 15.2513C9.37647 15.226 9.14229 15.1955 8.88402 15.1749C8.62813 15.1547 8.33395 15.143 8.04895 15.1598C7.7799 15.1758 7.44606 15.2205 7.15252 15.3578L7.80407 16.8814C7.83128 16.8686 7.93397 16.8383 8.13935 16.8261C8.32869 16.8149 8.54683 16.8219 8.76314 16.8391C8.97705 16.8562 9.17493 16.8819 9.31998 16.9035C9.39211 16.9142 9.45004 16.9238 9.48922 16.9306C9.50869 16.9339 9.52345 16.9366 9.53286 16.9384C9.53757 16.9392 9.54084 16.9398 9.54275 16.9402C9.54371 16.9404 9.54435 16.9404 9.54459 16.9405C9.54451 16.9405 9.54467 16.9406 9.54459 16.9405C9.54451 16.9405 9.54419 16.9404 9.68773 16.1196ZM14.4207 16.3548L9.85928 15.3046L9.51626 16.9345L14.0776 17.9847L14.4207 16.3548ZM16.4586 16.7103C16.0034 16.7103 15.5125 16.6292 15.1201 16.5413C14.9273 16.4981 14.7657 16.455 14.6535 16.4232C14.5975 16.4072 14.5542 16.3941 14.5259 16.3854C14.5117 16.381 14.5013 16.3778 14.495 16.3758C14.4918 16.3748 14.4896 16.3741 14.4886 16.3737C14.4885 16.3737 14.4886 16.3737 14.4886 16.3737C14.4886 16.3737 14.4886 16.3737 14.2492 17.1698C14.0098 17.9658 14.01 17.9659 14.0101 17.9659C14.01 17.9659 14.0101 17.9659 14.0101 17.9659C14.0102 17.9659 14.0106 17.966 14.0109 17.9661C14.0113 17.9663 14.0117 17.9664 14.0123 17.9666C14.0134 17.9669 14.0148 17.9674 14.0164 17.9679C14.0197 17.969 14.0241 17.9704 14.0295 17.9721C14.0405 17.9756 14.0556 17.9804 14.0747 17.9863C14.1129 17.9981 14.1671 18.0143 14.2347 18.0335C14.3697 18.072 14.56 18.1227 14.786 18.1732C15.231 18.2729 15.8448 18.3793 16.4586 18.3793V16.7103ZM16.6315 20.2535C17.1431 19.8785 17.5906 19.2076 17.7547 18.5815C17.8349 18.2755 17.8912 17.8109 17.6629 17.3817C17.3969 16.882 16.907 16.7103 16.4586 16.7103V18.3793C16.5068 18.3793 16.4881 18.3882 16.4362 18.362C16.375 18.3312 16.3108 18.2729 16.2685 18.1933C16.1987 18.0621 16.251 18.0054 16.2157 18.1403C16.1873 18.2488 16.1202 18.3992 16.0168 18.5535C15.9133 18.7079 15.8018 18.8236 15.7156 18.8868L16.6315 20.2535ZM14.9382 20.0659C14.8968 20.8992 14.8971 20.8993 14.8975 20.8993C14.8973 20.8993 14.8977 20.8993 14.8975 20.8993C14.8981 20.8994 14.8995 20.8994 14.9 20.8994C14.9012 20.8995 14.9023 20.8996 14.9035 20.8996C14.906 20.8997 14.9086 20.8998 14.9112 20.8999C14.9166 20.9001 14.9225 20.9003 14.929 20.9004C14.9419 20.9006 14.957 20.9007 14.9741 20.9005C15.0084 20.9 15.0508 20.898 15.1009 20.8934C15.2009 20.8842 15.3308 20.8642 15.4846 20.8233C15.7941 20.7408 16.192 20.5757 16.6315 20.2535L15.7156 18.8868C15.4401 19.0887 15.2203 19.1714 15.0909 19.2059C15.0253 19.2233 14.9804 19.2291 14.9606 19.2309C14.9506 19.2319 14.9469 19.2318 14.9499 19.2317C14.9514 19.2317 14.9546 19.2317 14.9595 19.2318C14.962 19.2318 14.965 19.2319 14.9683 19.232C14.97 19.2321 14.9718 19.2322 14.9737 19.2323C14.9746 19.2323 14.9757 19.2324 14.9767 19.2324C14.9772 19.2324 14.9777 19.2324 14.9782 19.2324C14.9785 19.2325 14.9797 19.2325 14.9798 19.2325C14.9802 19.2325 14.9798 19.2325 14.9382 20.0659ZM11.2462 20.8546L14.929 20.9004L14.9477 19.2315L11.2652 19.1858L11.2462 20.8546ZM15.7218 19.8623C15.1628 19.8277 14.0984 19.6664 13.1368 19.5056C12.664 19.4265 12.2284 19.3498 11.9109 19.2927C11.7523 19.2641 11.6233 19.2406 11.534 19.2243C11.4894 19.2161 11.4548 19.2097 11.4314 19.2053C11.4198 19.2031 11.4109 19.2015 11.4049 19.2004C11.402 19.1998 11.3998 19.1994 11.3983 19.1991C11.3976 19.199 11.397 19.1989 11.3967 19.1988C11.3966 19.1988 11.3968 19.1988 11.3967 19.1988C11.3967 19.1988 11.3963 19.1987 11.2557 20.0202C11.1152 20.8416 11.1152 20.8417 11.1152 20.8417C11.115 20.8417 11.1153 20.8417 11.1152 20.8417C11.1157 20.8417 11.117 20.842 11.1179 20.8422C11.1195 20.8424 11.1219 20.8429 11.125 20.8435C11.1314 20.8447 11.1406 20.8463 11.1527 20.8486C11.1769 20.8531 11.2123 20.8597 11.2578 20.868C11.3488 20.8847 11.4798 20.9087 11.6407 20.9375C11.9624 20.9954 12.4044 21.0733 12.8849 21.1537C13.8299 21.3116 14.9749 21.488 15.6275 21.5283L15.7218 19.8623ZM18.2199 19.0206C17.6245 19.2712 17.0929 19.4946 16.6353 19.6525C16.1531 19.8188 15.8636 19.8711 15.7218 19.8623L15.6275 21.5283C16.0994 21.5576 16.6432 21.4072 17.1351 21.2375C17.6514 21.0594 18.2345 20.8135 18.8158 20.5688L18.2199 19.0206ZM21.8901 17.7713C20.6941 17.9743 19.341 18.5485 18.2199 19.0206L18.8158 20.5688C19.9869 20.0757 21.1614 19.5858 22.1457 19.4187L21.8901 17.7713ZM24.437 21.5836C25.0696 20.9178 25.1632 19.8195 24.7476 18.987C24.2771 18.0446 23.2527 17.5399 21.8901 17.7713L22.1457 19.4187C22.9925 19.2749 23.2511 19.5954 23.333 19.7594C23.4698 20.0334 23.3852 20.3229 23.3051 20.4071L24.437 21.5836ZM16.7285 25.7562C17.2788 25.5494 18.9956 24.7202 20.6273 23.8709C21.4524 23.4414 22.2752 22.9967 22.9405 22.6094C23.2726 22.4161 23.5727 22.2329 23.8172 22.0702C24.0437 21.9194 24.279 21.7498 24.437 21.5836L23.3051 20.4071C23.3061 20.406 23.2996 20.4129 23.2818 20.4283C23.2645 20.4432 23.2409 20.4625 23.2098 20.4863C23.1471 20.5343 23.0642 20.5931 22.9605 20.6622C22.7528 20.8003 22.4827 20.9658 22.1644 21.1511C21.529 21.5209 20.7304 21.9529 19.9162 22.3768C18.2693 23.2339 16.6363 24.0174 16.1888 24.1857L16.7285 25.7562ZM13.5872 25.8877C14.5965 25.9917 15.7427 26.1268 16.7285 25.7562L16.1888 24.1857C15.6117 24.4026 14.8675 24.3426 13.7438 24.2267L13.5872 25.8877ZM12.6933 25.8031C12.9952 25.8267 13.2905 25.8571 13.5872 25.8877L13.7438 24.2267C13.4498 24.1964 13.1357 24.164 12.8116 24.1388L12.6933 25.8031ZM9.37536 25.0529C10.3179 25.3604 11.3474 25.6985 12.6933 25.8031L12.8116 24.1388C11.6665 24.0497 10.7925 23.7669 9.8505 23.4597L9.37536 25.0529ZM6.23518 24.3796C7.45715 24.4301 8.36675 24.7239 9.37536 25.0529L9.8505 23.4597C8.83941 23.1298 7.75133 22.772 6.29822 22.7119L6.23518 24.3796ZM4.72614 24.4086C5.36908 24.3855 5.99183 24.3695 6.23518 24.3796L6.29822 22.7119C5.98217 22.6989 5.29064 22.7184 4.67124 22.7407L4.72614 24.4086ZM3.9008 23.5747V25.1655H5.49658V23.5747H3.9008ZM4.69869 24.331H0.797889V26H4.69869V24.331ZM1.59578 25.1655V15.9862H0V25.1655H1.59578ZM0.797889 16.8207H4.69869V15.1517H0.797889V16.8207ZM3.9008 15.9862V17.189H5.49658V15.9862H3.9008Z" fill="#303F9F"/>
</svg>
