<svg width="70" height="70" viewBox="0 0 70 70" fill="none" xmlns="http://www.w3.org/2000/svg">
<g clip-path="url(#clip0_764_331)">
<path fill-rule="evenodd" clip-rule="evenodd" d="M43.3519 14.0013C42.1974 14.0013 41.2629 13.0917 41.2629 11.9682C41.2629 10.8446 42.1974 9.93909 43.3519 9.93909C44.5064 9.93909 45.4409 10.8446 45.4409 11.9682C45.4409 13.0917 44.5064 14.0013 43.3519 14.0013ZM26.6481 14.0013C25.4936 14.0013 24.5591 13.0917 24.5591 11.9682C24.5591 10.8446 25.4936 9.93909 26.6481 9.93909C27.8026 9.93909 28.7372 10.8446 28.7372 11.9682C28.7372 13.0917 27.8026 14.0013 26.6481 14.0013ZM44.5867 5.8604L45.3648 4.71627L46.1429 3.58852L47.8767 1.05326C48.0924 0.740464 48.0036 0.320619 47.6822 0.114832C47.365 -0.0950701 46.9295 -0.00864084 46.7223 0.304156L44.075 4.16059L43.28 5.32127C40.7638 4.37054 37.9602 3.83962 35 3.83962C32.0441 3.83962 29.2362 4.37054 26.72 5.32127L25.9292 4.16059L25.1469 3.02055L23.2862 0.304156C23.0705 -0.00864084 22.6392 -0.0909547 22.3178 0.114832C22.0007 0.320619 21.9119 0.740464 22.1233 1.05326L23.8571 3.58852L24.6352 4.71627L25.4175 5.8604C19.5099 8.53975 15.5137 13.6144 15.5137 19.4217H54.4863C54.4863 13.6144 50.4901 8.53975 44.5867 5.8604ZM15.8139 22.1299H15.5137V51.936C15.5137 54.3026 17.4885 56.2288 19.9243 56.2288H23.1044C22.9944 56.5869 22.9352 56.9614 22.9352 57.3565V65.9378C22.9352 68.1809 24.8086 70 27.1133 70C29.418 70 31.2913 68.1809 31.2913 65.9378V57.3565C31.2913 56.9614 31.2279 56.5869 31.1222 56.2288H38.8778C38.7721 56.5869 38.7129 56.9614 38.7129 57.3565V65.9378C38.7129 68.1809 40.582 70 42.8867 70C45.1957 70 47.069 68.1809 47.069 65.9378V57.3565C47.069 56.9614 47.0056 56.5869 46.8956 56.2288H50.0799C52.5157 56.2288 54.4863 54.3026 54.4863 51.936V22.1299H15.8139ZM8.55307 22.1299C6.24414 22.1299 4.375 23.9491 4.375 26.1922V43.5811C4.375 45.8241 6.24414 47.6434 8.55307 47.6434C10.8578 47.6434 12.7269 45.8241 12.7269 43.5811V26.1922C12.7269 23.9491 10.8578 22.1299 8.55307 22.1299ZM61.4512 22.1299C59.1422 22.1299 57.2731 23.9491 57.2731 26.1922V43.5811C57.2731 45.8241 59.1422 47.6434 61.4512 47.6434C63.7559 47.6434 65.625 45.8241 65.625 43.5811V26.1922C65.625 23.9491 63.7559 22.1299 61.4512 22.1299Z" fill="#303F9F"/>
</g>
<defs>
<clipPath id="clip0_764_331">
<rect width="70" height="70" fill="white"/>
</clipPath>
</defs>
</svg>
