<svg width="25" height="23" viewBox="0 0 25 23" fill="none" xmlns="http://www.w3.org/2000/svg">
<path d="M24.3952 2.0285C24.061 2.0285 23.7905 2.33403 23.7905 2.71164V20.3708C23.7893 21.0686 23.2891 21.6323 22.6726 21.6337H2.32744C1.70966 21.6323 1.21064 21.0686 1.20952 20.3708V1.7056L3.04199 2.56288C3.18906 2.63161 3.35737 2.63161 3.50502 2.56288L5.94286 1.42269L8.38016 2.56288C8.52723 2.63161 8.69608 2.63161 8.84315 2.56288L11.2799 1.42269L13.7166 2.56288C13.8636 2.63161 14.032 2.63161 14.179 2.56288L16.6186 1.42269L19.0606 2.56288C19.2077 2.63161 19.3754 2.63161 19.5224 2.56288L21.3597 1.70494V19.2488C21.3597 19.6263 21.6301 19.9319 21.9645 19.9319C22.2987 19.9319 22.5692 19.6263 22.5692 19.2488V0.683509C22.5692 0.455372 22.4688 0.24257 22.3004 0.11576C22.1328 -0.0116573 21.9201 -0.0355962 21.7335 0.0524373L19.2916 1.19185L16.8496 0.0524373C16.7025 -0.0169525 16.5348 -0.0169525 16.3877 0.0524373L13.9481 1.19185L11.5114 0.0524373C11.3643 -0.0169525 11.1954 -0.0169525 11.0484 0.0524373L8.61165 1.19185L6.17435 0.0524373C6.02733 -0.0169525 5.85897 -0.0169525 5.71137 0.0524373L3.27353 1.19185L0.836229 0.0524373C0.649022 -0.0350446 0.437011 -0.0116574 0.268701 0.115153C0.10039 0.24257 0 0.455372 0 0.683509V20.3708C0 21.8238 1.04233 22.9993 2.32744 23H22.6726C23.9576 22.9993 24.9994 21.8238 25 20.3708V2.71164C25 2.33403 24.7294 2.0285 24.3952 2.0285Z" fill="#303F9F"/>
<path d="M10.508 6.45563H3.96448V13.556H10.508V6.45563Z" fill="#303F9F"/>
<path d="M18.5208 6.53363H12.9287V7.62638H18.5208V6.53363Z" fill="#303F9F"/>
<path d="M18.5208 9.70526H12.9287V10.7981H18.5208V9.70526Z" fill="#303F9F"/>
<path d="M18.5208 12.8781H12.9287V13.9709H18.5208V12.8781Z" fill="#303F9F"/>
<path d="M18.5208 16.0497H3.96448V17.1425H18.5208V16.0497Z" fill="#303F9F"/>
</svg>
