<?xml version="1.0" encoding="UTF-8"?> <svg xmlns="http://www.w3.org/2000/svg" id="Layer_1" data-name="Layer 1" viewBox="0 0 284.72 272.32"><polygon points="284.72 0 249.13 0 224.98 71.45 260.52 71.45 284.72 0" fill="#f5333f"></polygon><path d="M216.09,200.75c-17.24,0-24.81-4.35-26.12-15-.56-5.35.21-10.52,3.73-21.76L157.09,272.32h35.38l24.25-71.57h-.63Z" fill="#f5333f"></path><path d="M94.35,94.65c-9.94,0-18.7,3-28.22,9.65l.63-6.82-31.95,0L0,198.91l36,0,17.26-50.27c1.09-3.18,2.15-6,3.2-8.4,10.61-22.32,33-12.52,33-12.52l.5-1,10.61-31.57A39.18,39.18,0,0,0,94.35,94.65Z"></path><path d="M111.44,201.6c-16.53,0-28.7-2.23-38.31-7l-.76-.39,19.2-25.65.58.41c5.85,4.21,14.57,6.44,25.21,6.44h.08c10.46,0,15.43-2.08,17.16-7.13a4.17,4.17,0,0,0,0-3.49c-.75-1.39-2.77-2.46-6.35-3.37-16.37-3.95-25.31-8.69-29-15.39-2.74-5-2.69-11.18.17-19.49,7-20.26,25.49-31.89,50.86-31.91h.09c14.24,0,25.5,3.31,34.41,10.11l.57.44-18.21,23.94-.57-.44a37.35,37.35,0,0,0-23.05-7.82h0c-6.33,0-10.6,1.87-11.71,5.12a3.47,3.47,0,0,0,1.44,4.18c1.94,1.12,1.94,1.12,11.12,4.08C158,138.73,165,143.16,167.92,149c2.38,4.81,2.11,10.81-.86,19.48-7.75,22.56-25.37,33.08-55.46,33.11Z"></path><path d="M225,71.45l-8.63,25.73-17.82,0-10.1,29.42h18l-8.73,25.44c-6.91,20.12-8.42,26.74-7.69,33.7,1.31,10.65,8.88,15,26.12,15h.11c8.93,0,10.4.18,21.69-.6l9.6-30.22-10.94.39h-.35c-3.54,0-5.11-.53-6-1.76-1.32-1.84-.78-5.62,1.92-13.48l9.79-28.51,17.48,0,10.1-29.42-17.71,0,8.74-25.7Z"></path></svg> 