<svg width="70" height="70" viewBox="0 0 70 70" fill="none" xmlns="http://www.w3.org/2000/svg">
<path d="M8.69094 23.5266C8.87688 22.9338 9.065 22.1616 9.21594 21.3741L9.23781 21.2297C8.28188 22.4329 8.77406 22.6779 8.69094 23.4982V23.5266ZM10.4147 16.2532C10.605 17.8107 9.24 18.4407 10.7144 17.4016C11.5347 15.5969 10.4147 16.9094 10.4409 16.2532H10.4147ZM36.2294 2.52441C36.9447 2.38879 37.835 2.27285 38.7363 2.20285L38.8259 2.19629C37.8153 2.27941 36.8025 2.3341 35.8181 2.46973L36.2294 2.52441ZM59.8894 31.7844L59.6991 32.1935C59.3819 34.4488 58.7191 36.4875 57.7631 38.3491L57.8134 38.2419C58.8459 36.3738 59.57 34.1907 59.8544 31.8719L59.8631 31.7844H59.8894ZM29.9709 38.2966C29.6363 37.8875 29.3519 37.4194 29.1375 36.9119L29.1222 36.8747C29.4153 37.7913 29.8134 38.5897 30.3166 39.3094L30.2969 39.281L29.9688 38.2966H29.9709ZM28.2756 38.3797L28.14 39.1454C28.7919 40.1888 29.5138 41.0922 30.3275 41.906C29.6713 40.6219 29.1791 40.1013 28.2778 38.3513L28.2756 38.3797ZM55.2912 30.555C55.23 32.0579 54.8537 33.46 54.2259 34.7135L54.2522 34.6544L53.2962 35.1488C52.5306 36.6254 53.3794 36.1047 52.8325 37.2816C51.5156 38.5832 50.0675 39.7535 48.51 40.7729L48.405 40.8385C47.8559 40.8385 48.7878 40.156 48.9234 39.9088C47.3069 41.0025 47.6087 41.5494 45.1763 42.2319L45.0931 42.0679C44.0694 42.4179 42.8881 42.6213 41.6609 42.6213C35.6256 42.6213 30.7322 37.7279 30.7322 31.6925C30.7322 31.6488 30.7322 31.6029 30.7322 31.5591V31.5657C30.6513 32.0294 30.5419 31.92 30.4041 32.1125C30.3822 31.8675 30.3691 31.5832 30.3691 31.2944C30.3691 27.4619 32.5894 24.1457 35.8159 22.5685L35.8728 22.5422C37.0759 21.9232 38.4978 21.5622 40.0028 21.5622C42.3347 21.5622 44.4653 22.4307 46.0841 23.8635L46.0753 23.8547C44.3887 21.6825 41.7769 20.2979 38.8434 20.2979C38.7713 20.2979 38.6991 20.2979 38.6269 20.3H38.6378C35.5381 20.3285 32.8431 22.0325 31.4125 24.5504L31.3906 24.5919C29.75 25.631 29.5597 28.6104 28.8488 29.1332C28.7 29.8704 28.6147 30.7169 28.6147 31.5832C28.6147 36.4504 31.3097 40.6854 35.2888 42.8816L35.3544 42.9144C36.0916 43.4329 35.5731 43.4875 35.6825 43.8704C34.0375 43.0785 32.6463 42.011 31.5131 40.7138L31.5 40.6985C32.1125 41.6588 32.8366 42.4791 33.67 43.1725L33.6875 43.1857C32.1847 42.6935 30.2159 39.631 29.6428 39.4954C32.1847 44.0322 39.9766 47.4797 44.0234 45.7822C43.6647 45.8085 43.2469 45.8238 42.8269 45.8238C40.9784 45.8238 39.2 45.5285 37.5353 44.9816L37.6556 45.0166C36.7544 44.5791 35.5513 43.6232 35.7416 43.4591C37.5572 44.2444 39.6703 44.6994 41.8906 44.6994C45.6881 44.6994 49.1728 43.365 51.9028 41.1404L51.8744 41.1622C53.0775 40.2063 54.4163 38.5919 54.7991 38.5657C54.2522 39.4407 54.9084 39.0032 54.4709 39.7688C55.6741 37.8 53.9241 38.9485 55.7287 36.3782L56.385 37.2794C56.14 35.6388 58.4084 33.6679 58.1897 31.0954C58.7081 30.275 58.7366 31.9157 58.1897 33.7466C58.9816 31.7232 58.4084 31.4235 58.5988 29.7566C58.8175 30.2269 59.0319 30.7979 59.2047 31.3863L59.2287 31.4782C59.1959 31.2135 59.1784 30.905 59.1784 30.5922C59.1784 29.3213 59.4803 28.1204 60.0141 27.0594L59.9944 27.1054C59.7494 26.9697 59.2287 27.9257 59.1194 25.6572C59.1194 24.6466 59.3928 25.1104 59.5022 24.8916C58.9509 24.2529 58.5769 23.4479 58.4653 22.5597L58.4631 22.5379C58.6819 22.1835 59.0647 23.4391 59.3928 23.4675C59.15 22.6232 58.9553 21.6191 58.8525 20.5888L58.8459 20.5144C57.9162 18.655 58.5178 20.7879 57.7522 19.6941C56.8225 16.7125 58.5725 19.0116 58.6819 17.6707C59.8478 19.6066 60.7731 21.851 61.3331 24.2375L61.3638 24.3972C61.0334 22.5663 60.5697 20.9519 59.9638 19.4097L60.025 19.5869C60.4625 19.7772 59.3141 16.1941 60.5981 18.5763C58.8372 13.3788 55.2869 9.18098 50.6975 6.62379L50.5881 6.5691C51.0803 7.03285 51.7366 7.63442 51.4894 7.71754C49.4397 6.48816 49.7941 6.40504 49.4944 5.8866C47.8275 5.2041 47.7181 5.94129 46.5959 5.8866C44.7038 4.90441 42.49 4.01848 40.18 3.35348L39.9197 3.29004L40.0553 3.91785C37.9509 3.23535 37.5944 4.19129 35.3259 3.91785C35.1881 3.80848 36.0631 3.53504 36.7741 3.42566C34.7484 3.6991 34.8578 3.04285 32.8628 3.50879C33.2872 3.22004 33.7794 2.9291 34.2891 2.66879L34.3656 2.63379C32.725 2.74316 30.4303 3.58973 31.1391 2.8241C27.2541 4.22848 23.8875 6.06817 20.8644 8.3366L20.965 8.26442L20.8863 7.66285C19.6569 9.13941 15.5291 12.0663 15.2009 13.9804L14.8422 14.0613C14.2144 15.155 13.8031 16.3844 13.2847 17.5088C12.4644 18.9307 12.0553 18.0557 12.1909 18.2744C11.0228 20.65 9.94438 23.4654 9.11094 26.3857L9.02125 26.7554C9.18313 28.2669 9.275 30.0213 9.275 31.7975C9.275 32.6769 9.25313 33.5519 9.20719 34.4204L9.21156 34.2979C9.205 34.5407 9.20063 34.8272 9.20063 35.116C9.20063 49.875 18.6528 62.4269 31.8347 67.0469L32.0709 67.1191C33.845 67.5632 35.8838 67.8191 37.9816 67.8191C38.2966 67.8191 38.6116 67.8125 38.9222 67.8016L38.8762 67.8038C36.1703 67.0382 35.8138 67.3947 33.1909 66.465C31.2769 65.59 30.8678 64.551 29.5269 63.3763L30.0738 64.3322C27.4203 63.4025 28.5163 63.1838 26.3528 62.5013L26.9259 61.7641C25.7906 61.3507 24.8697 60.5719 24.2878 59.5744L24.2747 59.5504L23.345 59.5766C22.225 58.2072 21.6234 57.1966 21.6781 56.4025L21.3741 56.9494C21.0197 56.3763 17.22 51.7519 19.1866 52.8194C18.6222 52.4279 18.1606 51.9247 17.8303 51.3385L17.8194 51.3166L18.2022 50.8529C17.4059 49.9494 16.8175 48.8447 16.5178 47.6241L16.5069 47.5716C16.7934 48.0047 17.22 48.3263 17.7209 48.4707L17.7362 48.475C15.33 42.5382 15.1944 48.1469 13.3591 42.455L13.7681 42.4004C13.5406 42.0197 13.3022 41.5625 13.0922 41.09L13.0572 41.0047L13.2213 39.3641C11.4997 37.3407 12.7291 30.8854 12.9763 27.3307C13.7156 25.2219 14.5272 23.4347 15.4744 21.7329L15.3803 21.9144L14.8072 21.805C15.9009 19.8647 21.2056 13.9541 23.6666 14.2582C24.8413 12.7554 23.4216 14.2582 23.1744 13.8754C25.7994 11.1672 26.6197 11.9613 28.3719 11.4691C30.2859 10.3732 26.7313 11.9066 27.6347 11.0557C30.9159 10.2354 29.9578 9.1416 34.2519 8.73254C34.6894 9.00598 33.1866 9.11535 32.83 9.44348C34.4028 8.93816 36.2097 8.64504 38.0866 8.64504C40.6984 8.64504 43.1791 9.2116 45.4125 10.2266L45.3009 10.1807C50.5334 12.9697 54.2062 18.0929 54.9434 24.1216L54.9522 24.2091L55.1709 24.2638C55.2234 24.885 55.2541 25.6091 55.2541 26.3397C55.2541 28.2275 55.055 30.0694 54.6766 31.8457L54.7072 31.6729L55.2541 30.5244L55.2912 30.555ZM37.1875 3.37316L36.7784 3.4541L37.1613 3.42785V3.37316H37.1875ZM36.0391 3.04504C36.5859 3.15441 37.2684 3.23535 37.1875 3.37316C37.8153 3.23754 37.9531 3.09973 36.0128 3.04504H36.0391ZM48.1272 29.82C48.2628 27.8491 47.7444 28.4507 47.5803 29.2163C47.7706 29.3257 47.9347 30.5835 48.1272 29.8179V29.82ZM45.9922 35.4244C46.5916 34.6041 47.04 33.6307 47.2675 32.5763L47.2762 32.526C47.0597 33.285 46.7512 33.9479 46.3575 34.5494L46.375 34.521C44.3253 35.805 46.1847 33.7838 46.375 32.9897C44.1875 35.7504 46.0753 34.6325 45.9922 35.4244ZM40.1384 36.8725C39.0447 36.8725 40.3572 37.4194 41.7813 37.6382C42.175 37.3429 42.5228 37.0475 42.8509 36.7325L42.8466 36.7369C42.3172 36.8594 41.7091 36.9272 41.0856 36.9272C40.7531 36.9272 40.425 36.9075 40.1013 36.8682L40.1384 36.8725Z" fill="#303F9F"/>
</svg>
