<svg width="25" height="23" viewBox="0 0 25 23" fill="none" xmlns="http://www.w3.org/2000/svg">
<path d="M12.5 23C10.9659 21.85 8.18182 20.9706 6.25 20.9706C4.375 20.9706 2.44318 21.3765 0.852273 22.3912C0.738636 22.4588 0.681818 22.4588 0.568182 22.4588C0.284091 22.4588 0 22.1206 0 21.7824V2.02941C0.681818 1.42059 1.42045 1.01471 2.27273 0.676471C3.53409 0.202941 4.92045 0 6.25 0C8.46591 0 10.8523 0.541176 12.5 2.02941C14.1477 0.541176 16.5341 0 18.75 0C20.0795 0 21.4659 0.202941 22.7273 0.676471C23.5795 1.01471 24.3182 1.42059 25 2.02941V21.7824C25 22.1206 24.7159 22.4588 24.4318 22.4588C24.3182 22.4588 24.2614 22.4588 24.1477 22.3912C22.5568 21.3765 20.625 20.9706 18.75 20.9706C16.8182 20.9706 14.0341 21.85 12.5 23ZM11.3636 4.05882C9.81818 3.24706 7.77273 2.70588 6.25 2.70588C4.88636 2.70588 3.52273 2.90882 2.27273 3.38235V18.9412C3.52273 18.4676 4.88636 18.2647 6.25 18.2647C7.77273 18.2647 9.81818 18.8059 11.3636 19.6176V4.05882ZM13.6364 19.6176C15.1818 18.8059 17.2273 18.2647 18.75 18.2647C20.1136 18.2647 21.4773 18.4676 22.7273 18.9412V3.38235C21.4773 2.90882 20.1136 2.70588 18.75 2.70588C17.2273 2.70588 15.1818 3.24706 13.6364 4.05882V19.6176Z" fill="#303F9F"/>
</svg>
