<svg width="35" height="35" viewBox="0 0 35 35" fill="none" xmlns="http://www.w3.org/2000/svg">
<path fill-rule="evenodd" clip-rule="evenodd" d="M2.91666 8.38538C2.91666 7.78132 3.40635 7.29163 4.01041 7.29163H30.2604C30.8644 7.29163 31.3542 7.78132 31.3542 8.38538C31.3542 8.98943 30.8644 9.47913 30.2604 9.47913H4.01041C3.40635 9.47913 2.91666 8.98943 2.91666 8.38538ZM2.91666 14.2187C2.91666 13.6147 3.40635 13.125 4.01041 13.125H30.2604C30.8644 13.125 31.3542 13.6147 31.3542 14.2187C31.3542 14.8228 30.8644 15.3125 30.2604 15.3125H4.01041C3.40635 15.3125 2.91666 14.8228 2.91666 14.2187ZM2.91666 20.052C2.91666 19.448 3.40635 18.9583 4.01041 18.9583H14.2187C14.8228 18.9583 15.3125 19.448 15.3125 20.052C15.3125 20.6561 14.8228 21.1458 14.2187 21.1458H4.01041C3.40635 21.1458 2.91666 20.6561 2.91666 20.052ZM2.91666 25.8854C2.91666 25.2813 3.40635 24.7916 4.01041 24.7916H14.2187C14.8228 24.7916 15.3125 25.2813 15.3125 25.8854C15.3125 26.4894 14.8228 26.9791 14.2187 26.9791H4.01041C3.40635 26.9791 2.91666 26.4894 2.91666 25.8854Z" fill="white"/>
<path d="M29.4748 18.4606C29.9511 18.8321 30.036 19.5194 29.6646 19.9957L23.9771 27.2874C23.7741 27.5477 23.4645 27.7023 23.1344 27.7082C22.8044 27.7142 22.4894 27.5709 22.2771 27.3181L19.2146 23.6723C18.8261 23.2099 18.8862 22.5199 19.3486 22.1314C19.8112 21.7428 20.5011 21.8029 20.8896 22.2653L23.0831 24.8767L27.9396 18.6504C28.3112 18.1741 28.9985 18.0891 29.4748 18.4606Z" fill="white"/>
</svg>
