<svg width="70" height="70" viewBox="0 0 70 70" fill="none" xmlns="http://www.w3.org/2000/svg">
<path d="M32.6441 17.675C32.5894 17.8325 32.3356 17.8085 32.1912 17.8544C32.0622 17.9222 31.9572 18.0404 31.8084 18.0404C31.6728 18.0404 31.4541 17.9857 31.4366 17.8544C31.4103 17.675 31.6772 17.4913 31.8456 17.4913C31.955 17.4388 32.0819 17.4104 32.2153 17.4104C32.3378 17.4104 32.4537 17.4344 32.5587 17.4804L32.5522 17.4782C32.6003 17.4979 32.6353 17.5438 32.6353 17.5985C32.6353 17.605 32.6353 17.6094 32.6331 17.616V17.6707H32.6419L32.6441 17.675ZM34.1491 17.675V17.616C34.1316 17.5613 34.1841 17.5022 34.2278 17.4804C34.3284 17.4366 34.4466 17.4104 34.5712 17.4104C34.7047 17.4104 34.8316 17.441 34.9431 17.4935L34.9387 17.4913C35.1116 17.4913 35.3762 17.675 35.3478 17.861C35.3325 17.9944 35.1159 18.0404 34.9781 18.0404C34.8272 18.0404 34.7266 17.9222 34.5931 17.8544C34.4509 17.8041 34.195 17.8325 34.1469 17.6772L34.1491 17.675ZM37.1066 22.0019C35.9428 22.7391 34.5669 23.2575 33.0925 23.4588L33.04 23.4654C31.7144 23.3888 30.5091 22.9229 29.5247 22.1791L29.54 22.19C29.12 21.8247 28.7744 21.4572 28.5206 21.2735C28.0722 20.9082 28.1269 20.3635 28.3194 20.3635C28.6169 20.4072 28.6716 20.7288 28.8641 20.9104C29.1266 21.0897 29.4525 21.4572 29.8484 21.8204C30.7169 22.5379 31.815 23.0038 33.0203 23.0957L33.04 23.0979C34.4706 22.9732 35.7722 22.5138 36.8966 21.8029L36.8616 21.8247C37.3953 21.455 38.0778 20.9125 38.6334 20.5472C39.06 20.1754 39.0403 19.8166 39.3969 19.8166C39.7469 19.8604 39.4909 20.1819 38.9944 20.7244C38.4562 21.1357 37.8416 21.5579 37.205 21.9494L37.1087 22.0041L37.1066 22.0019ZM17.5372 46.806H17.5634C17.7144 46.806 17.8631 46.8213 18.0075 46.8475L17.9922 46.8454C19.1822 47.1516 20.1622 47.891 20.7769 48.8819L20.7878 48.9016L23.275 53.4494L23.2837 53.4582C24.2834 55.1491 25.3575 56.6125 26.5584 57.9622L26.5344 57.9338C27.6062 59.0713 28.3281 60.55 28.5228 62.1907L28.5272 62.2257V62.2432C28.5009 64.0304 27.1862 65.5047 25.4734 65.7782L25.4537 65.7803C25.0162 65.8482 24.5087 65.8853 23.9947 65.8853C22.12 65.8853 20.3656 65.3757 18.8606 64.4854L18.9066 64.5116C16.6031 63.5469 13.93 62.9497 11.13 62.8666H11.0972C10.2834 62.8119 9.57468 62.3963 9.12624 61.7816L9.12187 61.775C9.00374 61.3944 8.93593 60.9569 8.93593 60.5019C8.93593 59.7363 9.12843 59.0166 9.46968 58.3888L9.45874 58.4128V58.4019L9.46531 58.3932C9.55499 57.9819 9.60749 57.5072 9.60749 57.0216C9.60749 56.4222 9.52874 55.8425 9.37999 55.2913L9.39093 55.3372C9.30124 55.0091 9.24874 54.6307 9.24874 54.2391C9.24874 53.7097 9.34281 53.2044 9.51781 52.7363L9.50906 52.7669C9.94656 51.8547 10.5919 51.6732 11.3947 51.31C12.3528 51.0191 13.1862 50.5794 13.9125 50.0129L13.895 50.026H13.8994V50.0194C14.5994 49.2866 15.1156 48.3766 15.7259 47.7291C16.1525 47.1844 16.8022 46.8322 17.535 46.8104H17.5394L17.5372 46.806ZM47.0991 46.6725C47.0969 46.7097 47.0969 46.7557 47.0969 46.8016C47.0969 48.4269 48.0791 49.8225 49.4834 50.4285L49.5097 50.4394C49.6147 50.446 49.7372 50.4504 49.8597 50.4504C51.6775 50.4504 53.305 49.6388 54.3987 48.3569L54.4053 48.3482L54.9828 48.3219C55.0987 48.3044 55.2322 48.2957 55.3678 48.2957C56.1137 48.2957 56.7941 48.5844 57.2994 49.0569L57.2972 49.0547L57.3059 49.0635C57.8506 49.7219 58.2291 50.5357 58.3712 51.4304L58.3756 51.4588C58.4959 52.5635 58.8962 53.5588 59.5066 54.39L59.4956 54.3725C60.4056 55.1513 61.0378 56.2319 61.2303 57.4591L61.2347 57.4875L61.2434 57.4679V57.516L61.2347 57.4832C61.1931 58.1985 60.7294 58.566 59.8741 59.1107C57.2841 60.1978 55.0594 61.6438 53.1431 63.4157L53.1584 63.4025C51.8284 65.135 49.875 66.3316 47.6394 66.6532L47.5934 66.6575C47.4316 66.6794 47.2434 66.6925 47.0531 66.6925C45.3731 66.6925 43.9294 65.6775 43.2994 64.2294L43.2884 64.2032L43.2753 64.1944C43.0719 63.5688 42.9559 62.8491 42.9559 62.1032C42.9559 61.1932 43.1287 60.3247 43.4459 59.5263L43.4284 59.5744C43.9403 58.1132 44.38 56.3675 44.6709 54.5694L44.695 54.3879C44.73 52.6116 44.9225 50.9032 45.2594 49.2472L45.2287 49.4288C45.4147 48.2957 46.0622 47.3419 46.9656 46.7491L46.9809 46.7404L47.1034 46.6813L47.0991 46.6725ZM41.125 22.1857C42.4375 26.8822 44.0541 30.94 46.0403 34.7791L45.8675 34.4138C47.2084 36.7982 48.2519 39.5654 48.8491 42.4966L48.8797 42.6804C48.8994 42.6804 48.9234 42.6804 48.9475 42.6804C49.4222 42.6804 49.8816 42.7438 50.3191 42.8641L50.2819 42.8554C50.5225 41.9913 50.6603 41.0004 50.6603 39.9766C50.6603 36.8572 49.3762 34.0354 47.3069 32.0163L47.3047 32.0141C46.7031 31.4672 46.6703 31.0975 46.9678 31.0975C49.0919 33.0882 50.6625 35.6432 51.4412 38.5219L51.4675 38.6335C51.6622 39.3532 51.7737 40.18 51.7737 41.0332C51.7737 41.801 51.6841 42.5491 51.5134 43.2644L51.5266 43.1988C51.6884 43.2819 51.8766 43.3454 52.0756 43.3804L52.0887 43.3825C54.9106 44.8416 55.9519 45.9463 55.4509 47.5847V47.4666C55.2869 47.4579 55.1228 47.4666 54.9587 47.4666H54.915C55.3284 46.1891 54.4184 45.2113 52.0034 44.1197C49.5031 43.026 47.5037 43.201 47.1647 45.3907C47.1406 45.4979 47.1231 45.6225 47.1166 45.7516V45.7582C46.9569 45.8238 46.7666 45.885 46.5697 45.9288L46.5456 45.9332C45.4344 46.6682 44.6425 47.8122 44.3822 49.1466L44.3778 49.1772C44.0541 50.6975 43.8506 52.4585 43.8178 54.2588V54.285V54.2938C43.6187 55.6872 43.3147 56.9341 42.9034 58.1285L42.9472 57.9841C40.7969 59.7429 38.0231 60.806 34.9978 60.806C32.5259 60.806 30.2203 60.095 28.2756 58.8657L28.3281 58.8963C28.0087 58.3429 27.6434 57.8638 27.2278 57.4372L27.23 57.4394C27.0178 57.0894 26.7684 56.7897 26.4819 56.5316L26.4775 56.5294C26.9303 56.5294 27.3678 56.4616 27.7812 56.3369L27.7484 56.3457C28.1422 56.1597 28.4441 55.8382 28.6037 55.4444L28.6081 55.4335C28.6475 55.23 28.6716 54.9982 28.6716 54.7597C28.6716 53.7863 28.2887 52.9047 27.6631 52.2528L27.6653 52.255C26.3112 50.5904 24.6925 49.2035 22.8616 48.1425L22.7784 48.0988C21.3106 47.25 20.1994 45.9222 19.6503 44.3319L19.635 44.2838C19.4316 43.5882 19.3134 42.7875 19.3134 41.9607C19.3134 41.1885 19.4162 40.4403 19.6066 39.7272L19.5934 39.7863C20.4181 36.9119 21.6081 34.4029 23.1372 32.1388L23.0759 32.2329C23.3691 32.0557 23.1766 32.6025 21.9603 34.895C20.9234 36.4547 20.3044 38.3732 20.3044 40.436C20.3044 42.2735 20.7944 43.995 21.6519 45.4804L21.6256 45.4322C21.7394 42.5688 22.3803 39.8825 23.45 37.4282L23.3953 37.5704C25.7031 33.4097 27.4509 28.5775 28.3719 23.4566L28.4156 23.17C28.5469 23.2685 29.0084 23.5397 29.2053 23.7213C29.8003 24.0844 30.2444 24.6313 30.8175 24.9922C31.4016 25.561 32.2022 25.911 33.0816 25.911C33.1275 25.911 33.1734 25.911 33.2194 25.9088H33.2128C33.32 25.9175 33.4184 25.9263 33.5125 25.9263C34.5166 25.9066 35.4528 25.6375 36.2666 25.1782L36.2381 25.1935C37.03 24.8282 37.66 24.2813 38.2616 24.0997H38.2747C39.445 23.7825 40.425 23.1066 41.1184 22.1988L41.1272 22.1857H41.125ZM33.4709 16.3297C33.4775 16.3297 33.4841 16.3297 33.4906 16.3297C34.7353 16.3297 35.8837 16.7388 36.8091 17.43L36.7937 17.4191C37.6206 17.931 38.5744 18.3663 39.5828 18.6747L39.6703 18.6966H39.6791C40.2172 18.9372 40.6612 19.3113 40.9784 19.7772L40.985 19.7882V19.4294C41.0856 19.6307 41.1469 19.8691 41.1469 20.1207C41.1469 20.335 41.1031 20.5385 41.0266 20.7244L41.0309 20.7135C40.4009 21.8225 39.3794 22.6472 38.1587 23.006L38.1237 23.0147V23.0191C37.3909 23.3888 36.7544 23.9291 36.0062 24.29C35.2406 24.7494 34.3197 25.0207 33.3331 25.0207C33.3003 25.0207 33.2675 25.0207 33.2347 25.0207H33.2391C33.1909 25.0229 33.1341 25.025 33.0772 25.025C32.6966 25.025 32.3291 24.9572 31.9922 24.8304L32.0141 24.8369C31.6662 24.6466 31.3797 24.4672 31.1019 24.2747L31.1325 24.2966C30.6359 23.8613 30.0891 23.4435 29.5159 23.0607L29.4591 23.0257V23.0125H29.4459C28.6256 22.5772 27.9803 21.91 27.5822 21.0963L27.5712 21.07C27.5122 20.9235 27.4794 20.7529 27.4794 20.5757C27.4794 20.0988 27.7244 19.6788 28.0941 19.4338L28.0984 19.4316C28.7109 19.0619 29.1375 18.69 29.4197 18.5129C29.7041 18.3116 29.8112 18.235 29.9009 18.1541H29.9053V18.1454C30.4916 17.4038 31.2681 16.835 32.1628 16.5135L32.1978 16.5025C32.5784 16.3932 33.0159 16.3297 33.4687 16.3254L33.4709 16.3297ZM29.7259 11.666H29.8244C30.2356 11.6747 30.6141 11.8125 30.9203 12.0379L30.9159 12.0335C31.3075 12.3813 31.6269 12.8035 31.8456 13.2804L31.8544 13.3044C32.1016 13.8404 32.2547 14.4638 32.2722 15.12V15.1266V15.1375C32.2809 15.2382 32.2853 15.3541 32.2853 15.47C32.2853 15.6079 32.2787 15.7457 32.2656 15.8813L32.2678 15.8638V16.0825C32.1869 16.1022 32.1147 16.1307 32.0403 16.1482C31.6225 16.321 31.2703 16.5047 30.9356 16.7125L30.9662 16.695C30.9837 16.5747 30.9925 16.4369 30.9925 16.2969C30.9925 16.181 30.9859 16.065 30.9728 15.9513L30.975 15.9644V15.9229C30.9356 15.586 30.8569 15.2775 30.7409 14.9866L30.7497 15.0107C30.66 14.7219 30.5025 14.4769 30.2969 14.2822C30.1766 14.1729 30.0169 14.105 29.8397 14.105C29.8244 14.105 29.8091 14.105 29.7937 14.1072H29.7959H29.7391C29.5137 14.1313 29.3256 14.2713 29.2316 14.4638L29.2294 14.4682C29.0609 14.6716 28.945 14.9232 28.9012 15.1988V15.2075C28.8509 15.3957 28.8247 15.6122 28.8247 15.8354C28.8247 15.9316 28.8291 16.0279 28.84 16.1219V16.111V16.1525C28.875 16.4894 28.9537 16.8 29.0675 17.0888L29.0587 17.0647C29.1506 17.3535 29.3059 17.6007 29.5116 17.7975C29.5378 17.8238 29.5684 17.8457 29.6034 17.8632H29.6056C29.4241 17.9791 29.2666 18.1016 29.1222 18.2372L29.1244 18.235C29.0259 18.3225 28.9056 18.3882 28.7722 18.4188L28.7656 18.421C28.4966 18.0994 28.2472 17.7385 28.0328 17.3579L28.0153 17.3229C27.7681 16.7869 27.615 16.1657 27.5909 15.5072V15.4985C27.5822 15.3935 27.5778 15.271 27.5778 15.1463C27.5778 14.6191 27.6631 14.1116 27.8184 13.6369L27.8097 13.6719C27.9716 13.1075 28.2362 12.6197 28.5884 12.2041L28.5841 12.2107C28.8619 11.8825 29.2687 11.6747 29.7259 11.6638H29.7281L29.7259 11.666ZM37.8241 11.5041H37.8591C37.8612 11.5041 37.8634 11.5041 37.8678 11.5041C38.4694 11.5041 39.0206 11.7075 39.4625 12.0488L39.4559 12.0444C39.9569 12.4316 40.3594 12.9194 40.6416 13.4772L40.6525 13.5013C40.9172 14.0832 41.0812 14.7591 41.1053 15.4722V15.481C41.1053 15.4263 41.1206 15.3716 41.1206 15.3169V15.6035L41.1097 15.5466L41.0987 15.481C41.0922 16.181 40.9434 16.8416 40.6766 17.4432L40.6897 17.4125C40.5541 17.7691 40.3572 18.0754 40.1078 18.3291C40.0422 18.2897 39.9612 18.2525 39.8803 18.2197L39.8672 18.2154C39.5719 18.1235 39.3137 17.9988 39.0797 17.8457L39.0906 17.8522C38.9222 17.7822 38.7209 17.721 38.5131 17.675L38.4891 17.6707C38.6662 17.5044 38.8303 17.3272 38.9812 17.1391L38.99 17.1282C39.1278 16.8044 39.2131 16.4304 39.2306 16.0366V16.03V15.9754C39.2306 15.9579 39.2306 15.9404 39.2306 15.9207C39.2306 15.5488 39.1694 15.1922 39.0556 14.8597L39.0622 14.8838C38.9244 14.536 38.7559 14.2363 38.5547 13.9629L38.5634 13.9738C38.3731 13.7813 38.1216 13.65 37.8394 13.6129H37.8328H37.7891C37.7869 13.6129 37.7825 13.6129 37.7803 13.6129C37.4916 13.6129 37.2334 13.755 37.0759 13.9716L37.0737 13.9738C36.82 14.221 36.6275 14.5272 36.5181 14.8707L36.5137 14.886C36.3759 15.2075 36.2862 15.5816 36.2687 15.971V15.9775V16.03C36.2731 16.2925 36.2928 16.5463 36.3278 16.7935L36.3234 16.7607C35.7962 16.5769 35.1269 16.391 34.6631 16.2094C34.6369 16.0497 34.6194 15.8616 34.615 15.6691V15.6625V15.6079C34.6128 15.5641 34.6128 15.5138 34.6128 15.4635C34.6128 14.7547 34.7637 14.0832 35.0372 13.4772L35.0241 13.5079C35.2559 12.8975 35.665 12.3966 36.1878 12.0575L36.1987 12.051C36.645 11.7097 37.2116 11.5041 37.8241 11.5041ZM36.3781 2.19629C35.9537 2.19629 35.5162 2.21816 35.0656 2.25316C23.5134 3.16316 26.5781 15.3935 26.4009 19.4688C26.2916 22.5882 25.2328 25.4385 23.5025 27.7638L23.5309 27.7244C20.4531 31.2288 17.9419 35.3238 16.2006 39.806L16.1066 40.0838C15.5422 41.5822 15.2141 43.3125 15.2141 45.1194C15.2141 45.7429 15.2534 46.3575 15.3278 46.9591L15.3212 46.8869C15.1987 46.9875 15.0959 47.11 15.0237 47.25L15.0216 47.2566C14.3106 47.9894 13.7922 48.8972 13.2081 49.5491C12.5891 50.0238 11.8628 50.3979 11.0753 50.6297L11.0294 50.6407C10.0144 50.9447 9.18749 51.6075 8.67781 52.4804L8.66687 52.5C8.43937 52.9638 8.30593 53.5085 8.30593 54.086C8.30593 54.1079 8.30593 54.1275 8.30593 54.1494C8.31031 54.67 8.36281 55.1732 8.46562 55.6632L8.45687 55.6129C8.57937 56.0919 8.64937 56.6432 8.64937 57.2097C8.64937 57.5816 8.61874 57.9469 8.55968 58.3035L8.56406 58.2641C8.19874 58.9488 7.98656 59.7625 7.98656 60.6266C7.98656 61.2347 8.09156 61.8166 8.28624 62.3569L8.27531 62.3219C8.87249 63.1707 9.77593 63.77 10.8216 63.9604L10.8456 63.9647C13.6325 64.1988 16.2072 64.7807 18.6353 65.671L18.4297 65.6054C19.9566 66.5132 21.7962 67.0491 23.7584 67.0491C24.4016 67.0491 25.0316 66.9922 25.6441 66.8807L25.5806 66.8894C27.0397 66.5591 28.2297 65.6075 28.8706 64.3322L28.8837 64.3038C30.4894 64.295 32.2459 63.5688 35.0612 63.3916C36.9709 63.2341 39.3641 64.1222 42.105 63.9385C42.1859 64.2863 42.2931 64.5904 42.4287 64.8769L42.4156 64.8485L42.4244 64.8572C43.2644 66.616 45.0275 67.8104 47.0706 67.8104C47.2478 67.8104 47.4228 67.8016 47.5956 67.7841L47.5737 67.7863C50.0916 67.4144 52.2528 66.1063 53.7272 64.236L53.7425 64.2163C55.5866 62.5363 57.7391 61.1516 60.0972 60.1629L60.2437 60.1082C61.1887 59.6904 61.8669 58.8285 62.0156 57.7916L62.0178 57.7763C61.8887 56.2582 61.1603 54.9347 60.0753 54.0225L60.0666 54.016V53.7513L60.0578 53.7425C59.5897 53.0207 59.2616 52.1632 59.1369 51.2444L59.1325 51.2116C59.0166 50.0894 58.5244 49.0985 57.7872 48.3525H57.7784C57.6166 48.206 57.4416 48.1688 57.2644 47.9828C57.12 47.88 56.9406 47.8166 56.7459 47.8078C57.1725 46.491 57.4175 44.9772 57.4175 43.4044C57.4175 41.3482 56.9953 39.3904 56.2341 37.6141L56.2712 37.7104C54.7312 34.0529 52.7297 30.905 50.295 28.1532L50.3256 28.1904C47.9084 25.8235 46.3269 22.61 46.0644 19.0313L46.0622 18.9854C46.1344 13.1032 46.7075 2.22035 36.3737 2.20504L36.3781 2.19629Z" fill="#303F9F"/>
</svg>
