<svg width="26" height="28" viewBox="0 0 26 28" fill="none" xmlns="http://www.w3.org/2000/svg">
<path d="M23.8084 10.7923C22.9531 9.92409 21.7539 9.38235 20.4464 9.38405L19.9621 9.38405L19.9621 7.3401C19.963 5.31836 19.1465 3.47266 17.8348 2.14993C16.5256 0.823758 14.7009 -0.000874304 12.7013 6.96255e-07C10.7016 -0.000874304 8.87604 0.823758 7.56688 2.14993C6.25605 3.47266 5.43961 5.31836 5.44047 7.3401L5.44047 9.38405L4.95534 9.38405C3.64786 9.38235 2.44943 9.92409 1.5941 10.7923C0.736274 11.657 0.200399 12.8687 0.201264 14.1914L0.201264 23.1926C0.200399 24.5154 0.736274 25.7271 1.5941 26.5918C2.44943 27.46 3.64786 28.0009 4.95534 28L20.4464 28C21.7539 28.0009 22.9532 27.46 23.8084 26.5918C24.6663 25.727 25.2021 24.5154 25.2013 23.1926L25.2013 14.1914C25.2021 12.8687 24.6663 11.657 23.8084 10.7923ZM8.58449 7.3401C8.58535 6.18652 9.04258 5.15599 9.79054 4.3972C10.5402 3.64186 11.5595 3.17871 12.7013 3.17871C13.8431 3.17871 14.8623 3.64186 15.612 4.3972C16.36 5.15599 16.8172 6.18652 16.8181 7.3401L16.8181 9.38405L8.58449 9.38405L8.58449 7.3401ZM21.5856 24.3445C21.289 24.6419 20.896 24.8213 20.4463 24.8213L4.95534 24.8213C4.50568 24.8213 4.11352 24.6419 3.81689 24.3445C3.52275 24.0454 3.34614 23.6472 3.34528 23.1926L3.34528 14.1914C3.34614 13.736 3.52275 13.3386 3.81689 13.0395C4.11352 12.7421 4.50568 12.5627 4.95534 12.5627L20.4464 12.5627C20.896 12.5627 21.289 12.7421 21.5857 13.0395C21.879 13.3386 22.0564 13.7359 22.0573 14.1914L22.0573 23.1926C22.0564 23.6472 21.8789 24.0454 21.5856 24.3445Z" fill="white"/>
<path d="M12.7003 15C11.3202 15 10.2013 16.0705 10.2013 17.3907C10.2013 18.3631 10.8116 19.1963 11.6841 19.5691L11.1316 23L12.7003 23L14.2708 23L13.7175 19.5691C14.59 19.1963 15.2013 18.3631 15.2013 17.3907C15.2012 16.0705 14.0814 15 12.7003 15Z" fill="white"/>
</svg>
