<svg width="72" height="52" viewBox="0 0 72 52" fill="none" xmlns="http://www.w3.org/2000/svg">
<g clip-path="url(#clip0_764_390)">
<path d="M71.156 50.3547C71.156 51.1124 70.5966 51.621 69.9344 51.621V51.6164C69.2534 51.621 68.7043 51.1124 68.7043 50.3549C68.7043 49.5975 69.2534 49.0904 69.9344 49.0904C70.5968 49.0902 71.156 49.5973 71.156 50.3547ZM71.6515 50.3547C71.6515 49.3148 70.8394 48.7112 69.9344 48.7112C69.0231 48.7112 68.211 49.3148 68.211 50.3547C68.211 51.3939 69.0233 52 69.9344 52C70.8396 52 71.6515 51.3939 71.6515 50.3547ZM69.6495 50.4937H69.8334L70.2594 51.2378H70.7273L70.2554 50.4624C70.4992 50.4451 70.6998 50.3295 70.6998 50.003C70.6998 49.5973 70.4186 49.4669 69.9423 49.4669H69.2532V51.2378H69.6493V50.4937M69.6495 50.1939V49.7675H69.9251C70.075 49.7675 70.2792 49.7796 70.2792 49.9614C70.2792 50.1594 70.1736 50.1939 69.9968 50.1939H69.6495Z" fill="#303F9F"/>
<path d="M60.0878 41.2959L62.2287 47.1217H57.8806L60.0878 41.2959ZM57.7949 39.0275L52.8611 51.4616H56.3451L57.1254 49.2646H62.9643L63.7028 51.4616H67.4849L62.5144 39.0259L57.7949 39.0275ZM47.8895 51.4662H51.4242V39.0237L47.8889 39.0229L47.8895 51.4662ZM23.3514 39.0229L20.4024 48.8846L17.5775 39.0237L13.7636 39.0229L17.7983 51.4662H22.8905L26.9576 39.0229H23.3514ZM37.6389 41.7324H39.1581C41.362 41.7324 42.7875 42.7166 42.7875 45.2707C42.7875 47.8254 41.362 48.8098 39.1581 48.8098H37.6389V41.7324ZM34.134 39.0229V51.4662H39.8643C42.9174 51.4662 43.9143 50.9615 44.9922 49.829C45.7536 49.0339 46.2462 47.2889 46.2462 45.3814C46.2462 43.6318 45.8294 42.0723 45.1027 41.1006C43.7935 39.3627 41.9075 39.0229 39.0928 39.0229H34.134ZM0.651489 39.0056V51.4662H4.21603V42.0048L6.97798 42.0056C7.8925 42.0056 8.5444 42.2323 8.98479 42.7003C9.54336 43.292 9.77143 44.2473 9.77143 45.9947V51.4662H13.2255V44.5817C13.2255 39.6681 10.0769 39.0056 6.99616 39.0056H0.651489ZM28.4452 39.0229L28.4467 51.4662H31.9797V39.0229H28.4452Z" fill="#303F9F"/>
<path d="M10.1508 14.247C10.1508 14.247 14.6969 7.5752 23.7741 6.88497V4.46446C13.72 5.26762 5.01358 13.7376 5.01358 13.7376C5.01358 13.7376 9.94475 27.9169 23.7741 29.2151V26.6423C13.6255 25.3724 10.1508 14.247 10.1508 14.247ZM23.7741 21.5256V23.8818C16.104 22.5216 13.9749 14.591 13.9749 14.591C13.9749 14.591 17.6577 10.533 23.7741 9.87495V12.4604C23.7694 12.4604 23.7662 12.459 23.7623 12.459C20.5521 12.0758 18.0443 15.0588 18.0443 15.0588C18.0443 15.0588 19.4499 20.0804 23.7741 21.5256ZM23.7741 0V4.46446C24.0692 4.44196 24.3643 4.42287 24.6611 4.41282C36.0915 4.02963 43.5392 13.7376 43.5392 13.7376C43.5392 13.7376 34.9853 24.0835 26.0736 24.0835C25.2568 24.0835 24.4922 24.0082 23.7741 23.8816V26.6423C24.3882 26.7199 25.0249 26.7655 25.6894 26.7655C33.9823 26.7655 39.9795 22.5528 45.7866 17.5669C46.7494 18.3339 50.6911 20.1998 51.5013 21.0166C45.9799 25.6147 33.1118 29.3212 25.8164 29.3212C25.1132 29.3212 24.4379 29.2788 23.7741 29.2151V33.0945H55.2948V0H23.7741ZM23.7741 9.87495V6.88497C24.0662 6.86468 24.3605 6.84921 24.6611 6.83976C32.8807 6.58296 38.2732 13.8656 38.2732 13.8656C38.2732 13.8656 32.4488 21.9118 26.2037 21.9118C25.3049 21.9118 24.4993 21.7681 23.7741 21.5256V12.4604C26.974 12.845 27.6178 14.251 29.5416 17.4409L33.8202 13.8523C33.8202 13.8523 30.6969 9.77789 25.4318 9.77789C24.8595 9.77769 24.3118 9.81768 23.7741 9.87495Z" fill="#303F9F"/>
</g>
<defs>
<clipPath id="clip0_764_390">
<rect width="71" height="52" fill="white" transform="translate(0.651489)"/>
</clipPath>
</defs>
</svg>
