<svg width="169" height="46" viewBox="0 0 169 46" fill="none" xmlns="http://www.w3.org/2000/svg">
<g clip-path="url(#clip0_764_337)">
<path d="M58.6669 21.9427C60.5972 23.8807 61.5618 26.2449 61.5618 29.0375C61.5618 31.8098 60.5972 34.1604 58.6669 36.0883C56.7365 38.0162 54.3781 38.9801 51.5905 38.9801C48.8041 38.9801 46.4457 38.0162 44.5153 36.0883C42.5862 34.1604 41.6204 31.8098 41.6204 29.0375C41.6204 26.2449 42.5862 23.8807 44.5153 21.9427C46.4457 20.0058 48.8041 19.0374 51.5905 19.0374C54.3781 19.0374 56.7365 20.0058 58.6669 21.9427ZM55.9262 33.5381C57.1043 32.3419 57.6922 30.8413 57.6922 29.0375C57.6922 27.2325 57.1043 25.7229 55.9262 24.5075C54.7503 23.2911 53.3051 22.6834 51.5905 22.6834C49.8782 22.6834 48.4319 23.2911 47.256 24.5075C46.079 25.7229 45.49 27.2325 45.49 29.0375C45.49 30.8413 46.079 32.3419 47.256 33.5381C48.4319 34.7354 49.8782 35.3329 51.5905 35.3329C53.3051 35.3329 54.7503 34.7354 55.9262 33.5381Z" fill="#303F9F"/>
<path d="M77.9001 26.0599C79.2838 27.494 79.9757 29.2933 79.9757 31.4591C79.9757 33.6237 79.2883 35.4185 77.9135 36.8436C76.5398 38.2675 74.9191 38.98 73.0559 38.98C71.2105 38.98 69.6569 38.467 68.395 37.4411V43.3961H64.6673V24.3361H68.395V25.4759C69.6379 24.4308 71.1915 23.9088 73.0559 23.9088C74.9012 23.9088 76.5163 24.6258 77.9001 26.0599ZM75.2455 34.5504C75.9888 33.7804 76.361 32.75 76.361 31.4591C76.361 30.1671 75.9888 29.1321 75.2455 28.3531C74.5011 27.574 73.5544 27.1851 72.4053 27.1851C71.3513 27.1851 70.4191 27.5842 69.6099 28.3824C68.7996 29.1795 68.395 30.2054 68.395 31.4591C68.395 32.7116 68.7996 33.7331 69.6099 34.5211C70.4191 35.3092 71.3513 35.7038 72.4053 35.7038C73.5544 35.7038 74.5011 35.3193 75.2455 34.5504Z" fill="#303F9F"/>
<path d="M96.1024 32.4558H85.3689C85.5578 33.4626 85.9758 34.2642 86.6264 34.8628C87.2758 35.4615 88.0336 35.7614 88.8998 35.7614C90.5004 35.7614 91.6684 35.1334 92.4016 33.8797L95.7347 34.5923C95.1322 36.0365 94.2381 37.1278 93.0521 37.8685C91.8651 38.6104 90.4814 38.9801 88.8998 38.9801C86.8667 38.9801 85.1532 38.2778 83.7594 36.8719C82.3656 35.466 81.6693 33.6622 81.6693 31.4592C81.6693 29.2551 82.3701 27.4467 83.7728 26.0318C85.1767 24.6158 86.9036 23.9089 88.9557 23.9089C90.8771 23.9089 92.5291 24.5876 93.9139 25.945C95.2977 27.3036 96.0275 29.0465 96.1024 31.174V32.4558ZM86.7951 27.8684C86.1267 28.325 85.6897 28.971 85.4829 29.8064H92.2887C92.063 28.9327 91.6494 28.2776 91.047 27.8402C90.4445 27.4039 89.747 27.1852 88.9557 27.1852C88.1845 27.1852 87.4635 27.4129 86.7951 27.8684Z" fill="#303F9F"/>
<path d="M111.184 25.5755C112.22 26.686 112.738 28.1246 112.738 29.8912V38.5531H109.009V30.6894C109.009 29.6827 108.751 28.8754 108.232 28.2678C107.715 27.6601 107.023 27.3557 106.156 27.3557C103.822 27.3557 102.654 28.9893 102.654 32.2565V38.5531H98.9259V24.3365H102.654V25.6184C103.784 24.4785 105.262 23.9081 107.089 23.9081C108.783 23.9081 110.149 24.4639 111.184 25.5755Z" fill="#303F9F"/>
<path d="M135.727 38.5526H131.604L127.932 25.6754L124.232 38.5526H120.136L114.628 19.4645H118.639L122.254 32.627L126.068 19.4645H129.768L133.581 32.627L137.196 19.4645H141.236L135.727 38.5526Z" fill="#303F9F"/>
<path d="M152.842 24.251L152.644 27.8688H151.825C148.473 27.8688 146.797 29.9015 146.797 33.9658V38.5521H143.069V24.3366H146.797V26.9286C148.078 25.0672 149.764 24.1371 151.854 24.1371C152.287 24.1371 152.616 24.1743 152.842 24.251Z" fill="#303F9F"/>
<path d="M165.721 37.9258C164.422 38.6293 163.198 38.9799 162.049 38.9799C160.316 38.9799 158.961 38.5098 157.981 37.5695C157.002 36.6293 156.513 35.2099 156.513 33.3102V27.4127H153.49V24.336H156.513V20.0338H160.241V24.336H164.845V27.4127H160.241V33.025C160.241 34.6586 160.929 35.4759 162.303 35.4759C163.019 35.4759 163.8 35.2471 164.648 34.7916L165.721 37.9258Z" fill="#303F9F"/>
<path d="M77.1125 45.4068H76.0227L75.3331 42.8364L74.6379 45.4068H73.5537L72.3778 41.2467H73.4184L74.1394 43.8668L74.8469 41.2467H75.8137L76.5212 43.8668L77.2422 41.2467H78.2884L77.1125 45.4068Z" fill="#303F9F"/>
<path d="M79.9151 45.4065H80.9311V41.2463H79.9151V45.4065Z" fill="#303F9F"/>
<path d="M85.4316 45.4068L84.1876 43.9784H83.8925V45.4068H82.8765V41.2467H84.9633C85.4104 41.2467 85.7703 41.3718 86.0408 41.6221C86.3124 41.8724 86.4476 42.2005 86.4476 42.6064C86.4476 42.9457 86.3504 43.2321 86.1582 43.4666C85.9648 43.7 85.701 43.8544 85.3634 43.9288L86.6567 45.4068H85.4316ZM84.8526 43.1216C85.0337 43.1216 85.1779 43.0754 85.2874 42.9852C85.3959 42.8938 85.4506 42.7721 85.4506 42.6187C85.4506 42.4688 85.3958 42.3493 85.2874 42.258C85.1779 42.1678 85.0337 42.1216 84.8526 42.1216H83.8925V43.1216L84.8526 43.1216Z" fill="#303F9F"/>
<path d="M91.5026 45.4068H88.2892V41.2467H91.4836V42.1283H89.3052V42.9108H91.3059V43.7428H89.3052V44.5252H91.5026V45.4068Z" fill="#303F9F"/>
<path d="M96.4162 45.4068H93.3681V41.2467H94.3853V44.5128H96.4162V45.4068Z" fill="#303F9F"/>
<path d="M101.428 45.4068H98.215V41.2467H101.409V42.1283H99.231V42.9108H101.232V43.7428H99.231V44.5252H101.428V45.4068Z" fill="#303F9F"/>
<path d="M106.047 41.4726C106.351 41.6857 106.541 41.9811 106.619 42.3576L105.622 42.5628C105.585 42.3768 105.498 42.2325 105.363 42.131C105.229 42.0296 105.073 41.9788 104.901 41.9788C104.737 41.9788 104.604 42.0194 104.501 42.0995C104.398 42.1806 104.347 42.281 104.347 42.4016C104.347 42.5831 104.458 42.6992 104.68 42.7488L105.535 42.9416C106.29 43.1107 106.668 43.5154 106.668 44.1524C106.668 44.5786 106.506 44.9101 106.182 45.1457C105.858 45.3813 105.453 45.4997 104.969 45.4997C104.489 45.4997 104.082 45.3892 103.748 45.1682C103.412 44.9461 103.219 44.6372 103.165 44.2392L104.211 44.0352C104.311 44.4444 104.581 44.6496 105.024 44.6496C105.213 44.6496 105.363 44.6102 105.471 44.5313C105.58 44.4524 105.634 44.3486 105.634 44.2212C105.634 44.122 105.606 44.0431 105.55 43.9845C105.496 43.927 105.396 43.883 105.252 43.8548L104.39 43.6677C103.651 43.4986 103.283 43.0972 103.283 42.4636C103.283 42.0611 103.432 41.7432 103.732 41.5064C104.032 41.2708 104.425 41.1536 104.913 41.1536C105.366 41.1536 105.743 41.2595 106.047 41.4726Z" fill="#303F9F"/>
<path d="M111.157 41.4726C111.461 41.6857 111.652 41.9811 111.731 42.3576L110.733 42.5628C110.696 42.3768 110.61 42.2325 110.474 42.131C110.339 42.0296 110.185 41.9788 110.013 41.9788C109.848 41.9788 109.714 42.0194 109.613 42.0995C109.51 42.1806 109.458 42.281 109.458 42.4016C109.458 42.5831 109.569 42.6992 109.79 42.7488L110.646 42.9416C111.401 43.1107 111.779 43.5154 111.779 44.1524C111.779 44.5786 111.618 44.9101 111.293 45.1457C110.968 45.3813 110.564 45.4997 110.08 45.4997C109.6 45.4997 109.192 45.3892 108.858 45.1682C108.524 44.9461 108.329 44.6372 108.276 44.2392L109.323 44.0352C109.421 44.4444 109.692 44.6496 110.136 44.6496C110.325 44.6496 110.473 44.6102 110.582 44.5313C110.691 44.4524 110.745 44.3486 110.745 44.2212C110.745 44.122 110.717 44.0431 110.662 43.9845C110.606 43.927 110.507 43.883 110.364 43.8548L109.502 43.6677C108.762 43.4986 108.393 43.0972 108.393 42.4636C108.393 42.0611 108.543 41.7432 108.842 41.5064C109.142 41.2708 109.537 41.1536 110.024 41.1536C110.477 41.1536 110.854 41.2595 111.157 41.4726Z" fill="#303F9F"/>
<path d="M117.291 43.0223H119.223V43.9163H117.291V45.4067H116.275V41.2466H119.463V42.1463H117.291V43.0223Z" fill="#303F9F"/>
<path d="M123.744 45.4068L122.5 43.9784H122.205V45.4068H121.189V41.2467H123.275C123.722 41.2467 124.081 41.3718 124.353 41.6221C124.625 41.8724 124.76 42.2005 124.76 42.6064C124.76 42.9457 124.663 43.2321 124.469 43.4666C124.277 43.7 124.012 43.8544 123.676 43.9288L124.969 45.4068H123.744ZM123.164 43.1216C123.346 43.1216 123.49 43.0754 123.598 42.9852C123.707 42.8938 123.762 42.7721 123.762 42.6187C123.762 42.4688 123.707 42.3493 123.598 42.258C123.49 42.1678 123.346 42.1216 123.164 42.1216H122.205V43.1216L123.164 43.1216Z" fill="#303F9F"/>
<path d="M129.815 45.4068H126.601V41.2467H129.796V42.1283H127.617V42.9108H129.617V43.7428H127.617V44.5252H129.815V45.4068Z" fill="#303F9F"/>
<path d="M134.895 45.4068H131.681V41.2467H134.876V42.1283H132.696V42.9108H134.698V43.7428H132.696V44.5252H134.895V45.4068Z" fill="#303F9F"/>
<path d="M138.392 41.2462C139.069 41.2462 139.615 41.4379 140.029 41.8212C140.444 42.2034 140.651 42.7062 140.651 43.3263C140.651 43.9475 140.444 44.4492 140.029 44.8325C139.615 45.2158 139.069 45.4064 138.392 45.4064H136.76V41.2462H138.392ZM138.355 44.5191C138.741 44.5191 139.049 44.4097 139.282 44.1933C139.513 43.9757 139.629 43.6871 139.629 43.3263C139.629 42.9666 139.513 42.678 139.282 42.4604C139.049 42.2428 138.741 42.1346 138.355 42.1346H137.776V44.5191H138.355Z" fill="#303F9F"/>
<path d="M146.073 41.7863C146.498 42.2091 146.71 42.7243 146.71 43.3331C146.71 43.9374 146.498 44.4493 146.073 44.8698C145.648 45.2903 145.129 45.5 144.513 45.5C143.897 45.5 143.377 45.2903 142.952 44.8698C142.528 44.4493 142.315 43.9374 142.315 43.3331C142.315 42.7243 142.528 42.2091 142.952 41.7863C143.377 41.3647 143.897 41.1527 144.513 41.1527C145.129 41.1527 145.648 41.3647 146.073 41.7863ZM145.357 44.2114C145.582 43.978 145.695 43.6849 145.695 43.3331C145.695 42.9769 145.582 42.6804 145.357 42.4447C145.13 42.2091 144.849 42.0907 144.513 42.0907C144.176 42.0907 143.895 42.2091 143.67 42.4447C143.443 42.6803 143.33 42.9769 143.33 43.3331C143.33 43.6849 143.443 43.978 143.67 44.2114C143.895 44.4459 144.176 44.5631 144.513 44.5631C144.849 44.5631 145.13 44.4459 145.357 44.2114Z" fill="#303F9F"/>
<path d="M153.274 45.4068H152.29V43.3324L151.212 45.4068H150.584L149.501 43.32V45.4068H148.515V41.2467H149.512L150.898 43.824L152.283 41.2467H153.274V45.4068Z" fill="#303F9F"/>
<path d="M17.7051 22.8556C16.1134 22.8556 14.818 24.1623 14.818 25.7677C14.818 27.3731 16.1134 28.6798 17.7051 28.6798C19.2967 28.6798 20.5922 27.3731 20.5922 25.7677C20.5922 24.1623 19.2967 22.8556 17.7051 22.8556Z" fill="#303F9F"/>
<path d="M-1.90735e-06 7.90931L3.00109 10.9364C6.76781 7.1359 11.9686 4.783 17.7047 4.783C23.4409 4.783 28.6417 7.1359 32.4095 10.9364L35.4106 7.90931C30.8749 3.33428 24.6112 0.499969 17.7047 0.499969C10.7994 0.499969 4.53684 3.33428 -1.90735e-06 7.90931Z" fill="#303F9F"/>
<path d="M5.40196 13.3577L8.40304 16.3848C10.786 13.9811 14.0766 12.4918 17.7047 12.4918C21.334 12.4918 24.6246 13.9811 27.0076 16.3848L30.0086 13.3577C26.8567 10.1784 22.5042 8.20879 17.7047 8.20879C12.9052 8.20879 8.55394 10.1784 5.40196 13.3577Z" fill="#303F9F"/>
<path d="M10.8034 18.8062L13.8044 21.8333C14.8037 20.8253 16.183 20.2008 17.7053 20.2008C19.2276 20.2008 20.6069 20.8253 21.6062 21.8333L24.6072 18.8062C22.839 17.0226 20.3968 15.9177 17.7053 15.9177C15.0127 15.9177 12.5716 17.0226 10.8034 18.8062Z" fill="#303F9F"/>
<path d="M28.3376 17.9553C29.9259 20.1493 30.8671 22.8494 30.8671 25.7683C30.8671 33.0885 24.9621 39.0435 17.7047 39.0435C10.4474 39.0435 4.54243 33.0885 4.54243 25.7683C4.54243 22.8494 5.48355 20.1493 7.07295 17.9553L4.04616 14.9023C1.70117 17.8944 0.297313 21.6679 0.297313 25.7683C0.297313 35.4493 8.10573 43.3265 17.7047 43.3265C27.3038 43.3265 35.1133 35.4493 35.1133 25.7683C35.1133 21.6679 33.7083 17.8944 31.3644 14.9023L28.3376 17.9553Z" fill="#303F9F"/>
<path d="M169 19.0425C169 19.3153 168.95 19.569 168.848 19.8046C168.746 20.0402 168.608 20.2465 168.432 20.4236C168.256 20.6017 168.05 20.7415 167.813 20.8429C167.576 20.9455 167.323 20.9974 167.052 20.9974C166.781 20.9974 166.53 20.9455 166.296 20.8429C166.063 20.7415 165.858 20.6017 165.683 20.4236C165.506 20.2465 165.367 20.0402 165.267 19.8046C165.165 19.569 165.114 19.3153 165.114 19.0425C165.114 18.7696 165.165 18.5137 165.267 18.2747C165.367 18.0357 165.506 17.8283 165.683 17.6501C165.858 17.4731 166.063 17.3333 166.296 17.2307C166.53 17.1281 166.781 17.0774 167.052 17.0774C167.323 17.0774 167.576 17.1281 167.813 17.2307C168.05 17.3333 168.256 17.4731 168.432 17.6501C168.608 17.8283 168.746 18.0357 168.848 18.2747C168.95 18.5137 169 18.7696 169 19.0425ZM168.686 19.0425C168.686 18.817 168.643 18.6039 168.559 18.4021C168.474 18.2014 168.357 18.0256 168.209 17.8756C168.06 17.7257 167.886 17.6073 167.686 17.5227C167.487 17.437 167.275 17.3942 167.052 17.3942C166.828 17.3942 166.617 17.437 166.418 17.5227C166.219 17.6073 166.044 17.7257 165.896 17.8756C165.746 18.0256 165.63 18.2014 165.545 18.4021C165.46 18.6039 165.419 18.817 165.419 19.0425C165.419 19.2668 165.46 19.481 165.545 19.6817C165.63 19.8835 165.746 20.0583 165.896 20.2093C166.044 20.3593 166.219 20.4765 166.418 20.5622C166.617 20.6479 166.828 20.6896 167.052 20.6896C167.275 20.6896 167.487 20.6479 167.686 20.5622C167.886 20.4765 168.06 20.3593 168.209 20.2093C168.357 20.0583 168.474 19.8835 168.559 19.6817C168.643 19.4811 168.686 19.2668 168.686 19.0425ZM167.427 19.8508V19.3897C167.427 19.3018 167.408 19.2387 167.371 19.2015C167.335 19.1631 167.262 19.1451 167.154 19.1451H166.758V19.8508H166.392V18.0594H167.295C167.464 18.0594 167.598 18.109 167.696 18.2082C167.794 18.3074 167.843 18.4314 167.843 18.5814C167.843 18.6772 167.821 18.7606 167.777 18.8328C167.734 18.9038 167.668 18.9568 167.579 18.9906C167.661 19.0188 167.717 19.0571 167.747 19.109C167.777 19.1598 167.793 19.2364 167.793 19.339V19.8509L167.427 19.8508ZM166.758 18.3672V18.8474H167.224C167.319 18.8474 167.388 18.826 167.432 18.7809C167.477 18.737 167.499 18.6806 167.499 18.613C167.499 18.5374 167.479 18.4777 167.437 18.4337C167.397 18.3897 167.329 18.3672 167.234 18.3672L166.758 18.3672Z" fill="#303F9F"/>
</g>
<defs>
<clipPath id="clip0_764_337">
<rect width="169" height="45" fill="white" transform="translate(0 0.5)"/>
</clipPath>
</defs>
</svg>
