<svg width="1440" height="575" viewBox="0 0 1440 575" fill="none" xmlns="http://www.w3.org/2000/svg">
<g clip-path="url(#clip0_853_3957)">
<rect width="1440" height="575" fill="#303F9F"/>
<g clip-path="url(#clip1_853_3957)">
<path d="M1369.18 317.009C1334.15 317.009 1305.07 342.587 1299.42 376.027H1251.14C1212.09 376.027 1180.32 407.778 1180.32 446.807V576.688H1203.93V446.807C1203.93 420.798 1225.11 399.634 1251.14 399.634H1299.42C1305.07 433.074 1334.15 458.652 1369.18 458.652C1408.23 458.652 1440 426.883 1440 387.83C1440 348.778 1408.23 317.009 1369.18 317.009ZM1369.18 435.045C1343.15 435.045 1321.96 413.863 1321.96 387.83C1321.96 361.798 1343.15 340.616 1369.18 340.616C1395.21 340.616 1416.39 361.798 1416.39 387.83C1416.39 413.863 1395.21 435.045 1369.18 435.045Z" fill="#7986CB" fill-opacity="0.15"/>
<path d="M1050.48 139.955H1003.27C1003.27 100.903 971.499 69.134 932.446 69.134C893.394 69.134 861.625 100.903 861.625 139.955C861.625 179.008 893.394 210.777 932.446 210.777C963.212 210.777 989.384 191.027 999.137 163.563H1050.48C1076.51 163.563 1097.7 184.774 1097.7 210.848V576.688H1121.3V210.848C1121.3 171.757 1089.53 139.955 1050.48 139.955ZM932.446 187.17C906.414 187.17 885.232 165.988 885.232 139.955C885.232 113.923 906.414 92.7412 932.446 92.7412C958.479 92.7412 979.661 113.923 979.661 139.955C979.661 165.988 958.479 187.17 932.446 187.17Z" fill="#7986CB" fill-opacity="0.15"/>
<path d="M967.857 317.009H919.578C913.93 283.569 884.846 257.991 849.821 257.991C810.769 257.991 779 289.76 779 328.812C779 367.865 810.769 399.634 849.821 399.634C884.846 399.634 913.93 374.055 919.578 340.616H967.857C993.89 340.616 1015.07 361.815 1015.07 387.872V576.687H1038.68V387.872C1038.68 348.802 1006.91 317.009 967.857 317.009ZM849.821 376.027C823.789 376.027 802.607 354.845 802.607 328.812C802.607 302.78 823.789 281.598 849.821 281.598C875.854 281.598 897.036 302.78 897.036 328.812C897.036 354.845 875.854 376.027 849.821 376.027Z" fill="#7986CB" fill-opacity="0.15"/>
<path d="M1261.36 234.384H1299.42C1305.07 267.823 1334.15 293.402 1369.18 293.402C1408.23 293.402 1440 261.633 1440 222.58C1440 183.528 1408.23 151.759 1369.18 151.759C1334.15 151.759 1305.07 177.337 1299.42 210.777H1261.36C1242.77 210.777 1227.66 195.653 1227.66 177.06V-1.6875H1204.05V177.06C1204.05 208.667 1229.75 234.384 1261.36 234.384ZM1369.18 175.366C1395.21 175.366 1416.39 196.548 1416.39 222.58C1416.39 248.613 1395.21 269.795 1369.18 269.795C1343.15 269.795 1321.96 248.613 1321.96 222.58C1321.96 196.548 1343.15 175.366 1369.18 175.366Z" fill="#7986CB" fill-opacity="0.15"/>
</g>
</g>
<defs>
<clipPath id="clip0_853_3957">
<rect width="1440" height="575" fill="white"/>
</clipPath>
<clipPath id="clip1_853_3957">
<rect width="661" height="661" fill="white" transform="translate(779 -43)"/>
</clipPath>
</defs>
</svg>
