<svg width="25" height="25" viewBox="0 0 25 25" fill="none" xmlns="http://www.w3.org/2000/svg">
<g clip-path="url(#clip0_93_23)">
<path d="M12.4992 0C12.2673 0 12.0781 0.189209 12.0781 0.421143L12.1948 3.00903C12.1948 3.17764 12.3322 3.31421 12.4992 3.31421C12.6678 3.31421 12.8036 3.17764 12.8036 3.00903L12.9211 0.421143C12.9211 0.189209 12.7319 0 12.4992 0Z" fill="#303F9F"/>
<path d="M7.40814 1.67235C7.29139 1.47094 7.03431 1.4015 6.8329 1.51825C6.63148 1.635 6.56205 1.89208 6.67801 2.0935L8.07342 4.27626C8.15736 4.42274 8.34349 4.47235 8.48924 4.38842C8.63495 4.30375 8.68534 4.11757 8.60062 3.97186L7.40814 1.67235Z" fill="#303F9F"/>
<path d="M5.44205 6.9084L3.26002 5.51221C3.05782 5.39625 2.79996 5.46568 2.68399 5.6671C2.56724 5.86851 2.63668 6.12637 2.83809 6.24234L5.13834 7.43482C5.28331 7.51876 5.47022 7.46915 5.55416 7.32344C5.63736 7.17774 5.5878 6.99234 5.44205 6.9084Z" fill="#303F9F"/>
<path d="M22.1611 16.4261L19.8609 15.2328C19.7159 15.1489 19.5297 15.1985 19.4458 15.3442C19.3619 15.4892 19.4115 15.6753 19.5572 15.76L21.74 17.1554C21.9414 17.2714 22.1992 17.2028 22.3152 17.0013C22.4312 16.7992 22.3633 16.5421 22.1611 16.4261Z" fill="#303F9F"/>
<path d="M4.4792 11.3342C4.4792 11.1664 4.34341 11.0298 4.1748 11.0298L1.58691 10.9124C1.3542 10.9124 1.16577 11.1016 1.16577 11.3343C1.16577 11.567 1.3542 11.7554 1.58691 11.7554L4.1748 11.6387C4.34341 11.6386 4.4792 11.5021 4.4792 11.3342Z" fill="#303F9F"/>
<path d="M23.4123 10.9124L20.8244 11.0298C20.6565 11.0298 20.52 11.1664 20.52 11.3342C20.52 11.5021 20.6566 11.6386 20.8244 11.6386L23.4123 11.7554C23.645 11.7554 23.8342 11.5662 23.8342 11.3342C23.8342 11.1016 23.645 10.9131 23.4123 10.9124Z" fill="#303F9F"/>
<path d="M5.13837 15.2328L2.83812 16.4261C2.63671 16.5421 2.56727 16.7999 2.68402 17.0013C2.79999 17.2028 3.05785 17.2714 3.26005 17.1554L5.44208 15.76C5.58778 15.6754 5.63739 15.4892 5.55424 15.3442C5.47025 15.1985 5.28334 15.1489 5.13837 15.2328Z" fill="#303F9F"/>
<path d="M19.8609 7.43482L22.1611 6.24234C22.3633 6.12637 22.4312 5.86851 22.3152 5.6671C22.1992 5.46568 21.9414 5.39625 21.74 5.51221L19.5572 6.9084C19.4115 6.99234 19.3619 7.17774 19.4458 7.32344C19.5297 7.46915 19.7159 7.51871 19.8609 7.43482Z" fill="#303F9F"/>
<path d="M18.1671 1.51825C17.9649 1.4015 17.7079 1.47094 17.5919 1.67235L16.3986 3.97186C16.314 4.11757 16.3635 4.30375 16.51 4.38842C16.6557 4.47235 16.8419 4.42274 16.9258 4.27626L18.3212 2.0935C18.4379 1.89208 18.3686 1.63495 18.1671 1.51825Z" fill="#303F9F"/>
<path d="M16.497 10.6239L7.83004 13.491C7.80411 13.4994 7.78121 13.5131 7.75679 13.5238C7.71866 13.5398 7.68126 13.5536 7.64615 13.5734C7.61485 13.5902 7.58741 13.6108 7.5584 13.6307C7.52867 13.6513 7.49888 13.6696 7.47144 13.6932C7.44322 13.7169 7.41802 13.7436 7.39288 13.7695C7.36924 13.794 7.34483 13.8169 7.32344 13.8436C7.30132 13.8718 7.28223 13.9023 7.26241 13.9313C7.24258 13.961 7.22271 13.9893 7.2067 14.0198C7.1899 14.0503 7.17847 14.0832 7.16475 14.1145C7.15103 14.1481 7.13653 14.1808 7.12584 14.2159C7.11514 14.2495 7.10904 14.2854 7.1022 14.3212C7.0961 14.3548 7.0877 14.3883 7.08389 14.4234C7.08008 14.4631 7.0816 14.5036 7.0816 14.5447C7.08238 14.5714 7.07852 14.5974 7.08082 14.6256C7.08082 14.6309 7.08311 14.6363 7.08389 14.6424C7.0877 14.6775 7.0961 14.7126 7.10298 14.7477C7.11138 14.7858 7.11749 14.8255 7.12891 14.8628C7.13121 14.8674 7.13121 14.8728 7.13272 14.8781C7.14952 14.9277 7.17012 14.9766 7.19376 15.0223C7.19986 15.0345 7.20596 15.0482 7.21358 15.0605C7.24107 15.1124 7.2731 15.1604 7.30821 15.2062C7.32193 15.223 7.33643 15.2375 7.34942 15.2535C7.37916 15.2871 7.40967 15.3191 7.44249 15.3481C7.46002 15.3634 7.47759 15.3778 7.4959 15.3923C7.53023 15.419 7.56534 15.4442 7.60196 15.4664C7.62105 15.4778 7.63936 15.4893 7.6584 15.5C7.70801 15.5259 7.75914 15.5488 7.81177 15.5679C7.82017 15.5702 7.82779 15.5748 7.83541 15.5778C7.89796 15.5976 7.9628 15.6106 8.02842 15.6197C8.04444 15.622 8.06124 15.6228 8.07803 15.6235C8.10933 15.6273 8.14136 15.6312 8.17418 15.6312C8.19478 15.6312 8.21461 15.6281 8.23521 15.6273C8.24512 15.6258 8.25504 15.6281 8.26573 15.6273C8.72047 15.5899 9.1149 15.7311 9.47271 16.0599C9.70845 16.2773 9.90377 16.5543 10.0556 16.8427H9.62227C9.13702 16.8427 8.74415 17.2364 8.74415 17.7216V20.4254C8.74415 20.9107 9.13707 21.3044 9.62227 21.3044H10.4004C10.4004 21.3959 10.4004 21.5104 10.4004 21.6378C10.2249 21.6378 10.0822 21.7804 10.0822 21.9566C10.0822 22.1321 10.2249 22.2748 10.4004 22.2748C10.4004 22.3801 10.4004 22.4869 10.4004 22.5937C10.2249 22.5937 10.0822 22.7364 10.0822 22.9126C10.0822 23.0881 10.2249 23.2308 10.4004 23.2308C10.4004 23.5161 10.4004 23.7633 10.4004 23.9167C10.4004 24.5537 10.7834 24.617 11.4205 24.617C11.4205 24.617 11.5471 25.0001 12.7586 25.0001C13.9694 25.0001 14.0968 24.617 14.0968 24.617C14.7339 24.617 15.1169 24.5537 15.1169 23.9167C15.1169 23.7618 15.1169 23.513 15.1169 23.2239C15.2619 23.1949 15.3717 23.066 15.3717 22.9126C15.3717 22.7585 15.2619 22.6295 15.1169 22.5998C15.1169 22.4892 15.1169 22.3778 15.1169 22.2687C15.2619 22.2397 15.3717 22.11 15.3717 21.9566C15.3717 21.8018 15.2619 21.6736 15.1169 21.6446C15.1169 21.5133 15.1169 21.3981 15.1169 21.3043H15.9584C16.4437 21.3043 16.8365 20.9106 16.8365 20.4254V17.7215C16.8365 17.2363 16.4436 16.8426 15.9584 16.8426H15.5739C15.8043 16.3322 16.1423 15.8882 16.5978 15.6402C17.1303 15.3488 17.3272 14.6828 17.0364 14.1502C16.7458 13.6184 16.079 13.4224 15.5472 13.7123C14.2982 14.3928 13.5872 15.6196 13.2484 16.8426H12.4199C12.1879 16.0957 11.779 15.3098 11.2015 14.688L17.1867 12.7082C17.7612 12.5175 18.074 11.8964 17.8833 11.3212C17.6926 10.7452 17.0715 10.4332 16.497 10.6239Z" fill="#303F9F"/>
<path d="M8.17412 12.1048C8.28857 12.1048 8.40527 12.0865 8.51972 12.0484L17.1867 9.18126C17.7612 8.99053 18.074 8.36949 17.8833 7.79424C17.6926 7.21822 17.0715 6.90616 16.497 7.09693L7.83003 9.96407C7.25478 10.1548 6.94194 10.7751 7.13271 11.3511C7.2853 11.8119 7.71406 12.1048 8.17412 12.1048Z" fill="#303F9F"/>
<path d="M8.90044 8.3824C9.0149 8.3824 9.1316 8.36331 9.24605 8.32669L15.3129 6.31863C15.8882 6.12791 16.2002 5.50765 16.0103 4.93162C15.8195 4.35638 15.1993 4.04353 14.6232 4.23431L8.55635 6.24236C7.98111 6.43235 7.66905 7.05335 7.85904 7.62864C8.01162 8.09021 8.44038 8.3824 8.90044 8.3824Z" fill="#303F9F"/>
</g>
<defs>
<clipPath id="clip0_93_23">
<rect width="25" height="25" fill="white"/>
</clipPath>
</defs>
</svg>
