<svg xmlns="http://www.w3.org/2000/svg" xml:space="preserve" viewBox="0 0 500 500"><path d="M0 382.398h500v.25H0zM416.779 398.494h33.122v.25h-33.122zM322.527 401.208h8.693v.25h-8.693zM396.586 389.208h19.192v.25h-19.192zM52.459 390.888h43.193v.25H52.459zM104.556 390.888h6.333v.25h-6.333zM131.471 395.111h93.676v.25h-93.676zM237.014 337.8H43.915a5.715 5.715 0 0 1-5.708-5.708V60.66a5.715 5.715 0 0 1 5.708-5.708h193.099a5.715 5.715 0 0 1 5.707 5.708v271.432a5.715 5.715 0 0 1-5.707 5.708M43.915 55.203a5.464 5.464 0 0 0-5.458 5.458v271.432a5.464 5.464 0 0 0 5.458 5.458h193.099a5.463 5.463 0 0 0 5.457-5.458V60.66a5.464 5.464 0 0 0-5.457-5.458H43.915zM453.31 337.8H260.212a5.714 5.714 0 0 1-5.707-5.708V60.66a5.715 5.715 0 0 1 5.707-5.708H453.31a5.714 5.714 0 0 1 5.708 5.708v271.432a5.714 5.714 0 0 1-5.708 5.708M260.212 55.203a5.463 5.463 0 0 0-5.457 5.458v271.432a5.463 5.463 0 0 0 5.457 5.458H453.31a5.464 5.464 0 0 0 5.458-5.458V60.66a5.464 5.464 0 0 0-5.458-5.458H260.212z" style="fill:#ebebeb"/><path d="M220.343 106.434h7.603c.588 0 1.061.473 1.061 1.055V382.56h11.497V107.489c0-.582.473-1.055 1.055-1.055h7.603c.946 0 1.42-1.145.748-1.81l-14.406-14.406a1.053 1.053 0 0 0-1.496 0l-14.413 14.406c-.665.665-.192 1.81.748 1.81M279.347 206.831h7.603c.588 0 1.061.473 1.061 1.055V382.56h11.497V207.887c0-.582.473-1.055 1.055-1.055h7.603c.946 0 1.42-1.145.748-1.81l-14.406-14.406a1.053 1.053 0 0 0-1.496 0l-14.413 14.406c-.665.665-.192 1.809.748 1.809M146.243 264.435h7.603c.588 0 1.061.473 1.061 1.055v117.07h11.497V265.49c0-.582.473-1.055 1.055-1.055h7.603c.946 0 1.42-1.145.748-1.81l-14.407-14.406a1.053 1.053 0 0 0-1.496 0l-14.413 14.406c-.664.666-.191 1.81.749 1.81" style="fill:#ebebeb"/><path d="M112.897 129.109V118.91l-5.252-.495a27.2 27.2 0 0 0-3.917-9.42l3.373-4.074-7.212-7.212-4.075 3.373a27.2 27.2 0 0 0-9.42-3.916l-.495-5.252H75.702l-.495 5.252a27.3 27.3 0 0 0-9.42 3.916l-4.075-3.373-7.212 7.212 3.373 4.074a27.3 27.3 0 0 0-3.917 9.42l-5.251.495v10.199l5.251.495a27.2 27.2 0 0 0 3.917 9.42l-3.373 4.075 7.212 7.211 4.074-3.373a27.2 27.2 0 0 0 9.421 3.916l.495 5.251h10.199l.495-5.251a27.3 27.3 0 0 0 9.42-3.916l4.074 3.373 7.212-7.211-3.373-4.075a27.2 27.2 0 0 0 3.917-9.42zm-32.095 8.707c-7.625 0-13.807-6.181-13.807-13.807 0-7.625 6.181-13.807 13.807-13.807 7.625 0 13.806 6.181 13.806 13.807s-6.182 13.807-13.806 13.807" style="fill:#e0e0e0"/><path d="M154.232 157.896v-7.992l-4.115-.387a21.4 21.4 0 0 0-3.069-7.382l2.643-3.193-5.651-5.651-3.193 2.644a21.3 21.3 0 0 0-7.382-3.069l-.388-4.115h-7.992l-.388 4.115a21.4 21.4 0 0 0-7.382 3.069l-3.193-2.644-5.651 5.651 2.644 3.193a21.3 21.3 0 0 0-3.069 7.382l-4.115.387v7.992l4.115.387a21.4 21.4 0 0 0 3.069 7.382l-2.644 3.193 5.651 5.651 3.193-2.643a21.4 21.4 0 0 0 7.382 3.069l.388 4.115h7.992l.388-4.115a21.4 21.4 0 0 0 7.382-3.069l3.193 2.643 5.651-5.651-2.643-3.193a21.3 21.3 0 0 0 3.069-7.382zm-25.15 6.823c-5.975 0-10.819-4.844-10.819-10.819s4.844-10.819 10.819-10.819 10.819 4.844 10.819 10.819-4.844 10.819-10.819 10.819M109.897 181.585v-6.713l-3.457-.326a17.9 17.9 0 0 0-2.577-6.201l2.22-2.681-4.747-4.747-2.681 2.22a17.9 17.9 0 0 0-6.201-2.577l-.326-3.457h-6.712l-.326 3.456a18 18 0 0 0-6.201 2.578l-2.682-2.22-4.747 4.747 2.22 2.681a17.9 17.9 0 0 0-2.577 6.201l-3.457.326.001 6.713 3.456.325a17.9 17.9 0 0 0 2.578 6.201l-2.22 2.682 4.747 4.747 2.682-2.22a17.9 17.9 0 0 0 6.201 2.578l.326 3.456h6.712l.326-3.456a18 18 0 0 0 6.201-2.578l2.681 2.22 4.747-4.747-2.22-2.682a17.9 17.9 0 0 0 2.578-6.201zm-21.125 5.731a9.087 9.087 0 1 1 9.087-9.087c.001 5.019-4.068 9.087-9.087 9.087M383.754 269.996v10.199l5.252.495a27.2 27.2 0 0 0 3.917 9.42l-3.373 4.074 7.212 7.212 4.075-3.373a27.2 27.2 0 0 0 9.42 3.917l.495 5.252h10.199l.495-5.252a27.2 27.2 0 0 0 9.42-3.917l4.075 3.373 7.212-7.212-3.373-4.074a27.3 27.3 0 0 0 3.916-9.42l5.251-.495v-10.199l-5.251-.495a27.3 27.3 0 0 0-3.916-9.42l3.373-4.075-7.212-7.211-4.074 3.373a27.2 27.2 0 0 0-9.421-3.916l-.497-5.252H410.75l-.495 5.251a27.3 27.3 0 0 0-9.42 3.916l-4.074-3.373-7.212 7.211 3.373 4.075a27.2 27.2 0 0 0-3.917 9.42zm32.095-8.707c7.625 0 13.807 6.181 13.807 13.807 0 7.625-6.181 13.807-13.807 13.807-7.625 0-13.806-6.181-13.806-13.807s6.182-13.807 13.806-13.807" style="fill:#e0e0e0"/><path d="M342.419 241.208v7.992l4.115.387a21.4 21.4 0 0 0 3.069 7.382l-2.643 3.193 5.651 5.651 3.193-2.644a21.3 21.3 0 0 0 7.382 3.069l.388 4.115h7.992l.387-4.115a21.4 21.4 0 0 0 7.382-3.069l3.193 2.644 5.651-5.651-2.644-3.193a21.3 21.3 0 0 0 3.069-7.382l4.115-.387v-7.992l-4.115-.387a21.4 21.4 0 0 0-3.069-7.382l2.644-3.193-5.651-5.651-3.193 2.643a21.4 21.4 0 0 0-7.382-3.069l-.387-4.115h-7.992l-.388 4.115a21.4 21.4 0 0 0-7.382 3.069l-3.193-2.643-5.651 5.651 2.643 3.193a21.3 21.3 0 0 0-3.069 7.382zm25.15-6.823c5.975 0 10.819 4.844 10.819 10.819s-4.844 10.819-10.819 10.819-10.819-4.844-10.819-10.819 4.844-10.819 10.819-10.819M386.754 217.519v6.713l3.457.326a17.9 17.9 0 0 0 2.577 6.201l-2.22 2.681 4.747 4.747 2.681-2.22a17.9 17.9 0 0 0 6.201 2.577l.326 3.457h6.712l.326-3.456a18 18 0 0 0 6.201-2.578l2.682 2.22 4.747-4.747-2.22-2.681a17.9 17.9 0 0 0 2.577-6.201l3.457-.326v-6.713l-3.456-.325a17.9 17.9 0 0 0-2.578-6.201l2.22-2.682-4.747-4.747-2.682 2.22a17.9 17.9 0 0 0-6.201-2.578l-.326-3.456h-6.712l-.326 3.456a18 18 0 0 0-6.201 2.578l-2.681-2.22-4.747 4.747 2.22 2.682a17.9 17.9 0 0 0-2.578 6.201zm21.125-5.731a9.087 9.087 0 1 1 0 18.174 9.087 9.087 0 0 1 0-18.174M218.004 318.727h16.701a2.323 2.323 0 0 1 2.332 2.318v61.516h25.255v-61.516a2.32 2.32 0 0 1 2.318-2.318h16.701c2.079 0 3.119-2.514 1.644-3.975l-31.646-31.646a2.315 2.315 0 0 0-3.287 0l-31.66 31.646c-1.462 1.461-.423 3.975 1.642 3.975M61.898 267.095h16.701a2.323 2.323 0 0 1 2.331 2.318V382.56h25.255V269.413a2.32 2.32 0 0 1 2.318-2.318h16.701c2.079 0 3.119-2.514 1.644-3.975l-31.646-31.646a2.315 2.315 0 0 0-3.287 0l-31.66 31.646c-1.461 1.461-.422 3.975 1.643 3.975M309.098 338.61h11.454c.886 0 1.599.713 1.599 1.59v42.361h17.32V340.2c0-.877.713-1.59 1.59-1.59h11.454c1.426 0 2.139-1.724 1.127-2.726l-21.704-21.703a1.587 1.587 0 0 0-2.254 0l-21.713 21.703c-1.001 1.001-.289 2.726 1.127 2.726" style="fill:#e0e0e0"/><ellipse cx="250" cy="416.238" rx="193.889" ry="11.323" style="fill:#f5f5f5"/><path d="m286.877 386.581 9.875 12.685 3.545-.532-10.42-12.153z" style="fill:#263238"/><path d="m286.877 386.581 9.875 12.685 3.545-.532-10.42-12.153z" style="opacity:.3"/><path d="m289.877 374.581 9.875 12.685 3.545-.532-10.42-12.153z" style="fill:#263238"/><path d="m289.877 374.581 9.875 12.685 3.545-.532-10.42-12.153z" style="opacity:.3"/><path d="M318.276 368.079h42.673l-10.006 26.434H308.27z" style="fill:#263238"/><path d="M318.276 368.079h42.673l-10.006 26.434H308.27z" style="opacity:.3"/><path d="M285.151 384.506h67.793v3.408h-67.793z" style="fill:#263238" transform="rotate(-180 319.048 386.21)"/><path d="M326.922 384.506h26.022v3.408h-26.022z" style="opacity:.2" transform="rotate(-180 339.933 386.21)"/><path d="M289.154 374.5h67.793v3.408h-67.793z" style="fill:#263238" transform="rotate(-180 323.05 376.204)"/><path d="M330.924 374.5h26.022v3.408h-26.022z" style="opacity:.2" transform="rotate(-180 343.935 376.204)"/><path d="m360.879 368.264 2.37 2.746-9.002 23.571h-3.513zM268.063 382.079l-4.581 1.138c.274-2.129 1.981-4.716 4.601-5.367 2.972-.739 5.958.977 7.071 3.752a5.3 5.3 0 0 1 .31 2.992l27.611 16.618c3.238-2.72 7.068-.676 8.65 1.541l-4.565 1.112a1.98 1.98 0 0 0-1.451 2.41 2 2 0 0 0 2.427 1.452l4.583-1.142c-.275 2.129-1.98 4.714-4.6 5.365-2.972.739-6.054-.817-7.167-3.592-.387-.964-.595-1.779-.406-2.832l-27.611-16.618c-2.723 1.863-6.971.515-8.553-1.702l4.613-1.192c1.072-.266 1.741-1.378 1.475-2.45s-1.335-1.751-2.407-1.485" style="fill:#263238"/><path d="m268.063 382.079-4.581 1.138c.274-2.129 1.981-4.716 4.601-5.367 2.972-.739 5.958.977 7.071 3.752a5.3 5.3 0 0 1 .31 2.992l27.611 16.618c3.238-2.72 7.068-.676 8.65 1.541l-4.565 1.112a1.98 1.98 0 0 0-1.451 2.41 2 2 0 0 0 2.427 1.452l4.583-1.142c-.275 2.129-1.98 4.714-4.6 5.365-2.972.739-6.054-.817-7.167-3.592-.387-.964-.595-1.779-.406-2.832l-27.611-16.618c-2.723 1.863-6.971.515-8.553-1.702l4.613-1.192c1.072-.266 1.741-1.378 1.475-2.45s-1.335-1.751-2.407-1.485" style="opacity:.6;fill:#fff"/><path d="M277.146 394.513h73.797v21.545h-73.797z" style="fill:#263238" transform="rotate(-180 314.044 405.285)"/><path d="M321.919 394.513h29.024v21.545h-29.024z" style="opacity:.2" transform="rotate(-180 336.43 405.285)"/><path d="m376.86 410.603 3.333-3.342c.866 1.965.742 5.061-1.165 6.973-2.163 2.169-5.605 2.243-7.993.443a5.3 5.3 0 0 1-1.812-2.401l-32.226.044c-1.367 4.002-5.701 4.232-8.201 3.151l3.333-3.311c.78-.782.778-2.033-.004-2.813s-2.048-.771-2.828.012l-3.333 3.346c-.865-1.965-.742-5.059 1.165-6.971 2.162-2.169 5.605-2.429 7.992-.629.829.625 1.429 1.215 1.812 2.215l32.226-.044c1.368-3.002 5.701-4.044 8.201-2.964l-3.333 3.405c-.78.782-.778 2.08.004 2.86.783.778 2.049.808 2.829.026" style="fill:#263238"/><path d="m376.86 410.603 3.333-3.342c.866 1.965.742 5.061-1.165 6.973-2.163 2.169-5.605 2.243-7.993.443a5.3 5.3 0 0 1-1.812-2.401l-32.226.044c-1.367 4.002-5.701 4.232-8.201 3.151l3.333-3.311c.78-.782.778-2.033-.004-2.813s-2.048-.771-2.828.012l-3.333 3.346c-.865-1.965-.742-5.059 1.165-6.971 2.162-2.169 5.605-2.429 7.992-.629.829.625 1.429 1.215 1.812 2.215l32.226-.044c1.368-3.002 5.701-4.044 8.201-2.964l-3.333 3.405c-.78.782-.778 2.08.004 2.86.783.778 2.049.808 2.829.026" style="opacity:.6;fill:#fff"/><path d="m136.777 340.645 6.225-7.545a5.42 5.42 0 0 1 4.182-1.971h5.752c1.464 0 2.32 1.649 1.477 2.846l-3.979 5.652z" style="fill:#407bff"/><path d="m136.777 340.645 6.225-7.545a5.42 5.42 0 0 1 4.182-1.971h5.752c1.464 0 2.32 1.649 1.477 2.846l-3.979 5.652z" style="opacity:.3"/><path d="m71.111 339.626-7.001-22.981h66.861l5.806 24zM64.11 316.645l2.452-3.173a6.77 6.77 0 0 1 5.354-2.629h57.135a2.535 2.535 0 0 1 2.484 3.041l-.563 2.761z" style="fill:#407bff"/><path d="m71.111 339.626-7.001-22.981h66.861l5.806 24z" style="opacity:.3"/><path d="m64.11 316.645 2.452-3.173a6.77 6.77 0 0 1 5.354-2.629h57.135a2.535 2.535 0 0 1 2.484 3.041l-.563 2.761z" style="opacity:.2"/><path d="m101.71 286.099-3.997-.873.733-3.354a.657.657 0 0 1 .783-.502l2.712.593c.355.077.58.428.502.783zM109.381 287.775l-3.997-.873.733-3.354a.657.657 0 0 1 .783-.502l2.712.593c.355.077.58.428.502.783zM117.052 289.451l-3.997-.873.733-3.354a.657.657 0 0 1 .783-.502l2.712.593c.355.078.58.428.502.783zM124.723 291.127l-3.997-.873.733-3.354a.657.657 0 0 1 .783-.502l2.712.592c.355.077.58.428.502.783zM132.394 292.803l-3.997-.873.733-3.354a.657.657 0 0 1 .783-.502l2.712.593c.355.077.58.428.502.783zM140.065 294.479l-3.997-.873.733-3.355a.66.66 0 0 1 .783-.502l2.712.593c.355.077.58.428.502.783zM125.628 341.388l3.997.873-.733 3.354a.657.657 0 0 1-.783.502l-2.712-.592a.657.657 0 0 1-.502-.783zM117.958 339.711l3.997.873-.733 3.354a.657.657 0 0 1-.783.502l-2.712-.592a.657.657 0 0 1-.502-.783zM110.287 338.036l3.997.873-.733 3.354a.657.657 0 0 1-.783.502l-2.712-.592a.657.657 0 0 1-.502-.783zM102.616 336.36l3.997.873-.733 3.354a.657.657 0 0 1-.783.502l-2.712-.592a.657.657 0 0 1-.502-.783zM94.945 334.684l3.997.873-.733 3.354a.657.657 0 0 1-.783.502l-2.712-.592a.657.657 0 0 1-.502-.783zM87.274 333.008l3.997.873-.733 3.354a.657.657 0 0 1-.783.502l-2.712-.592a.657.657 0 0 1-.502-.783z" style="fill:#407bff"/><g style="opacity:.4"><path d="m101.71 286.099-3.997-.873.733-3.354a.657.657 0 0 1 .783-.502l2.712.593c.355.077.58.428.502.783zM109.381 287.775l-3.997-.873.733-3.354a.657.657 0 0 1 .783-.502l2.712.593c.355.077.58.428.502.783zM117.052 289.451l-3.997-.873.733-3.354a.657.657 0 0 1 .783-.502l2.712.593c.355.078.58.428.502.783zM124.723 291.127l-3.997-.873.733-3.354a.657.657 0 0 1 .783-.502l2.712.592c.355.077.58.428.502.783zM132.394 292.803l-3.997-.873.733-3.354a.657.657 0 0 1 .783-.502l2.712.593c.355.077.58.428.502.783zM140.065 294.479l-3.997-.873.733-3.355a.66.66 0 0 1 .783-.502l2.712.593c.355.077.58.428.502.783zM125.628 341.388l3.997.873-.733 3.354a.657.657 0 0 1-.783.502l-2.712-.592a.657.657 0 0 1-.502-.783zM117.958 339.711l3.997.873-.733 3.354a.657.657 0 0 1-.783.502l-2.712-.592a.657.657 0 0 1-.502-.783zM110.287 338.036l3.997.873-.733 3.354a.657.657 0 0 1-.783.502l-2.712-.592a.657.657 0 0 1-.502-.783zM102.616 336.36l3.997.873-.733 3.354a.657.657 0 0 1-.783.502l-2.712-.592a.657.657 0 0 1-.502-.783zM94.945 334.684l3.997.873-.733 3.354a.657.657 0 0 1-.783.502l-2.712-.592a.657.657 0 0 1-.502-.783zM87.274 333.008l3.997.873-.733 3.354a.657.657 0 0 1-.783.502l-2.712-.592a.657.657 0 0 1-.502-.783z" style="fill:#fff"/></g><path d="m134.543 344.76-50.501-11.034a3.56 3.56 0 0 1-2.718-4.238l9.513-43.544a3.56 3.56 0 0 1 4.238-2.718l50.501 11.033a3.56 3.56 0 0 1 2.718 4.238l-9.513 43.544a3.56 3.56 0 0 1-4.238 2.719" style="fill:#263238"/><path d="m88.931 334.793-4.885-1.067a3.554 3.554 0 0 1-2.718-4.238l9.513-43.543a3.555 3.555 0 0 1 4.238-2.718l4.885 1.067a3.555 3.555 0 0 0-4.238 2.718l-9.513 43.543a3.555 3.555 0 0 0 2.718 4.238" style="opacity:.4"/><path d="m116.749 304.653-7.16 17.962-3.78-.826.983-19.312 2.875.628-1.069 15.109 5.329-14.179zM116.505 316.717l-1.589-.347.214-.98c1.102.157 1.847-.138 2.235-.58l.979.214-2.024 9.267-1.403-.307zM118.223 323.251l1.403.307-.304 1.391-1.403-.307zM121.226 323.144l.061-.278 1.379.163-.066.305c-.162.741.092 1.102.608 1.214.516.113.897-.108 1.03-.717l.468-2.146c.119-.542-.115-.87-.565-.969-.503-.11-.949.152-1.073.722l-.035.159-1.35-.295 1.157-5.295 4.011.876-.289 1.324-2.661-.582-.504 2.304c.277-.314.85-.521 1.485-.383 1.046.229 1.52 1.109 1.274 2.234l-.509 2.329c-.307 1.403-1.326 2.068-2.703 1.767-1.375-.299-2.024-1.328-1.718-2.732M84.56 325.383l-.873 3.997-3.354-.733a.657.657 0 0 1-.502-.783l.592-2.712a.66.66 0 0 1 .783-.502zM86.236 317.712l-.873 3.997-3.354-.733a.657.657 0 0 1-.502-.783l.592-2.712a.657.657 0 0 1 .783-.502zM87.912 310.041l-.873 3.997-3.354-.733a.657.657 0 0 1-.502-.783l.592-2.712a.657.657 0 0 1 .783-.502zM89.588 302.37l-.873 3.997-3.354-.733a.657.657 0 0 1-.502-.783l.592-2.712a.657.657 0 0 1 .783-.502zM91.263 294.699l-.873 3.997-3.354-.733a.657.657 0 0 1-.502-.783l.592-2.712a.66.66 0 0 1 .783-.502zM92.939 287.028l-.873 3.997-3.354-.733a.657.657 0 0 1-.502-.783l.592-2.712a.657.657 0 0 1 .783-.502z" style="fill:#407bff"/><g style="opacity:.4"><path d="m84.56 325.383-.873 3.997-3.354-.733a.657.657 0 0 1-.502-.783l.592-2.712a.66.66 0 0 1 .783-.502zM86.236 317.712l-.873 3.997-3.354-.733a.657.657 0 0 1-.502-.783l.592-2.712a.657.657 0 0 1 .783-.502zM87.912 310.041l-.873 3.997-3.354-.733a.657.657 0 0 1-.502-.783l.592-2.712a.657.657 0 0 1 .783-.502zM89.588 302.37l-.873 3.997-3.354-.733a.657.657 0 0 1-.502-.783l.592-2.712a.657.657 0 0 1 .783-.502zM91.263 294.699l-.873 3.997-3.354-.733a.657.657 0 0 1-.502-.783l.592-2.712a.66.66 0 0 1 .783-.502zM92.939 287.028l-.873 3.997-3.354-.733a.657.657 0 0 1-.502-.783l.592-2.712a.657.657 0 0 1 .783-.502z" style="fill:#fff"/></g><path d="M71.111 339.626h79.324v76.431H71.111z" style="fill:#407bff"/><path d="M71.111 339.626h13.307v76.431H71.111z" style="opacity:.2"/><path d="m84.418 339.626-7.268-8.901a5.66 5.66 0 0 0-4.385-2.08h-5.859c-1.866 0-2.901 2.162-1.73 3.615l5.935 7.367h13.307zM273.73 200.81c-5.21 2.58-16.09 7.15-26.31 6.42-2.51-.18-4.98-.67-7.31-1.6-3.35-1.33-5.48-4.71-6.75-9.19-4.63-16.19 1.85-46.75 1.85-46.75 9.42 1.54 18.52 38.27 22.08 40.28s18.71 1.31 18.71 1.31l.5 4.49c.23 2.1-.88 4.11-2.77 5.04" style="fill:#407bff"/><path d="M247.42 207.23c-2.51-.18-4.98-.67-7.31-1.6-3.35-1.33-5.48-4.71-6.75-9.19.36-2.42.79-4.13.79-4.13l17.32-4.98s.72 12.51-4.05 19.9" style="opacity:.3"/><path d="m233.845 408.375 8.368.884 1.57-18.047-8.367-.884zM192.094 407.765h8.107l.67-18.782h-8.117z" style="fill:#b97964"/><path d="M201.325 406.826h-9.85a.71.71 0 0 0-.691.557l-1.599 7.22a1.196 1.196 0 0 0 1.186 1.444c3.187-.052 5.508-.248 9.51-.248 2.465 0 9.902.258 13.305.258s3.847-3.362 2.455-3.672c-6.251-1.362-10.954-3.249-12.955-5.044a1.97 1.97 0 0 0-1.361-.515" style="fill:#263238"/><path d="M201.882 407.951a.2.2 0 0 1-.144-.165.18.18 0 0 1 .093-.186c.289-.186 2.909-1.795 3.806-1.331a.58.58 0 0 1 .33.536c.054.39-.098.781-.402 1.031a2.43 2.43 0 0 1-1.557.413 9.7 9.7 0 0 1-2.126-.298m.557-.269a3.95 3.95 0 0 0 2.888-.144.8.8 0 0 0 .258-.691c-.01-.155-.072-.227-.124-.227a.45.45 0 0 0-.248-.052 7.9 7.9 0 0 0-2.774 1.114" style="fill:#407bff"/><path d="M201.831 407.992a.21.21 0 0 1-.093-.175c.01-.113.206-2.445 1.145-3.208a1.03 1.03 0 0 1 .815-.247.63.63 0 0 1 .619.505c.165.856-1.454 2.64-2.29 3.094h-.093a.2.2 0 0 1-.103.031m1.299-3.156a4.55 4.55 0 0 0-.959 2.537c.835-.629 1.867-1.98 1.764-2.506-.01-.052-.031-.196-.278-.196h-.093a.66.66 0 0 0-.434.165" style="fill:#407bff"/><path d="M243.098 406.568h-9.85a.71.71 0 0 0-.691.557l-1.599 7.22a1.196 1.196 0 0 0 1.186 1.444c3.187-.051 5.508-.247 9.51-.247 2.465 0 9.902.258 13.305.258s3.847-3.362 2.455-3.672c-6.251-1.362-10.954-3.249-12.955-5.044a1.96 1.96 0 0 0-1.361-.516" style="fill:#263238"/><path d="M243.655 407.693a.2.2 0 0 1-.144-.165.18.18 0 0 1 .093-.186c.289-.186 2.909-1.795 3.806-1.331a.58.58 0 0 1 .33.536c.054.39-.098.781-.402 1.031a2.42 2.42 0 0 1-1.557.413 9.7 9.7 0 0 1-2.126-.298m.557-.269a3.94 3.94 0 0 0 2.888-.144.8.8 0 0 0 .258-.691c-.01-.155-.072-.227-.124-.227a.44.44 0 0 0-.248-.051 7.9 7.9 0 0 0-2.774 1.113" style="fill:#407bff"/><path d="M243.604 407.734a.21.21 0 0 1-.093-.176c.01-.113.206-2.444 1.145-3.208.223-.196.52-.286.815-.248a.63.63 0 0 1 .619.505c.165.856-1.454 2.641-2.29 3.094h-.093a.16.16 0 0 1-.103.033m1.299-3.156a4.55 4.55 0 0 0-.959 2.537c.835-.629 1.867-1.98 1.764-2.506-.01-.052-.031-.196-.279-.196h-.093a.66.66 0 0 0-.433.165" style="fill:#407bff"/><path d="m235.416 390.328 8.367.884-.817 9.308-8.367-.884zM192.754 388.993h8.117l-.35 9.685h-8.118z" style="opacity:.2"/><path d="M196.102 224.235h43.035c4.092 22.344 16.9 101.414 7.711 171.865l-14.569-1.807s1.349-93.527-11.515-128.104c-1.479 18.505-3.236 38.194-4.762 48.67C212.258 340.647 204.244 397 204.244 397h-14.832s3.032-53.94 4.435-79.283c1.533-27.512 2.195-87.831 2.255-93.482" style="fill:#263238"/><path d="M220.768 266.194c1.898 5.095 3.476 11.459 4.807 18.617 1.203-16.466-3.61-33.931-3.61-33.931z" style="opacity:.2"/><path d="m248.514 399.495-18.032-2.683.551-4.994 18.758 2.463z" style="fill:#407bff"/><path d="m248.514 399.495-18.032-2.683.551-4.994 18.758 2.463z" style="opacity:.6;fill:#fff"/><path d="M206.029 397.12h-17.494v-5.229l18.154-.34z" style="fill:#407bff"/><path d="M206.029 397.12h-17.494v-5.229l18.154-.34z" style="opacity:.6;fill:#fff"/><path d="M195.187 240.341v4.648l47.67-2.324v-4.203z" style="fill:#407bff"/><path d="M271.803 193.984s-.276 2.218 3.285 4.161h4.549s1.78 1.055 2.967 1.005 6.881-4.259 7.912-5.166-1.78-11.095-1.78-11.095z" style="fill:#b97964"/><path d="M235.21 149.691s-27.376-1.332-47.77 3.816c0 0 6.591 59.04 6.627 86.165a2.087 2.087 0 0 0 2.166 2.083l45.978-1.601a2.09 2.09 0 0 0 2.021-2.165c-.414-11.21-2.678-64.551-9.022-88.298" style="fill:#407bff"/><path d="M244.23 237.99c.04 1.16-.86 2.12-2.02 2.16l-45.98 1.6c-1.18.05-2.16-.89-2.16-2.08-.01-5.52-.29-12.37-.73-19.77-.21-3.34-.44-6.79-.7-10.29-.29-4.1-.62-8.26-.96-12.36-.78-9.36-1.63-18.43-2.37-25.86-1.06-10.61-1.87-17.88-1.87-17.88 20.39-5.15 47.77-3.82 47.77-3.82 6.34 23.75 8.61 77.09 9.02 88.3" style="opacity:.2"/><path d="M203.007 150.746c3.95 3.589 13.628 2.262 13.628 2.262s6.041-1.654 4.772-3.541c-3.558-.588-5.281-2.249-5.993-4.373-.412-1.238-.475-2.63-.361-4.064a22 22 0 0 1 .299-2.269l-11.964-8.86c1.568 5.848 3.486 16.606-.381 20.845" style="fill:#b97964"/><path d="M206.152 135.533c.475 7.179 6.374 9.159 9.262 9.561-.412-1.238-.475-2.63-.361-4.064z" style="opacity:.2"/><path d="M226.798 112.841s1.699 11.174-4.232 15.471-5.931-16.503-5.931-16.503z" style="fill:#263238"/><path d="M205.348 137.193c2.877 4.136 7.571 5.219 11.645 3.93a11.3 11.3 0 0 0 6.446-5.25c.196-.34.371-.701.536-1.073 2.919-6.828 3.847-18.772-3.373-23.248-5.126-3.228-11.913-1.691-15.141 3.445a10.9 10.9 0 0 0-1.65 4.837c-.887 7.983-1.784 12.635 1.537 17.359" style="fill:#b97964"/><path d="M215.449 124.1c-.154.631.137 1.222.566 1.295s.851-.398.964-1.039c.114-.641-.148-1.225-.566-1.295s-.848.387-.964 1.039M222.736 125.344c-.154.631.148 1.225.566 1.295s.851-.398.964-1.039c.114-.641-.147-1.225-.566-1.295s-.858.428-.964 1.039" style="fill:#263238"/><path d="M220.367 125.266a23.3 23.3 0 0 0 2.138 6.041 3.78 3.78 0 0 1-3.197.049z" style="fill:#a24e3f"/><path d="M213.591 121.354a.4.4 0 0 0 .392-.085 3.1 3.1 0 0 1 2.639-.854.383.383 0 0 0 .183-.741h-.002a3.8 3.8 0 0 0-3.341 1.033.38.38 0 0 0-.033.539l.006.007a.6.6 0 0 0 .156.101M217.691 134.515a5.89 5.89 0 0 1-4.776-2.599.21.21 0 0 1 .072-.279.197.197 0 0 1 .271.059l.008.013a5.64 5.64 0 0 0 4.445 2.393.196.196 0 0 1 .197.195l-.001.022a.196.196 0 0 1-.195.197zM226.296 123.366a.37.37 0 0 0 .22.054.38.38 0 0 0 .267-.469l-.002-.008a3.8 3.8 0 0 0-2.362-2.592.38.38 0 0 0-.476.254v.001a.39.39 0 0 0 .255.477 3.1 3.1 0 0 1 1.839 2.083.4.4 0 0 0 .259.2M211.306 110.95v3.566c-1.227.473-2.081 1.689-1.719 3.138.774 3.094-1.463 7.474-3.954 9.025 0 0 .086-1.289-1.031-1.118-1.117.172-1.633 6.876.086 10.314 0 0-2.836-3.266-3.782-10.486-.874-6.677-.423-12.098 1.213-14.44z" style="fill:#263238"/><path d="M199.244 125.735a7.64 7.64 0 0 0 3.667 4.546c2.361 1.268 4.125-.705 3.965-3.241-.164-2.252-1.564-5.696-4.179-5.893s-4.125 2.196-3.453 4.588" style="fill:#b97964"/><path d="M211.306 114.516s2.318 2.297 4.566.615c0 0 2.545 2.121 4.622.615 0 0 1.136 1.923 3 2.154 1.863.231 1.869-1.692 1.869-1.692s2.944 1.692 4.032.901-.593-3.956-.593-3.956 1.385-.747.495-3.291-5.004-1.951-5.004-1.951.158-2.374-2.71-4.846-4.577.593-4.577.593-2.779-3.758-6.222-3.264-3.047 2.868-3.047 2.868-3.956-2.473-5.736 0 0 3.659 0 3.659-3.956 1.328-3.758 4.027 2.227 2.303 2.227 2.303-1.139 1.286 1.433 2.374 4.985-1.582 4.985-1.582-1.001 1.532.85 2.571c1.849 1.04 3.568-2.098 3.568-2.098" style="fill:#263238"/><path d="M216.635 153.008s-13.957-9.483-18.401-10.015-3.652 5.008-3.652 5.008-3.429-.001-2.11 4.219 20.277 6.547 27.281 4.46 11.166-6.015 10.008-9.721-4.398-.531-4.398-.531-1.883-3.492-4.596-2.674c-2.712.817-4.132 9.254-4.132 9.254" style="fill:#407bff"/><path d="M214.57 156.68c4.061 7.003-2.162 14.962.987 22.207M220.906 155.253s3.577 2.882 5.242 9.089-.84 12.472-.84 12.472" style="fill:none;stroke:#fff;stroke-linecap:round;stroke-linejoin:round;stroke-miterlimit:10"/><path d="m245.782 149.694-3.992.895-.751-3.35a.66.66 0 0 1 .498-.786l2.709-.607a.66.66 0 0 1 .786.498zM253.444 147.977l-3.992.895-.751-3.35a.66.66 0 0 1 .498-.786l2.709-.607a.66.66 0 0 1 .786.498zM261.106 146.259l-3.992.895-.751-3.35a.66.66 0 0 1 .498-.786l2.709-.607a.66.66 0 0 1 .786.498zM268.767 144.542l-3.992.895-.751-3.35a.66.66 0 0 1 .498-.786l2.709-.607a.66.66 0 0 1 .786.498zM276.429 142.824l-3.992.895-.751-3.35a.66.66 0 0 1 .498-.786l2.709-.607a.66.66 0 0 1 .786.498zM284.091 141.107l-3.992.895-.751-3.35a.66.66 0 0 1 .498-.786l2.709-.607a.66.66 0 0 1 .786.498zM290.796 189.726l3.992-.895.751 3.35a.66.66 0 0 1-.498.786l-2.709.607a.66.66 0 0 1-.786-.498zM283.134 191.444l3.992-.895.751 3.35a.66.66 0 0 1-.498.786l-2.709.607a.66.66 0 0 1-.786-.498zM275.473 193.161l3.992-.895.751 3.35a.66.66 0 0 1-.498.786l-2.709.607a.66.66 0 0 1-.786-.498zM267.811 194.879l3.992-.895.751 3.35a.66.66 0 0 1-.498.786l-2.709.607a.66.66 0 0 1-.786-.498zM260.149 196.596l3.992-.895.751 3.35a.66.66 0 0 1-.498.786l-2.709.607a.66.66 0 0 1-.786-.498zM252.488 198.313l3.992-.895.751 3.35a.66.66 0 0 1-.498.786l-2.709.607a.66.66 0 0 1-.786-.498z" style="fill:#407bff"/><g style="opacity:.4"><path d="m245.782 149.694-3.992.895-.751-3.35a.66.66 0 0 1 .498-.786l2.709-.607a.66.66 0 0 1 .786.498zM253.444 147.977l-3.992.895-.751-3.35a.66.66 0 0 1 .498-.786l2.709-.607a.66.66 0 0 1 .786.498zM261.106 146.259l-3.992.895-.751-3.35a.66.66 0 0 1 .498-.786l2.709-.607a.66.66 0 0 1 .786.498zM268.767 144.542l-3.992.895-.751-3.35a.66.66 0 0 1 .498-.786l2.709-.607a.66.66 0 0 1 .786.498zM276.429 142.824l-3.992.895-.751-3.35a.66.66 0 0 1 .498-.786l2.709-.607a.66.66 0 0 1 .786.498zM284.091 141.107l-3.992.895-.751-3.35a.66.66 0 0 1 .498-.786l2.709-.607a.66.66 0 0 1 .786.498zM290.796 189.726l3.992-.895.751 3.35a.66.66 0 0 1-.498.786l-2.709.607a.66.66 0 0 1-.786-.498zM283.134 191.444l3.992-.895.751 3.35a.66.66 0 0 1-.498.786l-2.709.607a.66.66 0 0 1-.786-.498zM275.473 193.161l3.992-.895.751 3.35a.66.66 0 0 1-.498.786l-2.709.607a.66.66 0 0 1-.786-.498zM267.811 194.879l3.992-.895.751 3.35a.66.66 0 0 1-.498.786l-2.709.607a.66.66 0 0 1-.786-.498zM260.149 196.596l3.992-.895.751 3.35a.66.66 0 0 1-.498.786l-2.709.607a.66.66 0 0 1-.786-.498zM252.488 198.313l3.992-.895.751 3.35a.66.66 0 0 1-.498.786l-2.709.607a.66.66 0 0 1-.786-.498z"/></g><path d="m300.301 189.022-50.441 11.306a3.56 3.56 0 0 1-4.253-2.695l-9.749-43.492a3.56 3.56 0 0 1 2.695-4.253l50.441-11.307a3.56 3.56 0 0 1 4.253 2.695l9.749 43.492a3.56 3.56 0 0 1-2.695 4.254" style="fill:#263238"/><path d="m254.743 199.233-4.879 1.094a3.556 3.556 0 0 1-4.253-2.695l-9.749-43.491a3.554 3.554 0 0 1 2.695-4.252l4.879-1.094a3.555 3.555 0 0 0-2.695 4.253l9.749 43.491a3.556 3.556 0 0 0 4.253 2.694" style="opacity:.4"/><path d="m267.245 160.169 1.088 19.306-3.775.847-7.257-17.923 2.871-.644 5.406 14.149-1.151-15.103zM273.645 177.104l2.776-.622.296 1.322-4.442.996-.272-1.217 1.317-3.726c.494-1.388.577-2.073.417-2.787-.145-.648-.529-.937-1.071-.815s-.766.547-.621 1.195l.122.542-1.349.302-.098-.436c-.338-1.508.275-2.617 1.663-2.929s2.427.36 2.747 1.787c.225 1.004.105 1.893-.498 3.598zM277.699 176.124l1.401-.314.311 1.389-1.401.314zM280.419 174.765l-1.132-5.051c-.3-1.336.398-2.436 1.747-2.738s2.449.395 2.749 1.731l1.132 5.051c.299 1.335-.398 2.436-1.747 2.738s-2.45-.396-2.749-1.731m3.094-.693-1.132-5.051c-.13-.582-.535-.838-1.051-.723-.516.116-.772.521-.642 1.103l1.132 5.051c.13.581.535.837 1.051.722.516-.116.773-.521.642-1.102" style="fill:#fff"/><path d="m246.809 192.545.895 3.992-3.35.751a.66.66 0 0 1-.786-.498l-.607-2.709a.66.66 0 0 1 .498-.786zM245.092 184.884l.895 3.992-3.35.751a.66.66 0 0 1-.786-.498l-.607-2.709a.66.66 0 0 1 .498-.786zM243.374 177.222l.895 3.992-3.35.751a.66.66 0 0 1-.786-.498l-.607-2.709a.66.66 0 0 1 .498-.786zM241.657 169.56l.895 3.992-3.35.751a.66.66 0 0 1-.786-.498l-.607-2.709a.66.66 0 0 1 .498-.786zM239.94 161.898l.895 3.992-3.35.751a.66.66 0 0 1-.786-.498l-.607-2.709a.66.66 0 0 1 .498-.786zM238.222 154.237l.895 3.992-3.351.751a.66.66 0 0 1-.786-.498l-.607-2.709a.66.66 0 0 1 .498-.786z" style="fill:#407bff"/><g style="opacity:.4"><path d="m246.809 192.545.895 3.992-3.35.751a.66.66 0 0 1-.786-.498l-.607-2.709a.66.66 0 0 1 .498-.786zM245.092 184.884l.895 3.992-3.35.751a.66.66 0 0 1-.786-.498l-.607-2.709a.66.66 0 0 1 .498-.786zM243.374 177.222l.895 3.992-3.35.751a.66.66 0 0 1-.786-.498l-.607-2.709a.66.66 0 0 1 .498-.786zM241.657 169.56l.895 3.992-3.35.751a.66.66 0 0 1-.786-.498l-.607-2.709a.66.66 0 0 1 .498-.786zM239.94 161.898l.895 3.992-3.35.751a.66.66 0 0 1-.786-.498l-.607-2.709a.66.66 0 0 1 .498-.786zM238.222 154.237l.895 3.992-3.351.751a.66.66 0 0 1-.786-.498l-.607-2.709a.66.66 0 0 1 .498-.786z"/></g><path d="m211.306 212.267 2.027 1.074s-2.15 15.428-7.181 18.791l-2.064-2.374s7.118-9.268 7.218-17.491M236.674 210.967l-2.52 1.3s4.663 14.92 7.672 18.282l1.717-2.374c0 .001-5.734-9.494-6.869-17.208" style="fill:#407bff"/><path d="M211.06 203.12s-6.45 13.08-17.72 16.78c-.21-3.34-.44-6.79-.7-10.29-.29-4.1-.62-8.26-.96-12.36z" style="opacity:.2"/><path d="m219.754 192.992 13.004-4.377s11.67-10.4 14.242-10.343c2.571.057 4.747 6.58 5.934 9.055s-11.014 7.497-12.826 8.547c-1.812 1.049-4.333 0-4.333 0l-13.271 5.797z" style="fill:#b97964"/><path d="M187.445 153.511c-12.115 1.61-5.84 47.237 1.967 56.204 6.521 7.49 30.305-3.511 37.964-7.339a3.1 3.1 0 0 0 1.551-3.758l-2.239-6.714a3.1 3.1 0 0 0-3.707-2.029c-6.451 1.644-22.006 5.327-23.896 3.119-2.392-2.795-5.557-16.502-5.03-25.209s-6.61-14.274-6.61-14.274" style="fill:#407bff"/><path d="m224.803 189.971 4.166 10.443 3.734-2.269-3.616-9.189z" style="fill:#407bff"/><path d="m224.803 189.971 4.166 10.443 3.734-2.269-3.616-9.189z" style="opacity:.3"/><path d="M426.418 68.966v287.952c0 2.368-1.904 4.208-4.272 4.208H288.135c-1.066 0-2.004-.401-2.678-1.075-.71-.692-1.139-1.676-1.139-2.787V68.62c0-1.886 1.385-3.534 3.27-3.534h38.057c1.075 0 2.049.701 2.451 1.713l1.576 3.88c.401 1.002 1.375 1.694 2.45 1.694h46.574a2.65 2.65 0 0 0 2.45-1.667l1.576-3.899c.401-1.011 1.376-1.722 2.45-1.722h37.51c2.078.001 3.736 1.804 3.736 3.881" style="fill:#407bff"/><path d="M432.418 68.966v287.952c0 2.368-1.904 4.208-4.272 4.208H294.135c-1.066 0-2.004-.401-2.678-1.075-.71-.692-1.139-1.676-1.139-2.787V68.62c0-1.886 1.385-3.534 3.27-3.534h38.057c1.075 0 2.049.701 2.451 1.713l1.576 3.88c.401 1.002 1.375 1.694 2.45 1.694h46.574a2.65 2.65 0 0 0 2.45-1.667l1.576-3.899c.401-1.011 1.376-1.722 2.45-1.722h37.51c2.078.001 3.736 1.804 3.736 3.881" style="fill:#407bff"/><path d="M432.418 68.966v287.952c0 2.368-1.904 4.208-4.272 4.208H294.135c-1.066 0-2.004-.401-2.678-1.075-.71-.692-1.139-1.676-1.139-2.787V68.62c0-1.886 1.385-3.534 3.27-3.534h38.057c1.075 0 2.049.701 2.451 1.713l1.576 3.88c.401 1.002 1.375 1.694 2.45 1.694h46.574a2.65 2.65 0 0 0 2.45-1.667l1.576-3.899c.401-1.011 1.376-1.722 2.45-1.722h37.51c2.078.001 3.736 1.804 3.736 3.881" style="opacity:.4;fill:#fff"/><path d="M307.986 74.046h1.98v2.64h-1.98z" style="opacity:.6;fill:#fff" transform="rotate(-180 308.976 75.366)"/><path d="M304.759 73.165h1.98v3.521h-1.98z" style="opacity:.6;fill:#fff" transform="rotate(-180 305.749 74.926)"/><path d="M301.531 72.285h1.98v4.401h-1.98z" style="opacity:.6;fill:#fff" transform="rotate(-180 302.522 74.485)"/><path d="M298.304 71.404h1.98v5.282h-1.98z" style="opacity:.6;fill:#fff" transform="rotate(-180 299.294 74.045)"/><path d="M413.1 73.083h1.174v2.64H413.1z" style="opacity:.6;fill:#fff"/><path d="M415.081 72.119h9.351v4.567h-9.351z" style="opacity:.6;fill:#fff" transform="rotate(-180 419.757 74.403)"/><path d="M316.306 284.643h90.125a5.087 5.087 0 1 1 0 10.173h-90.125a5.086 5.086 0 1 1 0-10.173" style="fill:#407bff"/><path d="M316.306 284.643h90.125a5.087 5.087 0 1 1 0 10.173h-90.125a5.086 5.086 0 1 1 0-10.173" style="opacity:.3"/><path d="M345.441 285.554a4.18 4.18 0 0 1 4.176 4.176 4.18 4.18 0 0 1-4.176 4.176h-29.135a4.18 4.18 0 0 1-4.176-4.176 4.18 4.18 0 0 1 4.176-4.176zM337.343 133.218q-1.311 0-2.223-.913a3.02 3.02 0 0 1-.913-2.213V119.93h1.94v10.141q0 .472.336.802t.808.331q.472 0 .802-.331.33-.33.33-.802V119.93h2.066v10.162q0 1.321-.923 2.224a3.07 3.07 0 0 1-2.223.902M345.375 119.93q1.447 0 2.308.913.797.87.797 2.223v1.909q0 1.3-.907 2.223a2.96 2.96 0 0 1-2.197.923h-1.143v4.95h-1.982V119.93zm1.185 3.168q0-.514-.309-.829-.31-.315-.823-.314h-1.196v4.205h1.196q.472 0 .802-.336t.33-.808zM352.989 133.239a3.02 3.02 0 0 1-2.228-.923 3.03 3.03 0 0 1-.918-2.213v-7.173q0-1.311.923-2.229a3.04 3.04 0 0 1 2.223-.918q1.31 0 2.224.923.912.922.912 2.223v1.499h-2.055v-1.541q0-.472-.336-.808a1.1 1.1 0 0 0-.807-.336q-.473 0-.803.336t-.33.808v7.194q0 .471.33.802.33.33.803.33.471 0 .807-.329.336-.33.336-.8v-2.583h-1.102v-1.992h3.157v4.593q0 1.311-.923 2.223a3.04 3.04 0 0 1-2.213.914M360.969 119.93q1.657 0 2.433.913.682.796.682 2.223v1.909q0 1.394-1.059 2.36l1.468 5.736h-2.144l-1.202-4.95h-1.322v4.95h-1.982V119.93zm1.185 3.168q0-1.143-1.132-1.143h-1.196v4.205h1.196q.471 0 .802-.336.33-.336.33-.808zM368.632 130.05l-.481 3.02h-2.064l2.234-13.141h2.727l2.202 13.141h-2.084l-.464-3.02zm1.041-7.11-.734 5.181h1.468zM381.147 129.925q0 1.3-.913 2.223a2.98 2.98 0 0 1-2.202.923h-3.115V119.92h3.115q1.3 0 2.208.923.906.923.907 2.213zm-4.248 1.185h1.196q.472 0 .797-.341t.325-.802v-6.88q0-.47-.331-.808a1.07 1.07 0 0 0-.792-.335h-1.196zM382.887 133.071V119.92h5.642v1.993h-3.66v3.586h2.674v1.993h-2.674v3.586h3.66v1.993z" style="fill:#407bff"/><g style="opacity:.1"><path d="m354.245 72.373-40.908 153.23v.009l-.455 1.722v.009l-.738 2.76v.009l-.465 1.722-21.36 80.013V215.01l40.025-149.924h1.302c1.075 0 2.049.701 2.451 1.713l1.576 3.88c.401 1.002 1.375 1.694 2.45 1.694zM432.418 150.628v96.837l-25.514 95.571-.62 2.322-4.208 15.768h-25.851l4.208-15.758.674-2.533 3.38-12.661.674-2.532 1.357-5.065.674-2.532 1.348-5.065.674-2.532 21.269-79.658v-.009l.984-3.68v-.009zM368.255 72.373l-40.653 152.274-.246.911-2.223 8.344-.246.911-33.43 125.239c-.71-.692-1.139-1.676-1.139-2.787v-14.729l28.757-107.722.246-.911 2.223-8.344.246-.911 40.653-152.274h5.812z" style="fill:#fff"/></g><path d="M405.25 206.317c0 21.15-14.97 38.81-34.89 42.96a44.4 44.4 0 0 1-17.98 0c-19.93-4.15-34.9-21.81-34.9-42.96 0-24.24 19.65-43.89 43.89-43.89 24.23 0 43.88 19.65 43.88 43.89" style="fill:#407bff"/><path d="M383.9 202.667h-11.89c-.91 0-1.65.74-1.65 1.65v44.96a44.4 44.4 0 0 1-17.98 0v-44.96c0-.91-.74-1.65-1.66-1.65h-11.89c-1.47 0-2.21-1.79-1.17-2.83l22.54-22.53c.64-.65 1.69-.65 2.34 0l22.53 22.53c1.05 1.04.31 2.83-1.17 2.83" style="opacity:.6;fill:#fff"/></svg>