<svg width="480" height="519" viewBox="0 0 480 519" fill="none" xmlns="http://www.w3.org/2000/svg">
<rect width="479.297" height="518.032" transform="translate(0 0.0319824)" fill="white"/>
<path d="M287.891 418.064C270.899 418.064 254.492 415.769 238.672 411.179C222.852 406.589 209.961 400.583 200 393.161L216.992 355.368C226.367 362.204 237.402 367.673 250.098 371.775C262.793 375.876 275.488 377.927 288.184 377.927C298.34 377.927 306.348 376.95 312.207 374.997C318.067 373.142 322.412 370.505 325.244 367.087C328.076 363.571 329.492 359.47 329.492 354.782C329.492 348.923 327.246 344.333 322.754 341.013C318.75 337.985 313.428 335.446 306.787 333.396C300.147 331.247 291.504 329.001 280.86 326.657C265.039 323.142 251.709 319.138 240.869 314.646C230.127 310.056 221.338 303.562 214.502 295.163C207.764 286.667 204.395 275.681 204.395 262.204C204.395 249.802 207.813 238.571 214.649 228.513C221.484 217.966 231.641 209.763 245.117 203.903C258.692 198.044 275.391 195.114 295.215 195.114C308.984 195.114 322.412 196.775 335.498 200.095C348.682 203.317 360.156 208.005 369.922 214.157L354.688 252.243C334.668 240.915 314.746 235.251 294.922 235.251C285.547 235.251 277.637 236.325 271.192 238.474C265.137 240.817 260.742 243.747 258.008 247.263C255.274 250.681 253.906 254.88 253.906 259.86C253.906 265.036 256.152 269.431 260.645 273.044C264.746 276.071 270.166 278.659 276.904 280.808C283.74 282.956 292.481 285.153 303.125 287.4C319.336 291.11 332.666 295.114 343.115 299.411C353.662 303.708 362.305 310.007 369.043 318.308C375.879 326.609 379.297 337.595 379.297 351.267C379.297 362.888 375.879 373.923 369.043 384.372C362.012 394.821 351.611 403.073 337.842 409.128C324.17 415.085 307.52 418.064 287.891 418.064Z" fill="#303F9F"/>
<path d="M100 245.032C100 164.951 164.919 100.032 245 100.032" stroke="#333333" stroke-width="30" stroke-linecap="round"/>
<path d="M155 245.032C155 195.326 195.294 155.032 245 155.032" stroke="#7986CB" stroke-width="25" stroke-linecap="round"/>
</svg>
