<svg width="27" height="27" viewBox="0 0 27 27" fill="none" xmlns="http://www.w3.org/2000/svg">
<path d="M20.4444 18.8571H13.5M6.55556 9.92857L10.7222 14.3929L6.55556 18.8571M1 20.2861V6.71464C1 4.71445 1 3.71361 1.30276 2.94964C1.56907 2.27763 1.99371 1.73166 2.51639 1.38927C3.11058 1 3.88901 1 5.44472 1H21.5558C23.1115 1 23.8883 1 24.4825 1.38927C25.0051 1.73166 25.4312 2.27763 25.6975 2.94964C26 3.71286 26 4.71248 26 6.70877V20.2912C26 22.2875 26 23.2857 25.6975 24.0489C25.4312 24.7209 25.0051 25.2687 24.4825 25.6111C23.8889 26 23.1125 26 21.5599 26H5.44015C3.88749 26 3.11 26 2.51639 25.6111C1.99371 25.2687 1.56907 24.7209 1.30276 24.0489C1 23.285 1 22.2863 1 20.2861Z" stroke="#303F9F" stroke-width="2" stroke-linecap="round" stroke-linejoin="round"/>
</svg>
