<svg width="25" height="22" viewBox="0 0 25 22" fill="none" xmlns="http://www.w3.org/2000/svg">
<path d="M2.27273 0C1.66996 0 1.09189 0.231785 0.665666 0.644365C0.239447 1.05694 0 1.61652 0 2.2V15.4C0 16.621 1.02273 17.6 2.27273 17.6H10.2273V19.8H7.95455V22H17.0455V19.8H14.7727V17.6H22.7273C23.33 17.6 23.9081 17.3682 24.3343 16.9556C24.7606 16.5431 25 15.9835 25 15.4V2.2C25 1.61652 24.7606 1.05694 24.3343 0.644365C23.9081 0.231785 23.33 0 22.7273 0M2.27273 2.2H22.7273V15.4H2.27273M15.9091 3.3L11.9318 7.15L15.9091 11L17.5 9.46L15.1136 7.15L17.5 4.84M9.09091 6.6L7.5 8.14L9.88636 10.45L7.5 12.76L9.09091 14.3L13.0682 10.45" fill="#303F9F"/>
</svg>
