<svg width="108" height="58" viewBox="0 0 108 58" fill="none" xmlns="http://www.w3.org/2000/svg">
<path d="M62.6839 13.04L61.3863 13.7869L61.3264 15.4773L61.2665 17.148L56.2359 17.2659C49.8277 17.4035 48.5501 17.718 46.4739 19.7031C45.1564 20.9807 44.6573 22.1797 44.5575 24.44C44.4177 27.1328 44.9767 28.7838 46.4939 30.3169C48.1109 31.968 50.207 32.6362 53.2813 32.479C55.3375 32.3807 57.9128 31.7911 58.1922 31.3587C58.2721 31.2407 58.0325 30.6707 57.6932 30.1007L57.0743 29.0393L55.9564 29.4324C55.3375 29.6487 54.2196 29.8649 53.481 29.9238C51.0055 30.14 49.1689 29.3538 48.1708 27.6831C47.6717 26.8183 47.6118 26.5628 47.6118 24.8724C47.6118 23.418 47.6917 22.848 47.9911 22.3173C48.59 21.2166 49.3087 20.568 50.4466 20.1552C51.4048 19.8014 52.0037 19.7621 56.3956 19.7621H61.2865V24.5187C61.2865 27.349 61.3863 29.6093 61.5061 30.0811C61.9253 31.6142 63.3427 32.5183 65.2991 32.538C66.4769 32.538 68.1338 32.1252 68.7527 31.6928C69.112 31.4373 69.112 31.398 68.7128 30.6511C67.9941 29.3145 68.034 29.3538 67.0957 29.688C65.9978 30.0614 65.2791 30.0614 64.7201 29.6683C64.281 29.3735 64.281 29.3145 64.281 24.5776V19.7818L66.2373 19.7228L68.1737 19.6638V18.4845V17.3052L66.2373 17.2462L64.281 17.1873V14.75C64.281 13.3938 64.2211 12.2931 64.1412 12.2931C64.0414 12.2931 63.4026 12.6273 62.6839 13.04Z" fill="#303F9F"/>
<path d="M13.1357 17.0693C12.4968 17.4231 11.9778 17.7769 11.9778 17.8555C11.9778 17.9538 13.3353 20.5286 14.9723 23.5948L17.9867 29.1769L17.248 30.6117C15.8107 33.4421 14.2536 34.8965 11.9379 35.6041L10.8 35.9383L11.3789 37.0783L11.9578 38.1986L12.956 37.9431C14.553 37.5303 15.9105 36.6852 17.3279 35.1914C18.6055 33.8745 18.8651 33.4421 22.6381 25.9534C24.7941 21.6293 26.5907 18.0127 26.6107 17.9341C26.6506 17.7376 24.4347 16.4796 24.295 16.6172C24.2351 16.6762 23.1172 18.8383 21.8196 21.4131L19.424 26.1107L17.5076 22.4941C16.4495 20.509 15.2917 18.3272 14.9323 17.659L14.2736 16.46L13.1357 17.0693Z" fill="#303F9F"/>
<path d="M32.7394 17.3052C30.4436 17.9538 28.7068 19.4083 27.6688 21.531C27.0898 22.7104 27.0499 22.9659 27.0499 24.8724C27.0499 26.8183 27.0898 27.0345 27.7087 28.2531C28.5471 29.9238 30.2639 31.5355 31.8809 32.1645C33.5379 32.7935 36.3527 32.7935 38.0296 32.1448C39.6865 31.5159 41.6828 29.5504 42.3216 27.919C43.0004 26.209 43.0004 23.6735 42.3416 21.9241C41.6628 20.1748 39.7663 18.2683 38.0296 17.6197C36.4724 17.03 34.2166 16.9121 32.7394 17.3052ZM37.1312 20.2141C38.2492 20.7841 39.2273 22.0224 39.6466 23.4376C40.7246 27.0738 37.5505 30.7493 34.017 29.9828C32.7194 29.6879 32.0806 29.3145 31.2621 28.371C29.4854 26.3466 29.5453 23.241 31.4018 21.2362C32.919 19.5852 35.115 19.1921 37.1312 20.2141Z" fill="#303F9F"/>
<path d="M75.7597 17.2659C71.6473 18.3273 69.092 22.1797 69.8506 26.1894C71.248 33.6977 81.6089 35.1128 84.9028 28.2532C85.5016 27.0346 85.5416 26.779 85.5416 24.8528C85.5416 22.8087 85.5216 22.7301 84.743 21.2166C83.8048 19.4083 82.5471 18.2683 80.7105 17.6001C79.2931 17.0694 77.0972 16.9318 75.7597 17.2659ZM79.8521 20.1552C80.6506 20.568 81.6488 21.5704 82.1878 22.5728C82.6869 23.477 82.6869 26.2877 82.1678 27.2311C81.2096 29.0394 79.6125 30.0418 77.756 30.0614C74.8613 30.0614 72.8052 27.8994 72.7852 24.8528C72.7652 21.0201 76.5582 18.5042 79.8521 20.1552Z" fill="#303F9F"/>
<path d="M94.6846 23.4376C94.5449 23.4769 94.4251 23.6145 94.4251 23.7324C94.4251 23.8503 94.5649 23.87 94.7445 23.811C94.9242 23.752 94.9841 23.7717 94.9242 23.9093C94.8444 24.0076 94.6248 24.0469 94.4251 23.9879C93.9859 23.8503 93.7863 24.322 93.946 25.1672C94.0658 25.8748 94.3852 26.2286 95.024 26.3465C95.8026 26.5038 96.4214 26.2286 96.7408 25.6193C97.4595 24.2631 96.122 22.8479 94.6846 23.4376Z" fill="#303F9F"/>
<path d="M47.6318 39.0241C45.9748 39.5352 45.1963 41.6186 46.1146 43.0928C47.1926 44.8617 50.2869 44.7242 51.1852 42.8766C52.2632 40.6162 50.0872 38.2576 47.6318 39.0241ZM49.8077 40.2821C50.4466 40.911 50.6063 41.6383 50.3068 42.3852C50.0473 42.9748 49.2288 43.5448 48.61 43.5448C47.512 43.5448 46.5538 42.3262 46.8133 41.2059C47.0928 39.889 48.8695 39.3583 49.8077 40.2821Z" fill="#303F9F"/>
<path d="M69.6909 39.1814C66.9959 40.518 68.034 44.3311 71.0883 44.3311C72.3261 44.3311 73.0647 44.0559 73.0647 43.5842C73.0647 43.0535 72.8651 42.9355 72.4259 43.1714C72.2063 43.2893 71.6074 43.3876 71.1083 43.4073C70.3697 43.4073 70.1301 43.309 69.7309 42.8766C69.092 42.1297 69.092 40.9504 69.7708 40.3017C70.3098 39.7711 71.5475 39.6335 72.3061 40.0266C72.6255 40.2035 72.7652 40.1838 72.885 39.9873C73.1845 39.4959 73.0846 39.26 72.4458 39.0438C71.5275 38.7293 70.4695 38.7883 69.6909 39.1814Z" fill="#303F9F"/>
<path d="M30.5434 41.6776V44.3311H31.0425C31.5216 44.3311 31.5416 44.2721 31.5416 43.1517V41.9724H32.3401C33.3183 41.9724 34.1368 41.2845 34.1368 40.4983C34.1368 40.2231 33.9172 39.7711 33.6377 39.5155C33.2185 39.0831 32.9789 39.0242 31.841 39.0242H30.5434V41.6776ZM32.6196 39.9283C33.3183 40.2035 32.8392 41.1862 32.0007 41.1862C31.6015 41.1862 31.5416 41.088 31.5416 40.4983C31.5416 39.7907 31.841 39.6335 32.6196 39.9283Z" fill="#303F9F"/>
<path d="M38.329 41.6776V44.3311H38.8281C39.3072 44.3311 39.3272 44.2721 39.3272 43.1517C39.3272 42.2673 39.3871 41.9724 39.6066 41.9724C39.7663 41.9724 40.1856 42.5031 40.5649 43.1517C41.1238 44.1542 41.3035 44.3311 41.7826 44.3311H42.3416L41.6628 43.0535C41.0041 41.8348 40.9841 41.7759 41.3434 41.4614C41.583 41.2452 41.7227 40.8521 41.7227 40.3804C41.7227 39.3583 41.2037 39.0242 39.5867 39.0242H38.329V41.6776ZM40.6048 40.2624C40.7845 40.5573 40.7445 40.6752 40.4451 40.9111C39.7264 41.4221 39.3272 41.2648 39.3272 40.4786C39.3272 39.8497 39.3671 39.7907 39.8462 39.8497C40.1456 39.889 40.485 40.0659 40.6048 40.2624Z" fill="#303F9F"/>
<path d="M55.8965 40.8717C55.8965 42.8962 55.7967 43.3483 55.3774 43.3483C55.2177 43.3483 55.098 43.5448 55.098 43.8397C55.098 44.2131 55.1978 44.3311 55.5571 44.3311C56.6152 44.3114 56.8946 43.6431 56.8946 41.1076V39.0242H56.3956C55.8965 39.0242 55.8965 39.0242 55.8965 40.8717Z" fill="#303F9F"/>
<path d="M61.2865 41.6776V44.3311H62.9834C64.6603 44.3311 64.6802 44.3311 64.6802 43.8397C64.6802 43.368 64.6203 43.3483 63.4824 43.3483H62.2847V42.6604V41.9724H63.2828C64.1412 41.9724 64.281 41.9135 64.281 41.5793C64.281 41.2452 64.1412 41.1862 63.2828 41.1862H62.2847V40.4983V39.8104H63.4824C64.5405 39.8104 64.6802 39.7711 64.6802 39.4173C64.6802 39.0635 64.5405 39.0242 62.9834 39.0242H61.2865V41.6776Z" fill="#303F9F"/>
<path d="M76.658 39.4173C76.658 39.7514 76.7978 39.8104 77.4565 39.8104H78.2551V42.0707V44.3311H78.854H79.4528V42.0707V39.8104H80.2514C80.9101 39.8104 81.0499 39.7514 81.0499 39.4173C81.0499 39.0438 80.9101 39.0242 78.854 39.0242C76.7978 39.0242 76.658 39.0438 76.658 39.4173Z" fill="#303F9F"/>
</svg>
