<svg width="17" height="17" viewBox="0 0 17 17" fill="none" xmlns="http://www.w3.org/2000/svg">
<g clip-path="url(#clip0_755_588)">
<path d="M8.26926 4.35862C8.09894 3.43019 8.53794 2.47472 9.06663 1.83081C9.64929 1.12034 10.6492 0.5755 11.5037 0.515625C11.648 1.48903 11.2508 2.43744 10.7279 3.10828C10.1669 3.82897 9.20251 4.38784 8.26926 4.35862ZM13.2814 7.72284C13.5458 6.98516 14.0697 6.32144 14.8823 5.87362C14.0611 4.84888 12.9081 4.25394 11.8201 4.25394C10.3806 4.25394 9.77191 4.93978 8.77204 4.93978C7.74204 4.93978 6.96063 4.25394 5.71373 4.25394C4.49101 4.25394 3.18947 4.99919 2.36404 6.27197C2.06054 6.74244 1.85494 7.32691 1.74282 7.97791C1.43169 9.80412 1.89644 12.1828 3.28279 14.2949C3.95685 15.3198 4.85532 16.4742 6.02907 16.4843C7.07466 16.4945 7.37129 15.8158 8.78676 15.8088C10.2043 15.8007 10.473 16.4913 11.5171 16.4813C12.6912 16.4714 13.6392 15.1938 14.3133 14.1691C14.7932 13.4337 14.9747 13.0623 15.3479 12.2309C13.4502 11.5152 12.6697 9.42409 13.2814 7.72284Z" fill="black"/>
</g>
<defs>
<clipPath id="clip0_755_588">
<rect width="16" height="16" fill="white" transform="translate(0.5 0.5)"/>
</clipPath>
</defs>
</svg>
