<svg width="23" height="24" viewBox="0 0 23 24" fill="none" xmlns="http://www.w3.org/2000/svg">
<g clip-path="url(#clip0_708_669)">
<path d="M11.7433 3.82709C11.6625 3.82485 11.5814 3.82373 11.5 3.82373C6.73654 3.82373 2.875 7.68527 2.875 12.4487C2.875 17.2122 6.73654 21.0737 11.5 21.0737C16.2634 21.0737 20.125 17.2122 20.125 12.4487C20.125 12.3674 20.1238 12.2863 20.1217 12.2055L22.661 9.66605C22.8824 10.5571 23 11.4892 23 12.4487C23 18.8 17.8513 23.9487 11.5 23.9487C5.14872 23.9487 0 18.8 0 12.4487C0 6.09745 5.14872 0.94873 11.5 0.94873C12.4595 0.94873 13.3916 1.06625 14.2827 1.28768L11.7433 3.82709Z" fill="white"/>
<path d="M5.75 12.4487C5.75 9.76946 7.58248 7.51819 10.0625 6.87988V9.95835C9.20316 10.4554 8.625 11.3846 8.625 12.4487C8.625 14.0365 9.91218 15.3237 11.5 15.3237C12.5642 15.3237 13.4933 14.7456 13.9904 13.8862H17.0689C16.4305 16.3663 14.1793 18.1988 11.5 18.1988C8.32436 18.1988 5.75 15.6244 5.75 12.4487Z" fill="white"/>
<path d="M20.1258 3.82373L18.6883 0.94873L14.3758 5.26123V7.5408L11.2031 10.7135L13.2361 12.7465L16.4088 9.57373H18.6883L23.0008 5.26123L20.1258 3.82373Z" fill="white"/>
</g>
<defs>
<clipPath id="clip0_708_669">
<rect width="23" height="23" fill="white" transform="translate(0 0.94873)"/>
</clipPath>
</defs>
</svg>
