<svg width="20" height="20" viewBox="0 0 20 20" fill="none" xmlns="http://www.w3.org/2000/svg">
<path fill-rule="evenodd" clip-rule="evenodd" d="M2.49935 6.66667C2.49935 5.28596 3.6186 4.16667 4.99935 4.16667H11.666C13.0467 4.16667 14.166 5.28596 14.166 6.66667V16.6667C14.166 18.0474 13.0467 19.1667 11.666 19.1667H4.99935C3.6186 19.1667 2.49935 18.0474 2.49935 16.6667V6.66667ZM4.16602 6.66667C4.16602 6.20644 4.5391 5.83334 4.99935 5.83334H11.666C12.1262 5.83334 12.4993 6.20644 12.4993 6.66667V16.6667C12.4993 17.1269 12.1262 17.5 11.666 17.5H4.99935C4.5391 17.5 4.16602 17.1269 4.16602 16.6667V6.66667Z" fill="#7986CB"/>
<path d="M15 2.49999H6.66667C6.20642 2.49999 5.83333 2.12689 5.83333 1.66666C5.83333 1.20643 6.20642 0.833328 6.66667 0.833328H15C16.3807 0.833328 17.5 1.95262 17.5 3.33333V15C17.5 15.4602 17.1269 15.8333 16.6667 15.8333C16.2064 15.8333 15.8333 15.4602 15.8333 15V3.33333C15.8333 2.87309 15.4602 2.49999 15 2.49999Z" fill="#7986CB"/>
</svg>
