<svg width="23" height="23" viewBox="0 0 23 23" fill="none" xmlns="http://www.w3.org/2000/svg">
<path d="M5.75 9.58333H6.46875C7.13034 9.58333 7.66667 10.1196 7.66667 10.7812V14.1354C7.66667 14.797 7.13034 15.3333 6.46875 15.3333H5.75C4.16219 15.3333 2.875 14.0462 2.875 12.4583C2.875 10.8705 4.16219 9.58333 5.75 9.58333ZM5.75 9.58333V8.625C5.75 5.44936 8.32436 2.875 11.5 2.875C14.6756 2.875 17.25 5.44936 17.25 8.625V9.58333M17.25 9.58333H16.5312C15.8696 9.58333 15.3333 10.1196 15.3333 10.7812V14.1354C15.3333 14.797 15.8696 15.3333 16.5312 15.3333H17.25M17.25 9.58333C18.8379 9.58333 20.125 10.8705 20.125 12.4583C20.125 14.0462 18.8379 15.3333 17.25 15.3333M17.25 15.3333L16.6546 17.7149C16.4413 18.5681 15.6747 19.1667 14.7951 19.1667H12.4583" stroke="white" stroke-width="2" stroke-linecap="round" stroke-linejoin="round"/>
</svg>
