<svg width="23" height="23" viewBox="0 0 23 23" fill="none" xmlns="http://www.w3.org/2000/svg">
<g clip-path="url(#clip0_702_388)">
<path d="M16.4937 9.21922C15.3865 9.21922 14.3431 9.49756 13.4294 9.98748H13.0113C13.0115 9.97948 13.0125 9.97157 13.0125 9.96349V8.42694C13.0125 8.4188 13.0116 8.41094 13.0113 8.40295H13.0365C13.4469 8.40295 13.7808 8.06909 13.7808 7.65868V6.12213C13.7808 5.71172 13.4469 5.37786 13.0365 5.37786H13.0113C13.0115 5.36987 13.0125 5.36196 13.0125 5.35387V3.81732C13.0125 3.80919 13.0116 3.80133 13.0113 3.79333H13.8048C14.2152 3.79333 14.549 3.45947 14.549 3.04907V1.51252C14.549 1.10211 14.2152 0.76825 13.8048 0.76825H2.28077C1.87037 0.76825 1.53651 1.10211 1.53651 1.51252V3.04907C1.53651 3.0572 1.53745 3.06506 1.53772 3.07306H0.744266C0.333859 3.07306 0 3.40692 0 3.81732V5.35387C0 5.76428 0.333859 6.09814 0.744266 6.09814H0.769467C0.769242 6.10618 0.768254 6.11404 0.768254 6.12213V7.65868C0.768254 7.66681 0.769197 7.67467 0.769467 7.68267H0.744266C0.333859 7.68267 0 8.01653 0 8.42694V9.96349C0 10.3739 0.333859 10.7078 0.744266 10.7078H1.53772C1.5375 10.7157 1.53651 10.7237 1.53651 10.7317V12.2683C1.53651 12.2764 1.53745 12.2843 1.53772 12.2923H0.744266C0.333859 12.2923 0 12.6261 0 13.0365V14.5731C0 14.9835 0.333859 15.3174 0.744266 15.3174H0.769467C0.769242 15.3254 0.768254 15.3333 0.768254 15.3414V16.8779C0.768254 16.886 0.769197 16.8939 0.769467 16.9019H0.744266C0.333859 16.9019 0 17.2358 0 17.6461V19.1827C0 19.5931 0.333859 19.9269 0.744266 19.9269H1.53772C1.5375 19.935 1.53651 19.9428 1.53651 19.9509V21.4875C1.53651 21.8979 1.87037 22.2317 2.28077 22.2317H13.8048C14.0647 22.2317 14.2936 22.0975 14.4268 21.8951C15.0764 22.1133 15.7714 22.2317 16.4937 22.2317C20.0812 22.2317 23 19.313 23 15.7255C23 12.1379 20.0813 9.21922 16.4937 9.21922ZM13.0366 6.09809C13.0498 6.09809 13.0605 6.10892 13.0605 6.12208V7.65864C13.0605 7.67184 13.0498 7.68262 13.0366 7.68262H12.2683H1.51252C1.49927 7.68262 1.48853 7.67184 1.48853 7.65864V6.12208C1.48853 6.10888 1.49927 6.09809 1.51252 6.09809H12.2683H13.0366ZM2.25679 1.51252C2.25679 1.49931 2.26752 1.48853 2.28077 1.48853H13.8048C13.818 1.48853 13.8287 1.49935 13.8287 1.51252V3.04907C13.8287 3.06227 13.818 3.07306 13.8048 3.07306H12.2682H2.28077C2.26752 3.07306 2.25679 3.06227 2.25679 3.04907V1.51252ZM0.744266 5.37786C0.731014 5.37786 0.720277 5.36708 0.720277 5.35387V3.81732C0.720277 3.80411 0.731014 3.79333 0.744266 3.79333H2.28082H12.2683C12.2816 3.79333 12.2923 3.80416 12.2923 3.81732V5.35387C12.2923 5.36708 12.2816 5.37786 12.2683 5.37786H1.51252H0.744266ZM0.744266 9.98748C0.731014 9.98748 0.720277 9.9767 0.720277 9.96349V8.42694C0.720277 8.41373 0.731014 8.40295 0.744266 8.40295H1.51252H12.2683C12.2815 8.40295 12.2922 8.41373 12.2922 8.42694V9.96349C12.2922 9.9767 12.2815 9.98748 12.2683 9.98748H2.28077H0.744266ZM12.3564 10.7077C11.8131 11.1565 11.3439 11.6919 10.9695 12.2922H2.28077C2.26752 12.2922 2.25679 12.2815 2.25679 12.2682V10.7317C2.25679 10.7185 2.26752 10.7077 2.28077 10.7077H12.2683H12.3564ZM0.744266 14.5971C0.731014 14.5971 0.720277 14.5863 0.720277 14.5731V13.0365C0.720277 13.0233 0.731014 13.0126 0.744266 13.0126H10.5808C10.3515 13.5103 10.1832 14.0417 10.0857 14.5971H1.51252H0.744266ZM10.0943 16.9019H1.51252C1.49927 16.9019 1.48853 16.8911 1.48853 16.8779V15.3414C1.48853 15.3281 1.49927 15.3174 1.51252 15.3174H10.0006C9.99224 15.4524 9.98748 15.5884 9.98748 15.7255C9.98748 16.1271 10.0243 16.5202 10.0943 16.9019ZM0.744266 19.2067C0.731014 19.2067 0.720277 19.1958 0.720277 19.1827V17.6461C0.720277 17.6329 0.731014 17.6221 0.744266 17.6221H10.2698C10.4421 18.1865 10.6892 18.7185 10.9995 19.2067H2.28077H0.744266ZM2.28077 21.5115C2.26752 21.5115 2.25679 21.5007 2.25679 21.4875V19.9509C2.25679 19.9377 2.26752 19.9269 2.28077 19.9269H11.5C11.5098 19.9269 11.5194 19.9262 11.529 19.9255C12.0802 20.576 12.7563 21.1173 13.5203 21.5115L2.28077 21.5115ZM16.4937 21.5115C13.3033 21.5115 10.7077 18.9159 10.7077 15.7254C10.7077 12.535 13.3033 9.93941 16.4937 9.93941C19.6842 9.93941 22.2798 12.535 22.2798 15.7254C22.2798 18.9159 19.6842 21.5115 16.4937 21.5115Z" fill="white"/>
<path d="M16.4931 10.7557C13.7528 10.7557 11.5234 12.9852 11.5234 15.7254C11.5234 18.4657 13.7529 20.6952 16.4931 20.6952C19.2334 20.6952 21.4629 18.4657 21.4629 15.7254C21.4629 12.9852 19.2335 10.7557 16.4931 10.7557ZM16.4931 19.975C14.15 19.975 12.2437 18.0687 12.2437 15.7255C12.2437 13.3823 14.15 11.476 16.4931 11.476C18.8363 11.476 20.7426 13.3823 20.7426 15.7255C20.7426 18.0687 18.8363 19.975 16.4931 19.975Z" fill="white"/>
<path d="M16.8545 15.4624V13.8133C17.3493 13.9056 17.6708 14.179 17.6708 14.429C17.6708 14.6279 17.832 14.7892 18.0309 14.7892C18.2298 14.7892 18.391 14.6279 18.391 14.429C18.391 13.7508 17.74 13.2027 16.8545 13.0845V13.0365C16.8545 12.8377 16.6933 12.6764 16.4943 12.6764C16.2955 12.6764 16.1342 12.8376 16.1342 13.0365V13.0845C15.2487 13.2027 14.5977 13.7508 14.5977 14.429C14.5977 15.3883 15.4453 15.7612 16.1342 15.9886V17.6377C15.6394 17.5454 15.3179 17.272 15.3179 17.022C15.3179 16.8231 15.1567 16.6618 14.9578 16.6618C14.7589 16.6618 14.5977 16.823 14.5977 17.022C14.5977 17.7002 15.2487 18.2482 16.1342 18.3665V18.4144C16.1342 18.6133 16.2954 18.7746 16.4943 18.7746C16.6932 18.7746 16.8545 18.6134 16.8545 18.4144V18.3665C17.74 18.2482 18.391 17.7002 18.391 17.022C18.391 16.0626 17.5433 15.6897 16.8545 15.4624ZM16.1342 15.222C15.5197 14.9875 15.3179 14.7755 15.3179 14.429C15.3179 14.1789 15.6394 13.9056 16.1342 13.8133V15.222ZM16.8545 17.6377V16.229C17.469 16.4634 17.6708 16.6755 17.6708 17.022C17.6708 17.272 17.3492 17.5454 16.8545 17.6377Z" fill="white"/>
</g>
<defs>
<clipPath id="clip0_702_388">
<rect width="23" height="23" fill="white"/>
</clipPath>
</defs>
</svg>
