<svg width="37" height="35" viewBox="0 0 37 35" fill="none" xmlns="http://www.w3.org/2000/svg">
<path d="M2 8.92571C2 6.50148 2 5.28937 2.39117 4.36344C2.73524 3.54896 3.28427 2.88677 3.95957 2.47179C4.72727 2 5.73226 2 7.74222 2H13.9771C14.8549 2 15.2938 2 15.7069 2.1196C16.0729 2.22563 16.423 2.40052 16.7442 2.63786C17.1064 2.90554 17.4168 3.27985 18.0375 4.0285L18.2625 4.30007C18.8832 5.04872 19.1936 5.42303 19.5558 5.69071C19.877 5.92805 20.2271 6.10294 20.5931 6.20897C21.0062 6.32857 21.4451 6.32857 22.323 6.32857H28.5578C30.5677 6.32857 31.5728 6.32857 32.3405 6.80036C33.0157 7.21534 33.5648 7.87753 33.9088 8.69201C34.3 9.61794 34.3 10.8301 34.3 13.2543V25.3743C34.3 27.7985 34.3 29.0107 33.9088 29.9366C33.5648 30.751 33.0157 31.4133 32.3405 31.8282C31.5728 32.3 30.5677 32.3 28.5578 32.3H7.74222C5.73225 32.3 4.72727 32.3 3.95957 31.8282C3.28427 31.4133 2.73524 30.751 2.39117 29.9366C2 29.0107 2 27.7985 2 25.3743V8.92571Z" stroke="#303F9F" stroke-width="4" stroke-linecap="round" stroke-linejoin="round"/>
</svg>
