<svg width="27" height="27" viewBox="0 0 27 27" fill="none" xmlns="http://www.w3.org/2000/svg">
<g clip-path="url(#clip0_438_316)">
<path d="M8.71651 10.7065C6.20764 10.7065 4.16663 12.7478 4.16663 15.2567C4.16663 17.7654 6.2077 19.8065 8.71651 19.8065C11.2253 19.8065 13.2663 17.7654 13.2663 15.2567C13.2663 12.7478 11.2252 10.7065 8.71651 10.7065ZM8.71651 18.8412C6.73995 18.8412 5.13193 17.2332 5.13193 15.2568C5.13193 13.2801 6.74001 11.672 8.71651 11.672C10.693 11.672 12.301 13.2801 12.301 15.2568C12.301 17.2332 10.693 18.8412 8.71651 18.8412Z" fill="#303F9F"/>
<path d="M16.2982 13.1659L15.6664 12.9917C15.5948 12.9719 15.4713 12.8571 15.4463 12.7868L15.2669 12.3455L15.2569 12.3227C15.225 12.2548 15.2316 12.0845 15.2687 12.0191L15.5869 11.4584C15.8088 11.0674 15.7364 10.5329 15.4186 10.2154L13.8485 8.6451C13.6602 8.45703 13.3895 8.34913 13.1058 8.34913C12.926 8.34913 12.7531 8.39331 12.6059 8.47691L12.0751 8.7781C12.0537 8.79025 11.9925 8.80834 11.9115 8.80834C11.8414 8.80834 11.7948 8.79467 11.78 8.78747L11.2335 8.55741L11.2106 8.54843C11.14 8.523 11.0245 8.39813 11.0045 8.32556L10.8249 7.67505C10.7054 7.24166 10.2764 6.91492 9.82693 6.91492H7.60624C7.15674 6.91492 6.72777 7.24172 6.60845 7.67485L6.42863 8.32562C6.40863 8.39833 6.2926 8.52393 6.22181 8.54968L5.63377 8.7985L5.60881 8.80993C5.59408 8.81719 5.54766 8.83092 5.47753 8.83092C5.39816 8.83099 5.33826 8.81329 5.31713 8.80134L4.81758 8.51772C4.67025 8.43412 4.49724 8.38988 4.31736 8.38988C4.03341 8.38988 3.76267 8.49791 3.57466 8.68598L2.00422 10.2562C1.68646 10.574 1.61421 11.1083 1.83609 11.4991L2.14883 12.05C2.18614 12.1159 2.19354 12.2867 2.16191 12.3546C2.07454 12.5424 1.83391 12.9026 1.71862 13.0049L1.1348 13.1659C0.701609 13.2855 0.375 13.7145 0.375 14.164V16.3845C0.375 16.8337 0.701609 17.2627 1.1348 17.3824L1.76662 17.5568C1.83847 17.5766 1.96209 17.6914 1.98705 17.7616L2.18152 18.235L2.19136 18.2574C2.22332 18.325 2.21711 18.4942 2.1802 18.559L1.89216 19.0662C1.67054 19.4568 1.74285 19.9911 2.06055 20.3091L3.63086 21.8792C3.81906 22.0674 4.0898 22.1753 4.37362 22.1753C4.55344 22.1753 4.72638 22.1311 4.8739 22.0475L5.35999 21.7716C5.38158 21.7593 5.44319 21.7412 5.52455 21.7412C5.59468 21.7412 5.64136 21.7548 5.65629 21.762L6.21032 21.9946L6.2339 22.0037C6.30422 22.029 6.41946 22.1532 6.4394 22.2255L6.60845 22.838C6.72784 23.2713 7.15687 23.5982 7.6063 23.5982H9.827C10.2764 23.5982 10.7055 23.2714 10.825 22.838L10.9939 22.2253C11.0137 22.1535 11.1285 22.03 11.1985 22.0051L11.7093 21.7945L11.7328 21.7841C11.7476 21.777 11.7942 21.7636 11.8642 21.7636C11.9473 21.7636 12.0104 21.7822 12.0324 21.7947L12.549 22.0881C12.6964 22.1718 12.8694 22.216 13.0493 22.216C13.3333 22.216 13.604 22.1079 13.7921 21.9198L15.3623 20.3497C15.6802 20.0319 15.7525 19.4976 15.5306 19.1066L15.2373 18.5902C15.2006 18.5255 15.1946 18.3574 15.2266 18.2903L15.4371 17.7846L15.4459 17.7616C15.471 17.6914 15.5947 17.5764 15.6667 17.5566L16.2986 17.3823C16.7318 17.2626 17.0584 16.8336 17.0584 16.3843V14.1641C17.0582 13.7145 16.7316 13.2855 16.2982 13.1659ZM16.0416 16.4519L15.4098 16.6262C15.039 16.7285 14.6762 17.0627 14.5414 17.4243L14.3489 17.8881C14.1879 18.239 14.2077 18.7319 14.3977 19.0669L14.6897 19.5808C14.6979 19.6012 14.6911 19.6518 14.6797 19.6673L13.1115 21.2355C13.1052 21.2404 13.0807 21.2509 13.0492 21.2509C13.0347 21.2509 13.025 21.2479 13.0256 21.249L12.5089 20.9556C12.3305 20.8543 12.1015 20.7985 11.864 20.7985C11.7272 20.7985 11.5248 20.8175 11.3304 20.9068L10.8616 21.1006C10.4998 21.2351 10.1654 21.598 10.0631 21.969L9.89508 22.5788C9.8865 22.5989 9.84687 22.6294 9.82469 22.6329L7.60901 22.633C7.58715 22.6301 7.54654 22.5992 7.53875 22.5815L7.3697 21.969C7.26761 21.5986 6.934 21.2356 6.57305 21.1002L6.06293 20.8868C5.86681 20.7954 5.66256 20.7759 5.52442 20.7759C5.28854 20.7759 5.06085 20.8315 4.88341 20.9322L4.40004 21.2066C4.39766 21.2076 4.38828 21.2101 4.37349 21.2101C4.34193 21.2101 4.31736 21.1994 4.3132 21.1966L2.74507 19.6288C2.73159 19.6112 2.72466 19.5604 2.73146 19.5427L3.01937 19.0359C3.20909 18.7018 3.2297 18.2091 3.06996 17.8579L2.8916 17.425C2.75708 17.0631 2.39402 16.7285 2.02304 16.6262L1.39432 16.4528C1.37391 16.4441 1.34294 16.4034 1.34004 16.3845L1.3399 14.167C1.34288 14.145 1.37385 14.1043 1.39121 14.0965L2.02271 13.9224C2.55198 13.7766 3.03219 12.7719 3.03681 12.762C3.20011 12.4111 3.17971 11.9116 2.98814 11.5738L2.67659 11.0252C2.6684 11.0046 2.6752 10.9542 2.68649 10.9388L4.25476 9.37056C4.2611 9.36574 4.2856 9.35524 4.31703 9.35524C4.33169 9.35524 4.341 9.35795 4.34074 9.35722L4.84009 9.64065C5.01667 9.74102 5.24297 9.79629 5.47727 9.79629C5.617 9.79629 5.82336 9.77628 6.02113 9.68258L6.56513 9.45185C6.92469 9.31509 7.25711 8.95177 7.35894 8.58243L7.53783 7.93443C7.54648 7.91409 7.58709 7.88319 7.60597 7.88035L9.8237 7.88022C9.84569 7.88319 9.8863 7.91416 9.89409 7.93179L10.0736 8.58224C10.1757 8.9523 10.5089 9.31556 10.8692 9.45152L11.3718 9.66237C11.5682 9.75416 11.7728 9.77371 11.9113 9.77371C12.1469 9.77371 12.3743 9.71824 12.5514 9.61767L13.0794 9.318C13.0817 9.31701 13.091 9.31463 13.1055 9.31463C13.1372 9.31463 13.1618 9.32526 13.1659 9.32797L14.7338 10.8959C14.7472 10.9135 14.754 10.9641 14.7471 10.982L14.4289 11.5429C14.2395 11.8767 14.2183 12.369 14.3767 12.7198L14.541 13.1227C14.6754 13.4851 15.0386 13.8202 15.4097 13.9224L16.0385 14.0956C16.0589 14.1044 16.0898 14.145 16.0927 14.1641L16.0928 16.3816C16.09 16.4035 16.0591 16.4442 16.0416 16.4519Z" fill="#303F9F"/>
<path d="M26.3516 7.82447L25.9176 7.69551C25.7643 7.65007 25.5976 7.48868 25.5471 7.33707L25.4339 7.04394C25.369 6.89793 25.3826 6.66589 25.4642 6.52853L25.6916 6.14513C25.7732 6.00778 25.7494 5.80096 25.6388 5.68566L24.5755 4.57984C24.4646 4.46454 24.2589 4.43245 24.1184 4.50879L23.748 4.7094C23.6073 4.7856 23.3758 4.78851 23.2334 4.71581L22.8756 4.55739C22.7262 4.5002 22.5719 4.32653 22.5323 4.17154L22.4171 3.7196C22.3776 3.56475 22.2146 3.43539 22.0547 3.43222L20.5206 3.40204C20.3608 3.39887 20.1927 3.52183 20.1472 3.67496L20.0143 4.12202C19.9687 4.27529 19.8077 4.44301 19.6564 4.49479L19.2632 4.65254C19.1186 4.72036 18.8874 4.70907 18.75 4.62745L18.4089 4.42472C18.2713 4.34304 18.0645 4.36688 17.9493 4.47788L16.8431 5.54105C16.7281 5.65172 16.6961 5.85755 16.7722 5.99807L16.9809 6.38313C17.057 6.52378 17.0621 6.75589 16.992 6.89906C16.9219 7.04215 16.648 7.47092 16.493 7.51028L16.0543 7.62208C15.8995 7.66163 15.77 7.8248 15.7669 7.98461L15.7368 9.51847C15.7336 9.67841 15.8565 9.84633 16.0097 9.8919L16.4438 10.0209C16.5971 10.0664 16.764 10.2278 16.8146 10.3795L16.9369 10.6938C17.0024 10.8398 16.9894 11.0715 16.9076 11.209L16.7021 11.5551C16.6203 11.6927 16.6443 11.8994 16.7551 12.0147L17.8185 13.1206C17.9293 13.2359 18.135 13.2679 18.2757 13.1917L18.6152 13.0078C18.7557 12.9316 18.9875 12.9288 19.13 13.0012L19.4932 13.1615C19.6425 13.2185 19.7973 13.3918 19.8366 13.5469L19.945 13.9723C19.9845 14.1274 20.1476 14.2568 20.3074 14.2599L21.8415 14.2899C22.0014 14.2931 22.1693 14.1703 22.2149 14.017L22.3399 13.5961C22.3853 13.4427 22.5467 13.2758 22.6985 13.2252L23.0383 13.0923C23.1841 13.0265 23.416 13.0393 23.5533 13.1211L23.906 13.3305C24.0435 13.4123 24.2504 13.3884 24.3655 13.2775L25.4716 12.2143C25.5868 12.1033 25.6188 11.8977 25.5426 11.7573L25.347 11.3962C25.2709 11.2557 25.2671 11.0235 25.3388 10.8806L25.4836 10.5498C25.5404 10.4002 25.7135 10.2455 25.8685 10.206L26.3073 10.0942C26.462 10.0547 26.5916 9.89177 26.5947 9.73183L26.6249 8.1979C26.6277 8.03823 26.5047 7.87004 26.3516 7.82447ZM21.1255 11.6556C19.574 11.6251 18.3408 10.3424 18.3713 8.7909C18.4018 7.23907 19.6845 6.0058 21.236 6.03624C22.7876 6.06682 24.0208 7.34961 23.9903 8.90131C23.9598 10.4529 22.6772 11.6861 21.1255 11.6556Z" fill="#303F9F"/>
</g>
<defs>
<clipPath id="clip0_438_316">
<rect width="26.25" height="26.25" fill="white" transform="translate(0.375 0.375)"/>
</clipPath>
</defs>
</svg>
