<svg width="23" height="24" viewBox="0 0 23 24" fill="none" xmlns="http://www.w3.org/2000/svg">
<g clip-path="url(#clip0_705_650)">
<path d="M6.27095 11.1271C7.00203 11.1271 7.59469 10.5344 7.59469 9.80337C7.59469 9.07229 7.00203 8.47963 6.27095 8.47963H4.80438C5.32374 7.49792 6.05913 6.62794 6.9511 5.95583C8.26921 4.96258 9.84121 4.4376 11.4971 4.4376C12.3698 4.4376 13.2246 4.58462 14.0378 4.87458C14.8237 5.15483 15.5546 5.56224 16.2102 6.08546C17.5224 7.13275 18.4599 8.60225 18.85 10.2233C18.9959 10.83 19.5381 11.2377 20.1359 11.2376C20.2383 11.2376 20.3426 11.2256 20.4466 11.2006C21.1574 11.0296 21.595 10.3147 21.424 9.60392C21.1577 8.49773 20.7103 7.45014 20.094 6.49019C19.4889 5.5479 18.7379 4.71553 17.8617 4.01622C16.9767 3.30993 15.9893 2.75973 14.9269 2.38089C13.8276 1.98889 12.6736 1.7901 11.4971 1.7901C10.3703 1.7901 9.26265 1.97275 8.20472 2.33293C7.18184 2.68121 6.22398 3.18875 5.35785 3.84141C4.50191 4.48639 3.7555 5.25781 3.1394 6.13427C2.96335 6.3847 2.79956 6.64226 2.64745 6.90595V4.7887C2.64745 4.05762 2.05479 3.46497 1.32371 3.46497C0.59263 3.46497 0 4.05765 0 4.78873V9.80339C0 10.5345 0.592655 11.1271 1.32374 11.1271L6.27095 11.1271Z" fill="white"/>
<path d="M21.6764 12.873H16.7291C15.9981 12.873 15.4054 13.4656 15.4054 14.1967C15.4054 14.9278 15.9981 15.5204 16.7291 15.5204H18.1922C17.6011 16.6434 16.7372 17.6004 15.6706 18.3078C14.4338 19.128 12.9918 19.5619 11.5003 19.5625C10.6285 19.5622 9.77461 19.4152 8.96232 19.1255C8.17635 18.8453 7.44544 18.4379 6.78985 17.9146C5.47761 16.8673 4.54013 15.3978 4.1501 13.7768C3.97909 13.0661 3.26428 12.6285 2.55342 12.7995C1.84264 12.9705 1.40507 13.6854 1.5761 14.3961C1.84226 15.5023 2.28973 16.55 2.90609 17.5098C3.5111 18.4522 4.26215 19.2845 5.13839 19.9838C6.02335 20.6902 7.01073 21.2403 8.07312 21.6192C9.16935 22.01 10.3199 22.2087 11.493 22.2098C11.4944 22.2098 11.4957 22.2099 11.4972 22.2099C11.4982 22.2099 11.4993 22.2099 11.5003 22.2099C11.5012 22.2099 11.5021 22.2099 11.503 22.2099C11.5041 22.2099 11.5052 22.2099 11.5063 22.2099C13.5178 22.2081 15.4637 21.6219 17.1339 20.5141C18.4661 19.6306 19.5641 18.4577 20.3526 17.0851V19.2114C20.3526 19.9424 20.9453 20.5351 21.6764 20.5351C22.4074 20.5351 23.0001 19.9424 23.0001 19.2114V14.1967C23.0001 13.4656 22.4075 12.873 21.6764 12.873Z" fill="white"/>
</g>
<defs>
<clipPath id="clip0_705_650">
<rect width="23" height="23" fill="white" transform="translate(0 0.5)"/>
</clipPath>
</defs>
</svg>
