<svg width="38" height="38" viewBox="0 0 38 38" fill="none" xmlns="http://www.w3.org/2000/svg">
<g clip-path="url(#clip0_379_66)">
<path d="M28.375 2.59375C32.2703 2.59375 35.4062 5.72969 35.4062 9.625V23.6875C35.4062 27.5828 32.2703 30.7188 28.375 30.7188H9.625C5.72969 30.7188 2.59375 27.5828 2.59375 23.6875V9.625C2.59375 5.72969 5.72969 2.59375 9.625 2.59375H28.375ZM28.375 7.28125H9.625C8.32656 7.28125 7.28125 8.32656 7.28125 9.625V23.6875C7.28125 24.9859 8.32656 26.0312 9.625 26.0312H28.375C29.6734 26.0312 30.7188 24.9859 30.7188 23.6875V9.625C30.7188 8.32656 29.6734 7.28125 28.375 7.28125ZM19 33.0625C7.28125 33.0625 7.28125 35.4062 7.28125 35.4062C7.28125 37.75 9.625 37.75 9.625 37.75H28.375C30.7188 37.75 30.7188 35.4062 30.7188 35.4062C30.7188 35.4062 30.7188 33.0625 19 33.0625Z" fill="#303F9F"/>
<path d="M10.7969 11.9688C10.7969 11.9688 9.625 11.9688 9.625 13.1406V22.5156C9.625 23.6875 10.7969 23.6875 10.7969 23.6875H20.1719C21.3438 23.6875 21.3438 22.5156 21.3438 22.5156V13.1406C21.3438 11.9688 20.3195 11.9688 20.1719 11.9688H10.7969ZM11.9688 16.6516H19V21.3391H11.9688V16.6516ZM24.8594 9.625C24.8594 9.625 23.6875 9.625 23.6875 10.7969V13.1031C23.6875 13.1031 23.6875 14.275 24.8594 14.275L27.2031 14.2773C27.2031 14.2773 28.375 14.2773 28.375 13.1055V10.7992C28.375 10.7992 28.375 9.62734 27.2031 9.62734L24.8594 9.625Z" fill="#303F9F"/>
</g>
<defs>
<clipPath id="clip0_379_66">
<rect width="37.5" height="37.5" fill="white" transform="translate(0.25 0.25)"/>
</clipPath>
</defs>
</svg>
