<svg width="30" height="30" viewBox="0 0 30 30" fill="none" xmlns="http://www.w3.org/2000/svg">
<g clip-path="url(#clip0_551_66)">
<path d="M14.9841 0C6.7062 0.009 0 6.7218 0 15C0.003 23.202 6.5937 29.8809 14.7948 29.9931C13.8963 27.7137 14.3814 24.9192 15.75 22.8657V22.239H16.2048C16.6746 21.6795 17.3346 21.1872 18.12 20.739H15.75V15.75H17.112C17.142 15.2454 17.2386 14.7399 17.3925 14.25H15.75V9.261H21.5085C21.5865 9.5598 21.657 9.867 21.723 10.1778C22.2801 10.0878 22.7838 10.0839 23.2482 10.1427C23.1901 9.84747 23.1262 9.55341 23.0565 9.2607H27.2235C27.8775 10.6535 28.2873 12.1484 28.4349 13.68C28.5633 15.1623 28.5615 16.4964 28.1031 18.252C27.9165 19.0029 27.6656 19.7363 27.3531 20.4441C27.6915 20.7999 28.1013 21.1365 28.5132 21.48C29.4873 19.4584 29.9953 17.244 30 15C30 6.7158 23.2842 0 15 0H14.9841ZM15.75 1.7046C17.3304 1.9734 18.8406 3.2754 20.0304 5.4357C20.4138 6.132 20.7564 6.9138 21.0528 7.7607H15.75V1.7046ZM14.25 1.7637V7.7607H9.225C9.5214 6.9138 9.864 6.132 10.2474 5.4357C11.367 3.4023 12.7713 2.1303 14.25 1.7637ZM10.794 2.1696C10.0968 2.8752 9.471 3.7356 8.9331 4.7121C8.4291 5.6271 7.9956 6.6522 7.6395 7.7607H3.603C5.2635 5.1489 7.7955 3.1497 10.794 2.1696ZM19.617 2.3085C22.4364 3.3324 24.813 5.2689 26.397 7.7607H22.6365C22.2813 6.6522 21.8484 5.6271 21.3444 4.7121C20.8416 3.7986 20.2602 2.9874 19.617 2.3085ZM2.7771 9.261H7.2195C6.846 10.8096 6.6171 12.489 6.5586 14.2503H1.5216C1.61478 12.522 2.04099 10.8279 2.7768 9.2613L2.7771 9.261ZM8.7693 9.261H14.25V14.25H8.0601C8.1237 12.4695 8.373 10.7838 8.769 9.261H8.7693ZM1.5216 15.75H6.5502C6.5889 17.5068 6.7962 19.1862 7.1484 20.739H2.7768C2.04099 19.1724 1.61478 17.4783 1.5216 15.75ZM8.0502 15.75H14.25V20.739H8.694C8.3205 19.209 8.0922 17.5245 8.0502 15.75ZM3.603 22.239H7.5438C7.9164 23.4645 8.3838 24.591 8.9331 25.5885C9.3645 26.3715 9.8535 27.0792 10.3893 27.6936C7.5672 26.6706 5.1885 24.7326 3.603 22.239ZM9.1212 22.239H14.25V28.4784C14.1576 28.4733 14.0664 28.464 13.9746 28.4574C12.5976 28.0074 11.2974 26.7714 10.2474 24.8649C9.819 24.0867 9.4398 23.2035 9.1212 22.239Z" fill="black"/>
<path d="M22.7996 11.3307C20.3141 11.3307 18.2996 13.3455 18.2996 15.8307C18.2996 18.3159 20.3141 20.3307 22.7996 20.3307C25.2845 20.3307 27.2996 18.3159 27.2996 15.8307C27.2996 13.3455 25.2845 11.3307 22.7996 11.3307ZM22.7996 20.9976C17.8286 20.9976 15.5996 23.2269 15.5996 28.1976V28.7976C15.6221 29.9796 16.1447 30.0144 17.2496 29.9976H28.3496C29.7581 29.9964 30.0092 29.9991 29.9996 28.7976V28.1976C29.9996 23.2269 27.77 20.9976 22.7996 20.9976Z" fill="black"/>
</g>
<defs>
<clipPath id="clip0_551_66">
<rect width="30" height="30" fill="white"/>
</clipPath>
</defs>
</svg>
