<svg width="30" height="30" viewBox="0 0 30 30" fill="none" xmlns="http://www.w3.org/2000/svg">
<path d="M21.2418 10.3013H26.0906C26.7403 11.746 27.1284 13.3285 27.195 15.0001H21.6318C21.6084 13.2338 21.4622 11.6776 21.2418 10.3013ZM19.1231 3.6526C21.9047 4.73353 24.1875 6.77916 25.6181 9.36197H21.0843C20.5697 6.73229 19.7878 4.86291 19.1231 3.6526ZM15.0637 9.36197V2.80322C16.0631 2.84729 17.0343 3.00572 17.9625 3.26541C18.6656 4.44947 19.574 6.42666 20.1468 9.36197H15.0637ZM8.89591 20.6382C8.67653 19.261 8.52466 17.7142 8.50122 15.9395H14.1243V20.6382H8.89591ZM8.88653 10.3013H14.1243V15.0001H8.4956C8.51903 13.232 8.66716 11.6785 8.88653 10.3013ZM11.2387 3.24479C12.164 2.99541 13.1278 2.83697 14.1243 2.8051V9.36197H9.04122C9.61778 6.41072 10.5328 4.42604 11.2387 3.24479ZM3.43216 9.36197C4.88622 6.73697 7.24028 4.68104 10.0847 3.61416C9.41435 4.82353 8.6231 6.70322 8.10278 9.36197H3.43216ZM7.55622 15.0001H1.87497C1.93685 13.3304 2.31278 11.7432 2.9606 10.3013H7.94435C7.72591 11.6785 7.57872 13.2338 7.55622 15.0001ZM7.95653 20.6382H2.99716C2.34653 19.1917 1.92935 17.6157 1.86841 15.9395H7.55997C7.58247 17.7142 7.73622 19.2592 7.95653 20.6382ZM8.11028 21.5776C8.63435 24.2626 9.43778 26.1404 10.1109 27.3357C7.25622 26.2735 4.90122 24.2092 3.44528 21.5776H8.11028ZM14.1243 21.5776V28.1345C13.1381 28.1035 12.1865 27.9479 11.2697 27.7032C10.5618 26.5445 9.64216 24.5504 9.06091 21.5776H14.1243ZM20.129 21.5776C19.5506 24.5326 18.6365 26.5192 17.9315 27.6826C17.0137 27.9367 16.0509 28.0745 15.0637 28.1185V21.5776H20.129ZM15.0637 15.9395H20.6868C20.6653 17.7142 20.5106 19.2601 20.2912 20.6382H15.0637V15.9395ZM20.6925 15.0001H15.0637V10.3013H20.3006C20.5209 11.6785 20.669 13.232 20.6925 15.0001ZM21.6281 15.9395H27.1837C27.1218 17.6148 26.7093 19.1907 26.0615 20.6382H21.2315C21.4509 19.2592 21.6047 17.7142 21.6281 15.9395ZM25.6106 21.5776C24.1847 24.1707 21.8915 26.2173 19.0978 27.2963C19.7681 26.1001 20.5612 24.2345 21.0787 21.5776H25.6106Z" fill="#303F9F"/>
</svg>
