<svg width="25" height="25" viewBox="0 0 25 25" fill="none" xmlns="http://www.w3.org/2000/svg">
<path fill-rule="evenodd" clip-rule="evenodd" d="M9.68009 1.34684C9.87545 1.1515 10.1404 1.04175 10.4167 1.04175H18.75C20.4759 1.04175 21.875 2.44086 21.875 4.16675V20.8334C21.875 22.5594 20.4759 23.9584 18.75 23.9584H6.25C4.52411 23.9584 3.125 22.5594 3.125 20.8334V8.33341C3.125 8.05714 3.23475 7.7922 3.43009 7.59684L9.68009 1.34684ZM18.75 3.12508H11.4583V8.33341C11.4583 8.90871 10.992 9.37508 10.4167 9.37508H5.20833V20.8334C5.20833 21.4087 5.67471 21.8751 6.25 21.8751H18.75C19.3253 21.8751 19.7917 21.4087 19.7917 20.8334V4.16675C19.7917 3.59146 19.3253 3.12508 18.75 3.12508ZM6.68147 7.29175H9.375V4.59822L6.68147 7.29175ZM7.29167 13.5417C7.29167 12.9664 7.75804 12.5001 8.33333 12.5001H16.6667C17.242 12.5001 17.7083 12.9664 17.7083 13.5417C17.7083 14.1171 17.242 14.5834 16.6667 14.5834H8.33333C7.75804 14.5834 7.29167 14.1171 7.29167 13.5417ZM7.29167 17.7084C7.29167 17.1331 7.75804 16.6667 8.33333 16.6667H16.6667C17.242 16.6667 17.7083 17.1331 17.7083 17.7084C17.7083 18.2837 17.242 18.7501 16.6667 18.7501H8.33333C7.75804 18.7501 7.29167 18.2837 7.29167 17.7084Z" fill="white"/>
</svg>
