<svg width="34" height="34" viewBox="0 0 34 34" fill="none" xmlns="http://www.w3.org/2000/svg">
<g clip-path="url(#clip0_642_795)">
<path d="M30.0387 25.1849C28.9126 20.117 26.1977 15.541 22.2895 12.1237C22.8641 11.8096 23.3254 11.3229 23.6084 10.7324C23.8914 10.1419 23.9818 9.47736 23.8666 8.83273C23.7515 8.18809 23.4368 7.59591 22.9669 7.13983C22.497 6.68375 21.8957 6.38682 21.2479 6.29098L22.9144 1.3748C22.9661 1.21817 22.9798 1.05151 22.9545 0.888535C22.9291 0.725564 22.8654 0.570943 22.7686 0.437398C22.6678 0.29541 22.533 0.180972 22.3765 0.10455C22.22 0.0281277 22.0469 -0.00783844 21.8729 -5.86336e-05H11.4573C11.292 0.000705478 11.1293 0.0407754 10.9826 0.116841C10.8359 0.192906 10.7094 0.302784 10.6136 0.437398C10.5168 0.570943 10.4531 0.725564 10.4278 0.888535C10.4024 1.05151 10.4161 1.21817 10.4678 1.3748L12.1134 6.24932C11.4657 6.34516 10.8644 6.64209 10.3945 7.09817C9.92459 7.55425 9.60986 8.14643 9.49475 8.79106C9.37963 9.4357 9.46995 10.1002 9.75295 10.6907C10.0359 11.2813 10.4973 11.7679 11.0719 12.0821C7.1369 15.5097 4.40599 20.1099 3.28099 25.2058C3.17757 25.6814 3.12519 26.1668 3.12476 26.6535C3.12476 28.4242 3.82816 30.1224 5.08023 31.3745C6.3323 32.6265 8.03048 33.3299 9.80117 33.3299H23.529C25.2997 33.3299 26.9978 32.6265 28.2499 31.3745C29.502 30.1224 30.2054 28.4242 30.2054 26.6535C30.2054 26.1593 30.1495 25.6666 30.0387 25.1849ZM20.4251 2.08307L19.0398 6.24932H14.2903L12.905 2.08307H20.4251ZM12.4988 8.33244H20.8313C21.1076 8.33244 21.3725 8.44218 21.5678 8.63751C21.7631 8.83284 21.8729 9.09776 21.8729 9.374C21.8729 9.65024 21.7631 9.91517 21.5678 10.1105C21.3725 10.3058 21.1076 10.4156 20.8313 10.4156H12.4988C12.2226 10.4156 11.9577 10.3058 11.7623 10.1105C11.567 9.91517 11.4573 9.65024 11.4573 9.374C11.4573 9.09776 11.567 8.83284 11.7623 8.63751C11.9577 8.44218 12.2226 8.33244 12.4988 8.33244ZM23.529 31.2468H9.80117C8.5838 31.2441 7.41708 30.7593 6.55626 29.8984C5.69545 29.0376 5.21063 27.8709 5.20788 26.6535C5.20964 26.3033 5.24804 25.9542 5.32245 25.612C6.498 20.3526 9.53499 15.6954 13.8737 12.4987H19.4565C23.8067 15.7091 26.8479 20.3856 28.0181 25.664C28.0843 25.9898 28.1192 26.3211 28.1223 26.6535C28.1195 27.8709 27.6347 29.0376 26.7739 29.8984C25.9131 30.7593 24.7463 31.2441 23.529 31.2468Z" fill="#303F9F"/>
<path d="M16.665 18.7481H18.7481C19.0243 18.7481 19.2893 18.6384 19.4846 18.443C19.6799 18.2477 19.7897 17.9828 19.7897 17.7065C19.7897 17.4303 19.6799 17.1654 19.4846 16.97C19.2893 16.7747 19.0243 16.665 18.7481 16.665H17.7065C17.7065 16.3887 17.5968 16.1238 17.4015 15.9285C17.2061 15.7331 16.9412 15.6234 16.665 15.6234C16.3887 15.6234 16.1238 15.7331 15.9285 15.9285C15.7331 16.1238 15.6234 16.3887 15.6234 16.665V16.8525C14.9345 17.1024 14.3555 17.5865 13.9874 18.2202C13.6192 18.8538 13.4856 19.5967 13.6097 20.3189C13.7337 21.0411 14.1077 21.6967 14.6662 22.1712C15.2247 22.6456 15.9322 22.9087 16.665 22.9144C16.9412 22.9144 17.2061 23.0241 17.4015 23.2194C17.5968 23.4147 17.7065 23.6797 17.7065 23.9559C17.7065 24.2322 17.5968 24.4971 17.4015 24.6924C17.2061 24.8877 16.9412 24.9975 16.665 24.9975H14.5818C14.3056 24.9975 14.0407 25.1072 13.8453 25.3025C13.65 25.4979 13.5403 25.7628 13.5403 26.039C13.5403 26.3153 13.65 26.5802 13.8453 26.7755C14.0407 26.9709 14.3056 27.0806 14.5818 27.0806H15.6234C15.6234 27.3568 15.7331 27.6218 15.9285 27.8171C16.1238 28.0124 16.3887 28.1222 16.665 28.1222C16.9412 28.1222 17.2061 28.0124 17.4015 27.8171C17.5968 27.6218 17.7065 27.3568 17.7065 27.0806V26.8931C18.3954 26.6432 18.9745 26.1591 19.3426 25.5254C19.7107 24.8918 19.8444 24.1489 19.7203 23.4267C19.5962 22.7045 19.2222 22.0488 18.6637 21.5744C18.1052 21.1 17.3978 20.8369 16.665 20.8312C16.3887 20.8312 16.1238 20.7215 15.9285 20.5262C15.7331 20.3308 15.6234 20.0659 15.6234 19.7897C15.6234 19.5134 15.7331 19.2485 15.9285 19.0532C16.1238 18.8578 16.3887 18.7481 16.665 18.7481Z" fill="#303F9F"/>
</g>
<defs>
<clipPath id="clip0_642_795">
<rect width="33.33" height="33.33" fill="white"/>
</clipPath>
</defs>
</svg>
