<svg width="34" height="35" viewBox="0 0 34 35" fill="none" xmlns="http://www.w3.org/2000/svg">
<path d="M5.33337 34.1666H28.6667C29.9928 34.1666 31.2646 33.6399 32.2022 32.7022C33.1399 31.7645 33.6667 30.4927 33.6667 29.1666V5.83331C33.6667 4.50723 33.1399 3.23546 32.2022 2.29778C31.2646 1.3601 29.9928 0.833313 28.6667 0.833313H5.33337C4.00729 0.833313 2.73552 1.3601 1.79784 2.29778C0.860158 3.23546 0.333374 4.50723 0.333374 5.83331V29.1666C0.333374 30.4927 0.860158 31.7645 1.79784 32.7022C2.73552 33.6399 4.00729 34.1666 5.33337 34.1666ZM28.6667 30.8333H5.33337C4.89135 30.8333 4.46742 30.6577 4.15486 30.3452C3.8423 30.0326 3.66671 29.6087 3.66671 29.1666V19.1666H10.3334C10.6662 19.1666 10.9914 19.0668 11.2671 18.8803C11.5427 18.6937 11.7562 18.4289 11.88 18.12L13.6667 13.6533L18.785 26.4533C18.9085 26.7631 19.122 27.0288 19.398 27.216C19.674 27.4031 19.9999 27.5032 20.3334 27.5032C20.6669 27.5032 20.9927 27.4031 21.2687 27.216C21.5448 27.0288 21.7583 26.7631 21.8817 26.4533L24.795 19.1666H30.3334V29.1666C30.3334 29.6087 30.1578 30.0326 29.8452 30.3452C29.5327 30.6577 29.1087 30.8333 28.6667 30.8333ZM5.33337 4.16665H28.6667C29.1087 4.16665 29.5327 4.34224 29.8452 4.6548C30.1578 4.96736 30.3334 5.39129 30.3334 5.83331V15.8333H23.6667C23.3334 15.8332 23.0077 15.933 22.7317 16.1199C22.4557 16.3068 22.242 16.5721 22.1184 16.8816L20.3334 21.345L15.215 8.54665C15.0913 8.23735 14.8778 7.97221 14.602 7.78545C14.3261 7.59869 14.0007 7.49887 13.6675 7.49887C13.3344 7.49887 13.009 7.59869 12.7331 7.78545C12.4573 7.97221 12.2437 8.23735 12.12 8.54665L9.20504 15.8333H3.66671V5.83331C3.66671 5.39129 3.8423 4.96736 4.15486 4.6548C4.46742 4.34224 4.89135 4.16665 5.33337 4.16665Z" fill="#303F9F"/>
</svg>
