<svg width="27" height="27" viewBox="0 0 27 27" fill="none" xmlns="http://www.w3.org/2000/svg">
<path d="M3.65625 11.7683C3.65625 8.27086 3.65625 6.52218 4.06916 5.93389C4.48206 5.34559 6.12629 4.78277 9.41475 3.65711L10.0413 3.44266C11.7555 2.85589 12.6125 2.5625 13.5 2.5625C14.3875 2.5625 15.2445 2.85589 16.9588 3.44266L17.5853 3.65711C20.8737 4.78277 22.518 5.34559 22.9309 5.93389C23.3437 6.52218 23.3438 8.27086 23.3438 11.7683C23.3438 12.2964 23.3438 12.8693 23.3438 13.4906C23.3438 19.6572 18.7073 22.6498 15.7984 23.9205C15.0094 24.2651 14.6149 24.4375 13.5 24.4375C12.3851 24.4375 11.9906 24.2651 11.2015 23.9205C8.29261 22.6498 3.65625 19.6572 3.65625 13.4906C3.65625 12.8693 3.65625 12.2964 3.65625 11.7683Z" stroke="#303F9F" stroke-width="1.5"/>
<path d="M18.9687 13.5C18.9687 14.2182 18.8273 14.9293 18.5525 15.5928C18.2776 16.2562 17.8748 16.8591 17.367 17.367C16.8591 17.8748 16.2562 18.2776 15.5928 18.5525C14.9293 18.8273 14.2182 18.9687 13.5 18.9687C12.7818 18.9687 12.0707 18.8273 11.4072 18.5525C10.7437 18.2776 10.1408 17.8748 9.63301 17.367C9.12519 16.8591 8.72237 16.2562 8.44753 15.5928C8.1727 14.9293 8.03125 14.2182 8.03125 13.5C8.03125 12.7818 8.1727 12.0707 8.44753 11.4072C8.72237 10.7437 9.12519 10.1408 9.63301 9.63301C10.1408 9.12519 10.7437 8.72237 11.4072 8.44753C12.0707 8.1727 12.7818 8.03125 13.5 8.03125C14.2182 8.03125 14.9293 8.1727 15.5928 8.44753C16.2562 8.72237 16.8591 9.12519 17.367 9.63301C17.8748 10.1408 18.2776 10.7437 18.5525 11.4072C18.8273 12.0707 18.9687 12.7818 18.9687 13.5Z" stroke="#303F9F" stroke-width="1.5"/>
<path d="M15.521 15.5928C15.631 14.9293 15.6875 14.2182 15.6875 13.5C15.6875 12.7818 15.631 12.0707 15.521 11.4072C15.411 10.7437 15.2499 10.1408 15.0468 9.63301C14.8437 9.12519 14.6025 8.72237 14.3372 8.44753C14.0717 8.1727 13.7872 8.03125 13.5 8.03125C13.2128 8.03125 12.9283 8.1727 12.6628 8.44753C12.3975 8.72237 12.1563 9.12519 11.9532 9.63301C11.7501 10.1408 11.589 10.7437 11.479 11.4072C11.369 12.0707 11.3125 12.7818 11.3125 13.5C11.3125 14.2182 11.369 14.9293 11.479 15.5928C11.5889 16.2562 11.7501 16.8591 11.9532 17.367C12.1563 17.8748 12.3975 18.2776 12.6628 18.5525C12.9283 18.8273 13.2128 18.9687 13.5 18.9687C13.7872 18.9687 14.0717 18.8273 14.3372 18.5525C14.6025 18.2776 14.8437 17.8748 15.0468 17.367C15.2499 16.8591 15.411 16.2562 15.521 15.5928Z" stroke="#303F9F" stroke-width="1.5"/>
<path d="M8.03125 13.5H18.9687" stroke="#303F9F" stroke-width="1.5" stroke-linecap="round"/>
</svg>
