<svg width="21" height="25" viewBox="0 0 21 25" fill="none" xmlns="http://www.w3.org/2000/svg">
<path d="M20.2454 11.5373C20.2454 16.8858 16.3626 21.8952 11.0579 23.3608C10.697 23.4592 10.3032 23.4592 9.94229 23.3608C4.63756 21.8952 0.754761 16.8858 0.754761 11.5373V6.73575C0.754761 5.83887 1.4329 4.8217 2.27508 4.48263L8.36729 1.98892C9.73448 1.4311 11.2767 1.4311 12.6439 1.98892L18.736 4.48263C19.5673 4.8217 20.2564 5.83887 20.2564 6.73575L20.2454 11.5373Z" stroke="#303F9F" stroke-width="1.5" stroke-linecap="round" stroke-linejoin="round"/>
<path d="M10.5 13.0469C11.7082 13.0469 12.6875 12.0675 12.6875 10.8594C12.6875 9.65125 11.7082 8.67188 10.5 8.67188C9.29184 8.67188 8.3125 9.65125 8.3125 10.8594C8.3125 12.0675 9.29184 13.0469 10.5 13.0469Z" stroke="#303F9F" stroke-width="1.5" stroke-miterlimit="10" stroke-linecap="round" stroke-linejoin="round"/>
<path d="M10.5 13.0469V16.3281" stroke="#303F9F" stroke-width="1.5" stroke-miterlimit="10" stroke-linecap="round" stroke-linejoin="round"/>
</svg>
