<svg width="35" height="35" viewBox="0 0 35 35" fill="none" xmlns="http://www.w3.org/2000/svg">
<path d="M34.0924 6.11382H12.5215V5.2609C12.5215 4.00992 11.5037 2.99219 10.2527 2.99219H6.73224C5.48126 2.99219 4.46352 4.00992 4.46352 5.2609V6.11382H0.907471C0.40626 6.11382 0 6.52022 0 7.02136C0 7.5225 0.40626 7.92883 0.907471 7.92883H4.46339V8.78148C4.46339 10.0325 5.48112 11.0502 6.7321 11.0502H10.2527C11.5037 11.0502 12.5214 10.0325 12.5214 8.78148V7.92883H34.0924C34.5936 7.92883 34.9999 7.52243 34.9999 7.02136C34.9999 6.52022 34.5936 6.11382 34.0924 6.11382ZM10.7065 8.78148C10.7065 9.03167 10.5029 9.23524 10.2527 9.23524H6.73217C6.48197 9.23524 6.2784 9.03167 6.2784 8.78148V5.2609C6.2784 5.0107 6.48197 4.80713 6.73217 4.80713H10.2527C10.5029 4.80713 10.7065 5.0107 10.7065 5.2609V8.78148Z" fill="#303F9F"/>
<path d="M34.0925 16.2213H30.5365V15.3681C30.5365 14.1171 29.5188 13.0994 28.2678 13.0994H24.7473C23.4963 13.0994 22.4785 14.1171 22.4785 15.3681V16.2213H0.907471C0.40626 16.2213 0 16.6276 0 17.1287C0 17.6299 0.40626 18.0362 0.907471 18.0362H22.4785V18.8886C22.4785 20.1396 23.4962 21.1573 24.7472 21.1573H28.2678C29.5187 21.1573 30.5365 20.1396 30.5365 18.8886V18.0362H34.0925C34.5937 18.0362 34.9999 17.6298 34.9999 17.1287C35 16.6276 34.5937 16.2213 34.0925 16.2213ZM28.7215 18.8887C28.7215 19.1388 28.518 19.3424 28.2678 19.3424H24.7472C24.497 19.3424 24.2934 19.1388 24.2934 18.8887V15.3681C24.2934 15.1179 24.497 14.9143 24.7472 14.9143H28.2678C28.518 14.9143 28.7215 15.1179 28.7215 15.3681V18.8887Z" fill="#303F9F"/>
<path d="M34.0925 27.0713H18.8967V26.2187C18.8967 24.9677 17.879 23.95 16.628 23.95H13.1074C11.8565 23.95 10.8387 24.9677 10.8387 26.2187V27.0713H0.907471C0.40626 27.0713 0 27.4777 0 27.9788C0 28.4799 0.40626 28.8863 0.907471 28.8863H10.8387V29.7392C10.8387 30.9901 11.8564 32.0079 13.1074 32.0079H16.6279C17.8789 32.0079 18.8967 30.9901 18.8967 29.7392V28.8863H34.0925C34.5937 28.8863 34.9999 28.4799 34.9999 27.9788C35 27.4776 34.5937 27.0713 34.0925 27.0713ZM17.0817 29.7392C17.0817 29.9894 16.8781 30.193 16.6279 30.193H13.1074C12.8572 30.193 12.6536 29.9894 12.6536 29.7392V26.2187C12.6536 25.9685 12.8572 25.7649 13.1074 25.7649H16.6279C16.8781 25.7649 17.0817 25.9685 17.0817 26.2187V29.7392Z" fill="#303F9F"/>
</svg>
