<svg width="23" height="24" viewBox="0 0 23 24" fill="none" xmlns="http://www.w3.org/2000/svg">
<g opacity="0.4">
<path d="M9.10352 13.6773C9.10352 14.6069 9.82227 15.3544 10.7039 15.3544H12.5056C13.2723 15.3544 13.8952 14.7027 13.8952 13.8881C13.8952 13.016 13.5118 12.6998 12.9464 12.4985L10.0618 11.4923C9.49643 11.291 9.11311 10.9844 9.11311 10.1027C9.11311 9.29772 9.73602 8.63647 10.5027 8.63647H12.3043C13.186 8.63647 13.9048 9.38398 13.9048 10.3135" stroke="white" stroke-width="1.5" stroke-linecap="round" stroke-linejoin="round"/>
<path d="M11.5 7.6875V16.3125" stroke="white" stroke-linecap="round" stroke-linejoin="round"/>
</g>
<path d="M21.0827 12C21.0827 17.29 16.7893 21.5834 11.4993 21.5834C6.20935 21.5834 1.91602 17.29 1.91602 12C1.91602 6.71002 6.20935 2.41669 11.4993 2.41669" stroke="white" stroke-width="1.5" stroke-linecap="round" stroke-linejoin="round"/>
<path d="M16.291 3.375V7.20833H20.1243" stroke="white" stroke-width="1.5" stroke-linecap="round" stroke-linejoin="round"/>
<path d="M21.0827 2.41669L16.291 7.20835" stroke="white" stroke-width="1.5" stroke-linecap="round" stroke-linejoin="round"/>
</svg>
