<svg width="24" height="24" viewBox="0 0 24 24" fill="none" xmlns="http://www.w3.org/2000/svg">
<path d="M17.6389 16.3214H11.875M6.11111 8.91071L9.56944 12.6161L6.11111 16.3214M1.5 17.5074V6.24315C1.5 4.58299 1.5 3.75229 1.75129 3.1182C1.97233 2.56043 2.32478 2.10728 2.7586 1.82309C3.25178 1.5 3.89788 1.5 5.18912 1.5H18.5613C19.8526 1.5 20.4973 1.5 20.9905 1.82309C21.4243 2.10728 21.7779 2.56043 21.9989 3.1182C22.25 3.75167 22.25 4.58136 22.25 6.23828V17.5117C22.25 19.1686 22.25 19.9971 21.9989 20.6306C21.7779 21.1883 21.4243 21.6431 20.9905 21.9272C20.4978 22.25 19.8534 22.25 18.5647 22.25H5.18533C3.89661 22.25 3.2513 22.25 2.7586 21.9272C2.32478 21.6431 1.97233 21.1883 1.75129 20.6306C1.5 19.9965 1.5 19.1676 1.5 17.5074Z" stroke="white" stroke-width="2" stroke-linecap="round" stroke-linejoin="round"/>
</svg>
