<svg width="31" height="31" viewBox="0 0 31 31" fill="none" xmlns="http://www.w3.org/2000/svg">
<path fill-rule="evenodd" clip-rule="evenodd" d="M10.8001 7.0498V10.805C10.1777 10.8139 9.62135 10.8378 9.14033 10.9025C8.32093 11.0127 7.53549 11.2611 6.89841 11.8982C6.26133 12.5352 6.0129 13.3207 5.90274 14.1401C5.79994 14.9047 5.79999 15.8594 5.80005 16.9676V22.1321C5.79999 23.2402 5.79994 24.1949 5.90274 24.9596C6.0129 25.7789 6.26133 26.5644 6.89841 27.2014C7.53549 27.8386 8.32093 28.0869 9.14033 28.1972C9.90489 28.2999 10.8597 28.2999 11.9678 28.2998H19.6324C20.7404 28.2999 21.6952 28.2999 22.4598 28.1972C23.2792 28.0869 24.0647 27.8386 24.7017 27.2014C25.3388 26.5644 25.5872 25.7789 25.6974 24.9596C25.8002 24.1949 25.8002 23.2402 25.8001 22.1321V16.9676C25.8002 15.8594 25.8002 14.9047 25.6974 14.1401C25.5872 13.3207 25.3388 12.5352 24.7017 11.8982C24.0647 11.2611 23.2792 11.0127 22.4598 10.9025C21.9788 10.8378 21.4224 10.8139 20.8001 10.805V7.0498C20.8001 4.97874 19.1212 3.2998 17.0501 3.2998H14.5501C12.479 3.2998 10.8001 4.97874 10.8001 7.0498ZM14.5501 5.7998C13.8597 5.7998 13.3001 6.35945 13.3001 7.0498V10.7998H18.3001V7.0498C18.3001 6.35945 17.7404 5.7998 17.0501 5.7998H14.5501ZM15.8001 17.0498C14.4193 17.0498 13.3001 18.1691 13.3001 19.5498C13.3001 20.9306 14.4193 22.0498 15.8001 22.0498C17.1808 22.0498 18.3001 20.9306 18.3001 19.5498C18.3001 18.1691 17.1808 17.0498 15.8001 17.0498Z" fill="#303F9F"/>
</svg>
