<svg width="23" height="23" viewBox="0 0 23 23" fill="none" xmlns="http://www.w3.org/2000/svg">
<g clip-path="url(#clip0_708_749)">
<path d="M14.807 11.7876L13.5133 13.0813L14.807 14.3751L13.082 16.1001L19.2633 22.2813C20.1258 23.1438 21.4195 23.1438 22.282 22.2813C23.1445 21.4188 23.1445 20.1251 22.282 19.2626L14.807 11.7876ZM20.4133 21.5626C19.8383 21.5626 19.2633 21.1313 19.2633 20.4126C19.2633 19.8376 19.6945 19.2626 20.4133 19.2626C21.132 19.2626 21.5633 19.6938 21.5633 20.4126C21.5633 21.1313 21.132 21.5626 20.4133 21.5626Z" fill="white"/>
<path d="M5.175 11.5L6.46875 10.6375L8.625 8.19375L9.91875 9.4875L11.2125 8.19375L11.0687 8.05C11.3562 7.33125 11.5 6.6125 11.5 5.75C11.5 2.5875 8.9125 0 5.75 0C4.8875 0 4.16875 0.14375 3.45 0.43125L7.61875 4.6L4.6 7.61875L0.43125 3.45C0.14375 4.16875 0 4.8875 0 5.75C0 8.76875 2.3 11.0688 5.175 11.5Z" fill="white"/>
<path d="M11.5004 15.525L12.7941 14.375L11.5004 13.0813L19.6941 4.88755L21.4191 4.31255L23.0004 1.15005L21.9941 0.143799L18.6879 1.5813L17.9691 3.3063L9.91914 11.5L8.62539 10.2063L7.47539 11.5C7.47539 11.5 8.62539 12.3625 7.33164 13.6563C6.61289 14.375 5.46289 13.5125 3.30664 15.6688C2.58789 16.3875 0.287891 18.6875 0.287891 18.6875C0.287891 18.6875 -0.574609 20.125 1.15039 21.85C2.87539 23.575 4.31289 22.7125 4.31289 22.7125C4.31289 22.7125 6.61289 20.4125 7.33164 19.6938C9.34414 17.6813 8.62539 16.3875 9.20039 15.8125C10.4941 14.5188 11.5004 15.525 11.5004 15.525ZM7.04414 14.95L8.05039 15.9563L2.58789 21.4188L1.58164 20.4125L7.04414 14.95Z" fill="white"/>
</g>
<defs>
<clipPath id="clip0_708_749">
<rect width="23" height="23" fill="white"/>
</clipPath>
</defs>
</svg>
