<svg width="20" height="20" viewBox="0 0 20 20" fill="none" xmlns="http://www.w3.org/2000/svg">
<path d="M10.0003 1.66666C5.40866 1.66666 1.66699 5.40832 1.66699 9.99999C1.66699 14.5917 5.40866 18.3333 10.0003 18.3333C14.592 18.3333 18.3337 14.5917 18.3337 9.99999C18.3337 5.40832 14.592 1.66666 10.0003 1.66666ZM13.9837 8.08332L9.25866 12.8083C9.14199 12.925 8.98366 12.9917 8.81699 12.9917C8.65032 12.9917 8.49199 12.925 8.37533 12.8083L6.01699 10.45C5.77533 10.2083 5.77533 9.80832 6.01699 9.56666C6.25866 9.32499 6.65866 9.32499 6.90032 9.56666L8.81699 11.4833L13.1003 7.19999C13.342 6.95832 13.742 6.95832 13.9837 7.19999C14.2253 7.44166 14.2253 7.83332 13.9837 8.08332Z" fill="#C5CAE9"/>
</svg>
