<svg width="41" height="40" viewBox="0 0 41 40" fill="none" xmlns="http://www.w3.org/2000/svg">
<g clip-path="url(#clip0_379_91)">
<path d="M8.83333 5C8 5 7 5.33333 6.5 6C6 6.66667 5.5 7.5 5.5 8.33333V31.6667C5.5 32.5 5.83333 33.5 6.5 34C7.16667 34.5 8 35 8.83333 35H32.1667C33 35 34 34.6667 34.5 34C35 33.3333 35.5 32.5 35.5 31.6667V8.33333C35.5 7.5 35.1667 6.5 34.5 6C33.8333 5.5 33 5 32.1667 5H8.83333ZM8.83333 8.33333H32.1667V31.6667H8.83333V8.33333ZM13.8333 11.6667C12.8333 11.6667 12.1667 12.3333 12.1667 13.3333V16.6667C12.1667 17.6667 12.8333 18.3333 13.8333 18.3333H17.1667C18.1667 18.3333 18.8333 17.6667 18.8333 16.6667V13.3333C18.8333 12.3333 18.1667 11.6667 17.1667 11.6667H13.8333ZM23.8333 11.6667C22.8333 11.6667 22.1667 12.3333 22.1667 13.3333V16.6667C22.1667 17.6667 22.8333 18.3333 23.8333 18.3333H27.1667C28.1667 18.3333 28.8333 17.6667 28.8333 16.6667V13.3333C28.8333 12.3333 28.1667 11.6667 27.1667 11.6667H23.8333ZM13.8333 21.6667C12.8333 21.6667 12.1667 22.3333 12.1667 23.3333V26.6667C12.1667 27.6667 12.8333 28.3333 13.8333 28.3333H17.1667C18.1667 28.3333 18.8333 27.6667 18.8333 26.6667V23.3333C18.8333 22.3333 18.1667 21.6667 17.1667 21.6667H13.8333ZM23.8333 21.6667C22.8333 21.6667 22.1667 22.3333 22.1667 23.3333V26.6667C22.1667 27.6667 22.8333 28.3333 23.8333 28.3333H27.1667C28.1667 28.3333 28.8333 27.6667 28.8333 26.6667V23.3333C28.8333 22.3333 28.1667 21.6667 27.1667 21.6667H23.8333Z" fill="#303F9F"/>
</g>
<defs>
<clipPath id="clip0_379_91">
<rect width="40" height="40" fill="white" transform="translate(0.5)"/>
</clipPath>
</defs>
</svg>
