<svg width="23" height="23" viewBox="0 0 23 23" fill="none" xmlns="http://www.w3.org/2000/svg">
<path d="M20.4025 0H2.09746C0.939661 0.00190066 0.00152542 1.17081 0 2.61341V19.8866C0.00152542 21.3292 0.939661 22.4981 2.09746 22.5H20.4025C21.5603 22.4981 22.4985 21.3292 22.5 19.8866V2.61341C22.4985 1.17081 21.5603 0.00190066 20.4025 0ZM2.09746 1.42549H20.4025C20.9288 1.42644 21.3552 1.95768 21.3559 2.61341V5.86924H1.14407V2.61341C1.14483 1.95768 1.57119 1.42644 2.09746 1.42549ZM20.4025 21.0745H2.09746C1.57119 21.0736 1.14483 20.5423 1.14407 19.8866V7.29473H21.3559V19.8866C21.3552 20.5423 20.9288 21.0736 20.4025 21.0745ZM16.589 4.44374H19.6398C19.9556 4.44374 20.2119 4.12443 20.2119 3.73099C20.2119 3.33756 19.9556 3.01825 19.6398 3.01825H16.589C16.2732 3.01825 16.017 3.33756 16.017 3.73099C16.017 4.12443 16.2732 4.44374 16.589 4.44374Z" fill="#303F9F"/>
</svg>
