<?xml version="1.0" encoding="utf-8"?>
<!-- Generator: Adobe Illustrator 27.5.0, SVG Export Plug-In . SVG Version: 6.00 Build 0)  -->
<svg version="1.1" xmlns="http://www.w3.org/2000/svg" xmlns:xlink="http://www.w3.org/1999/xlink" x="0px" y="0px"
	 viewBox="0 0 500 500" style="enable-background:new 0 0 500 500;" xml:space="preserve">
<g id="Background_Complete">
	<g>
		<g>
			<g>
				<g>
					<rect y="382.398" style="fill:#E0E0E0;" width="500" height="0.25"/>
					<rect x="419.015" y="390" style="fill:#E0E0E0;" width="26.571" height="0.25"/>
					<rect x="266.765" y="395" style="fill:#E0E0E0;" width="22.902" height="0.25"/>
					<rect x="197.09" y="394.264" style="fill:#E0E0E0;" width="45.381" height="0.25"/>
					<rect x="151.325" y="394.264" style="fill:#E0E0E0;" width="30.806" height="0.25"/>
					<rect x="80.343" y="392.555" style="fill:#E0E0E0;" width="48.657" height="0.25"/>
					<rect x="322.704" y="390" style="fill:#E0E0E0;" width="86.629" height="0.25"/>
					<rect x="51.646" y="392.555" style="fill:#E0E0E0;" width="7.086" height="0.25"/>
					<path style="fill:#E0E0E0;" d="M237.014,337.8H43.915c-3.147,0-5.708-2.561-5.708-5.708V60.66c0-3.147,2.561-5.708,5.708-5.708
						h193.099c3.146,0,5.707,2.561,5.707,5.708v271.432C242.721,335.239,240.16,337.8,237.014,337.8z M43.915,55.203
						c-3.01,0-5.458,2.448-5.458,5.458v271.432c0,3.01,2.448,5.458,5.458,5.458h193.099c3.009,0,5.457-2.448,5.457-5.458V60.66
						c0-3.009-2.448-5.458-5.457-5.458H43.915z"/>
					<path style="fill:#E0E0E0;" d="M453.31,337.8H260.212c-3.146,0-5.707-2.561-5.707-5.708V60.66c0-3.147,2.561-5.708,5.707-5.708
						H453.31c3.148,0,5.708,2.561,5.708,5.708v271.432C459.019,335.239,456.458,337.8,453.31,337.8z M260.212,55.203
						c-3.009,0-5.457,2.448-5.457,5.458v271.432c0,3.01,2.448,5.458,5.457,5.458H453.31c3.01,0,5.458-2.448,5.458-5.458V60.66
						c0-3.009-2.448-5.458-5.458-5.458H260.212z"/>
				</g>
			</g>
		</g>
		<g>
			<g>
				
					<rect x="62.657" y="268.935" transform="matrix(-1 -1.224647e-16 1.224647e-16 -1 146.5535 653.1472)" style="fill:#E0E0E0;" width="21.239" height="115.276"/>
				<polygon style="fill:#EBEBEB;" points="66.691,384.212 62.657,384.212 62.657,372.737 70.921,372.737 				"/>
				<rect x="142.038" y="262.973" style="fill:#E0E0E0;" width="21.24" height="121.239"/>
				
					<rect x="62.657" y="262.973" transform="matrix(-1 -1.224647e-16 1.224647e-16 -1 208.2156 640.1428)" style="fill:#EBEBEB;" width="82.902" height="114.198"/>
				
					<rect x="61.611" y="321.682" transform="matrix(6.123234e-17 -1 1 6.123234e-17 -255.8959 424.4362)" style="fill:#E0E0E0;" width="45.318" height="36.967"/>
				
					<rect x="101.286" y="321.682" transform="matrix(6.123234e-17 -1 1 6.123234e-17 -216.2207 464.1114)" style="fill:#E0E0E0;" width="45.318" height="36.967"/>
				<path style="fill:#EBEBEB;" d="M120.289,320.717h7.314c3.177,0,6.214-1.306,8.399-3.612l0,0H111.89l0,0
					C114.075,319.411,117.112,320.717,120.289,320.717z"/>
				<path style="fill:#EBEBEB;" d="M80.24,320.717h7.314c3.177,0,6.214-1.306,8.399-3.612l0,0H71.841l0,0
					C74.026,319.411,77.063,320.717,80.24,320.717z"/>
				
					<rect x="61.611" y="270.698" transform="matrix(6.123234e-17 -1 1 6.123234e-17 -204.9118 373.4522)" style="fill:#E0E0E0;" width="45.318" height="36.967"/>
				
					<rect x="101.286" y="270.698" transform="matrix(6.123234e-17 -1 1 6.123234e-17 -165.2366 413.1273)" style="fill:#E0E0E0;" width="45.318" height="36.967"/>
				<path style="fill:#EBEBEB;" d="M120.289,269.733h7.314c3.177,0,6.214-1.306,8.399-3.612l0,0H111.89l0,0
					C114.075,268.427,117.112,269.733,120.289,269.733z"/>
				<path style="fill:#EBEBEB;" d="M80.24,269.733h7.314c3.177,0,6.214-1.306,8.399-3.612l0,0H71.841l0,0
					C74.026,268.427,77.063,269.733,80.24,269.733z"/>
				<polygon style="fill:#EBEBEB;" points="141.524,384.212 145.559,384.212 145.559,372.737 137.295,372.737 				"/>
			</g>
			<g>
				
					<rect x="268.299" y="87.405" transform="matrix(-1 -1.224647e-16 1.224647e-16 -1 587.2288 233.7106)" style="fill:#E0E0E0;" width="50.63" height="58.901"/>
				
					<rect x="262.49" y="87.405" transform="matrix(-1 -1.224647e-16 1.224647e-16 -1 580.3857 233.7106)" style="fill:#F5F5F5;" width="55.406" height="58.901"/>
				
					<rect x="265.384" y="93.794" transform="matrix(-1.836970e-16 1 -1 -1.836970e-16 407.0481 -173.3376)" style="fill:#FAFAFA;" width="49.618" height="46.123"/>
				
					<rect x="277.411" y="104.973" transform="matrix(-1.836970e-16 1 -1 -1.836970e-16 407.0482 -173.3376)" style="fill:#F5F5F5;" width="25.564" height="23.764"/>
			</g>
			<g>
				
					<rect x="363.042" y="73.99" transform="matrix(-1 -1.224647e-16 1.224647e-16 -1 802.5955 289.8774)" style="fill:#E0E0E0;" width="76.512" height="141.897"/>
				
					<rect x="357.601" y="73.99" transform="matrix(-1 -1.224647e-16 1.224647e-16 -1 794.6121 289.8774)" style="fill:#EBEBEB;" width="79.41" height="141.897"/>
				
					<rect x="363.042" y="215.887" transform="matrix(-1 -1.224647e-16 1.224647e-16 -1 802.5955 441.8849)" style="fill:#E0E0E0;" width="76.512" height="10.111"/>
				
					<rect x="348.536" y="215.887" transform="matrix(-1 -1.224647e-16 1.224647e-16 -1 776.4828 441.8849)" style="fill:#EBEBEB;" width="79.41" height="10.111"/>
				
					<rect x="333.975" y="112.851" transform="matrix(-1.836970e-16 1 -1 -1.836970e-16 542.2448 -252.3673)" style="fill:#F5F5F5;" width="126.662" height="64.175"/>
				<polygon style="fill:#FAFAFA;" points="417.892,208.27 391.165,81.608 378.548,81.608 405.276,208.27 				"/>
				<path style="fill:#EBEBEB;" d="M425.867,165.296c-0.301,0-0.544-0.244-0.544-0.544V86.564c0-0.3,0.243-0.544,0.544-0.544
					s0.544,0.244,0.544,0.544v78.188C426.411,165.053,426.168,165.296,425.867,165.296z"/>
				<polygon style="fill:#FAFAFA;" points="402.565,208.27 375.838,81.608 370.919,81.608 397.646,208.27 				"/>
				
					<rect x="302.371" y="144.455" transform="matrix(-1.836970e-16 1 -1 -1.836970e-16 510.6408 -220.7633)" style="fill:#E0E0E0;" width="126.662" height="0.967"/>
				<polygon style="fill:#E0E0E0;" points="355.799,91.353 432.311,91.353 433.012,84.569 356.5,84.569 				"/>
				<polygon style="fill:#E0E0E0;" points="355.799,96.319 432.311,96.319 433.012,89.535 356.5,89.535 				"/>
				<polygon style="fill:#E0E0E0;" points="355.799,102.279 432.311,102.279 433.012,95.494 356.5,95.494 				"/>
				<polygon style="fill:#E0E0E0;" points="355.799,108.91 432.311,108.91 433.012,102.125 356.5,102.125 				"/>
				<polygon style="fill:#E0E0E0;" points="355.799,116.855 432.311,116.855 433.012,110.071 356.5,110.071 				"/>
				<polygon style="fill:#E0E0E0;" points="355.799,125.794 432.311,125.794 433.012,119.009 356.5,119.009 				"/>
			</g>
			<g>
				<g>
					<g>
						<g>
							<path style="fill:#E0E0E0;" d="M394.216,247.014c0,3.027-2.107,5.137,0.92,5.137c3.027,0,10.041-2.11,10.041-5.137
								s-2.454-5.481-5.481-5.481C396.67,241.533,394.216,243.987,394.216,247.014z"/>
							<path style="fill:#E0E0E0;" d="M384.834,249.626c0,3.027-2.107,5.137,0.92,5.137c3.027,0,10.041-2.11,10.041-5.137
								c0-3.027-2.454-5.481-5.481-5.481C387.288,244.145,384.834,246.599,384.834,249.626z"/>
							<path style="fill:#E0E0E0;" d="M375.847,248.016c0,3.027-2.107,5.137,0.92,5.137c3.027,0,10.041-2.11,10.041-5.137
								c0-3.027-2.454-5.481-5.481-5.481C378.3,242.536,375.847,244.989,375.847,248.016z"/>
							<path style="fill:#EBEBEB;" d="M408.537,248.732c0,0-0.448,10.693-17.628,10.693c-17.18,0-17.628-10.693-17.628-10.693
								H408.537z"/>
						</g>
					</g>
				</g>
				<g>
					
						<rect x="206.225" y="259.427" transform="matrix(-1 -1.224647e-16 1.224647e-16 -1 420.2408 641.8244)" style="fill:#E0E0E0;" width="7.791" height="122.97"/>
					
						<rect x="203.766" y="259.427" transform="matrix(-1 -1.224647e-16 1.224647e-16 -1 412.9437 641.8244)" style="fill:#F0F0F0;" width="5.411" height="122.97"/>
					<rect x="202.091" y="259.427" style="fill:#F0F0F0;" width="161.745" height="9.573"/>
					
						<rect x="367.324" y="269" transform="matrix(-1 -1.224647e-16 1.224647e-16 -1 742.439 651.397)" style="fill:#E0E0E0;" width="7.791" height="113.397"/>
					
						<rect x="364.865" y="269" transform="matrix(-1 -1.224647e-16 1.224647e-16 -1 735.1416 651.397)" style="fill:#F0F0F0;" width="5.411" height="113.397"/>
					
						<rect x="416.627" y="269" transform="matrix(-1 -1.224647e-16 1.224647e-16 -1 841.0453 651.397)" style="fill:#E0E0E0;" width="7.791" height="113.397"/>
					
						<rect x="414.169" y="269" transform="matrix(-1 -1.224647e-16 1.224647e-16 -1 833.748 651.397)" style="fill:#F0F0F0;" width="5.411" height="113.397"/>
					
						<rect x="255.528" y="269" transform="matrix(-1 -1.224647e-16 1.224647e-16 -1 518.8476 651.397)" style="fill:#E0E0E0;" width="7.791" height="113.397"/>
					
						<rect x="253.07" y="269" transform="matrix(-1 -1.224647e-16 1.224647e-16 -1 511.5502 651.397)" style="fill:#F0F0F0;" width="5.411" height="113.397"/>
					
						<rect x="363.836" y="259.427" transform="matrix(-1 -1.224647e-16 1.224647e-16 -1 788.2543 528.4274)" style="fill:#E0E0E0;" width="60.582" height="9.573"/>
				</g>
				<g>
					<polygon style="fill:#E0E0E0;" points="364.865,218.908 299.847,218.908 290.424,257.303 355.442,257.303 					"/>
					<polygon style="fill:#E0E0E0;" points="355.442,257.303 355.179,259.425 290.158,259.425 290.42,257.303 					"/>
					<polygon style="fill:#F0F0F0;" points="362.864,218.908 297.846,218.908 288.422,257.303 353.441,257.303 					"/>
					<polygon style="fill:#FAFAFA;" points="352.066,255.549 360.628,220.663 299.221,220.663 290.658,255.549 					"/>
					<polygon style="fill:#F0F0F0;" points="336.5,257.303 336.237,259.425 264.638,259.425 264.901,257.303 					"/>
				</g>
				<path style="fill:#E0E0E0;" d="M210.892,243.784c0.19,0,0.371,0.034,0.555,0.056v-1.257c0-0.874,0.709-1.583,1.583-1.583h12.333
					c0.874,0,1.583,0.709,1.583,1.583v16.842h-15.5v-2.838c-0.184,0.022-0.365,0.056-0.555,0.056c-2.573,0-4.667-2.094-4.667-4.667
					v-3.525C206.225,245.878,208.319,243.784,210.892,243.784z M208.225,251.977c0,1.471,1.196,2.667,2.667,2.667
					c0.191,0,0.376-0.022,0.555-0.06v-8.739c-0.179-0.038-0.365-0.06-0.555-0.06c-1.471,0-2.667,1.196-2.667,2.667V251.977z"/>
				<g>
					<path style="fill:#F0F0F0;" d="M277.924,382.398h2.165l6.183-30.477l1.087-5.339l6.746-33.213h25.866l14.015,69.029h2.165
						l-14.281-70.303c-0.102-0.493-0.532-0.844-1.04-0.844h-27.593c-0.5,0-0.938,0.352-1.032,0.844l-5.925,29.172l-1.087,5.331
						L277.924,382.398z"/>
					<path style="fill:#F0F0F0;" d="M236.402,382.398h2.165l14.023-69.029h25.858l6.746,33.229l1.079,5.323l6.191,30.477h2.165
						l-7.27-35.816l-1.079-5.315l-5.925-29.172c-0.102-0.493-0.539-0.844-1.04-0.844h-27.593c-0.508,0-0.938,0.352-1.04,0.844
						L236.402,382.398z"/>
					<path style="fill:#F0F0F0;" d="M300.154,312.308h-47.523c-9.073,0-16.479-7.257-16.664-16.328l-1.772-72.225
						c-0.138-6.8,5.336-12.387,12.138-12.387h29.791c6.173,0,11.363,4.632,12.062,10.765L300.154,312.308z"/>
					<path style="fill:#F0F0F0;" d="M320.742,303.202h-46.507v9.106h50.642c1.311,0,2.374-1.063,2.374-2.374v-0.223
						C327.251,306.116,324.337,303.202,320.742,303.202z"/>
				</g>
			</g>
			<g>
				
					<rect x="57.887" y="73.99" transform="matrix(-1 -1.224647e-16 1.224647e-16 -1 192.2851 289.8774)" style="fill:#E0E0E0;" width="76.512" height="141.897"/>
				
					<rect x="52.446" y="73.99" transform="matrix(-1 -1.224647e-16 1.224647e-16 -1 184.3017 289.8774)" style="fill:#EBEBEB;" width="79.41" height="141.897"/>
				
					<rect x="57.887" y="215.887" transform="matrix(-1 -1.224647e-16 1.224647e-16 -1 192.2851 441.8849)" style="fill:#E0E0E0;" width="76.512" height="10.111"/>
				
					<rect x="43.381" y="215.887" transform="matrix(-1 -1.224647e-16 1.224647e-16 -1 166.1725 441.8849)" style="fill:#EBEBEB;" width="79.41" height="10.111"/>
				
					<rect x="28.82" y="112.851" transform="matrix(-1.836970e-16 1 -1 -1.836970e-16 237.0896 52.7879)" style="fill:#F5F5F5;" width="126.662" height="64.175"/>
				<polygon style="fill:#FAFAFA;" points="112.737,208.27 86.01,81.608 73.393,81.608 100.12,208.27 				"/>
				<path style="fill:#EBEBEB;" d="M120.712,165.296c-0.3,0-0.544-0.244-0.544-0.544V86.564c0-0.3,0.244-0.544,0.544-0.544
					s0.544,0.244,0.544,0.544v78.188C121.256,165.053,121.012,165.296,120.712,165.296z"/>
				<polygon style="fill:#FAFAFA;" points="97.41,208.27 70.683,81.608 65.764,81.608 92.491,208.27 				"/>
				
					<rect x="-2.784" y="144.455" transform="matrix(-1.836970e-16 1 -1 -1.836970e-16 205.4856 84.3919)" style="fill:#E0E0E0;" width="126.662" height="0.967"/>
				<polygon style="fill:#E0E0E0;" points="50.644,91.353 127.156,91.353 127.857,84.569 51.345,84.569 				"/>
				<polygon style="fill:#E0E0E0;" points="50.644,96.319 127.156,96.319 127.857,89.535 51.345,89.535 				"/>
				<polygon style="fill:#E0E0E0;" points="50.644,102.279 127.156,102.279 127.857,95.494 51.345,95.494 				"/>
				<polygon style="fill:#E0E0E0;" points="50.644,108.91 127.156,108.91 127.857,102.125 51.345,102.125 				"/>
				<polygon style="fill:#E0E0E0;" points="50.644,116.855 127.156,116.855 127.857,110.071 51.345,110.071 				"/>
				<polygon style="fill:#E0E0E0;" points="50.644,125.794 127.156,125.794 127.857,119.009 51.345,119.009 				"/>
			</g>
			<g>
				
					<rect x="298.965" y="162.275" transform="matrix(-1 -1.224647e-16 1.224647e-16 -1 635.7778 368.2461)" style="fill:#E0E0E0;" width="37.848" height="43.697"/>
				
					<rect x="294.655" y="162.275" transform="matrix(-1 -1.224647e-16 1.224647e-16 -1 630.4135 368.2461)" style="fill:#F5F5F5;" width="41.104" height="43.697"/>
				
					<rect x="296.802" y="167.014" transform="matrix(-1.836970e-16 1 -1 -1.836970e-16 499.3299 -131.0837)" style="fill:#FAFAFA;" width="36.81" height="34.217"/>
				<path style="fill:#F5F5F5;" d="M324.022,184.791v-1.336c0-4.868-3.947-8.815-8.815-8.815l0,0c-4.868,0-8.815,3.947-8.815,8.815
					v1.336c0,4.868,3.947,8.815,8.815,8.815l0,0C320.075,193.606,324.022,189.659,324.022,184.791z"/>
			</g>
			<g>
				<g>
					
						<rect x="182.757" y="136.559" transform="matrix(-1 -1.224647e-16 1.224647e-16 -1 410.2259 324.5495)" style="fill:#E0E0E0;" width="44.711" height="51.431"/>
					
						<rect x="177.684" y="136.559" transform="matrix(-1 -1.224647e-16 1.224647e-16 -1 403.7482 324.5495)" style="fill:#F5F5F5;" width="48.379" height="51.431"/>
					
						<rect x="180.212" y="142.138" transform="matrix(-1.836970e-16 1 -1 -1.836970e-16 364.1488 -39.5993)" style="fill:#FAFAFA;" width="43.325" height="40.273"/>
					<polygon style="fill:#F5F5F5;" points="201.874,151.323 212.888,170.4 190.86,170.4 					"/>
				</g>
			</g>
		</g>
	</g>
</g>
<g id="Background_Simple" style="display:none;">
	<g style="display:inline;">
		<path style="fill:#407BFF;" d="M134.37,148.128c-4.532,41.332-55.619,48.965-59.925,92.181
			c-4.669,46.867,32.47,68.318,74.639,69.824c36.391,1.3,59.656-36.207,95.708-43.483c45.596-9.202,77.68,19.425,110.428-9.306
			c82.34-72.238-34.317-176.011-105.165-196.894c-33.703-9.934-84.352-19.486-112.234,10.132
			C110.269,99.852,138.145,113.705,134.37,148.128z"/>
		<path style="opacity:0.9;fill:#FFFFFF;" d="M134.37,148.128c-4.532,41.332-55.619,48.965-59.925,92.181
			c-4.669,46.867,32.47,68.318,74.639,69.824c36.391,1.3,59.656-36.207,95.708-43.483c45.596-9.202,77.68,19.425,110.428-9.306
			c82.34-72.238-34.317-176.011-105.165-196.894c-33.703-9.934-84.352-19.486-112.234,10.132
			C110.269,99.852,138.145,113.705,134.37,148.128z"/>
	</g>
</g>
<g id="Shadow">
	<ellipse style="fill:#F5F5F5;" cx="250" cy="416.238" rx="193.889" ry="11.323"/>
</g>
<g id="Cloud">
	<g>
		<g>
			<path style="fill:#407BFF;" d="M315.797,105.261c0.863,0,1.715,0.044,2.56,0.112c6.098-11.567,18.234-19.457,32.219-19.457
				c17.542,0,32.184,12.408,35.634,28.926c2.735-0.909,5.657-1.407,8.697-1.407c15.235,0,27.585,12.351,27.585,27.586
				s-12.35,27.586-27.585,27.586h-79.111c-17.492,0-31.672-14.18-31.672-31.672C284.125,119.441,298.305,105.261,315.797,105.261z"
				/>
			<path style="opacity:0.3;" d="M315.797,105.261c0.863,0,1.715,0.044,2.56,0.112c6.098-11.567,18.234-19.457,32.219-19.457
				c17.542,0,32.184,12.408,35.634,28.926c2.735-0.909,5.657-1.407,8.697-1.407c15.235,0,27.585,12.351,27.585,27.586
				s-12.35,27.586-27.585,27.586h-79.111c-17.492,0-31.672-14.18-31.672-31.672C284.125,119.441,298.305,105.261,315.797,105.261z"
				/>
		</g>
		<g>
			<path style="fill:#FAFAFA;" d="M321.016,131.828l5.805-10.054c0.689-1.194,2.412-1.194,3.101,0l5.806,10.054
				c0.689,1.194-0.172,2.686-1.551,2.686h-2.637c1.169,8.851,8.178,15.888,17.025,17.067c1.497,0.2,2.632,1.444,2.632,2.955l0,0
				c0,1.82-1.614,3.188-3.418,2.948c-11.769-1.564-21.057-11.091-22.254-22.97h-2.959
				C321.188,134.514,320.327,133.021,321.016,131.828z"/>
			<path style="fill:#FAFAFA;" d="M351.197,109.278L351.197,109.278c0-1.82,1.614-3.188,3.418-2.948
				c11.768,1.564,21.055,11.091,22.253,22.97h2.96c1.378,0,2.24,1.492,1.551,2.686l-5.805,10.054c-0.689,1.194-2.412,1.194-3.101,0
				l-5.806-10.054c-0.689-1.194,0.172-2.686,1.551-2.686h2.637c-1.169-8.851-8.178-15.888-17.024-17.067
				C352.332,112.034,351.197,110.789,351.197,109.278z"/>
		</g>
	</g>
</g>
<g id="Character">
	<g>
		<polygon style="fill:#FF8B7B;" points="251.986,408.599 258.81,406.706 255.108,390.713 248.284,392.605 		"/>
		<polygon style="fill:#FF8B7B;" points="170.431,408.376 177.426,409.482 180.518,393.513 173.436,393.513 		"/>
		<path style="fill:#263238;" d="M178.051,408.751l-7.859-1.242c-0.286-0.045-0.565,0.114-0.671,0.384l-2.365,5.999
			c-0.245,0.622,0.165,1.313,0.828,1.406c2.751,0.387,4.109,0.436,7.566,0.983c2.126,0.336,4.162,0.865,13.553,0.865
			c2.907,0,3.361-2.939,2.144-3.206c-5.457-1.193-10.648-2.755-12.128-4.579C178.852,409.031,178.469,408.817,178.051,408.751z"/>
		<path style="fill:#263238;" d="M258.546,405.929l-7.453,2.066c-0.279,0.077-0.467,0.338-0.452,0.627l0.334,6.44
			c0.035,0.668,0.677,1.131,1.318,0.942c2.676-0.791,6.517-2.026,9.896-2.963c3.951-1.095,7.423-1.826,12.057-3.111
			c2.802-0.777,2.794-3.825,1.55-3.756c-5.663,0.312-10.057,1.396-15.459-0.17C259.751,405.835,259.135,405.765,258.546,405.929z"/>
		<g>
			<polygon style="fill:#EA7063;" points="255.108,390.718 257.017,398.961 250.19,400.854 248.281,392.611 			"/>
			<polygon style="fill:#EA7063;" points="173.436,393.513 180.52,393.513 178.881,401.973 171.721,401.973 			"/>
		</g>
		<g>
			<path style="fill:#407BFF;" d="M230.484,168.553c0,0,8.359,21.386,0.419,61.214c-11.413,0-32.326,0-37.88,0
				c-0.261-5.815,3.393-34.18-2.216-61.579c0,0,6.493-1.303,12.68-1.601c4.84-0.233,11.848-0.388,16.103,0.001
				C225.201,167.099,230.484,168.553,230.484,168.553z"/>
			<path style="opacity:0.1;" d="M230.484,168.553c0,0,8.359,21.386,0.419,61.214c-11.413,0-32.326,0-37.88,0
				c-0.261-5.815,3.393-34.18-2.216-61.579c0,0,6.493-1.303,12.68-1.601c4.84-0.233,11.848-0.388,16.103,0.001
				C225.201,167.099,230.484,168.553,230.484,168.553z"/>
		</g>
		<path style="fill:#FF8B7B;" d="M250.334,206.248c-0.156-0.611-0.414-1.247-0.582-1.64l-0.339-0.825l-0.674-1.66l-1.352-3.348
			l-2.718-6.737c-1.816-4.496-3.699-8.988-5.65-13.423l-10.33,4.324c1.826,4.559,3.761,9.043,5.819,13.498
			c1.019,2.232,2.073,4.448,3.154,6.664c0.538,1.11,1.079,2.218,1.65,3.323l0.793,1.541c-0.074,0.03-0.149,0.061-0.226,0.088
			c-1.692,0.655-3.925,1.114-6.157,1.451c-4.508,0.654-9.354,1.011-14.07,1.248l-0.487,5.526c5.006,0.973,9.939,1.574,15.165,1.567
			c2.623-0.035,5.267-0.149,8.259-0.881c0.751-0.194,1.535-0.44,2.372-0.794c0.836-0.363,1.735-0.815,2.702-1.599
			c0.946-0.778,2.024-1.992,2.574-3.664C250.793,209.249,250.684,207.483,250.334,206.248z"/>
		<g>
			<path style="fill:#407BFF;" d="M222.075,173.399c-2.387,6.337,9.705,24.996,9.705,24.996l14.164-7.692
				c0,0-3.302-9.307-8.185-16.58C232.746,166.655,224.694,166.445,222.075,173.399z"/>
			<path style="opacity:0.1;" d="M222.075,173.399c-2.387,6.337,9.705,24.996,9.705,24.996l14.164-7.692
				c0,0-3.302-9.307-8.185-16.58C232.746,166.655,224.694,166.445,222.075,173.399z"/>
		</g>
		<polygon style="fill:#FF8B7B;" points="208.049,206.837 207.388,214.293 214.117,215.184 215.249,207.007 		"/>
		<path style="fill:#FF8B7B;" d="M220.592,211.142l-5.344-4.135l-1.131,8.177c0,0,4.792,3.46,8.095,0.231L220.592,211.142z"/>
		<path style="fill:#FF8B7B;" d="M205.084,148.455c1.016,5.181,2.029,14.674-1.596,18.131c0,0,2.082,5.256,11.709,5.256
			c8.798,0,4.393-5.255,4.393-5.255c-5.778-1.38-5.348-8.695-3.975-14.053L205.084,148.455z"/>
		<path style="fill:#EA7063;" d="M205.985,155.679v-0.009l3.476-2.525c0.188,0.537,3.148,2.523,2.699,3.589
			c-1.507,3.572-4.313,4.848-6.335,4.212C206.051,159.279,206.079,157.469,205.985,155.679z"/>
		<path style="fill:#263238;" d="M204.62,137.583l-5.943-4.036c-2.797,2.389-3.288,8.821,0.271,12.863
			C206.067,145.112,204.62,137.583,204.62,137.583z"/>
		<path style="fill:#FF8B7B;" d="M217.377,140.043c0.039,7.431,0.439,11.779-3.046,15.827c-5.242,6.089-14.604,3.308-16.862-3.962
			c-2.033-6.544-1.754-17.598,5.294-21.026C209.707,127.505,217.338,132.612,217.377,140.043z"/>
		<path style="fill:#263238;" d="M218.802,135.352l-7.093-1.146c-1.525,3.348,0.749,9.384,5.683,11.542
			C223.295,141.564,218.802,135.352,218.802,135.352z"/>
		<path style="fill:#263238;" d="M203.686,136.071c-3.05,0.332-13.421,0.054-8.19-10.486c-0.01,1.278,1.192,4.735,4.167,0.969
			c2.495-3.158,8.06,1.088,7.5-1.978c0,0,1.953,1.052,1.001,2.247c-0.953,1.195,6.57-2.59,10.831-0.118
			c-2.17,0.217-2.405,3.217,0.75,5.235c3.006,1.922,0.835,6.864-2.973,5.935C212.966,136.945,211.293,135.244,203.686,136.071z"/>
		<path style="fill:#FF8B7B;" d="M220.788,145.829c-0.383,1.717-1.506,3.107-2.718,3.874c-1.823,1.155-3.306-0.338-3.28-2.394
			c0.024-1.85,1.002-4.68,3.061-5.005C219.882,141.985,221.226,143.866,220.788,145.829z"/>
		<g>
			<path style="fill:#407BFF;" d="M230.904,229.766c0,0,14.136,56.332,17.024,77.749c3.003,22.277,10.17,88.309,10.17,88.309
				l-11.124,3.546c0,0-15.814-64.859-20.065-86.514c-4.634-23.608-20.904-83.089-20.904-83.089H230.904z"/>
			<path style="opacity:0.6;fill:#FAFAFA;" d="M230.904,229.766c0,0,14.136,56.332,17.024,77.749
				c3.003,22.277,10.17,88.309,10.17,88.309l-11.124,3.546c0,0-15.814-64.859-20.065-86.514
				c-4.634-23.608-20.904-83.089-20.904-83.089H230.904z"/>
		</g>
		<g>
			<polygon style="fill:#407BFF;" points="246.441,400.155 258.857,396.256 258.687,391.65 245.131,396.073 			"/>
			<polygon style="opacity:0.2;" points="246.441,400.155 258.857,396.256 258.687,391.65 245.131,396.073 			"/>
		</g>
		<g>
			<path style="fill:#407BFF;" d="M213.899,233.93l-3.297,12.897c3.062,11.522,7.16,27.142,10.617,41.189
				C221.756,257.596,213.899,233.93,213.899,233.93z"/>
			<path style="opacity:0.4;fill:#FAFAFA;" d="M213.899,233.93l-3.297,12.897c3.062,11.522,7.16,27.142,10.617,41.189
				C221.756,257.596,213.899,233.93,213.899,233.93z"/>
		</g>
		<g>
			<path style="fill:#407BFF;" d="M217.466,229.766c0,0-3.214,57.891-7.627,78.168c-4.832,22.204-27.859,92.4-27.859,92.4H169.01
				c0,0,16.826-68.403,19.583-90.387c2.993-23.86,4.431-80.181,4.431-80.181H217.466z"/>
			<path style="opacity:0.6;fill:#FAFAFA;" d="M217.466,229.766c0,0-3.214,57.891-7.627,78.168
				c-4.832,22.204-27.859,92.4-27.859,92.4H169.01c0,0,16.826-68.403,19.583-90.387c2.993-23.86,4.431-80.181,4.431-80.181H217.466z
				"/>
		</g>
		<g>
			<polygon style="fill:#407BFF;" points="168.062,400.53 182.928,400.53 184.287,396.544 168.062,396.544 			"/>
			<polygon style="opacity:0.2;" points="168.062,400.53 182.928,400.53 184.287,396.544 168.062,396.544 			"/>
		</g>
		<g>
			<path style="fill:#407BFF;" d="M174.237,392.67c-0.007,0-0.013-0.001-0.02-0.002c-0.066-0.01-0.111-0.073-0.1-0.139
				c0.109-0.656,15.759-62.04,18.236-81.788c2.688-21.434,3.529-72.727,3.586-73.204c0.008-0.066,0.068-0.109,0.134-0.106
				c0.067,0.008,0.114,0.068,0.106,0.134c-0.057,0.478-0.898,51.771-3.586,73.206c-2.477,19.751-18.128,81.141-18.237,81.797
				C174.347,392.629,174.295,392.67,174.237,392.67z"/>
			<path style="opacity:0.4;fill:#FAFAFA;" d="M174.237,392.67c-0.007,0-0.013-0.001-0.02-0.002c-0.066-0.01-0.111-0.073-0.1-0.139
				c0.109-0.656,15.759-62.04,18.236-81.788c2.688-21.434,3.529-72.727,3.586-73.204c0.008-0.066,0.068-0.109,0.134-0.106
				c0.067,0.008,0.114,0.068,0.106,0.134c-0.057,0.478-0.898,51.771-3.586,73.206c-2.477,19.751-18.128,81.141-18.237,81.797
				C174.347,392.629,174.295,392.67,174.237,392.67z"/>
		</g>
		<path style="fill:#263238;" d="M206.288,142.86c0.04,0.603-0.247,1.112-0.641,1.139c-0.394,0.026-0.746-0.441-0.786-1.044
			c-0.04-0.603,0.246-1.112,0.64-1.139C205.896,141.79,206.248,142.257,206.288,142.86z"/>
		<path style="fill:#263238;" d="M199.477,143.314c0.04,0.603-0.247,1.112-0.641,1.139c-0.394,0.026-0.746-0.441-0.786-1.044
			c-0.04-0.603,0.247-1.112,0.641-1.139C199.085,142.244,199.436,142.711,199.477,143.314z"/>
		<path style="fill:#FF5652;" d="M201.662,143.469c0,0-1.139,3.568-2.536,5.346c1.133,0.924,2.915,0.348,2.915,0.348
			L201.662,143.469z"/>
		<path style="fill:#263238;" d="M203.909,150.71c-0.097,0.006-0.182-0.068-0.189-0.165c-0.007-0.097,0.068-0.182,0.165-0.189
			c2.645-0.176,3.757-2.106,3.768-2.126c0.049-0.085,0.158-0.116,0.241-0.067c0.085,0.048,0.116,0.155,0.068,0.241
			C207.914,148.49,206.744,150.521,203.909,150.71z"/>
		<path style="fill:#263238;" d="M208.195,140.526c-0.107,0.007-0.216-0.034-0.291-0.122c-1.037-1.195-2.333-1.033-2.346-1.03
			c-0.181,0.032-0.373-0.108-0.4-0.303c-0.027-0.194,0.109-0.373,0.303-0.4c0.069-0.01,1.692-0.215,2.978,1.269
			c0.129,0.148,0.112,0.372-0.035,0.5C208.343,140.493,208.269,140.521,208.195,140.526z"/>
		<path style="fill:#263238;" d="M196.257,141.103c-0.052,0-0.105-0.011-0.155-0.036c-0.176-0.085-0.25-0.296-0.165-0.473
			c0.852-1.767,2.473-1.996,2.542-2.005c0.188-0.032,0.372,0.111,0.397,0.306c0.025,0.194-0.111,0.371-0.304,0.397l0,0
			c-0.054,0.007-1.316,0.199-1.996,1.61C196.514,141.029,196.388,141.103,196.257,141.103z"/>
		<path style="fill:#FF8B7B;" d="M194.556,179.878c-1.912,5.335-3.893,10.685-5.89,15.994c-1.97,5.293-4.037,10.666-5.762,15.79
			c-1.56,4.913-2.705,10.532-3.845,16.037c-1.144,5.534-2.273,11.138-3.472,16.703l-5.521-0.538
			c-0.042-5.805,0.155-11.555,0.594-17.34c0.243-2.888,0.479-5.785,0.875-8.702c0.376-2.904,0.823-5.899,1.589-8.937
			c0.739-2.951,1.556-5.72,2.416-8.497c0.849-2.768,1.744-5.509,2.661-8.237c1.837-5.458,3.779-10.843,5.872-16.212L194.556,179.878
			z"/>
		<g>
			<path style="fill:#407BFF;" d="M190.808,168.187c-6.701,0.975-14.375,24.193-14.375,24.193l14.073,7.949
				c0,0,6.198-11.043,9.255-19.244C202.964,172.494,197.995,167.142,190.808,168.187z"/>
			<path style="opacity:0.1;" d="M190.808,168.187c-6.701,0.975-14.375,24.193-14.375,24.193l14.073,7.949
				c0,0,6.198-11.043,9.255-19.244C202.964,172.494,197.995,167.142,190.808,168.187z"/>
		</g>
		<path style="fill:#407BFF;" d="M180.171,410.337c0.533,0.084,1.045,0.072,1.403-0.143c0.285-0.171,0.446-0.448,0.481-0.822
			c0.027-0.278-0.099-0.432-0.209-0.513c-0.703-0.517-3.186,0.51-3.467,0.629c-0.062,0.027-0.102,0.089-0.102,0.156
			c0.001,0.066,0.042,0.127,0.104,0.153C178.848,409.992,179.525,410.235,180.171,410.337z M181.439,409.055
			c0.087,0.014,0.157,0.038,0.208,0.075c0.041,0.03,0.086,0.081,0.073,0.211c-0.025,0.267-0.129,0.452-0.32,0.566
			c-0.433,0.262-1.353,0.16-2.503-0.267C179.76,409.308,180.904,408.97,181.439,409.055z"/>
		<path style="fill:#407BFF;" d="M178.419,409.808c0.027,0.004,0.055,0.002,0.082-0.007c0.786-0.279,2.428-1.59,2.403-2.394
			c-0.004-0.145-0.07-0.406-0.459-0.517c-0.254-0.073-0.501-0.038-0.739,0.101c-0.918,0.535-1.404,2.528-1.424,2.613
			c-0.015,0.06,0.005,0.123,0.051,0.163C178.357,409.789,178.387,409.803,178.419,409.808z M180.278,407.195
			c0.025,0.004,0.049,0.01,0.074,0.017c0.211,0.06,0.214,0.163,0.216,0.205c0.015,0.475-1.06,1.492-1.866,1.925
			c0.175-0.577,0.584-1.719,1.173-2.062C180.009,407.202,180.142,407.174,180.278,407.195z"/>
		<path style="fill:#407BFF;" d="M261.716,406.334c0.678-0.188,1.275-0.466,1.542-0.879c0.17-0.262,0.198-0.555,0.084-0.871
			c-0.068-0.188-0.201-0.311-0.385-0.355c-0.957-0.236-3.314,1.918-3.581,2.165c-0.052,0.048-0.068,0.125-0.039,0.191
			c0.029,0.065,0.095,0.106,0.166,0.101C260.113,406.64,260.964,406.543,261.716,406.334z M262.559,404.579
			c0.126-0.035,0.234-0.044,0.318-0.024c0.074,0.019,0.12,0.062,0.15,0.145c0.077,0.214,0.06,0.402-0.051,0.574
			c-0.316,0.489-1.422,0.863-2.998,1.031C260.797,405.594,261.913,404.758,262.559,404.579z"/>
		<path style="fill:#407BFF;" d="M259.535,406.679c0.023-0.006,0.043-0.018,0.063-0.032c0.721-0.598,1.944-2.526,1.605-3.264
			c-0.079-0.173-0.271-0.363-0.727-0.284c-0.335,0.049-0.615,0.234-0.82,0.525c-0.67,0.954-0.345,2.842-0.331,2.923
			c0.011,0.058,0.052,0.107,0.108,0.128C259.466,406.688,259.501,406.689,259.535,406.679z M260.433,403.451
			c0.032-0.009,0.065-0.015,0.099-0.022c0.299-0.05,0.349,0.058,0.366,0.094c0.203,0.443-0.584,1.909-1.285,2.647
			c-0.062-0.561-0.123-1.728,0.317-2.353C260.062,403.628,260.227,403.508,260.433,403.451z"/>
		<path style="fill:#FF8B7B;" d="M175.818,243.573l-1.357,5.453l-6.062-3.661c0,0,0.885-5.844,5.504-5.94L175.818,243.573z"/>
		<polygon style="fill:#FF8B7B;" points="169.781,251.601 165.275,248.965 168.399,245.365 174.461,249.025 		"/>
	</g>
</g>
<g id="Line">
	<g>
		<g>
			<g>
				<path style="fill:#407BFF;" d="M269.754,218.292c-0.828,0-1.5-0.671-1.5-1.5v-5.996c0-0.829,0.672-1.5,1.5-1.5
					c0.828,0,1.5,0.671,1.5,1.5v5.996C271.254,217.621,270.582,218.292,269.754,218.292z"/>
				<path style="fill:#407BFF;" d="M269.754,198.362c-0.828,0-1.5-0.671-1.5-1.5v-11.945c0-0.829,0.672-1.5,1.5-1.5
					c0.828,0,1.5,0.671,1.5,1.5v11.945C271.254,197.69,270.582,198.362,269.754,198.362z M269.754,172.481
					c-0.828,0-1.5-0.671-1.5-1.5v-11.945c0-0.829,0.672-1.5,1.5-1.5c0.828,0,1.5,0.671,1.5,1.5v11.945
					C271.254,171.81,270.582,172.481,269.754,172.481z M148.354,169.388c-0.829,0-1.5-0.671-1.5-1.5v-11.945
					c0-0.829,0.671-1.5,1.5-1.5c0.829,0,1.5,0.671,1.5,1.5v11.945C149.854,168.716,149.183,169.388,148.354,169.388z M269.754,146.6
					c-0.828,0-1.5-0.671-1.5-1.5v-11.945c0-0.829,0.672-1.5,1.5-1.5c0.828,0,1.5,0.671,1.5,1.5V145.1
					C271.254,145.929,270.582,146.6,269.754,146.6z M148.354,143.507c-0.829,0-1.5-0.671-1.5-1.5v-11.945c0-0.829,0.671-1.5,1.5-1.5
					c0.829,0,1.5,0.671,1.5,1.5v11.945C149.854,142.835,149.183,143.507,148.354,143.507z M268.903,120.771
					c-0.719,0-1.353-0.518-1.478-1.251c-0.645-3.824-1.674-7.598-3.058-11.216c-0.296-0.774,0.092-1.641,0.866-1.937
					c0.769-0.295,1.641,0.09,1.937,0.865c1.453,3.803,2.535,7.77,3.214,11.789c0.138,0.816-0.413,1.591-1.229,1.728
					C269.07,120.764,268.986,120.771,268.903,120.771z M149.797,117.736c-0.108,0-0.217-0.012-0.326-0.036
					c-0.809-0.179-1.319-0.98-1.14-1.789c0.882-3.976,2.166-7.881,3.814-11.608c0.335-0.758,1.22-1.102,1.979-0.765
					c0.757,0.335,1.1,1.221,0.765,1.979c-1.569,3.546-2.79,7.262-3.629,11.044C151.104,117.26,150.485,117.736,149.797,117.736z
					 M259.343,96.939c-0.48,0-0.953-0.23-1.243-0.659c-2.172-3.207-4.674-6.216-7.435-8.945c-0.589-0.583-0.595-1.532-0.012-2.122
					c0.583-0.588,1.531-0.595,2.122-0.012c2.899,2.867,5.527,6.028,7.81,9.396c0.464,0.686,0.285,1.619-0.4,2.083
					C259.926,96.855,259.633,96.939,259.343,96.939z M160.56,94.429c-0.314,0-0.632-0.099-0.902-0.302
					c-0.661-0.499-0.793-1.439-0.294-2.101c2.451-3.25,5.234-6.274,8.274-8.988c0.618-0.553,1.565-0.498,2.118,0.12
					c0.552,0.618,0.499,1.566-0.12,2.118c-2.894,2.584-5.543,5.463-7.876,8.558C161.464,94.223,161.015,94.429,160.56,94.429z
					 M240.782,79.188c-0.268,0-0.539-0.071-0.784-0.222c-3.308-2.032-6.826-3.742-10.458-5.081
					c-0.777-0.287-1.175-1.149-0.888-1.926c0.286-0.777,1.148-1.175,1.926-0.888c3.817,1.408,7.515,3.204,10.99,5.34
					c0.706,0.434,0.927,1.357,0.493,2.063C241.778,78.934,241.286,79.188,240.782,79.188z M179.998,77.639
					c-0.531,0-1.046-0.283-1.318-0.781c-0.397-0.727-0.13-1.639,0.597-2.036c3.58-1.955,7.365-3.561,11.25-4.771
					c0.791-0.247,1.632,0.195,1.878,0.986c0.247,0.791-0.195,1.632-0.986,1.878c-3.696,1.152-7.297,2.679-10.704,4.54
					C180.487,77.579,180.24,77.639,179.998,77.639z M216.551,70.703c-0.061,0-0.123-0.003-0.185-0.011
					c-3.823-0.47-7.764-0.569-11.627-0.292c-0.828,0.055-1.544-0.562-1.604-1.389c-0.06-0.826,0.562-1.544,1.389-1.603
					c4.056-0.292,8.192-0.188,12.208,0.307c0.822,0.101,1.407,0.85,1.306,1.672C217.944,70.146,217.298,70.703,216.551,70.703z"/>
				<path style="fill:#407BFF;" d="M148.354,189.445c-0.829,0-1.5-0.671-1.5-1.5v-6c0-0.829,0.671-1.5,1.5-1.5
					c0.829,0,1.5,0.671,1.5,1.5v6C149.854,188.773,149.183,189.445,148.354,189.445z"/>
			</g>
			<g style="opacity:0.6;">
				<path style="fill:#FAFAFA;" d="M269.754,218.292c-0.828,0-1.5-0.671-1.5-1.5v-5.996c0-0.829,0.672-1.5,1.5-1.5
					c0.828,0,1.5,0.671,1.5,1.5v5.996C271.254,217.621,270.582,218.292,269.754,218.292z"/>
				<path style="fill:#FAFAFA;" d="M269.754,198.362c-0.828,0-1.5-0.671-1.5-1.5v-11.945c0-0.829,0.672-1.5,1.5-1.5
					c0.828,0,1.5,0.671,1.5,1.5v11.945C271.254,197.69,270.582,198.362,269.754,198.362z M269.754,172.481
					c-0.828,0-1.5-0.671-1.5-1.5v-11.945c0-0.829,0.672-1.5,1.5-1.5c0.828,0,1.5,0.671,1.5,1.5v11.945
					C271.254,171.81,270.582,172.481,269.754,172.481z M148.354,169.388c-0.829,0-1.5-0.671-1.5-1.5v-11.945
					c0-0.829,0.671-1.5,1.5-1.5c0.829,0,1.5,0.671,1.5,1.5v11.945C149.854,168.716,149.183,169.388,148.354,169.388z M269.754,146.6
					c-0.828,0-1.5-0.671-1.5-1.5v-11.945c0-0.829,0.672-1.5,1.5-1.5c0.828,0,1.5,0.671,1.5,1.5V145.1
					C271.254,145.929,270.582,146.6,269.754,146.6z M148.354,143.507c-0.829,0-1.5-0.671-1.5-1.5v-11.945c0-0.829,0.671-1.5,1.5-1.5
					c0.829,0,1.5,0.671,1.5,1.5v11.945C149.854,142.835,149.183,143.507,148.354,143.507z M268.903,120.771
					c-0.719,0-1.353-0.518-1.478-1.251c-0.645-3.824-1.674-7.598-3.058-11.216c-0.296-0.774,0.092-1.641,0.866-1.937
					c0.769-0.295,1.641,0.09,1.937,0.865c1.453,3.803,2.535,7.77,3.214,11.789c0.138,0.816-0.413,1.591-1.229,1.728
					C269.07,120.764,268.986,120.771,268.903,120.771z M149.797,117.736c-0.108,0-0.217-0.012-0.326-0.036
					c-0.809-0.179-1.319-0.98-1.14-1.789c0.882-3.976,2.166-7.881,3.814-11.608c0.335-0.758,1.22-1.102,1.979-0.765
					c0.757,0.335,1.1,1.221,0.765,1.979c-1.569,3.546-2.79,7.262-3.629,11.044C151.104,117.26,150.485,117.736,149.797,117.736z
					 M259.343,96.939c-0.48,0-0.953-0.23-1.243-0.659c-2.172-3.207-4.674-6.216-7.435-8.945c-0.589-0.583-0.595-1.532-0.012-2.122
					c0.583-0.588,1.531-0.595,2.122-0.012c2.899,2.867,5.527,6.028,7.81,9.396c0.464,0.686,0.285,1.619-0.4,2.083
					C259.926,96.855,259.633,96.939,259.343,96.939z M160.56,94.429c-0.314,0-0.632-0.099-0.902-0.302
					c-0.661-0.499-0.793-1.439-0.294-2.101c2.451-3.25,5.234-6.274,8.274-8.988c0.618-0.553,1.565-0.498,2.118,0.12
					c0.552,0.618,0.499,1.566-0.12,2.118c-2.894,2.584-5.543,5.463-7.876,8.558C161.464,94.223,161.015,94.429,160.56,94.429z
					 M240.782,79.188c-0.268,0-0.539-0.071-0.784-0.222c-3.308-2.032-6.826-3.742-10.458-5.081
					c-0.777-0.287-1.175-1.149-0.888-1.926c0.286-0.777,1.148-1.175,1.926-0.888c3.817,1.408,7.515,3.204,10.99,5.34
					c0.706,0.434,0.927,1.357,0.493,2.063C241.778,78.934,241.286,79.188,240.782,79.188z M179.998,77.639
					c-0.531,0-1.046-0.283-1.318-0.781c-0.397-0.727-0.13-1.639,0.597-2.036c3.58-1.955,7.365-3.561,11.25-4.771
					c0.791-0.247,1.632,0.195,1.878,0.986c0.247,0.791-0.195,1.632-0.986,1.878c-3.696,1.152-7.297,2.679-10.704,4.54
					C180.487,77.579,180.24,77.639,179.998,77.639z M216.551,70.703c-0.061,0-0.123-0.003-0.185-0.011
					c-3.823-0.47-7.764-0.569-11.627-0.292c-0.828,0.055-1.544-0.562-1.604-1.389c-0.06-0.826,0.562-1.544,1.389-1.603
					c4.056-0.292,8.192-0.188,12.208,0.307c0.822,0.101,1.407,0.85,1.306,1.672C217.944,70.146,217.298,70.703,216.551,70.703z"/>
				<path style="fill:#FAFAFA;" d="M148.354,189.445c-0.829,0-1.5-0.671-1.5-1.5v-6c0-0.829,0.671-1.5,1.5-1.5
					c0.829,0,1.5,0.671,1.5,1.5v6C149.854,188.773,149.183,189.445,148.354,189.445z"/>
			</g>
		</g>
		<g>
			<path style="fill:#407BFF;" d="M311.531,309.148c-23.863,0-43.277-19.414-43.277-43.277V228c0-0.829,0.672-1.5,1.5-1.5
				c0.828,0,1.5,0.671,1.5,1.5v37.871c0,22.209,18.068,40.277,40.277,40.277c22.21,0,40.278-18.068,40.278-40.277V161.519
				c0-0.829,0.672-1.5,1.5-1.5c0.828,0,1.5,0.671,1.5,1.5v104.352C354.81,289.734,335.395,309.148,311.531,309.148z"/>
			<path style="opacity:0.3;" d="M311.531,309.148c-23.863,0-43.277-19.414-43.277-43.277V228c0-0.829,0.672-1.5,1.5-1.5
				c0.828,0,1.5,0.671,1.5,1.5v37.871c0,22.209,18.068,40.277,40.277,40.277c22.21,0,40.278-18.068,40.278-40.277V161.519
				c0-0.829,0.672-1.5,1.5-1.5c0.828,0,1.5,0.671,1.5,1.5v104.352C354.81,289.734,335.395,309.148,311.531,309.148z"/>
		</g>
	</g>
</g>
<g id="Device">
	<g>
		<g>
			<path style="fill:#407BFF;" d="M119.476,418.016h73.843c6.068,0,10.685-4.965,10.261-11.032l-14.545-208.006
				c-0.424-6.068-5.736-11.032-11.804-11.032h-73.843c-6.068,0-10.685,4.964-10.261,11.032l14.545,208.006
				C108.097,413.051,113.409,418.016,119.476,418.016z"/>
			<path style="opacity:0.3;fill:#FAFAFA;" d="M119.476,418.016h73.843c6.068,0,10.685-4.965,10.261-11.032l-14.545-208.006
				c-0.424-6.068-5.736-11.032-11.804-11.032h-73.843c-6.068,0-10.685,4.964-10.261,11.032l14.545,208.006
				C108.097,413.051,113.409,418.016,119.476,418.016z"/>
		</g>
		<g>
			<path style="fill:#407BFF;" d="M127.444,418.016h73.843c6.068,0,10.685-4.965,10.261-11.032l-14.545-208.006
				c-0.424-6.068-5.736-11.032-11.804-11.032h-73.843c-6.068,0-10.685,4.964-10.261,11.032l14.545,208.006
				C116.065,413.051,121.376,418.016,127.444,418.016z"/>
			<path style="opacity:0.6;fill:#FAFAFA;" d="M127.444,418.016h73.843c6.068,0,10.685-4.965,10.261-11.032l-14.545-208.006
				c-0.424-6.068-5.736-11.032-11.804-11.032h-73.843c-6.068,0-10.685,4.964-10.261,11.032l14.545,208.006
				C116.065,413.051,121.376,418.016,127.444,418.016z"/>
		</g>
		<path style="fill:#FAFAFA;" d="M118.327,406.05h90.274c0.814,0,1.457-0.69,1.4-1.501L195.833,201.93
			c-0.051-0.735-0.663-1.306-1.4-1.306h-90.275c-0.814,0-1.457,0.69-1.4,1.502l14.169,202.618
			C116.978,405.479,117.59,406.05,118.327,406.05z"/>
		<g>
			<g>
				<path style="fill:#407BFF;" d="M112.229,291.733l6.613-16.489c0.785-1.958,3.611-1.958,5.086,0l12.429,16.489
					c1.476,1.958,0.494,4.405-1.766,4.405h-4.325c4.477,14.517,18.008,26.058,32.858,27.992c2.514,0.327,4.735,2.369,5.172,4.847
					l0,0c0.526,2.984-1.725,5.228-4.753,4.835c-19.754-2.565-37.742-18.19-43.141-37.673h-4.853
					C113.288,296.138,111.444,293.691,112.229,291.733z"/>
				<path style="fill:#407BFF;" d="M155.208,254.751L155.208,254.751c-0.526-2.984,1.725-5.228,4.753-4.835
					c19.753,2.565,37.74,18.191,43.138,37.673h4.854c2.261,0,4.105,2.447,3.32,4.405l-6.613,16.489
					c-0.785,1.958-3.611,1.958-5.086,0l-12.429-16.489c-1.476-1.958-0.494-4.405,1.766-4.405h4.325
					c-4.477-14.517-18.007-26.058-32.856-27.991C157.866,259.27,155.645,257.228,155.208,254.751z"/>
			</g>
			<g style="opacity:0.3;">
				<path d="M112.229,291.733l6.613-16.489c0.785-1.958,3.611-1.958,5.086,0l12.429,16.489c1.476,1.958,0.494,4.405-1.766,4.405
					h-4.325c4.477,14.517,18.008,26.058,32.858,27.992c2.514,0.327,4.735,2.369,5.172,4.847l0,0
					c0.526,2.984-1.725,5.228-4.753,4.835c-19.754-2.565-37.742-18.19-43.141-37.673h-4.853
					C113.288,296.138,111.444,293.691,112.229,291.733z"/>
				<path d="M155.208,254.751L155.208,254.751c-0.526-2.984,1.725-5.228,4.753-4.835c19.753,2.565,37.74,18.191,43.138,37.673h4.854
					c2.261,0,4.105,2.447,3.32,4.405l-6.613,16.489c-0.785,1.958-3.611,1.958-5.086,0l-12.429-16.489
					c-1.476-1.958-0.494-4.405,1.766-4.405h4.325c-4.477-14.517-18.007-26.058-32.856-27.991
					C157.866,259.27,155.645,257.228,155.208,254.751z"/>
			</g>
		</g>
		<g>
			<path style="fill:#407BFF;" d="M133.085,193.78c0.067,0.959,0.899,1.736,1.858,1.736c0.959,0,1.682-0.777,1.615-1.736
				c-0.067-0.959-0.899-1.737-1.858-1.737C133.741,192.043,133.018,192.821,133.085,193.78z"/>
			<path style="opacity:0.4;fill:#FAFAFA;" d="M133.085,193.78c0.067,0.959,0.899,1.736,1.858,1.736
				c0.959,0,1.682-0.777,1.615-1.736c-0.067-0.959-0.899-1.737-1.858-1.737C133.741,192.043,133.018,192.821,133.085,193.78z"/>
		</g>
		<g>
			<path style="fill:#407BFF;" d="M142.043,195.516h19.214c0.955,0,1.682-0.781,1.615-1.736l0,0
				c-0.067-0.955-0.903-1.737-1.858-1.737H141.8c-0.955,0-1.682,0.781-1.615,1.737l0,0
				C140.252,194.735,141.088,195.516,142.043,195.516z"/>
			<path style="opacity:0.4;fill:#FAFAFA;" d="M142.043,195.516h19.214c0.955,0,1.682-0.781,1.615-1.736l0,0
				c-0.067-0.955-0.903-1.737-1.858-1.737H141.8c-0.955,0-1.682,0.781-1.615,1.737l0,0
				C140.252,194.735,141.088,195.516,142.043,195.516z"/>
		</g>
	</g>
</g>
</svg>
